<svg width="360" height="206" viewBox="0 0 360 206" fill="none" xmlns="http://www.w3.org/2000/svg">
<path d="M428.93 -9.91455C428.93 -11.5381 428.93 -13.2358 428.93 -14.9997C428.93 -23.284 422.214 -29.9997 413.93 -29.9989C405.057 -29.9981 395.8 -29.9975 389.791 -30H1.00001C-7.28426 -30 -14 -23.2843 -14 -15V83.479C-14 89.668 -10.2231 95.2121 -4.4558 97.4577C87.1401 133.121 259.758 201.02 351.825 205.623C378.221 206.937 400.117 204.708 418.147 200.587C424.633 199.105 428.998 193.188 428.996 186.535L428.93 -9.91455Z" fill="url(#paint0_linear_360_1655)"/>
<defs>
<linearGradient id="paint0_linear_360_1655" x1="-14" y1="-30" x2="165.313" y2="335.399" gradientUnits="userSpaceOnUse">
<stop stop-color="#F7F7F7"/>
<stop offset="1" stop-color="#F4F3F3" stop-opacity="0.78"/>
</linearGradient>
</defs>
</svg>
