<svg width="192" height="211" viewBox="0 0 192 211" fill="none" xmlns="http://www.w3.org/2000/svg">
<g style="mix-blend-mode:multiply">
<path d="M3.57253 188.974C11.1454 197.578 60.9325 210.935 95.957 210.935C130.982 210.935 176.193 195.957 181.467 185.889C186.786 175.73 151.131 154.288 141.597 149.58C132.063 144.873 52.0299 144.738 38.5069 149.986C28.0491 154.062 -3.72988 180.686 3.59507 188.974H3.57253Z" fill="white"/>
</g>
<g style="mix-blend-mode:multiply">
<path d="M5.46538 188.277C12.2269 196.386 61.9464 209.494 95.9341 209.494C129.922 209.494 175.089 195.192 179.799 185.664C184.532 176.047 150.296 155.46 141.056 150.888C131.815 146.338 53.3142 146.315 40.3096 151.248C30.1448 155.1 -1.09326 180.394 5.46538 188.277Z" fill="#FBFAFB"/>
</g>
<g style="mix-blend-mode:multiply">
<path d="M7.38127 187.601C13.3088 195.236 63.0058 208.052 95.9568 208.052C128.908 208.052 174.052 194.426 178.176 185.416C182.346 176.339 149.508 156.608 140.538 152.193C131.567 147.779 54.6441 147.891 42.1579 152.509C32.2636 156.158 1.56639 180.1 7.38127 187.578V187.601Z" fill="#F6F6F6"/>
</g>
<g style="mix-blend-mode:multiply">
<path d="M9.27454 186.925C14.3682 194.065 64.0201 206.633 95.9343 206.633C127.849 206.633 172.97 193.682 176.531 185.213C180.115 176.677 148.696 157.802 139.997 153.522C131.319 149.243 55.9288 149.491 43.961 153.793C34.3597 157.216 4.20343 179.83 9.27454 186.925Z" fill="#F2F1F2"/>
</g>
<g style="mix-blend-mode:multiply">
<path d="M11.1902 186.227C15.4725 192.872 65.0793 205.192 95.9342 205.192C126.789 205.192 171.888 192.917 174.886 184.966C177.906 176.97 147.885 158.974 139.478 154.829C131.071 150.685 57.2585 151.068 45.809 155.055C36.4782 158.275 6.88538 179.538 11.1902 186.227Z" fill="#EDECED"/>
</g>
<g style="mix-blend-mode:multiply">
<path d="M13.0835 185.551C16.5544 191.7 66.0936 203.773 95.9343 203.773C125.775 203.773 170.829 192.173 173.241 184.763C175.675 177.307 147.074 160.167 138.937 156.158C130.824 152.148 58.5658 152.666 47.6122 156.338C38.5518 159.356 9.52244 179.267 13.0835 185.551Z" fill="#E9E8E9"/>
</g>
<g style="mix-blend-mode:multiply">
<path d="M14.977 184.853C17.6365 190.507 67.1081 202.309 95.912 202.309C124.716 202.309 169.725 191.408 171.573 184.493C173.444 177.556 146.217 161.294 138.397 157.442C130.553 153.568 59.8507 154.221 49.438 157.577C40.6706 160.37 12.1822 178.93 14.977 184.853Z" fill="#E4E3E4"/>
</g>
<g style="mix-blend-mode:multiply">
<path d="M16.8925 184.177C18.7407 189.313 68.1671 200.89 95.9343 200.89C123.702 200.89 168.688 190.664 169.973 184.29C171.257 177.893 145.451 162.487 137.901 158.771C130.35 155.054 61.2028 155.82 51.286 158.861C42.789 161.451 14.8866 178.637 16.8925 184.177Z" fill="#E0DEE0"/>
</g>
<g style="mix-blend-mode:multiply">
<path d="M18.7856 183.479C19.8675 188.096 69.1813 199.448 95.9117 199.448C122.642 199.448 167.606 189.898 168.305 184.042C169.026 178.186 144.617 163.658 137.337 160.054C130.057 156.473 62.4648 157.374 53.0889 160.099C44.885 162.464 17.5686 178.299 18.7856 183.456V183.479Z" fill="#DBDADB"/>
</g>
<g style="mix-blend-mode:multiply">
<path d="M20.679 182.803C20.9945 186.902 70.2181 198.029 95.8893 198.029C121.56 198.029 166.502 189.155 166.637 183.839C166.772 178.524 143.783 164.852 136.796 161.406C129.809 157.959 63.7722 158.996 54.8921 161.406C46.9586 163.568 20.2733 178.028 20.6564 182.826L20.679 182.803Z" fill="#D7D5D7"/>
</g>
<path style="mix-blend-mode:multiply" d="M5.73608 185.889C5.73608 188.367 16.7573 190.372 30.3254 190.372C43.8934 190.372 54.9146 188.367 54.9146 185.889C54.9146 183.412 43.8934 181.407 30.3254 181.407C16.7573 181.407 5.73608 183.412 5.73608 185.889Z" fill="url(#paint0_radial_170_1242)"/>
<path style="mix-blend-mode:multiply" d="M132.266 185.889C132.266 188.367 143.287 190.372 156.855 190.372C170.423 190.372 181.445 188.367 181.445 185.889C181.445 183.412 170.423 181.407 156.855 181.407C143.287 181.407 132.266 183.412 132.266 185.889Z" fill="url(#paint1_radial_170_1242)"/>
<path style="mix-blend-mode:multiply" d="M71.3 198.029C71.3 200.507 82.3213 202.511 95.8893 202.511C109.457 202.511 120.479 200.507 120.479 198.029C120.479 195.552 109.457 193.547 95.8893 193.547C82.3213 193.547 71.3 195.552 71.3 198.029Z" fill="url(#paint2_radial_170_1242)"/>
<path d="M95.6048 39.0139H95.4467H12.7368V76.8279L95.4241 77.2242H95.5822L178.315 76.8279V39.0139H95.6048Z" fill="#DB9D33"/>
<path d="M110.652 165.55H107.541C106.844 165.55 106.279 166.115 106.279 166.811V185.326C106.279 186.023 106.844 186.587 107.541 186.587H110.652C111.349 186.587 111.914 186.023 111.914 185.326V166.811C111.914 166.115 111.349 165.55 110.652 165.55Z" fill="url(#paint3_linear_170_1242)"/>
<path d="M143.986 176.992H167.832C168.102 176.992 168.305 176.722 168.328 176.384L170.243 152.239H143.468V176.317C143.468 176.677 143.693 176.992 143.986 176.992Z" fill="#191C20"/>
<path d="M18.9436 176.992H42.7891C43.0596 176.992 43.3075 176.7 43.3075 176.317V152.239H16.532L18.4477 176.384C18.4703 176.722 18.6957 176.992 18.9436 176.992Z" fill="#191C20"/>
<path d="M147.097 148.049H166.637V182.691C166.637 184.47 165.195 185.889 163.437 185.889H150.32C148.539 185.889 147.119 184.448 147.119 182.691V148.049H147.097Z" fill="url(#paint4_linear_170_1242)"/>
<path d="M20.5663 148.049H40.107V182.691C40.107 184.47 38.6645 185.889 36.9065 185.889H23.7893C22.0087 185.889 20.5888 184.448 20.5888 182.691V148.049H20.5663Z" fill="url(#paint5_linear_170_1242)"/>
<path d="M3.42594 75.7257H9.39859C11.134 75.7257 12.5314 74.0364 12.5314 71.9642V45.2961C12.5314 43.0437 10.9988 41.2193 9.12813 41.2193H3.35833C2.65964 41.2193 2.05111 41.7373 1.82572 42.5482C1.19465 44.8681 0.00012207 50.1387 0.00012207 57.6841C0.00012207 65.2296 1.23973 71.5588 1.8708 74.3067C2.07365 75.1626 2.70472 75.7482 3.42594 75.7482V75.7257Z" fill="#282B2D"/>
<path d="M3.4712 75.5229H9.241C10.9765 75.5229 12.3738 73.8337 12.3738 71.7615V45.4988C12.3738 43.2464 10.8638 41.422 8.97054 41.422H3.38105C2.68236 41.422 2.07382 41.94 1.87098 42.7283C1.23991 45.0258 0.0904541 50.2738 0.0904541 57.7066C0.0904541 65.1395 1.30752 71.3786 1.91606 74.0814C2.09636 74.9148 2.72743 75.5004 3.44866 75.5004L3.4712 75.5229Z" fill="#26292B"/>
<path d="M3.494 75.3201H9.03843C10.7739 75.3201 12.1938 73.6309 12.1938 71.5362V45.6789C12.1938 43.4265 10.6837 41.6246 8.81304 41.6246H3.42639C2.75024 41.6246 2.14171 42.1426 1.93886 42.931C1.33033 45.2284 0.225952 50.4314 0.225952 57.7741C0.225952 65.1169 1.39794 71.2433 2.00648 73.9237C2.18678 74.7571 2.81786 75.3201 3.51654 75.3201H3.494Z" fill="#24282A"/>
<path d="M3.51636 75.1168H8.85793C10.5934 75.1168 12.0133 73.4275 12.0133 71.3328V45.881C12.0133 43.6511 10.5032 41.8267 8.63255 41.8267H3.44874C2.77259 41.8267 2.16406 42.3447 1.98375 43.1331C1.39776 45.408 0.315918 50.5884 0.315918 57.8186C0.315918 65.0487 1.46537 71.1076 2.02883 73.7429C2.20913 74.5537 2.81767 75.1393 3.51636 75.1393V75.1168Z" fill="#232628"/>
<path d="M3.53895 74.9142H8.67768C10.4131 74.9142 11.833 73.225 11.833 71.1302V46.0838C11.833 43.854 10.323 42.0521 8.47484 42.0521H3.49387C2.81773 42.0521 2.23173 42.5701 2.02889 43.3359C1.46543 45.6108 0.406128 50.7462 0.406128 57.8637C0.406128 64.9813 1.5105 70.9501 2.07396 73.5628C2.25427 74.3737 2.8628 74.9368 3.56149 74.9368L3.53895 74.9142Z" fill="#212426"/>
<path d="M3.58421 74.7118H8.49756C10.2555 74.7118 11.6755 73 11.6755 70.9053V46.2643C11.6755 44.0345 10.1654 42.2326 8.31725 42.2326H3.51659C2.86298 42.2326 2.27699 42.7506 2.07414 43.5164C1.51068 45.7688 0.49646 50.8817 0.49646 57.8866C0.49646 64.8915 1.5783 70.7702 2.11922 73.3379C2.29952 74.1488 2.88552 74.6893 3.58421 74.6893V74.7118Z" fill="#1F2224"/>
<path d="M3.60636 74.4866H8.31686C10.0748 74.4866 11.4948 72.7748 11.4948 70.68V46.4445C11.4948 44.2371 10.0072 42.4352 8.15909 42.4352H3.56128C2.90767 42.4352 2.32168 42.9533 2.14137 43.6966C1.60045 45.949 0.608765 51.0168 0.608765 57.9091C0.608765 64.8013 1.64553 70.6125 2.16391 73.1351C2.32168 73.9235 2.93021 74.4866 3.60636 74.4866Z" fill="#1D2123"/>
<path d="M3.62908 74.2838H8.13673C9.89472 74.2838 11.3146 72.572 11.3146 70.4548V46.6471C11.3146 44.4398 9.82711 42.6379 7.97897 42.6379H3.584C2.93039 42.6379 2.36693 43.156 2.18662 43.8992C1.66824 46.1291 0.699097 51.1969 0.699097 57.9541C0.699097 64.7112 1.71332 70.4548 2.20916 72.9549C2.36693 73.7432 2.95293 74.2838 3.62908 74.2838Z" fill="#1B1F21"/>
<path d="M3.65184 74.0806H7.93411C9.6921 74.0806 11.1346 72.3688 11.1346 70.2516V46.8494C11.1346 44.642 9.64702 42.8627 7.79888 42.8627H3.6293C2.97569 42.8627 2.41223 43.3807 2.25446 44.124C1.75862 46.3538 0.812012 51.3767 0.812012 58.0212C0.812012 64.6657 1.78116 70.3191 2.277 72.7742C2.43477 73.54 2.99823 74.0806 3.67438 74.0806H3.65184Z" fill="#1A1D1F"/>
<path d="M3.69673 73.8785H7.77616C9.53415 73.8785 10.9766 72.1666 10.9766 70.0494V47.0527C10.9766 44.8453 9.48907 43.0659 7.66347 43.0659H3.65165C3.02058 43.0659 2.45712 43.584 2.29935 44.3048C1.80351 46.5121 0.901978 51.5124 0.901978 58.0442C0.901978 64.5761 1.82605 70.162 2.32189 72.5721C2.47966 73.3379 3.04312 73.8785 3.69673 73.8785Z" fill="#181B1D"/>
<path d="M3.71937 73.6757H7.59595C9.37648 73.6757 10.7964 71.9639 10.7964 69.8241V47.2328C10.7964 45.048 9.30886 43.2686 7.48326 43.2686H3.67429C3.04322 43.2686 2.5023 43.7866 2.34453 44.5074C1.87123 46.7147 1.01477 51.6699 1.01477 58.0892C1.01477 64.5085 1.9163 70.0043 2.36707 72.3918C2.5023 73.1576 3.06576 73.6757 3.71937 73.6757Z" fill="#161A1C"/>
<path d="M3.74196 73.4729H7.39317C9.17369 73.4729 10.6161 71.7386 10.6161 69.6213V47.4354C10.6161 45.2506 9.15115 43.4713 7.32555 43.4713H3.71942C3.08835 43.4713 2.54743 43.9668 2.38966 44.7101C1.9389 46.8949 1.10498 51.8276 1.10498 58.1342C1.10498 64.4409 1.96144 69.8466 2.4122 72.1891C2.54743 72.9323 3.11089 73.4504 3.74196 73.4504V73.4729Z" fill="#14181A"/>
<path d="M3.76431 73.2703H7.21267C8.9932 73.2703 10.4356 71.536 10.4356 69.4188V47.6383C10.4356 45.4535 8.97066 43.6966 7.14506 43.6966H3.74177C3.13324 43.6966 2.59232 44.1921 2.43455 44.9129C2.00633 47.0977 1.19495 51.9854 1.19495 58.1794C1.19495 64.3734 2.02886 69.7116 2.45709 72.009C2.59232 72.7523 3.13324 73.2703 3.76431 73.2703Z" fill="#121618"/>
<path d="M3.80937 73.0674H7.05488C8.83541 73.0674 10.2779 71.333 10.2779 69.1933V47.8182C10.2779 45.6559 8.81287 43.8766 7.00981 43.8766H3.78683C3.1783 43.8766 2.63738 44.3721 2.50215 45.0928C2.09646 47.2551 1.30762 52.1202 1.30762 58.2017C1.30762 64.2831 2.09646 69.5311 2.52469 71.806C2.65992 72.5268 3.20083 73.0448 3.80937 73.0448V73.0674Z" fill="#101416"/>
<path d="M3.83172 72.8421H6.85185C8.63238 72.8421 10.0748 71.1077 10.0748 68.968V47.9984C10.0748 45.8361 8.60984 44.0792 6.80678 44.0792H3.80918C3.20065 44.0792 2.68227 44.5747 2.54704 45.2955C2.14135 47.4578 1.39758 52.2779 1.39758 58.2467C1.39758 64.2155 2.16389 69.3734 2.54704 71.6258C2.68227 72.3465 3.20065 72.8646 3.80918 72.8646L3.83172 72.8421Z" fill="#0F1215"/>
<path d="M3.85424 72.6393H6.67152C8.45205 72.6393 9.91704 70.905 9.91704 68.7427V48.1785C9.91704 46.0162 8.45205 44.2819 6.64899 44.2819H3.85424C3.2457 44.2819 2.72732 44.7774 2.61463 45.4757C2.23148 47.6154 1.51025 52.413 1.51025 58.2692C1.51025 64.1253 2.23148 69.2157 2.61463 71.4005C2.72732 72.0987 3.2457 72.6168 3.85424 72.6168V72.6393Z" fill="#0D1113"/>
<path d="M3.89949 72.4365H6.51394C8.317 72.4365 9.75945 70.7022 9.75945 68.5399V48.3811C9.75945 46.2189 8.29446 44.4845 6.51394 44.4845H3.87695C3.29096 44.4845 2.77258 44.9801 2.65989 45.6783C2.29927 47.818 1.60059 52.5931 1.60059 58.3141C1.60059 64.0352 2.29927 69.058 2.65989 71.2202C2.77258 71.9185 3.29096 72.414 3.87695 72.414L3.89949 72.4365Z" fill="#0B0F11"/>
<g style="mix-blend-mode:soft-light" opacity="0.06">
<path d="M6.4239 55.2061C6.22105 54.0124 8.90311 72.7747 11.3598 72.0539C12.7346 71.6485 11.7204 44.0118 10.6836 42.9082C9.62434 41.8045 5.43221 41.1738 4.53068 42.4577C3.62915 43.7416 6.67182 56.8053 6.4239 55.2061Z" fill="white"/>
</g>
<g style="mix-blend-mode:soft-light" opacity="0.12">
<path d="M6.53653 54.5303C6.35622 53.4491 8.85797 70.9951 11.202 70.3194C12.5092 69.9365 11.6076 44.1018 10.616 43.0431C9.62427 41.962 5.70261 41.3539 4.82362 42.5476C3.94462 43.7414 6.76191 55.9718 6.51399 54.5303H6.53653Z" fill="white"/>
</g>
<g style="mix-blend-mode:soft-light" opacity="0.19">
<path d="M6.64915 53.8551C6.46885 52.8866 8.83537 69.2163 11.0667 68.6081C12.3288 68.2478 11.4949 44.2374 10.5934 43.2013C9.69182 42.1652 5.99554 41.5571 5.13909 42.6608C4.28263 43.787 6.89707 55.1615 6.64915 53.8551Z" fill="white"/>
</g>
<g style="mix-blend-mode:soft-light" opacity="0.25">
<path d="M6.76178 53.1786C6.60401 52.3452 8.81276 67.4361 10.9088 66.8731C12.1034 66.5577 11.3821 44.3268 10.5482 43.3357C9.71429 42.3221 6.26594 41.7365 5.45456 42.7501C4.64318 43.7862 7.0097 54.3273 6.78432 53.1786H6.76178Z" fill="white"/>
</g>
<g style="mix-blend-mode:soft-light" opacity="0.31">
<path d="M6.85221 52.5032C6.71698 51.7824 8.76797 65.657 10.7288 65.139C11.8783 64.8462 11.2472 44.4397 10.4583 43.4711C9.69204 42.5026 6.51414 41.8945 5.70276 42.8405C4.91392 43.7865 7.05505 53.4942 6.85221 52.4806V52.5032Z" fill="white"/>
</g>
<g style="mix-blend-mode:soft-light" opacity="0.38">
<path d="M6.96467 51.8275C6.82944 51.2193 8.7452 63.9002 10.5708 63.4272C11.6526 63.1569 11.1117 44.5748 10.413 43.6288C9.71435 42.6828 6.78437 42.0972 6.01807 42.9531C5.25176 43.809 7.16752 52.6834 6.96467 51.8275Z" fill="white"/>
</g>
<g style="mix-blend-mode:soft-light" opacity="0.44">
<path d="M7.07756 51.174C6.96487 50.701 8.72285 62.1431 10.4132 61.7151C11.4274 61.4674 10.9992 44.6872 10.3681 43.7862C9.73708 42.8853 7.05502 42.2997 6.31126 43.0655C5.56749 43.8313 7.25786 51.8722 7.07756 51.174Z" fill="white"/>
</g>
<g style="mix-blend-mode:soft-light" opacity="0.5">
<path d="M7.19022 50.4985C7.10007 50.1381 8.70029 60.3639 10.2554 60.0035C11.2246 59.7783 10.864 44.8225 10.323 43.9441C9.75959 43.0656 7.34799 42.5025 6.62677 43.1782C5.90554 43.8765 7.37053 51.0616 7.21276 50.4985H7.19022Z" fill="white"/>
</g>
<g style="mix-blend-mode:soft-light" opacity="0.56">
<path d="M7.30302 49.8226C7.21286 49.5749 8.67785 58.5844 10.0978 58.2691C10.9993 58.0663 10.7514 44.9125 10.2555 44.0791C9.75969 43.2457 7.59601 42.6826 6.89733 43.2682C6.22118 43.8764 7.43825 50.2281 7.30302 49.8226Z" fill="white"/>
</g>
<g style="mix-blend-mode:soft-light" opacity="0.62">
<path d="M7.41544 49.1471C7.34782 49.0345 8.63251 56.8277 9.93973 56.5574C10.7962 56.3772 10.6384 45.0478 10.2102 44.2369C9.78196 43.426 7.8662 42.8855 7.21259 43.4035C6.55898 43.9216 7.55067 49.4174 7.41544 49.1696V49.1471Z" fill="white"/>
</g>
<g style="mix-blend-mode:soft-light" opacity="0.69">
<path d="M7.52835 48.471C7.52835 48.471 8.61019 55.0479 9.78218 54.8227C10.571 54.665 10.5034 45.1375 10.1653 44.3717C9.80472 43.5833 8.13688 43.0428 7.50581 43.4932C6.87474 43.9212 7.6185 48.6061 7.52835 48.4935V48.471Z" fill="white"/>
</g>
<g style="mix-blend-mode:soft-light" opacity="0.75">
<path d="M7.6408 47.7955C7.59572 47.9306 8.5874 53.2688 9.62417 53.1111C10.3454 52.9985 10.3905 45.2728 10.0975 44.5296C9.82701 43.7863 8.4071 43.2457 7.79856 43.6061C7.19003 43.9439 7.70841 47.7955 7.6408 47.818V47.7955Z" fill="white"/>
</g>
<g style="mix-blend-mode:soft-light" opacity="0.81">
<path d="M7.73092 47.1201C7.66331 47.3679 8.5423 51.5122 9.44383 51.3771C10.12 51.287 10.2327 45.3633 10.0298 44.665C9.82698 43.9443 8.65499 43.4262 8.06899 43.6965C7.483 43.9443 7.75346 46.9624 7.73092 47.1426V47.1201Z" fill="white"/>
</g>
<g style="mix-blend-mode:soft-light" opacity="0.88">
<path d="M7.8438 46.4444C7.79873 46.8048 8.51995 49.7329 9.28626 49.6428C9.89479 49.5752 10.1202 45.4759 9.98494 44.8002C9.84971 44.1244 8.92564 43.6064 8.38472 43.7866C7.82127 43.9668 7.88888 46.1291 7.8438 46.4444Z" fill="white"/>
</g>
<g style="mix-blend-mode:soft-light" opacity="0.94">
<path d="M7.95638 45.7686C7.95638 46.2641 8.4973 47.976 9.12837 47.9309C9.69183 47.8859 10.0074 45.5884 9.91721 44.9578C9.84959 44.3046 9.19598 43.8091 8.65506 43.8991C8.13668 43.9892 7.95638 45.3181 7.93384 45.7911L7.95638 45.7686Z" fill="white"/>
</g>
<g style="mix-blend-mode:soft-light">
<path d="M8.06897 45.0933C8.06897 45.7014 8.47466 46.1969 8.9705 46.1969C9.46634 46.1969 9.87203 45.7014 9.87203 45.0933C9.87203 44.4851 9.46634 43.9896 8.9705 43.9896C8.47466 43.9896 8.06897 44.4851 8.06897 45.0933Z" fill="white"/>
</g>
<path d="M187.669 75.7257H181.538C179.758 75.7257 178.315 74.0364 178.315 71.9642V45.2961C178.315 43.0437 179.893 41.2193 181.809 41.2193H187.759C188.48 41.2193 189.111 41.7373 189.337 42.5482C189.99 44.8681 191.207 50.1387 191.207 57.6841C191.207 65.2296 189.923 71.5588 189.292 74.3067C189.089 75.1626 188.435 75.7482 187.691 75.7482L187.669 75.7257Z" fill="#282B2D"/>
<path d="M187.646 75.5229H181.718C179.938 75.5229 178.495 73.8337 178.495 71.7615V45.4988C178.495 43.2464 180.051 41.422 181.989 41.422H187.736C188.435 41.422 189.066 41.94 189.291 42.7283C189.922 45.0258 191.117 50.2738 191.117 57.7066C191.117 65.1395 189.877 71.3786 189.246 74.0814C189.043 74.9148 188.412 75.5004 187.668 75.5004L187.646 75.5229Z" fill="#26292B"/>
<path d="M187.623 75.3201H181.921C180.14 75.3201 178.698 73.6309 178.698 71.5362V45.6789C178.698 43.4265 180.253 41.6246 182.169 41.6246H187.713C188.412 41.6246 189.043 42.1426 189.246 42.931C189.877 45.2284 191.004 50.4314 191.004 57.7741C191.004 65.1169 189.787 71.2433 189.178 73.9237C188.998 74.7571 188.344 75.3201 187.623 75.3201Z" fill="#24282A"/>
<path d="M187.579 75.1168H182.102C180.321 75.1168 178.856 73.4275 178.856 71.3328V45.881C178.856 43.6511 180.412 41.8267 182.327 41.8267H187.646C188.345 41.8267 188.954 42.3447 189.156 43.1331C189.765 45.408 190.869 50.5884 190.869 57.8186C190.869 65.0487 189.697 71.1076 189.111 73.7429C188.931 74.5537 188.3 75.1393 187.579 75.1393V75.1168Z" fill="#232628"/>
<path d="M187.556 74.9142H182.282C180.479 74.9142 179.036 73.225 179.036 71.1302V46.0838C179.036 43.854 180.592 42.0521 182.485 42.0521H187.601C188.3 42.0521 188.886 42.5701 189.088 43.3359C189.674 45.6108 190.756 50.7462 190.756 57.8637C190.756 64.9813 189.629 70.9501 189.043 73.5628C188.863 74.3737 188.232 74.9368 187.533 74.9368L187.556 74.9142Z" fill="#212426"/>
<path d="M187.533 74.7118H182.485C180.681 74.7118 179.239 73 179.239 70.9053V46.2643C179.239 44.0345 180.772 42.2326 182.687 42.2326H187.601C188.277 42.2326 188.885 42.7506 189.066 43.5164C189.629 45.7688 190.688 50.8817 190.688 57.8866C190.688 64.8915 189.584 70.7702 189.021 73.3379C188.84 74.1488 188.232 74.6893 187.533 74.6893V74.7118Z" fill="#1F2224"/>
<path d="M187.489 74.4866H182.643C180.84 74.4866 179.375 72.7748 179.375 70.68V46.4445C179.375 44.2371 180.907 42.4352 182.823 42.4352H187.534C188.21 42.4352 188.796 42.9533 188.999 43.6966C189.562 45.949 190.576 51.0168 190.576 57.9091C190.576 64.8013 189.517 70.6125 188.976 73.1351C188.796 73.9235 188.21 74.4866 187.511 74.4866H187.489Z" fill="#1D2123"/>
<path d="M187.466 74.2838H182.845C181.042 74.2838 179.577 72.572 179.577 70.4548V46.6471C179.577 44.4398 181.11 42.6379 183.003 42.6379H187.511C188.187 42.6379 188.773 43.156 188.953 43.8992C189.494 46.1291 190.486 51.1969 190.486 57.9541C190.486 64.7112 189.449 70.4548 188.931 72.9549C188.773 73.7432 188.164 74.2838 187.488 74.2838H187.466Z" fill="#1B1F21"/>
<path d="M187.443 74.0806H183.048C181.245 74.0806 179.78 72.3688 179.78 70.2516V46.8494C179.78 44.642 181.313 42.8627 183.206 42.8627H187.511C188.164 42.8627 188.75 43.3807 188.931 44.124C189.449 46.3538 190.396 51.3767 190.396 58.0212C190.396 64.6657 189.404 70.3191 188.886 72.7742C188.728 73.54 188.142 74.0806 187.443 74.0806Z" fill="#1A1D1F"/>
<path d="M187.421 73.8785H183.228C181.425 73.8785 179.938 72.1666 179.938 70.0494V47.0527C179.938 44.8453 181.47 43.0659 183.341 43.0659H187.443C188.097 43.0659 188.66 43.584 188.841 44.3048C189.336 46.5121 190.26 51.5124 190.26 58.0442C190.26 64.5761 189.291 70.162 188.818 72.5721C188.66 73.3379 188.074 73.8785 187.398 73.8785H187.421Z" fill="#181B1D"/>
<path d="M187.376 73.6757H183.409C181.583 73.6757 180.118 71.9639 180.118 69.8241V47.2328C180.118 45.048 181.628 43.2686 183.522 43.2686H187.421C188.074 43.2686 188.638 43.7866 188.796 44.5074C189.269 46.7147 190.17 51.6699 190.17 58.0892C190.17 64.5085 189.246 70.0043 188.773 72.3918C188.615 73.1576 188.052 73.6757 187.376 73.6757Z" fill="#161A1C"/>
<path d="M187.353 73.4729H183.589C181.763 73.4729 180.298 71.7386 180.298 69.6213V47.4354C180.298 45.2506 181.808 43.4713 183.679 43.4713H187.375C188.006 43.4713 188.57 43.9668 188.728 44.7101C189.201 46.8949 190.057 51.8276 190.057 58.1342C190.057 64.4409 189.178 69.8466 188.705 72.1891C188.57 72.9323 187.984 73.4504 187.33 73.4504L187.353 73.4729Z" fill="#14181A"/>
<path d="M187.33 73.2703H183.791C181.966 73.2703 180.478 71.536 180.478 69.4188V47.6383C180.478 45.4535 181.988 43.6966 183.859 43.6966H187.352C187.984 43.6966 188.547 44.1921 188.682 44.9129C189.133 47.0977 189.967 51.9854 189.967 58.1794C189.967 64.3734 189.11 69.7116 188.682 72.009C188.547 72.7523 187.984 73.2703 187.33 73.2703Z" fill="#121618"/>
<path d="M187.286 73.0674H183.95C182.124 73.0674 180.637 71.333 180.637 69.1933V47.8182C180.637 45.6559 182.147 43.8766 183.995 43.8766H187.286C187.917 43.8766 188.458 44.3721 188.593 45.0928C189.021 47.2551 189.832 52.1202 189.832 58.2017C189.832 64.2831 189.021 69.5311 188.593 71.806C188.458 72.5268 187.917 73.0448 187.263 73.0448L187.286 73.0674Z" fill="#101416"/>
<path d="M187.263 72.8421H184.152C182.327 72.8421 180.839 71.1077 180.839 68.968V47.9984C180.839 45.8361 182.349 44.0792 184.198 44.0792H187.285C187.916 44.0792 188.435 44.5747 188.593 45.2955C188.998 47.4578 189.765 52.2779 189.765 58.2467C189.765 64.2155 188.976 69.3734 188.57 71.6258C188.435 72.3465 187.894 72.8646 187.263 72.8646V72.8421Z" fill="#0F1215"/>
<path d="M187.24 72.6393H184.355C182.507 72.6393 181.019 70.905 181.019 68.7427V48.1785C181.019 46.0162 182.507 44.2819 184.355 44.2819H187.24C187.848 44.2819 188.389 44.7774 188.525 45.4757C188.908 47.6154 189.651 52.413 189.651 58.2692C189.651 64.1253 188.908 69.2157 188.525 71.4005C188.389 72.0987 187.871 72.6168 187.24 72.6168V72.6393Z" fill="#0D1113"/>
<path d="M187.218 72.4365H184.536C182.687 72.4365 181.2 70.7022 181.2 68.5399V48.3811C181.2 46.2189 182.687 44.4845 184.536 44.4845H187.218C187.826 44.4845 188.344 44.9801 188.48 45.6783C188.863 47.818 189.562 52.5931 189.562 58.3141C189.562 64.0352 188.863 69.058 188.48 71.2202C188.367 71.9185 187.826 72.414 187.218 72.414V72.4365Z" fill="#0B0F11"/>
<g style="mix-blend-mode:soft-light" opacity="0.06">
<path d="M184.602 55.2061C184.805 54.0124 182.056 72.7747 179.531 72.0539C178.111 71.6485 179.148 44.0118 180.23 42.9082C181.312 41.8045 185.617 41.1738 186.541 42.4577C187.465 43.7416 184.332 56.8053 184.602 55.2061Z" fill="white"/>
</g>
<g style="mix-blend-mode:soft-light" opacity="0.12">
<path d="M184.49 54.5303C184.693 53.4491 182.101 70.9951 179.69 70.3194C178.338 69.9365 179.284 44.1018 180.276 43.0431C181.29 41.962 185.324 41.3539 186.226 42.5476C187.127 43.7414 184.22 55.9718 184.49 54.5303Z" fill="white"/>
</g>
<g style="mix-blend-mode:soft-light" opacity="0.19">
<path d="M184.377 53.8551C184.558 52.8866 182.123 69.2163 179.847 68.6081C178.562 68.2478 179.396 44.2374 180.343 43.2013C181.29 42.1652 185.076 41.5571 185.932 42.6608C186.811 43.787 184.129 55.1615 184.377 53.8551Z" fill="white"/>
</g>
<g style="mix-blend-mode:soft-light" opacity="0.25">
<path d="M184.265 53.1786C184.423 52.3452 182.146 67.4361 180.005 66.8731C178.765 66.5577 179.509 44.3268 180.388 43.3357C181.245 42.3221 184.783 41.7365 185.617 42.7501C186.451 43.7862 184.039 54.3273 184.265 53.1786Z" fill="white"/>
</g>
<g style="mix-blend-mode:soft-light" opacity="0.31">
<path d="M184.153 52.5032C184.311 51.7824 182.192 65.657 180.186 65.139C179.014 64.8462 179.668 44.4397 180.457 43.4711C181.245 42.5026 184.513 41.8945 185.325 42.8405C186.136 43.7865 183.95 53.4942 184.153 52.4806V52.5032Z" fill="white"/>
</g>
<g style="mix-blend-mode:soft-light" opacity="0.38">
<path d="M184.04 51.8275C184.175 51.2193 182.214 63.9002 180.343 63.4272C179.239 63.1569 179.78 44.5748 180.501 43.6288C181.222 42.6828 184.22 42.0972 185.009 42.9531C185.798 43.809 183.837 52.6834 184.017 51.8275H184.04Z" fill="white"/>
</g>
<g style="mix-blend-mode:soft-light" opacity="0.44">
<path d="M183.927 51.174C184.039 50.701 182.236 62.1431 180.501 61.7151C179.442 61.4674 179.915 44.6872 180.546 43.7862C181.2 42.8853 183.949 42.2997 184.716 43.0655C185.482 43.8313 183.746 51.8722 183.927 51.174Z" fill="white"/>
</g>
<g style="mix-blend-mode:soft-light" opacity="0.5">
<path d="M183.814 50.4985C183.927 50.1381 182.282 60.3639 180.681 60.0035C179.69 59.7783 180.05 44.8225 180.614 43.9441C181.2 43.0656 183.679 42.5025 184.423 43.1782C185.166 43.8765 183.656 51.0616 183.814 50.4985Z" fill="white"/>
</g>
<g style="mix-blend-mode:soft-light" opacity="0.56">
<path d="M183.702 49.8226C183.792 49.5749 182.304 58.5844 180.839 58.2691C179.915 58.0663 180.163 44.9125 180.682 44.0791C181.177 43.2457 183.409 42.6826 184.13 43.2682C184.829 43.8764 183.566 50.2281 183.724 49.8226H183.702Z" fill="white"/>
</g>
<g style="mix-blend-mode:soft-light" opacity="0.62">
<path d="M183.589 49.1471C183.657 49.0345 182.327 56.8277 180.997 56.5574C180.118 56.3772 180.299 45.0478 180.727 44.2369C181.155 43.426 183.139 42.8855 183.815 43.4035C184.491 43.9216 183.454 49.4174 183.589 49.1696V49.1471Z" fill="white"/>
</g>
<g style="mix-blend-mode:soft-light" opacity="0.69">
<path d="M183.476 48.471C183.476 48.471 182.349 55.0479 181.155 54.8227C180.343 54.665 180.411 45.1375 180.772 44.3717C181.132 43.5833 182.845 43.0428 183.499 43.4932C184.152 43.9212 183.386 48.6061 183.476 48.4935V48.471Z" fill="white"/>
</g>
<g style="mix-blend-mode:soft-light" opacity="0.75">
<path d="M183.363 47.7955C183.408 47.9306 182.394 53.2688 181.335 53.1111C180.591 52.9985 180.546 45.2728 180.839 44.5296C181.132 43.7863 182.575 43.2457 183.206 43.6061C183.837 43.9439 183.296 47.7955 183.363 47.818V47.7955Z" fill="white"/>
</g>
<g style="mix-blend-mode:soft-light" opacity="0.81">
<path d="M183.25 47.1201C183.318 47.3679 182.416 51.5122 181.492 51.3771C180.794 51.287 180.681 45.3633 180.884 44.665C181.109 43.9443 182.304 43.4262 182.89 43.6965C183.476 43.9443 183.205 46.9624 183.25 47.1426V47.1201Z" fill="white"/>
</g>
<g style="mix-blend-mode:soft-light" opacity="0.88">
<path d="M183.138 46.4444C183.183 46.8048 182.439 49.7329 181.65 49.6428C181.019 49.5752 180.794 45.4759 180.929 44.8002C181.064 44.1244 182.011 43.6064 182.575 43.7866C183.138 43.9668 183.093 46.1291 183.115 46.4444H183.138Z" fill="white"/>
</g>
<g style="mix-blend-mode:soft-light" opacity="0.94">
<path d="M183.025 45.7686C183.025 46.2641 182.462 47.976 181.808 47.9309C181.245 47.8859 180.907 45.5884 180.997 44.9578C181.065 44.3046 181.741 43.8091 182.282 43.8991C182.823 43.9892 183.003 45.3181 183.025 45.7911V45.7686Z" fill="white"/>
</g>
<g style="mix-blend-mode:soft-light">
<path d="M182.912 45.0933C182.912 45.7014 182.507 46.1969 181.988 46.1969C181.47 46.1969 181.064 45.7014 181.064 45.0933C181.064 44.4851 181.47 43.9896 181.988 43.9896C182.507 43.9896 182.912 44.4851 182.912 45.0933Z" fill="white"/>
</g>
<path d="M178.56 75.7026C176.599 56.2195 169.116 25.5647 165.33 10.8116C164.045 5.78882 159.605 2.23007 154.421 2.04988C154.421 2.04988 135.624 0.000213623 95.3484 0.000213623C49.19 0.000213623 36.4108 2.04988 36.4108 2.04988C31.227 2.23007 26.787 5.78882 25.5023 10.8116C21.7158 25.5422 14.2331 56.2195 12.2723 75.7026C9.00424 108.114 11.0778 138.409 11.0778 138.409C12.8583 152.396 20.2959 162.779 20.2959 162.779H170.536C170.536 162.779 177.974 152.396 179.754 138.409C179.754 138.409 181.828 108.137 178.56 75.7026Z" fill="#438279"/>
<path d="M84.7108 160.167H106.956V193.862C106.956 196.16 105.108 198.007 102.809 198.007H88.8579C86.559 198.007 84.7108 196.16 84.7108 193.862V160.167Z" fill="url(#paint6_linear_170_1242)"/>
<path d="M120.952 110.84H70.0603L72.7424 120.457C73.1481 121.944 74.5004 122.957 76.033 122.957H114.979C116.512 122.957 117.864 121.921 118.27 120.435L120.952 110.817V110.84Z" fill="url(#paint7_linear_170_1242)"/>
<path d="M118.991 117.845H72.021L71.0293 114.354H119.96L118.991 117.845Z" fill="url(#paint8_linear_170_1242)"/>
<path d="M119.96 114.354H71.0295L70.0603 110.84H120.952L119.96 114.354Z" fill="url(#paint9_linear_170_1242)"/>
<path d="M117.481 121.336H73.5537C73.2156 121.336 72.9227 121.111 72.8325 120.796L72.0211 117.845H118.991L118.157 120.818C118.067 121.133 117.796 121.336 117.481 121.336Z" fill="url(#paint10_linear_170_1242)"/>
<path style="mix-blend-mode:multiply" d="M120.952 110.84H70.0603L72.7424 120.457C73.1481 121.944 74.5004 122.957 76.033 122.957H114.979C116.512 122.957 117.864 121.921 118.27 120.435L120.952 110.817V110.84Z" fill="url(#paint11_radial_170_1242)"/>
<path style="mix-blend-mode:multiply" d="M177.568 148.883H166.659V164.492H172.316C173.376 164.492 174.277 164.176 174.525 163.726C174.953 162.937 175.607 161.586 176.17 159.964C178.019 154.446 178.582 150.752 178.74 149.446C178.785 149.153 178.244 148.905 177.59 148.905L177.568 148.883Z" fill="url(#paint12_linear_170_1242)"/>
<path style="mix-blend-mode:multiply" d="M20.1834 148.882H12.6556C12.002 148.882 11.4611 149.13 11.5062 149.422C11.6639 150.751 12.2274 154.445 14.0755 159.941C14.6165 161.585 15.2926 162.914 15.7208 163.702C15.9688 164.153 16.8703 164.468 17.9296 164.468H20.1834V148.859V148.882Z" fill="url(#paint13_linear_170_1242)"/>
<path d="M159.988 20.3847C159.109 16.8034 155.954 14.2807 152.28 14.1906L95.4836 12.8842H95.3258L38.5293 14.1906C34.8555 14.2807 31.6776 16.8034 30.8212 20.3847C27.8461 32.5925 21.4002 60.2968 20.1831 75.703L95.3033 77.1671H95.461L170.604 75.703C169.409 60.2968 162.941 32.5925 159.966 20.3847H159.988Z" fill="#232628"/>
<path style="mix-blend-mode:soft-light" opacity="0.5" d="M174.841 78.7887C174.841 78.7887 115.272 80.4329 95.3933 80.4329C75.5145 80.4329 15.9458 78.7887 15.9458 78.7887V82.0546C15.9458 82.0546 75.5596 84.8701 95.4609 84.8701C115.317 84.8701 174.818 82.0546 174.818 82.0546V78.7887H174.841Z" fill="url(#paint14_linear_170_1242)"/>
<path d="M156.99 23.2906C156.472 21.3761 154.759 20.0472 152.776 20.0021L95.6862 18.7183L38.0558 20.0021C36.0724 20.0472 34.3595 21.3761 33.8411 23.2906C31.3394 32.4578 24.3525 59.1259 23.1129 74.6222L95.6637 76.0863L167.719 74.6222C166.479 59.1484 159.492 32.4803 156.99 23.2906Z" fill="url(#paint15_linear_170_1242)"/>
<path style="mix-blend-mode:soft-light" opacity="0.5" d="M50.5648 16.2852L43.3976 77.5273L80.6083 78.7886L81.5098 16.0149L50.5648 16.2852Z" fill="url(#paint16_linear_170_1242)"/>
<g style="mix-blend-mode:multiply">
<path d="M114.418 47.2649C114.036 44.9479 111.691 43.2215 108.882 43.2215H104.9V41.6768C107.3 41.0408 109.073 39.1781 109.073 36.9747C109.073 34.2489 106.4 32 103.1 32H89.9545C86.6818 32 83.9818 34.2261 83.9818 36.9747C83.9818 39.1781 85.7545 41.0408 88.1545 41.6768V43.2215H84.1727C81.3636 43.2215 79.0182 44.9479 78.6364 47.2649L74 76H119L114.364 47.2649H114.418ZM90.5 41.9494H102.582V43.2215H90.5V41.9494Z" fill="#B3B3B5"/>
</g>
<path style="mix-blend-mode:soft-light" opacity="0.5" d="M101.794 17.5913L103.214 80.3651L159.087 78.7884L147.953 15.9246L101.794 17.5913Z" fill="url(#paint17_linear_170_1242)"/>
<g style="mix-blend-mode:soft-light">
<path d="M36.9293 18.7175L27.0801 79.0812L36.4335 80.2975L45.2459 16.6228L36.9293 18.7175Z" fill="#A0A1A5"/>
</g>
<path style="mix-blend-mode:multiply" d="M49.1675 1.62207L36.4108 2.07255C31.227 2.25274 26.787 5.81149 25.5023 10.8343C21.7158 25.5648 14.2331 56.2422 12.2723 75.7253C9.00424 108.137 11.0778 138.431 11.0778 138.431C11.5285 142.035 12.385 145.571 13.3767 148.815H33.1428L49.19 1.64459L49.1675 1.62207Z" fill="url(#paint18_linear_170_1242)"/>
<path d="M89.2858 74.757C88.835 74.9822 88.2265 74.6894 87.9335 74.1038C87.6405 73.5182 87.7758 72.865 88.2265 72.6398C88.6773 72.4145 89.2858 72.7073 89.5788 73.2929C89.8718 73.8786 89.7366 74.5318 89.2858 74.757Z" fill="url(#paint19_radial_170_1242)"/>
<path d="M68.3029 73.9917C68.3029 73.5862 68.6635 73.2484 69.0917 73.2709L108.759 75.0503C109.165 75.0503 109.503 75.4107 109.48 75.8386C109.48 76.244 68.3029 74.4196 68.3029 73.9917Z" fill="url(#paint20_linear_170_1242)"/>
<path d="M61.4733 75.6806L53.1342 75.3427L55.2978 72.4371C55.7035 71.8966 56.3797 71.6488 57.0333 71.784L61.3156 72.7525C61.5635 72.7975 61.7889 72.9327 61.9466 73.1129L62.4425 73.6534C63.1637 74.4418 62.5552 75.7031 61.4959 75.658L61.4733 75.6806Z" fill="#0F1216"/>
<path d="M96.8585 71.446C97.2867 71.7162 97.9178 71.5135 98.2784 70.973C98.639 70.4324 98.5939 69.7567 98.1882 69.4864C97.7825 69.2161 97.1289 69.4188 96.7683 69.9594C96.4077 70.5 96.4528 71.1757 96.8585 71.446Z" fill="url(#paint21_radial_170_1242)"/>
<path d="M117.775 73.3151C117.797 72.9096 117.504 72.5493 117.098 72.5042L77.5211 69.3284C77.1154 69.3058 76.7548 69.5986 76.7097 70.0041C76.6872 70.4095 117.752 73.698 117.797 73.2925L117.775 73.3151Z" fill="url(#paint22_linear_170_1242)"/>
<path d="M123.634 75.9735H131.996L129.945 72.9778C129.562 72.4147 128.908 72.1444 128.232 72.257L123.905 73.0454C123.657 73.0904 123.431 73.203 123.251 73.3832L122.755 73.9013C122.011 74.6671 122.552 75.9509 123.612 75.9509L123.634 75.9735Z" fill="#0F1216"/>
<g filter="url(#filter0_d_170_1242)">
<path d="M177.568 148.77H12.6556C12.002 148.77 11.4611 149.017 11.5062 149.31C11.6639 150.639 12.2274 154.356 14.0755 159.896C14.6165 161.541 15.2926 162.892 15.7208 163.68C15.9688 164.131 16.8703 164.469 17.9296 164.469H172.294C173.354 164.469 174.255 164.131 174.503 163.68C174.931 162.892 175.585 161.541 176.148 159.896C177.997 154.356 178.56 150.639 178.718 149.31C178.763 149.017 178.222 148.77 177.568 148.77Z" fill="#036463"/>
</g>
<path style="mix-blend-mode:multiply" d="M124.107 148.77H111.936V164.491H124.107V148.77Z" fill="url(#paint23_linear_170_1242)"/>
<path d="M115.678 172.352C115.7 173.163 115.137 173.861 114.348 173.996C111.779 174.424 105.513 175.257 95.123 175.257C85.7921 175.257 79.3913 174.424 76.7092 173.996C75.8978 173.861 75.3118 173.14 75.3569 172.307C75.8302 164.243 78.963 124.736 95.416 124.736C113.311 124.736 115.43 164.401 115.678 172.352Z" fill="#FAC05E"/>
<g style="mix-blend-mode:soft-light">
<g style="mix-blend-mode:soft-light">
<path d="M95.1231 126.111C101.321 126.111 107.113 133.183 107.113 141.269C107.113 149.355 105.581 173.005 96.543 173.005C87.5051 173.005 84.7329 149.355 84.7329 142.463C84.7329 135.571 88.6095 126.088 95.1231 126.088V126.111Z" fill="#808080"/>
</g>
<g style="mix-blend-mode:soft-light">
<path d="M95.1229 126.224C101.141 126.224 106.798 133.116 106.798 140.977C106.798 148.838 105.31 171.88 96.4977 171.88C87.6852 171.88 85.0032 148.86 85.0032 142.171C85.0032 135.481 88.7671 126.224 95.1229 126.224Z" fill="#868686"/>
</g>
<g style="mix-blend-mode:soft-light">
<path d="M95.1453 126.314C101.005 126.314 106.482 133.003 106.482 140.661C106.482 148.319 105.04 170.708 96.475 170.708C87.9105 170.708 85.296 148.319 85.296 141.81C85.296 135.301 88.9698 126.314 95.1453 126.314Z" fill="#8C8C8C"/>
</g>
<g style="mix-blend-mode:soft-light">
<path d="M95.1684 126.403C100.871 126.403 106.19 132.913 106.19 140.346C106.19 147.778 104.77 169.559 96.4531 169.559C88.1364 169.559 85.5896 147.801 85.5896 141.472C85.5896 135.143 89.1507 126.403 95.1684 126.403Z" fill="#929292"/>
</g>
<g style="mix-blend-mode:soft-light">
<path d="M95.1904 126.494C100.735 126.494 105.896 132.823 105.896 140.053C105.896 147.283 104.521 168.41 96.4526 168.41C88.3839 168.41 85.9047 147.283 85.9047 141.134C85.9047 134.985 89.3756 126.494 95.1904 126.494Z" fill="#989898"/>
</g>
<g style="mix-blend-mode:soft-light">
<path d="M95.2128 126.584C100.577 126.584 105.603 132.711 105.603 139.738C105.603 146.766 104.273 167.262 96.4299 167.262C88.5866 167.262 86.1975 146.766 86.1975 140.797C86.1975 134.828 89.5557 126.607 95.2128 126.607V126.584Z" fill="#9E9E9E"/>
</g>
<g style="mix-blend-mode:soft-light">
<path d="M95.2355 126.696C100.442 126.696 105.31 132.642 105.31 139.445C105.31 146.247 104.025 166.113 96.43 166.113C88.8346 166.113 86.5132 146.247 86.5132 140.458C86.5132 134.67 89.7587 126.696 95.258 126.696H95.2355Z" fill="#A4A4A4"/>
</g>
<g style="mix-blend-mode:soft-light">
<path d="M95.258 126.787C100.307 126.787 105.017 132.553 105.017 139.13C105.017 145.707 103.777 164.965 96.4075 164.965C89.0374 164.965 86.8062 145.707 86.8062 140.121C86.8062 134.535 89.9615 126.787 95.258 126.787Z" fill="#AAAAAA"/>
</g>
<g style="mix-blend-mode:soft-light">
<path d="M95.281 126.877C100.149 126.877 104.702 132.44 104.702 138.814C104.702 145.189 103.507 163.793 96.3854 163.793C89.2633 163.793 87.0996 145.166 87.0996 139.76C87.0996 134.355 90.1423 126.877 95.281 126.877Z" fill="#B0B0B0"/>
</g>
<g style="mix-blend-mode:soft-light">
<path d="M95.3035 126.967C100.014 126.967 104.409 132.35 104.409 138.499C104.409 144.648 103.237 162.645 96.3628 162.645C89.4886 162.645 87.3926 144.648 87.3926 139.423C87.3926 134.197 90.3451 126.967 95.3035 126.967Z" fill="#B6B6B6"/>
</g>
<g style="mix-blend-mode:soft-light">
<path d="M95.3262 127.057C99.8789 127.057 104.116 132.26 104.116 138.183C104.116 144.107 102.989 161.473 96.363 161.473C89.7367 161.473 87.7083 144.107 87.7083 139.062C87.7083 134.017 90.5481 127.057 95.3487 127.057H95.3262Z" fill="#BCBCBC"/>
</g>
<g style="mix-blend-mode:soft-light">
<path d="M95.348 127.17C99.7204 127.17 103.822 132.17 103.822 137.891C103.822 143.612 102.741 160.347 96.3397 160.347C89.9388 160.347 88.0005 143.612 88.0005 138.769C88.0005 133.927 90.7502 127.192 95.348 127.192V127.17Z" fill="#C3C3C3"/>
</g>
<g style="mix-blend-mode:soft-light">
<path d="M95.3713 127.259C99.5859 127.259 103.53 132.079 103.53 137.575C103.53 143.071 102.493 159.176 96.3404 159.176C90.1874 159.176 88.3168 143.071 88.3168 138.409C88.3168 133.746 90.9538 127.259 95.3938 127.259H95.3713Z" fill="#C9C9C9"/>
</g>
<g style="mix-blend-mode:soft-light">
<path d="M95.3938 127.35C99.4507 127.35 103.237 131.968 103.237 137.261C103.237 142.554 102.245 158.005 96.3178 158.005C90.3903 158.005 88.6097 142.531 88.6097 138.049C88.6097 133.567 91.134 127.35 95.4163 127.35H95.3938Z" fill="#CFCFCF"/>
</g>
<g style="mix-blend-mode:soft-light">
<path d="M95.4157 127.44C99.2923 127.44 102.943 131.877 102.943 136.945C102.943 142.013 101.974 156.856 96.3172 156.856C90.6601 156.856 88.9021 142.013 88.9021 137.711C88.9021 133.409 91.3362 127.44 95.4157 127.44Z" fill="#D5D5D5"/>
</g>
<g style="mix-blend-mode:soft-light">
<path d="M95.4385 127.53C99.1573 127.53 102.628 131.787 102.628 136.63C102.628 141.472 101.704 155.685 96.2724 155.685C90.8407 155.685 89.1729 141.472 89.1729 137.35C89.1729 133.229 91.4943 127.507 95.416 127.507L95.4385 127.53Z" fill="#DBDBDB"/>
</g>
<g style="mix-blend-mode:soft-light">
<path d="M95.4612 127.643C99.0222 127.643 102.335 131.697 102.335 136.337C102.335 140.977 101.456 154.558 96.2726 154.558C91.0887 154.558 89.4885 140.977 89.4885 137.035C89.4885 133.093 91.7198 127.643 95.4612 127.643Z" fill="#E1E1E1"/>
</g>
<g style="mix-blend-mode:soft-light">
<path d="M95.4609 127.733C98.8416 127.733 102.019 131.607 102.019 136.021C102.019 140.436 101.186 153.387 96.2272 153.387C91.2687 153.387 89.7587 140.436 89.7587 136.675C89.7587 132.913 91.8773 127.71 95.4383 127.71L95.4609 127.733Z" fill="#E7E7E7"/>
</g>
<g style="mix-blend-mode:soft-light">
<path d="M95.4835 127.823C98.7065 127.823 101.727 131.516 101.727 135.728C101.727 139.94 100.938 152.261 96.2273 152.261C91.5168 152.261 90.0743 139.94 90.0743 136.359C90.0743 132.778 92.1028 127.823 95.4835 127.823Z" fill="#EDEDED"/>
</g>
<g style="mix-blend-mode:soft-light">
<path d="M95.5066 127.913C98.5719 127.913 101.434 131.404 101.434 135.413C101.434 139.422 100.668 151.09 96.2053 151.09C91.7428 151.09 90.3679 139.4 90.3679 135.999C90.3679 132.598 92.2837 127.913 95.5066 127.913Z" fill="#F3F3F3"/>
</g>
<g style="mix-blend-mode:soft-light">
<path d="M95.5287 128.002C98.4136 128.002 101.141 131.313 101.141 135.097C101.141 138.881 100.42 149.941 96.2049 149.941C91.9902 149.941 90.683 138.881 90.683 135.683C90.683 132.485 92.486 128.025 95.5513 128.025L95.5287 128.002Z" fill="#F9F9F9"/>
</g>
<g style="mix-blend-mode:soft-light">
<path d="M95.5515 128.115C98.2787 128.115 100.826 131.224 100.826 134.805C100.826 138.386 100.149 148.792 96.1601 148.792C92.1708 148.792 90.9537 138.364 90.9537 135.346C90.9537 132.327 92.6666 128.138 95.529 128.138L95.5515 128.115Z" fill="white"/>
</g>
</g>
<path style="mix-blend-mode:multiply" d="M79.572 144.715H111.914C109.075 134.129 104.116 124.714 95.3939 124.714C87.3477 124.714 82.502 134.129 79.572 144.715Z" fill="url(#paint24_linear_170_1242)"/>
<g style="mix-blend-mode:multiply">
<g style="mix-blend-mode:multiply" opacity="0.05">
<path d="M95.641 124.782C95.055 126.021 102.493 135.751 106.144 147.756C109.75 159.626 114.055 164.356 115.182 164.379C116.309 164.401 138.914 164.243 140.222 164.153C141.529 164.063 135.917 148.409 129.268 138.409C119.396 123.565 96.7904 122.282 95.641 124.782Z" fill="#FDFDFD"/>
</g>
<g style="mix-blend-mode:multiply" opacity="0.1">
<path d="M95.8891 124.849C95.3257 126.043 102.741 135.481 106.415 147.486C109.976 159.176 114.078 164.244 115.182 164.311C116.286 164.379 137.833 164.041 139.05 163.838C140.267 163.635 134.903 148.319 128.367 138.386C118.766 123.858 96.9935 122.439 95.8666 124.849H95.8891Z" fill="#FBFBFB"/>
</g>
<g style="mix-blend-mode:multiply" opacity="0.14">
<path d="M96.1146 124.917C95.5737 126.065 102.989 135.233 106.663 147.215C110.201 158.747 114.1 164.131 115.159 164.221C116.219 164.311 136.706 163.815 137.878 163.522C139.05 163.23 133.911 148.206 127.465 138.363C118.112 124.151 97.1739 122.619 96.0921 124.917H96.1146Z" fill="#F9F9F9"/>
</g>
<g style="mix-blend-mode:multiply" opacity="0.19">
<path d="M96.3623 124.984C95.8439 126.088 103.237 134.962 106.933 146.945C110.426 158.297 114.123 164.018 115.159 164.153C116.196 164.288 135.601 163.612 136.706 163.207C137.81 162.801 132.919 148.093 126.586 138.341C117.481 124.421 97.3991 122.799 96.3398 124.984H96.3623Z" fill="#F6F6F6"/>
</g>
<g style="mix-blend-mode:multiply" opacity="0.24">
<path d="M96.5882 125.052C96.0698 126.111 103.485 134.692 107.204 146.675C110.652 157.869 114.146 163.928 115.16 164.086C116.174 164.243 134.52 163.41 135.557 162.914C136.594 162.419 131.973 148.004 125.708 138.341C116.895 124.714 97.6024 123.002 96.5882 125.074V125.052Z" fill="#F4F4F4"/>
</g>
<g style="mix-blend-mode:multiply" opacity="0.29">
<path d="M96.836 125.12C96.3402 126.133 103.733 134.445 107.474 146.382C110.9 157.396 114.19 163.793 115.16 163.973C116.129 164.154 133.416 163.163 134.385 162.554C135.354 161.946 130.982 147.846 124.806 138.274C116.241 124.962 97.8051 123.115 96.836 125.12Z" fill="#F2F2F2"/>
</g>
<g style="mix-blend-mode:multiply" opacity="0.33">
<path d="M97.0832 125.187C96.6099 126.156 104.002 134.174 107.744 146.112C111.125 156.969 114.212 163.681 115.159 163.906C116.106 164.131 132.333 162.96 133.235 162.262C134.181 161.541 130.012 147.756 123.926 138.274C115.61 125.278 98.0073 123.318 97.0832 125.21V125.187Z" fill="#F0F0F0"/>
</g>
<g style="mix-blend-mode:multiply" opacity="0.38">
<path d="M97.3091 125.255C96.8583 126.179 104.228 133.927 107.992 145.842C111.328 156.518 114.235 163.568 115.159 163.816C116.083 164.064 131.229 162.712 132.063 161.924C132.942 161.09 129.02 147.644 123.048 138.229C115.002 125.525 98.2106 123.476 97.3316 125.255H97.3091Z" fill="#EEEEEE"/>
</g>
<g style="mix-blend-mode:multiply" opacity="0.43">
<path d="M97.5572 125.322C97.1064 126.201 104.499 133.656 108.263 145.571C111.553 156.09 114.258 163.477 115.16 163.748C116.061 164.018 130.148 162.509 130.914 161.63C131.725 160.684 128.052 147.553 122.169 138.206C114.371 125.818 98.4362 123.655 97.5797 125.322H97.5572Z" fill="#ECECEC"/>
</g>
<g style="mix-blend-mode:multiply" opacity="0.48">
<path d="M97.783 125.39C97.3548 126.223 104.725 133.408 108.511 145.301C111.779 155.639 114.259 163.365 115.138 163.658C116.016 163.951 129.021 162.284 129.72 161.293C130.486 160.234 127.015 147.418 121.245 138.161C113.695 126.088 98.5944 123.791 97.783 125.367V125.39Z" fill="#EAEAEA"/>
</g>
<g style="mix-blend-mode:multiply" opacity="0.52">
<path d="M98.0305 125.458C97.6248 126.246 104.995 133.138 108.781 145.031C112.004 155.212 114.303 163.253 115.137 163.59C116.016 163.951 127.939 162.059 128.547 161C129.246 159.829 126.023 147.328 120.343 138.161C113.064 126.381 98.7968 123.994 98.0079 125.458H98.0305Z" fill="#E7E7E7"/>
</g>
<g style="mix-blend-mode:multiply" opacity="0.57">
<path d="M98.2782 125.525C97.8951 126.268 105.243 132.867 109.052 144.737C112.229 154.738 114.325 163.117 115.137 163.5C115.993 163.883 126.834 161.833 127.398 160.662C128.029 159.378 125.054 147.215 119.487 138.115C112.455 126.651 99.022 124.151 98.2782 125.502V125.525Z" fill="#E5E5E5"/>
</g>
<g style="mix-blend-mode:multiply" opacity="0.62">
<path d="M98.5042 125.592C98.121 126.268 105.469 132.62 109.3 144.467C112.455 154.31 114.349 163.027 115.115 163.41C115.949 163.838 125.708 161.585 126.204 160.346C126.767 158.95 124.04 147.103 118.563 138.093C111.779 126.944 99.1803 124.308 98.5042 125.57V125.592Z" fill="#E3E3E3"/>
</g>
<g style="mix-blend-mode:multiply" opacity="0.67">
<path d="M98.7512 125.66C98.3906 126.291 105.738 132.35 109.57 144.197C112.68 153.86 114.37 162.915 115.114 163.342C115.903 163.793 124.603 161.383 125.053 160.054C125.549 158.545 123.07 147.013 117.683 138.093C111.147 127.259 99.4048 124.512 98.7512 125.66Z" fill="#E1E1E1"/>
</g>
<g style="mix-blend-mode:multiply" opacity="0.71">
<path d="M98.9769 125.728C98.6388 126.313 105.964 132.102 109.84 143.927C112.906 153.432 114.393 162.802 115.114 163.252C115.881 163.748 123.521 161.158 123.882 159.716C124.31 158.094 122.056 146.9 116.782 138.048C110.494 127.53 99.5854 124.669 98.9769 125.705V125.728Z" fill="#DFDFDF"/>
</g>
<g style="mix-blend-mode:multiply" opacity="0.76">
<path d="M99.2255 125.795C98.8874 126.336 106.235 131.832 110.112 143.657C113.154 152.982 114.439 162.689 115.115 163.185C115.859 163.703 122.417 160.932 122.733 159.423C123.094 157.689 121.088 146.81 115.926 138.048C109.886 127.845 99.8115 124.872 99.248 125.818L99.2255 125.795Z" fill="#DDDDDD"/>
</g>
<g style="mix-blend-mode:multiply" opacity="0.81">
<path d="M99.4729 125.863C99.1573 126.358 106.482 131.584 110.381 143.386C113.379 152.554 114.461 162.599 115.114 163.117C115.836 163.68 121.312 160.73 121.56 159.108C121.853 157.261 120.095 146.697 115.024 138.026C109.232 128.115 100.014 125.029 99.4729 125.885V125.863Z" fill="#DBDBDB"/>
</g>
<g style="mix-blend-mode:multiply" opacity="0.86">
<path d="M99.6987 125.931C99.4057 126.381 106.731 131.314 110.63 143.116C113.582 152.103 114.461 162.487 115.092 163.027C115.791 163.613 120.186 160.505 120.389 158.793C120.614 156.856 119.082 146.607 114.123 138.003C108.579 128.408 100.195 125.21 99.6987 125.953V125.931Z" fill="#D8D8D8"/>
</g>
<g style="mix-blend-mode:multiply" opacity="0.9">
<path d="M99.9459 125.998C99.6529 126.403 106.978 131.043 110.899 142.823C113.829 151.652 114.506 162.351 115.092 162.937C115.745 163.567 119.081 160.256 119.216 158.454C119.374 156.405 118.067 146.494 113.221 137.958C107.902 128.701 100.374 125.367 99.9233 125.998H99.9459Z" fill="#D6D6D6"/>
</g>
<g style="mix-blend-mode:multiply" opacity="0.95">
<path d="M100.171 126.066C99.901 126.426 107.226 130.796 111.148 142.553C114.033 151.202 114.506 162.262 115.069 162.847C115.7 163.523 117.954 160.032 118.044 158.14C118.134 155.977 117.075 146.382 112.342 137.936C107.294 128.971 100.6 125.525 100.194 126.066H100.171Z" fill="#D4D4D4"/>
</g>
<g style="mix-blend-mode:multiply">
<path d="M100.42 126.111C100.172 126.404 107.474 130.503 111.418 142.26C114.258 150.752 114.529 162.126 115.069 162.757C115.678 163.455 116.85 159.806 116.873 157.802C116.873 155.527 116.084 146.247 111.441 137.891C106.64 129.242 100.78 125.683 100.42 126.111Z" fill="#D2D2D2"/>
</g>
</g>
<path style="mix-blend-mode:soft-light" d="M178.718 110.84H10.2439V111.786H178.718V110.84Z" fill="url(#paint25_linear_170_1242)"/>
<path style="mix-blend-mode:multiply" d="M178.718 109.871H10.2439V110.817H178.718V109.871Z" fill="url(#paint26_linear_170_1242)"/>
<path d="M41.6621 122.169L12.5426 120.66C11.3706 120.592 10.4691 119.646 10.4691 118.475V112.754C10.4691 111.538 11.4608 110.569 12.6553 110.569H41.7748C42.9919 110.569 43.961 111.56 43.961 112.754V120.007C43.961 121.268 42.9017 122.259 41.6621 122.192V122.169Z" fill="url(#paint27_linear_170_1242)"/>
<path d="M19.5973 110.547H12.678C11.461 110.547 10.4918 111.538 10.4918 112.732V118.453C10.4918 119.624 11.4159 120.57 12.5653 120.638L19.5973 120.998V110.524V110.547Z" fill="#C45C00"/>
<path style="mix-blend-mode:soft-light" d="M26.2913 120.389C28.6314 120.389 30.5285 118.493 30.5285 116.155C30.5285 113.816 28.6314 111.92 26.2913 111.92C23.9511 111.92 22.0541 113.816 22.0541 116.155C22.0541 118.493 23.9511 120.389 26.2913 120.389Z" fill="url(#paint28_linear_170_1242)"/>
<path style="mix-blend-mode:soft-light" d="M36.9293 120.389C39.2695 120.389 41.1665 118.493 41.1665 116.155C41.1665 113.816 39.2695 111.92 36.9293 111.92C34.5892 111.92 32.6921 113.816 32.6921 116.155C32.6921 118.493 34.5892 120.389 36.9293 120.389Z" fill="url(#paint29_linear_170_1242)"/>
<path style="mix-blend-mode:soft-light" d="M16.9376 114.826H13.5794C12.7906 114.826 12.137 114.173 12.137 113.385C12.137 112.596 12.7906 111.943 13.5794 111.943H16.9376C17.7265 111.943 18.3801 112.596 18.3801 113.385C18.3801 114.173 17.7265 114.826 16.9376 114.826Z" fill="url(#paint30_linear_170_1242)"/>
<path style="mix-blend-mode:soft-light" d="M16.9376 118.925H13.5794C12.7906 118.925 12.137 118.272 12.137 117.484C12.137 116.695 12.7906 116.042 13.5794 116.042H16.9376C17.7265 116.042 18.3801 116.695 18.3801 117.484C18.3801 118.272 17.7265 118.925 16.9376 118.925Z" fill="url(#paint31_linear_170_1242)"/>
<path style="mix-blend-mode:multiply" d="M26.291 110.547H12.6553C11.4383 110.547 10.4691 111.538 10.4691 112.732V118.453C10.4691 119.624 11.3932 120.57 12.5426 120.638L41.6621 122.147C42.5411 122.192 43.3074 121.696 43.6906 120.976L14.0978 118.656C12.9934 118.566 12.1369 117.642 12.1369 116.538V113.858C12.1369 112.754 12.9709 111.854 14.0527 111.741L26.291 110.547Z" fill="url(#paint32_linear_170_1242)"/>
<path style="mix-blend-mode:soft-light" d="M41.6172 110.839H14.0303C12.8851 110.839 11.9568 111.767 11.9568 112.912V113.61C11.9568 114.754 12.8851 115.682 14.0303 115.682H41.6172C42.7624 115.682 43.6907 114.754 43.6907 113.61V112.912C43.6907 111.767 42.7624 110.839 41.6172 110.839Z" fill="url(#paint33_linear_170_1242)"/>
<path d="M147.164 122.169L176.283 120.66C177.455 120.592 178.357 119.646 178.357 118.475V112.754C178.357 111.538 177.365 110.569 176.171 110.569H147.051C145.834 110.569 144.865 111.56 144.865 112.754V120.006C144.865 121.268 145.924 122.259 147.164 122.191V122.169Z" fill="url(#paint34_linear_170_1242)"/>
<path d="M169.251 110.547H176.171C177.388 110.547 178.357 111.538 178.357 112.731V118.453C178.357 119.624 177.433 120.57 176.283 120.637L169.251 120.998V110.524V110.547Z" fill="#C45C00"/>
<path style="mix-blend-mode:soft-light" d="M158.321 116.155C158.321 118.497 160.214 120.389 162.558 120.389C164.902 120.389 166.795 118.497 166.795 116.155C166.795 113.812 164.902 111.92 162.558 111.92C160.214 111.92 158.321 113.812 158.321 116.155Z" fill="url(#paint35_linear_170_1242)"/>
<path style="mix-blend-mode:soft-light" d="M151.92 120.389C154.26 120.389 156.157 118.493 156.157 116.155C156.157 113.816 154.26 111.92 151.92 111.92C149.58 111.92 147.682 113.816 147.682 116.155C147.682 118.493 149.58 120.389 151.92 120.389Z" fill="url(#paint36_linear_170_1242)"/>
<path style="mix-blend-mode:soft-light" d="M171.91 114.826H175.269C176.058 114.826 176.711 114.173 176.711 113.384C176.711 112.596 176.058 111.943 175.269 111.943H171.91C171.122 111.943 170.468 112.596 170.468 113.384C170.468 114.173 171.122 114.826 171.91 114.826Z" fill="url(#paint37_linear_170_1242)"/>
<path style="mix-blend-mode:soft-light" d="M171.91 118.925H175.269C176.058 118.925 176.711 118.272 176.711 117.483C176.711 116.695 176.058 116.042 175.269 116.042H171.91C171.122 116.042 170.468 116.695 170.468 117.483C170.468 118.272 171.122 118.925 171.91 118.925Z" fill="url(#paint38_linear_170_1242)"/>
<path style="mix-blend-mode:multiply" d="M162.535 110.547H176.171C177.388 110.547 178.357 111.538 178.357 112.732V118.453C178.357 119.624 177.433 120.57 176.284 120.638L147.164 122.147C146.285 122.192 145.519 121.696 145.136 120.975L174.729 118.655C175.833 118.565 176.689 117.642 176.689 116.538V113.858C176.689 112.754 175.856 111.853 174.774 111.741L162.535 110.547Z" fill="url(#paint39_linear_170_1242)"/>
<path style="mix-blend-mode:soft-light" d="M147.209 115.659H174.796C175.941 115.659 176.869 114.732 176.869 113.587V112.889C176.869 111.745 175.941 110.817 174.796 110.817H147.209C146.064 110.817 145.135 111.745 145.135 112.889V113.587C145.135 114.732 146.064 115.659 147.209 115.659Z" fill="url(#paint40_linear_170_1242)"/>
<path d="M109.399 75.6012C109.592 73.826 109.409 72.0301 108.862 70.3302C108.316 68.6303 107.418 67.0642 106.228 65.7337C105.037 64.4032 103.579 63.3379 101.95 62.607C100.321 61.8761 98.5565 61.4959 96.7709 61.4911C94.9853 61.4863 93.2187 61.8571 91.5856 62.5792C89.9526 63.3014 88.4896 64.3588 87.2917 65.683C86.0937 67.0071 85.1876 68.5683 84.6321 70.2653C84.0766 71.9623 83.8841 73.7571 84.0671 75.5333" stroke="black" stroke-opacity="0.3" stroke-width="3"/>
<path d="M67.7267 151.645H28.6453C28.2718 151.645 27.9691 151.947 27.9691 152.321V160.362C27.9691 160.735 28.2718 161.037 28.6453 161.037H67.7267C68.1001 161.037 68.4028 160.735 68.4028 160.362V152.321C68.4028 151.947 68.1001 151.645 67.7267 151.645Z" fill="#87CF9A"/>
<path d="M67.7266 161.285H28.6451C28.1268 161.285 27.7211 160.879 27.7211 160.361V152.32C27.7211 151.802 28.1268 151.397 28.6451 151.397H67.7266C68.2449 151.397 68.6506 151.802 68.6506 152.32V160.361C68.6506 160.879 68.2449 161.285 67.7266 161.285ZM28.6451 151.892C28.3972 151.892 28.2169 152.095 28.2169 152.32V160.361C28.2169 160.609 28.4198 160.789 28.6451 160.789H67.7266C67.9745 160.789 68.1548 160.586 68.1548 160.361V152.32C68.1548 152.073 67.9519 151.892 67.7266 151.892H28.6451Z" fill="#40BE61"/>
<path d="M31.0054 156.446H31.2018C31.27 156.446 31.3247 156.438 31.366 156.423C31.4073 156.406 31.4449 156.377 31.479 156.338L32.7628 154.956C32.7987 154.912 32.8363 154.881 32.8758 154.864C32.9153 154.847 32.9637 154.839 33.0211 154.839H33.4625L31.9931 156.417C31.9572 156.458 31.9222 156.493 31.8881 156.52C31.8558 156.545 31.8208 156.567 31.7832 156.584C31.8316 156.599 31.8756 156.622 31.915 156.653C31.9545 156.682 31.9931 156.72 32.0307 156.768L33.5648 158.505H33.1126C33.0785 158.505 33.0489 158.504 33.0238 158.5C33.0005 158.495 32.9799 158.488 32.9619 158.48C32.944 158.47 32.9278 158.459 32.9135 158.447C32.9009 158.433 32.8884 158.418 32.8758 158.401L31.5463 156.945C31.5104 156.902 31.4719 156.872 31.4306 156.855C31.3893 156.836 31.3265 156.827 31.2422 156.827H31.0054V158.505H30.486V154.839H31.0054V156.446Z" fill="white"/>
<path d="M36.0171 157.144L35.4116 155.652C35.3936 155.608 35.3748 155.557 35.355 155.499C35.3353 155.439 35.3165 155.376 35.2985 155.31C35.2608 155.448 35.2223 155.563 35.1828 155.655L34.5773 157.144H36.0171ZM37.1044 158.505H36.7007C36.654 158.505 36.6163 158.494 36.5876 158.472C36.5589 158.45 36.5374 158.422 36.5231 158.388L36.1624 157.502H34.4319L34.0713 158.388C34.0605 158.418 34.0399 158.446 34.0094 158.47C33.9789 158.494 33.9412 158.505 33.8964 158.505H33.4927L35.0348 154.839H35.5623L37.1044 158.505Z" fill="white"/>
<path d="M41.1166 156.673C41.1166 156.994 41.0798 157.272 41.0062 157.508C40.9345 157.741 40.8358 157.935 40.7102 158.088C40.5846 158.242 40.4357 158.356 40.2634 158.431C40.093 158.506 39.91 158.544 39.7144 158.544C39.5171 158.544 39.3332 158.506 39.1627 158.431C38.9941 158.356 38.8469 158.242 38.7213 158.088C38.5958 157.935 38.4971 157.741 38.4253 157.508C38.3535 157.272 38.3177 156.994 38.3177 156.673C38.3177 156.353 38.3535 156.075 38.4253 155.839C38.4971 155.604 38.5958 155.409 38.7213 155.256C38.8469 155.101 38.9941 154.985 39.1627 154.91C39.3332 154.835 39.5171 154.798 39.7144 154.798C39.91 154.798 40.093 154.835 40.2634 154.91C40.4357 154.985 40.5846 155.101 40.7102 155.256C40.8358 155.409 40.9345 155.604 41.0062 155.839C41.0798 156.075 41.1166 156.353 41.1166 156.673ZM40.6187 156.673C40.6187 156.394 40.5936 156.159 40.5433 155.97C40.4949 155.779 40.4285 155.625 40.3442 155.509C40.2616 155.393 40.1657 155.31 40.0562 155.261C39.9468 155.21 39.8328 155.184 39.7144 155.184C39.596 155.184 39.4821 155.21 39.3726 155.261C39.2632 155.31 39.1672 155.393 39.0847 155.509C39.0021 155.625 38.9358 155.779 38.8855 155.97C38.8371 156.159 38.8129 156.394 38.8129 156.673C38.8129 156.953 38.8371 157.188 38.8855 157.377C38.9358 157.566 39.0021 157.719 39.0847 157.835C39.1672 157.951 39.2632 158.035 39.3726 158.086C39.4821 158.135 39.596 158.16 39.7144 158.16C39.8328 158.16 39.9468 158.135 40.0562 158.086C40.1657 158.035 40.2616 157.951 40.3442 157.835C40.4285 157.719 40.4949 157.566 40.5433 157.377C40.5936 157.188 40.6187 156.953 40.6187 156.673Z" fill="white"/>
<path d="M44.1581 156.673C44.1581 156.994 44.1213 157.272 44.0478 157.508C43.976 157.741 43.8773 157.935 43.7517 158.088C43.6261 158.242 43.4772 158.356 43.305 158.431C43.1345 158.506 42.9515 158.544 42.756 158.544C42.5586 158.544 42.3747 158.506 42.2043 158.431C42.0356 158.356 41.8885 158.242 41.7629 158.088C41.6373 157.935 41.5386 157.741 41.4669 157.508C41.3951 157.272 41.3592 156.994 41.3592 156.673C41.3592 156.353 41.3951 156.075 41.4669 155.839C41.5386 155.604 41.6373 155.409 41.7629 155.256C41.8885 155.101 42.0356 154.985 42.2043 154.91C42.3747 154.835 42.5586 154.798 42.756 154.798C42.9515 154.798 43.1345 154.835 43.305 154.91C43.4772 154.985 43.6261 155.101 43.7517 155.256C43.8773 155.409 43.976 155.604 44.0478 155.839C44.1213 156.075 44.1581 156.353 44.1581 156.673ZM43.6602 156.673C43.6602 156.394 43.6351 156.159 43.5849 155.97C43.5364 155.779 43.4701 155.625 43.3857 155.509C43.3032 155.393 43.2072 155.31 43.0978 155.261C42.9883 155.21 42.8744 155.184 42.756 155.184C42.6376 155.184 42.5236 155.21 42.4142 155.261C42.3047 155.31 42.2087 155.393 42.1262 155.509C42.0437 155.625 41.9773 155.779 41.9271 155.97C41.8786 156.159 41.8544 156.394 41.8544 156.673C41.8544 156.953 41.8786 157.188 41.9271 157.377C41.9773 157.566 42.0437 157.719 42.1262 157.835C42.2087 157.951 42.3047 158.035 42.4142 158.086C42.5236 158.135 42.6376 158.16 42.756 158.16C42.8744 158.16 42.9883 158.135 43.0978 158.086C43.2072 158.035 43.3032 157.951 43.3857 157.835C43.4701 157.719 43.5364 157.566 43.5849 157.377C43.6351 157.188 43.6602 156.953 43.6602 156.673Z" fill="white"/>
<path d="M47.8975 157.144L47.292 155.652C47.2741 155.608 47.2552 155.557 47.2355 155.499C47.2158 155.439 47.1969 155.376 47.179 155.31C47.1413 155.448 47.1027 155.563 47.0633 155.655L46.4577 157.144H47.8975ZM48.9848 158.505H48.5811C48.5345 158.505 48.4968 158.494 48.4681 158.472C48.4394 158.45 48.4179 158.422 48.4035 158.388L48.0429 157.502H46.3124L45.9518 158.388C45.941 158.418 45.9204 158.446 45.8899 158.47C45.8594 158.494 45.8217 158.505 45.7768 158.505H45.3731L46.9152 154.839H47.4427L48.9848 158.505Z" fill="white"/>
<path d="M50.7651 158.111C50.914 158.111 51.0423 158.095 51.15 158.063C51.2576 158.03 51.3455 157.985 51.4137 157.927C51.4837 157.867 51.5348 157.798 51.5671 157.717C51.5994 157.635 51.6156 157.546 51.6156 157.449C51.6156 157.259 51.5447 157.11 51.403 157.001C51.2612 156.89 51.0486 156.835 50.7651 156.835H49.9308V158.111H50.7651ZM49.9308 155.23V156.481H50.6198C50.7669 156.481 50.8943 156.466 51.002 156.435C51.1114 156.405 51.2011 156.362 51.2711 156.307C51.3428 156.253 51.3958 156.187 51.4299 156.11C51.464 156.032 51.481 155.947 51.481 155.855C51.481 155.638 51.4128 155.48 51.2765 155.381C51.1401 155.281 50.9284 155.23 50.6413 155.23H49.9308ZM50.6413 154.839C50.8782 154.839 51.0818 154.861 51.2522 154.905C51.4245 154.95 51.5653 155.013 51.6748 155.095C51.786 155.176 51.8676 155.277 51.9197 155.397C51.9717 155.514 51.9977 155.647 51.9977 155.796C51.9977 155.886 51.9825 155.973 51.952 156.057C51.9233 156.139 51.8793 156.215 51.8201 156.287C51.7609 156.359 51.6855 156.423 51.594 156.481C51.5043 156.538 51.3985 156.584 51.2765 156.62C51.5599 156.671 51.7726 156.767 51.9143 156.909C52.0578 157.049 52.1296 157.233 52.1296 157.461C52.1296 157.617 52.0991 157.758 52.0381 157.886C51.9789 158.014 51.891 158.124 51.7743 158.216C51.6595 158.308 51.5178 158.38 51.3491 158.431C51.1805 158.481 50.9885 158.505 50.7732 158.505H49.4114V154.839H50.6413Z" fill="white"/>
<path d="M56.5747 156.673C56.5747 156.994 56.5379 157.272 56.4644 157.508C56.3926 157.741 56.2939 157.935 56.1683 158.088C56.0427 158.242 55.8938 158.356 55.7216 158.431C55.5511 158.506 55.3681 158.544 55.1726 158.544C54.9752 158.544 54.7913 158.506 54.6209 158.431C54.4522 158.356 54.3051 158.242 54.1795 158.088C54.0539 157.935 53.9552 157.741 53.8835 157.508C53.8117 157.272 53.7758 156.994 53.7758 156.673C53.7758 156.353 53.8117 156.075 53.8835 155.839C53.9552 155.604 54.0539 155.409 54.1795 155.256C54.3051 155.101 54.4522 154.985 54.6209 154.91C54.7913 154.835 54.9752 154.798 55.1726 154.798C55.3681 154.798 55.5511 154.835 55.7216 154.91C55.8938 154.985 56.0427 155.101 56.1683 155.256C56.2939 155.409 56.3926 155.604 56.4644 155.839C56.5379 156.075 56.5747 156.353 56.5747 156.673ZM56.0768 156.673C56.0768 156.394 56.0517 156.159 56.0015 155.97C55.953 155.779 55.8867 155.625 55.8023 155.509C55.7198 155.393 55.6238 155.31 55.5144 155.261C55.4049 155.21 55.291 155.184 55.1726 155.184C55.0542 155.184 54.9402 155.21 54.8308 155.261C54.7213 155.31 54.6253 155.393 54.5428 155.509C54.4603 155.625 54.3939 155.779 54.3437 155.97C54.2952 156.159 54.271 156.394 54.271 156.673C54.271 156.953 54.2952 157.188 54.3437 157.377C54.3939 157.566 54.4603 157.719 54.5428 157.835C54.6253 157.951 54.7213 158.035 54.8308 158.086C54.9402 158.135 55.0542 158.16 55.1726 158.16C55.291 158.16 55.4049 158.135 55.5144 158.086C55.6238 158.035 55.7198 157.951 55.8023 157.835C55.8867 157.719 55.953 157.566 56.0015 157.377C56.0517 157.188 56.0768 156.953 56.0768 156.673Z" fill="white"/>
<path d="M59.6163 156.673C59.6163 156.994 59.5795 157.272 59.5059 157.508C59.4342 157.741 59.3355 157.935 59.2099 158.088C59.0843 158.242 58.9354 158.356 58.7631 158.431C58.5927 158.506 58.4097 158.544 58.2141 158.544C58.0168 158.544 57.8329 158.506 57.6624 158.431C57.4938 158.356 57.3466 158.242 57.221 158.088C57.0954 157.935 56.9968 157.741 56.925 157.508C56.8532 157.272 56.8174 156.994 56.8174 156.673C56.8174 156.353 56.8532 156.075 56.925 155.839C56.9968 155.604 57.0954 155.409 57.221 155.256C57.3466 155.101 57.4938 154.985 57.6624 154.91C57.8329 154.835 58.0168 154.798 58.2141 154.798C58.4097 154.798 58.5927 154.835 58.7631 154.91C58.9354 154.985 59.0843 155.101 59.2099 155.256C59.3355 155.409 59.4342 155.604 59.5059 155.839C59.5795 156.075 59.6163 156.353 59.6163 156.673ZM59.1184 156.673C59.1184 156.394 59.0933 156.159 59.043 155.97C58.9946 155.779 58.9282 155.625 58.8439 155.509C58.7613 155.393 58.6654 155.31 58.5559 155.261C58.4465 155.21 58.3325 155.184 58.2141 155.184C58.0957 155.184 57.9818 155.21 57.8723 155.261C57.7629 155.31 57.6669 155.393 57.5844 155.509C57.5018 155.625 57.4354 155.779 57.3852 155.97C57.3368 156.159 57.3125 156.394 57.3125 156.673C57.3125 156.953 57.3368 157.188 57.3852 157.377C57.4354 157.566 57.5018 157.719 57.5844 157.835C57.6669 157.951 57.7629 158.035 57.8723 158.086C57.9818 158.135 58.0957 158.16 58.2141 158.16C58.3325 158.16 58.4465 158.135 58.5559 158.086C58.6654 158.035 58.7613 157.951 58.8439 157.835C58.9282 157.719 58.9946 157.566 59.043 157.377C59.0933 157.188 59.1184 156.953 59.1184 156.673Z" fill="white"/>
<path d="M62.6578 156.673C62.6578 156.994 62.621 157.272 62.5475 157.508C62.4757 157.741 62.377 157.935 62.2514 158.088C62.1258 158.242 61.9769 158.356 61.8047 158.431C61.6342 158.506 61.4512 158.544 61.2557 158.544C61.0583 158.544 60.8744 158.506 60.704 158.431C60.5353 158.356 60.3882 158.242 60.2626 158.088C60.137 157.935 60.0383 157.741 59.9665 157.508C59.8948 157.272 59.8589 156.994 59.8589 156.673C59.8589 156.353 59.8948 156.075 59.9665 155.839C60.0383 155.604 60.137 155.409 60.2626 155.256C60.3882 155.101 60.5353 154.985 60.704 154.91C60.8744 154.835 61.0583 154.798 61.2557 154.798C61.4512 154.798 61.6342 154.835 61.8047 154.91C61.9769 154.985 62.1258 155.101 62.2514 155.256C62.377 155.409 62.4757 155.604 62.5475 155.839C62.621 156.075 62.6578 156.353 62.6578 156.673ZM62.1599 156.673C62.1599 156.394 62.1348 156.159 62.0846 155.97C62.0361 155.779 61.9697 155.625 61.8854 155.509C61.8029 155.393 61.7069 155.31 61.5975 155.261C61.488 155.21 61.3741 155.184 61.2557 155.184C61.1372 155.184 61.0233 155.21 60.9139 155.261C60.8044 155.31 60.7084 155.393 60.6259 155.509C60.5434 155.625 60.477 155.779 60.4268 155.97C60.3783 156.159 60.3541 156.394 60.3541 156.673C60.3541 156.953 60.3783 157.188 60.4268 157.377C60.477 157.566 60.5434 157.719 60.6259 157.835C60.7084 157.951 60.8044 158.035 60.9139 158.086C61.0233 158.135 61.1372 158.16 61.2557 158.16C61.3741 158.16 61.488 158.135 61.5975 158.086C61.7069 158.035 61.8029 157.951 61.8854 157.835C61.9697 157.719 62.0361 157.566 62.0846 157.377C62.1348 157.188 62.1599 156.953 62.1599 156.673Z" fill="white"/>
<path d="M65.6994 156.673C65.6994 156.994 65.6626 157.272 65.589 157.508C65.5172 157.741 65.4186 157.935 65.293 158.088C65.1674 158.242 65.0185 158.356 64.8462 158.431C64.6758 158.506 64.4928 158.544 64.2972 158.544C64.0998 158.544 63.9159 158.506 63.7455 158.431C63.5768 158.356 63.4297 158.242 63.3041 158.088C63.1785 157.935 63.0799 157.741 63.0081 157.508C62.9363 157.272 62.9004 156.994 62.9004 156.673C62.9004 156.353 62.9363 156.075 63.0081 155.839C63.0799 155.604 63.1785 155.409 63.3041 155.256C63.4297 155.101 63.5768 154.985 63.7455 154.91C63.9159 154.835 64.0998 154.798 64.2972 154.798C64.4928 154.798 64.6758 154.835 64.8462 154.91C65.0185 154.985 65.1674 155.101 65.293 155.256C65.4186 155.409 65.5172 155.604 65.589 155.839C65.6626 156.075 65.6994 156.353 65.6994 156.673ZM65.2015 156.673C65.2015 156.394 65.1764 156.159 65.1261 155.97C65.0777 155.779 65.0113 155.625 64.927 155.509C64.8444 155.393 64.7484 155.31 64.639 155.261C64.5296 155.21 64.4156 155.184 64.2972 155.184C64.1788 155.184 64.0649 155.21 63.9554 155.261C63.846 155.31 63.75 155.393 63.6675 155.509C63.5849 155.625 63.5185 155.779 63.4683 155.97C63.4199 156.159 63.3956 156.394 63.3956 156.673C63.3956 156.953 63.4199 157.188 63.4683 157.377C63.5185 157.566 63.5849 157.719 63.6675 157.835C63.75 157.951 63.846 158.035 63.9554 158.086C64.0649 158.135 64.1788 158.16 64.2972 158.16C64.4156 158.16 64.5296 158.135 64.639 158.086C64.7484 158.035 64.8444 157.951 64.927 157.835C65.0113 157.719 65.0777 157.566 65.1261 157.377C65.1764 157.188 65.2015 156.953 65.2015 156.673Z" fill="white"/>
<defs>
<filter id="filter0_d_170_1242" x="7.50354" y="138.77" width="175.217" height="25.6991" filterUnits="userSpaceOnUse" color-interpolation-filters="sRGB">
<feFlood flood-opacity="0" result="BackgroundImageFix"/>
<feColorMatrix in="SourceAlpha" type="matrix" values="0 0 0 0 0 0 0 0 0 0 0 0 0 0 0 0 0 0 127 0" result="hardAlpha"/>
<feOffset dy="-6"/>
<feGaussianBlur stdDeviation="2"/>
<feComposite in2="hardAlpha" operator="out"/>
<feColorMatrix type="matrix" values="0 0 0 0 0 0 0 0 0 0 0 0 0 0 0 0 0 0 0.25 0"/>
<feBlend mode="normal" in2="BackgroundImageFix" result="effect1_dropShadow_170_1242"/>
<feBlend mode="normal" in="SourceGraphic" in2="effect1_dropShadow_170_1242" result="shape"/>
</filter>
<radialGradient id="paint0_radial_170_1242" cx="0" cy="0" r="1" gradientUnits="userSpaceOnUse" gradientTransform="translate(30.3254 200.117) rotate(180) scale(24.5893 4.42321)">
<stop stop-color="#343633"/>
<stop offset="0.11" stop-color="#60615F"/>
<stop offset="0.26" stop-color="#90918F"/>
<stop offset="0.4" stop-color="#B8B8B7"/>
<stop offset="0.54" stop-color="#D7D7D6"/>
<stop offset="0.67" stop-color="#EDEDED"/>
<stop offset="0.8" stop-color="#FAFAFA"/>
<stop offset="0.92" stop-color="white"/>
</radialGradient>
<radialGradient id="paint1_radial_170_1242" cx="0" cy="0" r="1" gradientUnits="userSpaceOnUse" gradientTransform="translate(156.878 1115.47) rotate(180) scale(1.12691 0.202714)">
<stop stop-color="#343633"/>
<stop offset="0.11" stop-color="#60615F"/>
<stop offset="0.26" stop-color="#90918F"/>
<stop offset="0.4" stop-color="#B8B8B7"/>
<stop offset="0.54" stop-color="#D7D7D6"/>
<stop offset="0.67" stop-color="#EDEDED"/>
<stop offset="0.8" stop-color="#FAFAFA"/>
<stop offset="0.92" stop-color="white"/>
</radialGradient>
<radialGradient id="paint2_radial_170_1242" cx="0" cy="0" r="1" gradientUnits="userSpaceOnUse" gradientTransform="translate(95.9119 212.065) rotate(180) scale(24.5893 4.42321)">
<stop stop-color="#343633"/>
<stop offset="0.11" stop-color="#60615F"/>
<stop offset="0.26" stop-color="#90918F"/>
<stop offset="0.4" stop-color="#B8B8B7"/>
<stop offset="0.54" stop-color="#D7D7D6"/>
<stop offset="0.67" stop-color="#EDEDED"/>
<stop offset="0.8" stop-color="#FAFAFA"/>
<stop offset="0.92" stop-color="white"/>
</radialGradient>
<linearGradient id="paint3_linear_170_1242" x1="106.212" y1="173.614" x2="117.52" y2="183.171" gradientUnits="userSpaceOnUse">
<stop offset="0.11" stop-color="#626B62"/>
<stop offset="0.12" stop-color="#636C63"/>
<stop offset="0.32" stop-color="#949993"/>
<stop offset="0.47" stop-color="#B2B6B1"/>
<stop offset="0.55" stop-color="#BEC1BD"/>
<stop offset="0.86" stop-color="#C4C6C3"/>
<stop offset="0.99" stop-color="#CACAC9"/>
</linearGradient>
<linearGradient id="paint4_linear_170_1242" x1="156.856" y1="121.494" x2="156.856" y2="185.213" gradientUnits="userSpaceOnUse">
<stop/>
<stop offset="1" stop-color="#191918"/>
</linearGradient>
<linearGradient id="paint5_linear_170_1242" x1="30.3254" y1="-64.7778" x2="30.3254" y2="-64.7778" gradientUnits="userSpaceOnUse">
<stop/>
<stop offset="1" stop-color="#191918"/>
</linearGradient>
<linearGradient id="paint6_linear_170_1242" x1="95.8447" y1="133.634" x2="95.8447" y2="197.354" gradientUnits="userSpaceOnUse">
<stop/>
<stop offset="1" stop-color="#191918"/>
</linearGradient>
<linearGradient id="paint7_linear_170_1242" x1="95.506" y1="122.619" x2="95.506" y2="110.952" gradientUnits="userSpaceOnUse">
<stop stop-color="#3D3D3D"/>
<stop offset="0.11" stop-color="#38393A"/>
<stop offset="0.56" stop-color="#2B2E32"/>
<stop offset="0.99" stop-color="#1B1D20"/>
</linearGradient>
<linearGradient id="paint8_linear_170_1242" x1="95.5059" y1="117.755" x2="95.5059" y2="114.376" gradientUnits="userSpaceOnUse">
<stop offset="0.01" stop-color="#6B6B6B"/>
<stop offset="0.05" stop-color="#9D9D9C"/>
<stop offset="0.09" stop-color="#444443"/>
<stop offset="0.9" stop-color="#1D1D1B"/>
<stop offset="0.96" stop-color="#3C3C3B"/>
<stop offset="0.99"/>
</linearGradient>
<linearGradient id="paint9_linear_170_1242" x1="95.506" y1="114.241" x2="95.506" y2="110.885" gradientUnits="userSpaceOnUse">
<stop offset="0.01" stop-color="#6B6B6B"/>
<stop offset="0.05" stop-color="#9D9D9C"/>
<stop offset="0.09" stop-color="#444443"/>
<stop offset="0.9" stop-color="#1D1D1B"/>
<stop offset="0.96" stop-color="#3C3C3B"/>
<stop offset="0.99"/>
</linearGradient>
<linearGradient id="paint10_linear_170_1242" x1="95.506" y1="121.246" x2="95.506" y2="117.867" gradientUnits="userSpaceOnUse">
<stop offset="0.01" stop-color="#6B6B6B"/>
<stop offset="0.05" stop-color="#9D9D9C"/>
<stop offset="0.09" stop-color="#444443"/>
<stop offset="0.9" stop-color="#1D1D1B"/>
<stop offset="0.96" stop-color="#3C3C3B"/>
<stop offset="0.99"/>
</linearGradient>
<radialGradient id="paint11_radial_170_1242" cx="0" cy="0" r="1" gradientUnits="userSpaceOnUse" gradientTransform="translate(95.2581 122.89) scale(26.3473 26.3303)">
<stop stop-color="white"/>
<stop offset="0.21" stop-color="#FCFCFC"/>
<stop offset="0.35" stop-color="#F3F3F3"/>
<stop offset="0.47" stop-color="#E4E4E4"/>
<stop offset="0.59" stop-color="#CECFCF"/>
<stop offset="0.69" stop-color="#B2B3B4"/>
<stop offset="0.79" stop-color="#909193"/>
<stop offset="0.88" stop-color="#68696B"/>
<stop offset="0.96" stop-color="#3A3C3F"/>
<stop offset="0.99" stop-color="#2A2C2F"/>
</radialGradient>
<linearGradient id="paint12_linear_170_1242" x1="176.531" y1="156.676" x2="166.727" y2="156.676" gradientUnits="userSpaceOnUse">
<stop stop-color="#B7BCBC"/>
<stop offset="0.08" stop-color="#C1C5C5"/>
<stop offset="0.3" stop-color="#DCDEDE"/>
<stop offset="0.53" stop-color="#EFF0F0"/>
<stop offset="0.76" stop-color="#FBFBFB"/>
<stop offset="1" stop-color="white"/>
</linearGradient>
<linearGradient id="paint13_linear_170_1242" x1="13.0613" y1="156.698" x2="20.1609" y2="156.698" gradientUnits="userSpaceOnUse">
<stop stop-color="#B7BCBC"/>
<stop offset="0.08" stop-color="#C1C5C5"/>
<stop offset="0.3" stop-color="#DCDEDE"/>
<stop offset="0.53" stop-color="#EFF0F0"/>
<stop offset="0.76" stop-color="#FBFBFB"/>
<stop offset="1" stop-color="white"/>
</linearGradient>
<linearGradient id="paint14_linear_170_1242" x1="15.9683" y1="81.8294" x2="174.841" y2="81.8294" gradientUnits="userSpaceOnUse">
<stop stop-color="#808080"/>
<stop offset="0.04" stop-color="#848484"/>
<stop offset="0.09" stop-color="#919191"/>
<stop offset="0.14" stop-color="#A7A7A6"/>
<stop offset="0.19" stop-color="#C5C5C4"/>
<stop offset="0.24" stop-color="#E6E6E5"/>
<stop offset="0.49" stop-color="#E5E5E4"/>
<stop offset="0.75" stop-color="#E7E7E6"/>
<stop offset="0.79" stop-color="#DFDFDE"/>
<stop offset="0.85" stop-color="#CACACA"/>
<stop offset="0.93" stop-color="#A9A9A8"/>
<stop offset="1" stop-color="#808080"/>
</linearGradient>
<linearGradient id="paint15_linear_170_1242" x1="23.0904" y1="47.4135" x2="167.696" y2="47.4135" gradientUnits="userSpaceOnUse">
<stop stop-color="#637771"/>
<stop offset="1" stop-color="#93A19D"/>
</linearGradient>
<linearGradient id="paint16_linear_170_1242" x1="43.3976" y1="47.413" x2="81.5098" y2="47.413" gradientUnits="userSpaceOnUse">
<stop stop-color="#808080"/>
<stop offset="0.2" stop-color="#AAAAAA"/>
<stop offset="0.39" stop-color="#CFCFCF"/>
<stop offset="0.58" stop-color="#E9E9E9"/>
<stop offset="0.75" stop-color="#F9F9F9"/>
<stop offset="0.88" stop-color="white"/>
</linearGradient>
<linearGradient id="paint17_linear_170_1242" x1="101.794" y1="48.1336" x2="159.087" y2="48.1336" gradientUnits="userSpaceOnUse">
<stop stop-color="#808080"/>
<stop offset="0.2" stop-color="#AAAAAA"/>
<stop offset="0.39" stop-color="#CFCFCF"/>
<stop offset="0.58" stop-color="#E9E9E9"/>
<stop offset="0.75" stop-color="#F9F9F9"/>
<stop offset="0.88" stop-color="white"/>
</linearGradient>
<linearGradient id="paint18_linear_170_1242" x1="12.4977" y1="72.662" x2="41.2108" y2="76.541" gradientUnits="userSpaceOnUse">
<stop stop-color="#BFC3C3"/>
<stop offset="0.1" stop-color="#D0D3D3"/>
<stop offset="0.26" stop-color="#E4E6E6"/>
<stop offset="0.45" stop-color="#F3F4F4"/>
<stop offset="0.66" stop-color="#FCFCFC"/>
<stop offset="1" stop-color="white"/>
</linearGradient>
<radialGradient id="paint19_radial_170_1242" cx="0" cy="0" r="1" gradientUnits="userSpaceOnUse" gradientTransform="translate(88.7602 73.6901) rotate(63.3253) scale(1.05876 1.05916)">
<stop stop-color="#191C20"/>
<stop offset="0.16" stop-color="#1D2024"/>
<stop offset="0.33" stop-color="#2A2D30"/>
<stop offset="0.5" stop-color="#404245"/>
<stop offset="0.51" stop-color="#3E4043"/>
<stop offset="0.56" stop-color="#2D2F33"/>
<stop offset="0.63" stop-color="#212428"/>
<stop offset="0.73" stop-color="#1A1D21"/>
<stop offset="1" stop-color="#191C20"/>
</radialGradient>
<linearGradient id="paint20_linear_170_1242" x1="88.9713" y1="74.2128" x2="88.924" y2="75.2704" gradientUnits="userSpaceOnUse">
<stop stop-color="#191C20"/>
<stop offset="0.16" stop-color="#1D2024"/>
<stop offset="0.33" stop-color="#2A2D30"/>
<stop offset="0.5" stop-color="#404245"/>
<stop offset="0.51" stop-color="#3E4043"/>
<stop offset="0.56" stop-color="#2D2F33"/>
<stop offset="0.63" stop-color="#212428"/>
<stop offset="0.73" stop-color="#1A1D21"/>
<stop offset="1" stop-color="#191C20"/>
</linearGradient>
<radialGradient id="paint21_radial_170_1242" cx="0" cy="0" r="1" gradientUnits="userSpaceOnUse" gradientTransform="translate(97.4442 70.4011) rotate(123.827) scale(1.05883 1.05909)">
<stop stop-color="#191C20"/>
<stop offset="0.16" stop-color="#1D2024"/>
<stop offset="0.33" stop-color="#2A2D30"/>
<stop offset="0.5" stop-color="#404245"/>
<stop offset="0.51" stop-color="#3E4043"/>
<stop offset="0.56" stop-color="#2D2F33"/>
<stop offset="0.63" stop-color="#212428"/>
<stop offset="0.73" stop-color="#1A1D21"/>
<stop offset="1" stop-color="#191C20"/>
</radialGradient>
<linearGradient id="paint22_linear_170_1242" x1="97.3683" y1="70.9947" x2="97.2838" y2="72.0499" gradientUnits="userSpaceOnUse">
<stop stop-color="#191C20"/>
<stop offset="0.16" stop-color="#1D2024"/>
<stop offset="0.33" stop-color="#2A2D30"/>
<stop offset="0.5" stop-color="#404245"/>
<stop offset="0.51" stop-color="#3E4043"/>
<stop offset="0.56" stop-color="#2D2F33"/>
<stop offset="0.63" stop-color="#212428"/>
<stop offset="0.73" stop-color="#1A1D21"/>
<stop offset="1" stop-color="#191C20"/>
</linearGradient>
<linearGradient id="paint23_linear_170_1242" x1="111.936" y1="156.631" x2="124.085" y2="156.631" gradientUnits="userSpaceOnUse">
<stop stop-color="#BFC3C3"/>
<stop offset="0.37" stop-color="#DCDEDE"/>
<stop offset="0.76" stop-color="#F5F6F6"/>
<stop offset="1" stop-color="white"/>
</linearGradient>
<linearGradient id="paint24_linear_170_1242" x1="95.7545" y1="124.219" x2="95.7545" y2="144.333" gradientUnits="userSpaceOnUse">
<stop stop-color="#BFC3C3"/>
<stop offset="0.1" stop-color="#D0D3D3"/>
<stop offset="0.26" stop-color="#E4E6E6"/>
<stop offset="0.45" stop-color="#F3F4F4"/>
<stop offset="0.66" stop-color="#FCFCFC"/>
<stop offset="1" stop-color="white"/>
</linearGradient>
<linearGradient id="paint25_linear_170_1242" x1="94.492" y1="111.786" x2="94.492" y2="110.862" gradientUnits="userSpaceOnUse">
<stop stop-color="#838688"/>
<stop offset="0.39" stop-color="#9A9C9D"/>
<stop offset="1" stop-color="#C8C8C7"/>
</linearGradient>
<linearGradient id="paint26_linear_170_1242" x1="94.492" y1="110.84" x2="94.492" y2="109.916" gradientUnits="userSpaceOnUse">
<stop stop-color="#4B5757"/>
<stop offset="0.15" stop-color="#949B9B"/>
<stop offset="0.2" stop-color="#9EA5A5"/>
<stop offset="0.35" stop-color="#C1C5C5"/>
<stop offset="0.51" stop-color="#DCDEDE"/>
<stop offset="0.67" stop-color="#EFF0F0"/>
<stop offset="0.83" stop-color="#FBFBFB"/>
<stop offset="1" stop-color="white"/>
</linearGradient>
<linearGradient id="paint27_linear_170_1242" x1="10.4691" y1="116.358" x2="48.063" y2="116.358" gradientUnits="userSpaceOnUse">
<stop stop-color="#5A5A57"/>
<stop offset="0.26" stop-color="#8C8C89"/>
<stop offset="0.57" stop-color="#C3C3C2"/>
<stop offset="0.73" stop-color="#D9D9D8"/>
<stop offset="0.82" stop-color="#D6D6D5"/>
<stop offset="0.86" stop-color="#CFCFCD"/>
<stop offset="0.9" stop-color="#C1C1C0"/>
<stop offset="0.93" stop-color="#AFAFAD"/>
<stop offset="0.95" stop-color="#979795"/>
<stop offset="0.98" stop-color="#797977"/>
<stop offset="1" stop-color="#5A5A57"/>
</linearGradient>
<linearGradient id="paint28_linear_170_1242" x1="22.0541" y1="116.155" x2="30.5285" y2="116.155" gradientUnits="userSpaceOnUse">
<stop stop-color="#1D1D1B"/>
<stop offset="1" stop-color="white"/>
</linearGradient>
<linearGradient id="paint29_linear_170_1242" x1="32.6921" y1="-64.7787" x2="41.144" y2="-64.7787" gradientUnits="userSpaceOnUse">
<stop stop-color="#1D1D1B"/>
<stop offset="1" stop-color="white"/>
</linearGradient>
<linearGradient id="paint30_linear_170_1242" x1="12.137" y1="113.385" x2="18.3801" y2="113.385" gradientUnits="userSpaceOnUse">
<stop stop-color="white"/>
<stop offset="1" stop-color="#6B6B6A"/>
</linearGradient>
<linearGradient id="paint31_linear_170_1242" x1="-23.2256" y1="117.484" x2="-20.9718" y2="117.484" gradientUnits="userSpaceOnUse">
<stop stop-color="white"/>
<stop offset="1" stop-color="#6B6B6A"/>
</linearGradient>
<linearGradient id="paint32_linear_170_1242" x1="10.4691" y1="116.358" x2="47.7475" y2="116.358" gradientUnits="userSpaceOnUse">
<stop stop-color="#D2D2D1"/>
<stop offset="0.27" stop-color="#D5D5D4"/>
<stop offset="0.99" stop-color="#D9D9D8"/>
</linearGradient>
<linearGradient id="paint33_linear_170_1242" x1="11.9568" y1="113.249" x2="47.5673" y2="113.249" gradientUnits="userSpaceOnUse">
<stop stop-color="white"/>
<stop offset="1" stop-color="#1D1D1B"/>
</linearGradient>
<linearGradient id="paint34_linear_170_1242" x1="178.357" y1="-64.7786" x2="140.763" y2="-64.7786" gradientUnits="userSpaceOnUse">
<stop stop-color="#5A5A57"/>
<stop offset="0.26" stop-color="#8C8C89"/>
<stop offset="0.57" stop-color="#C3C3C2"/>
<stop offset="0.73" stop-color="#D9D9D8"/>
<stop offset="0.82" stop-color="#D6D6D5"/>
<stop offset="0.86" stop-color="#CFCFCD"/>
<stop offset="0.9" stop-color="#C1C1C0"/>
<stop offset="0.93" stop-color="#AFAFAD"/>
<stop offset="0.95" stop-color="#979795"/>
<stop offset="0.98" stop-color="#797977"/>
<stop offset="1" stop-color="#5A5A57"/>
</linearGradient>
<linearGradient id="paint35_linear_170_1242" x1="166.772" y1="-64.7789" x2="158.321" y2="-64.7789" gradientUnits="userSpaceOnUse">
<stop stop-color="#1D1D1B"/>
<stop offset="1" stop-color="white"/>
</linearGradient>
<linearGradient id="paint36_linear_170_1242" x1="156.134" y1="-64.7789" x2="147.682" y2="-64.7789" gradientUnits="userSpaceOnUse">
<stop stop-color="#1D1D1B"/>
<stop offset="1" stop-color="white"/>
</linearGradient>
<linearGradient id="paint37_linear_170_1242" x1="176.711" y1="-64.7785" x2="170.445" y2="-64.7785" gradientUnits="userSpaceOnUse">
<stop stop-color="white"/>
<stop offset="1" stop-color="#6B6B6A"/>
</linearGradient>
<linearGradient id="paint38_linear_170_1242" x1="176.711" y1="117.483" x2="170.445" y2="117.483" gradientUnits="userSpaceOnUse">
<stop stop-color="white"/>
<stop offset="1" stop-color="#6B6B6A"/>
</linearGradient>
<linearGradient id="paint39_linear_170_1242" x1="178.357" y1="-64.7781" x2="141.079" y2="-64.7781" gradientUnits="userSpaceOnUse">
<stop stop-color="#D2D2D1"/>
<stop offset="0.27" stop-color="#D5D5D4"/>
<stop offset="0.99" stop-color="#D9D9D8"/>
</linearGradient>
<linearGradient id="paint40_linear_170_1242" x1="176.869" y1="-64.7786" x2="141.259" y2="-64.7786" gradientUnits="userSpaceOnUse">
<stop stop-color="white"/>
<stop offset="1" stop-color="#1D1D1B"/>
</linearGradient>
</defs>
</svg>
