<svg width="89" height="92" viewBox="0 0 89 92" fill="none" xmlns="http://www.w3.org/2000/svg">
<path d="M44.2382 18.0532H44.1651H5.89319V35.5506L44.1546 35.734H44.2278L82.5101 35.5506V18.0532H44.2382Z" fill="#DB9D33"/>
<path d="M51.2008 76.6038H49.7616C49.4391 76.6038 49.1776 76.8651 49.1776 77.1874V85.7545C49.1776 86.0769 49.4391 86.3382 49.7616 86.3382H51.2008C51.5234 86.3382 51.7849 86.0769 51.7849 85.7545V77.1874C51.7849 76.8651 51.5234 76.6038 51.2008 76.6038Z" fill="url(#paint0_linear_401_1586)"/>
<path d="M66.6257 81.8988H77.6596C77.7848 81.8988 77.8786 81.7738 77.8891 81.6174L78.7755 70.4447H66.3859V81.5862C66.3859 81.7529 66.4902 81.8988 66.6257 81.8988Z" fill="#191C20"/>
<path d="M8.76526 81.8988H19.7992C19.9243 81.8988 20.039 81.7633 20.039 81.5862V70.4447H7.64935L8.53582 81.6174C8.54625 81.7738 8.65054 81.8988 8.76526 81.8988Z" fill="#191C20"/>
<path d="M68.0645 68.5062H77.1065V84.5357C77.1065 85.359 76.439 86.0156 75.6256 86.0156H69.5559C68.732 86.0156 68.0749 85.3486 68.0749 84.5357V68.5062H68.0645Z" fill="url(#paint1_linear_401_1586)"/>
<path d="M9.5163 68.5062H18.5583V84.5357C18.5583 85.359 17.8908 86.0156 17.0773 86.0156H11.0076C10.1838 86.0156 9.52673 85.3486 9.52673 84.5357V68.5062H9.5163Z" fill="url(#paint2_linear_401_1586)"/>
<path d="M1.58521 35.0403H4.3489C5.15194 35.0403 5.79853 34.2586 5.79853 33.2998V20.9598C5.79853 19.9176 5.08936 19.0734 4.22375 19.0734H1.55392C1.23062 19.0734 0.949041 19.3131 0.844751 19.6883C0.552738 20.7618 0 23.2006 0 26.6921C0 30.1835 0.573596 33.1122 0.865609 34.3837C0.95947 34.7798 1.25148 35.0507 1.58521 35.0507V35.0403Z" fill="#282B2D"/>
<path d="M1.60586 34.9464H4.27569C5.07872 34.9464 5.72532 34.1647 5.72532 33.2059V21.0535C5.72532 20.0113 5.02657 19.1671 4.15054 19.1671H1.56414C1.24084 19.1671 0.959258 19.4068 0.865396 19.7715C0.573384 20.8346 0.0415039 23.263 0.0415039 26.7024C0.0415039 30.1417 0.604671 33.0287 0.886254 34.2794C0.969687 34.665 1.2617 34.936 1.59543 34.936L1.60586 34.9464Z" fill="#26292B"/>
<path d="M1.61646 34.8529H4.18199C4.98503 34.8529 5.64206 34.0713 5.64206 33.102V21.1372C5.64206 20.095 4.94331 19.2612 4.0777 19.2612H1.58517C1.2723 19.2612 0.990715 19.5009 0.896853 19.8657C0.61527 20.9288 0.104248 23.3363 0.104248 26.734C0.104248 30.1316 0.646557 32.9665 0.92814 34.2068C1.01157 34.5924 1.30359 34.8529 1.62688 34.8529H1.61646Z" fill="#24282A"/>
<path d="M1.62716 34.7583H4.09884C4.90187 34.7583 5.5589 33.9766 5.5589 33.0074V21.2302C5.5589 20.1984 4.86016 19.3542 3.99455 19.3542H1.59587C1.283 19.3542 1.00142 19.5939 0.917988 19.9586C0.646833 21.0113 0.14624 23.4084 0.14624 26.754C0.14624 30.0995 0.67812 32.9031 0.938846 34.1225C1.02228 34.4977 1.30386 34.7687 1.62716 34.7687V34.7583Z" fill="#232628"/>
<path d="M1.63738 34.6651H4.01519C4.81823 34.6651 5.47526 33.8834 5.47526 32.9141V21.3245C5.47526 20.2927 4.77651 19.459 3.92133 19.459H1.61652C1.30365 19.459 1.03249 19.6987 0.938633 20.053C0.677908 21.1057 0.187744 23.482 0.187744 26.7754C0.187744 30.0689 0.698766 32.8308 0.959492 34.0397C1.04292 34.4149 1.32451 34.6755 1.64781 34.6755L1.63738 34.6651Z" fill="#212426"/>
<path d="M1.6579 34.5714H3.93143C4.74489 34.5714 5.40192 33.7793 5.40192 32.81V21.408C5.40192 20.3762 4.70318 19.5424 3.848 19.5424H1.62661C1.32417 19.5424 1.05302 19.7822 0.959157 20.1365C0.698432 21.1788 0.229126 23.5446 0.229126 26.7859C0.229126 30.0273 0.729719 32.7475 0.980015 33.9356C1.06345 34.3108 1.3346 34.561 1.6579 34.561V34.5714Z" fill="#1F2224"/>
<path d="M1.66892 34.4669H3.84858C4.66205 34.4669 5.31908 33.6748 5.31908 32.7055V21.4912C5.31908 20.4698 4.63076 19.636 3.77558 19.636H1.64806C1.34562 19.636 1.07447 19.8757 0.991034 20.2196C0.740737 21.2619 0.28186 23.6069 0.28186 26.7961C0.28186 29.9853 0.761595 32.6743 1.00146 33.8416C1.07447 34.2064 1.35605 34.4669 1.66892 34.4669V34.4669Z" fill="#1D2123"/>
<path d="M1.67914 34.3729H3.76494C4.5784 34.3729 5.23543 33.5808 5.23543 32.6011V21.5847C5.23543 20.5633 4.54712 19.7296 3.69194 19.7296H1.65828C1.35584 19.7296 1.09511 19.9693 1.01168 20.3132C0.771812 21.345 0.323364 23.69 0.323364 26.8167C0.323364 29.9434 0.79267 32.6011 1.02211 33.758C1.09511 34.1227 1.36627 34.3729 1.67914 34.3729V34.3729Z" fill="#1B1F21"/>
<path d="M1.68942 34.2791H3.67094C4.4844 34.2791 5.15186 33.487 5.15186 32.5073V21.6785C5.15186 20.6571 4.46354 19.8338 3.60836 19.8338H1.67899C1.37655 19.8338 1.11583 20.0735 1.04282 20.4174C0.813385 21.4492 0.375366 23.7734 0.375366 26.848C0.375366 29.9226 0.823814 32.5385 1.05325 33.6746C1.12626 34.0289 1.38698 34.2791 1.69985 34.2791H1.68942Z" fill="#1A1D1F"/>
<path d="M1.71007 34.1856H3.59772C4.41118 34.1856 5.07864 33.3935 5.07864 32.4138V21.7726C5.07864 20.7512 4.39033 19.9279 3.54558 19.9279H1.68921C1.3972 19.9279 1.13647 20.1676 1.06347 20.5011C0.834031 21.5225 0.41687 23.8362 0.41687 26.8587C0.41687 29.8812 0.84446 32.4659 1.0739 33.5811C1.1469 33.9355 1.40763 34.1856 1.71007 34.1856V34.1856Z" fill="#181B1D"/>
<path d="M1.72048 34.0921H3.51427C4.33816 34.0921 4.99519 33.3 4.99519 32.3099V21.8564C4.99519 20.8454 4.30687 20.022 3.46212 20.022H1.69962C1.40761 20.022 1.15731 20.2617 1.08431 20.5953C0.865297 21.6166 0.468994 23.9095 0.468994 26.8799C0.468994 29.8503 0.886155 32.3933 1.09474 33.4981C1.15731 33.8524 1.41804 34.0921 1.72048 34.0921Z" fill="#161A1C"/>
<path d="M1.73118 33.9975H3.42068C4.24458 33.9975 4.91203 33.195 4.91203 32.2153V21.9493C4.91203 20.9383 4.23415 20.115 3.3894 20.115H1.72075C1.42874 20.115 1.17844 20.3443 1.10544 20.6882C0.89686 21.6992 0.510986 23.9817 0.510986 26.8999C0.510986 29.8181 0.907289 32.3195 1.11587 33.4034C1.17844 33.7474 1.43917 33.9871 1.73118 33.9871V33.9975Z" fill="#14181A"/>
<path d="M1.7414 33.9043H3.33704C4.16093 33.9043 4.82839 33.1018 4.82839 32.1221V22.0437C4.82839 21.0328 4.1505 20.2198 3.30575 20.2198H1.73097C1.44939 20.2198 1.19909 20.4491 1.12609 20.7826C0.927935 21.7936 0.55249 24.0552 0.55249 26.9214C0.55249 29.7875 0.938364 32.2576 1.13652 33.3206C1.19909 33.6646 1.44939 33.9043 1.7414 33.9043Z" fill="#121618"/>
<path d="M1.76211 33.81H3.26389C4.08778 33.81 4.75524 33.0075 4.75524 32.0174V22.1266C4.75524 21.1261 4.07736 20.3027 3.24303 20.3027H1.75168C1.4701 20.3027 1.2198 20.532 1.15723 20.8655C0.969508 21.866 0.604492 24.1173 0.604492 26.9313C0.604492 29.7453 0.969508 32.1737 1.16766 33.2263C1.23023 33.5599 1.48053 33.7996 1.76211 33.7996V33.81Z" fill="#101416"/>
<path d="M1.77294 33.7061H3.17043C3.99432 33.7061 4.66178 32.9036 4.66178 31.9135V22.2103C4.66178 21.2098 3.98389 20.3969 3.14957 20.3969H1.76251C1.48093 20.3969 1.24106 20.6261 1.17849 20.9597C0.990764 21.9602 0.646606 24.1906 0.646606 26.9525C0.646606 29.7144 1.00119 32.1011 1.17849 33.1433C1.24106 33.4768 1.48093 33.7165 1.76251 33.7165L1.77294 33.7061Z" fill="#0F1215"/>
<path d="M1.78335 33.6121H3.08698C3.91087 33.6121 4.58875 32.8095 4.58875 31.809V22.2934C4.58875 21.2929 3.91087 20.4904 3.07655 20.4904H1.78335C1.50176 20.4904 1.2619 20.7197 1.20975 21.0428C1.03246 22.0329 0.69873 24.2528 0.69873 26.9626C0.69873 29.6724 1.03246 32.0279 1.20975 33.0388C1.2619 33.3619 1.50176 33.6016 1.78335 33.6016V33.6121Z" fill="#0D1113"/>
<path d="M1.80387 33.5186H3.01364C3.84796 33.5186 4.51542 32.7161 4.51542 31.7155V22.3876C4.51542 21.3871 3.83753 20.5845 3.01364 20.5845H1.79344C1.52229 20.5845 1.28242 20.8138 1.23028 21.1369C1.06341 22.127 0.740112 24.3366 0.740112 26.9838C0.740112 29.6311 1.06341 31.9553 1.23028 32.9558C1.28242 33.2789 1.52229 33.5082 1.79344 33.5082L1.80387 33.5186Z" fill="#0B0F11"/>
<g style="mix-blend-mode:soft-light" opacity="0.06">
<path d="M2.97235 25.5452C2.87849 24.9929 4.11955 33.6746 5.25631 33.3411C5.89248 33.1535 5.42317 20.3654 4.94344 19.8547C4.45327 19.344 2.51348 19.0521 2.09632 19.6462C1.67915 20.2403 3.08707 26.2852 2.97235 25.5452V25.5452Z" fill="white"/>
</g>
<g style="mix-blend-mode:soft-light" opacity="0.12">
<path d="M3.02423 25.2326C2.9408 24.7324 4.09842 32.8513 5.18303 32.5387C5.78792 32.3615 5.37076 20.4071 4.91188 19.9173C4.453 19.417 2.63835 19.1356 2.23162 19.688C1.82489 20.2404 3.12852 25.8997 3.0138 25.2326H3.02423Z" fill="white"/>
</g>
<g style="mix-blend-mode:soft-light" opacity="0.19">
<path d="M3.07654 24.9207C2.9931 24.4726 4.08815 32.0287 5.12062 31.7473C5.70465 31.5806 5.31877 20.4704 4.90161 19.991C4.48445 19.5115 2.77409 19.2301 2.37779 19.7408C1.98149 20.262 3.19126 25.5252 3.07654 24.9207V24.9207Z" fill="white"/>
</g>
<g style="mix-blend-mode:soft-light" opacity="0.25">
<path d="M3.12758 24.6069C3.05457 24.2213 4.07662 31.2042 5.04652 30.9437C5.59926 30.7978 5.26553 20.511 4.87965 20.0524C4.49378 19.5834 2.89814 19.3124 2.52269 19.7814C2.14725 20.2608 3.2423 25.1384 3.13801 24.6069H3.12758Z" fill="white"/>
</g>
<g style="mix-blend-mode:soft-light" opacity="0.31">
<path d="M3.17 24.2949C3.10742 23.9614 4.05647 30.3816 4.96379 30.1418C5.49567 30.0063 5.20366 20.5638 4.83864 20.1156C4.48405 19.6674 3.01356 19.386 2.63812 19.8238C2.2731 20.2615 3.26386 24.7535 3.17 24.2845V24.2949Z" fill="white"/>
</g>
<g style="mix-blend-mode:soft-light" opacity="0.38">
<path d="M3.2225 23.9822C3.15992 23.7008 4.04639 29.5685 4.89114 29.3496C5.39173 29.2246 5.14144 20.6262 4.81814 20.1884C4.49484 19.7507 3.13907 19.4797 2.78448 19.8758C2.42989 20.2718 3.31636 24.3782 3.2225 23.9822V23.9822Z" fill="white"/>
</g>
<g style="mix-blend-mode:soft-light" opacity="0.44">
<path d="M3.27437 23.6798C3.22222 23.461 4.03568 28.7555 4.81786 28.5575C5.28717 28.4428 5.08902 20.6782 4.797 20.2613C4.50499 19.8444 3.26394 19.5735 2.91978 19.9278C2.57562 20.2822 3.3578 24.0029 3.27437 23.6798V23.6798Z" fill="white"/>
</g>
<g style="mix-blend-mode:soft-light" opacity="0.5">
<path d="M3.32633 23.3671C3.28461 23.2003 4.02507 27.9321 4.74467 27.7653C5.19312 27.6611 5.02626 20.7407 4.77596 20.3342C4.51523 19.9277 3.39933 19.6672 3.0656 19.9798C2.73187 20.3029 3.40976 23.6276 3.33675 23.3671H3.32633Z" fill="white"/>
</g>
<g style="mix-blend-mode:soft-light" opacity="0.56">
<path d="M3.37883 23.0547C3.33712 22.9401 4.015 27.109 4.67203 26.9631C5.08919 26.8693 4.97447 20.7827 4.74503 20.397C4.5156 20.0114 3.51441 19.7508 3.19111 20.0218C2.87824 20.3032 3.44141 23.2423 3.37883 23.0547V23.0547Z" fill="white"/>
</g>
<g style="mix-blend-mode:soft-light" opacity="0.62">
<path d="M3.43127 22.7415C3.39998 22.6894 3.99444 26.2955 4.59932 26.1704C4.99562 26.0871 4.92262 20.8446 4.72447 20.4694C4.52632 20.0942 3.63985 19.8441 3.33741 20.0838C3.03497 20.3235 3.49385 22.8666 3.43127 22.7519V22.7415Z" fill="white"/>
</g>
<g style="mix-blend-mode:soft-light" opacity="0.69">
<path d="M3.48248 22.4285C3.48248 22.4285 3.98307 25.4718 4.52538 25.3675C4.89039 25.2946 4.85911 20.886 4.70267 20.5316C4.53581 20.1668 3.76406 19.9167 3.47205 20.1251C3.18003 20.3232 3.52419 22.491 3.48248 22.4389V22.4285Z" fill="white"/>
</g>
<g style="mix-blend-mode:soft-light" opacity="0.75">
<path d="M3.53447 22.1167C3.51362 22.1792 3.97249 24.6493 4.45223 24.5764C4.78596 24.5243 4.80681 20.9494 4.67124 20.6055C4.54609 20.2615 3.88906 20.0114 3.60748 20.1782C3.32589 20.3345 3.56576 22.1167 3.53447 22.1271V22.1167Z" fill="white"/>
</g>
<g style="mix-blend-mode:soft-light" opacity="0.81">
<path d="M3.57705 21.8041C3.54576 21.9187 3.9525 23.8364 4.36966 23.7739C4.68253 23.7322 4.73467 20.9911 4.64081 20.668C4.54695 20.3345 4.00464 20.0948 3.73349 20.2199C3.46233 20.3345 3.58748 21.7311 3.57705 21.8145V21.8041Z" fill="white"/>
</g>
<g style="mix-blend-mode:soft-light" opacity="0.88">
<path d="M3.62849 21.4914C3.60763 21.6581 3.94136 23.013 4.29595 22.9713C4.57753 22.9401 4.68182 21.0432 4.61925 20.7305C4.55667 20.4179 4.12909 20.1782 3.87879 20.2615C3.61806 20.3449 3.64935 21.3455 3.62849 21.4914V21.4914Z" fill="white"/>
</g>
<g style="mix-blend-mode:soft-light" opacity="0.94">
<path d="M3.68121 21.1787C3.68121 21.408 3.9315 22.2001 4.22351 22.1792C4.48424 22.1584 4.63025 21.0953 4.58853 20.8035C4.55724 20.5013 4.2548 20.272 4.0045 20.3137C3.76464 20.3553 3.68121 20.9703 3.67078 21.1891L3.68121 21.1787Z" fill="white"/>
</g>
<g style="mix-blend-mode:soft-light">
<path d="M3.73303 20.8662C3.73303 21.1476 3.92075 21.3769 4.15019 21.3769C4.37963 21.3769 4.56735 21.1476 4.56735 20.8662C4.56735 20.5848 4.37963 20.3555 4.15019 20.3555C3.92075 20.3555 3.73303 20.5848 3.73303 20.8662Z" fill="white"/>
</g>
<path d="M86.8387 35.0403H84.002C83.1781 35.0403 82.5106 34.2586 82.5106 33.2998V20.9598C82.5106 19.9176 83.2407 19.0734 84.1271 19.0734H86.8804C87.2141 19.0734 87.5061 19.3131 87.6104 19.6883C87.9129 20.7618 88.476 23.2006 88.476 26.6921C88.476 30.1835 87.8816 33.1122 87.5896 34.3837C87.4957 34.7798 87.1933 35.0507 86.8491 35.0507L86.8387 35.0403Z" fill="#282B2D"/>
<path d="M86.8276 34.9464H84.0847C83.2608 34.9464 82.5934 34.1647 82.5934 33.2059V21.0535C82.5934 20.0113 83.313 19.1671 84.2099 19.1671H86.8693C87.1926 19.1671 87.4846 19.4068 87.5889 19.7715C87.8809 20.8346 88.4336 23.263 88.4336 26.7024C88.4336 30.1417 87.86 33.0287 87.568 34.2794C87.4742 34.665 87.1822 34.936 86.838 34.936L86.8276 34.9464Z" fill="#26292B"/>
<path d="M86.8174 34.8529H84.1788C83.3549 34.8529 82.6875 34.0713 82.6875 33.102V21.1372C82.6875 20.095 83.4071 19.2612 84.2936 19.2612H86.8591C87.1824 19.2612 87.4744 19.5009 87.5683 19.8657C87.8603 20.9288 88.3817 23.3363 88.3817 26.734C88.3817 30.1316 87.8186 32.9665 87.537 34.2068C87.4536 34.5924 87.1511 34.8529 86.8174 34.8529V34.8529Z" fill="#24282A"/>
<path d="M86.7963 34.7583H84.2621C83.4382 34.7583 82.7603 33.9766 82.7603 33.0074V21.2302C82.7603 20.1984 83.4799 19.3542 84.3664 19.3542H86.8276C87.1509 19.3542 87.4325 19.5939 87.5264 19.9586C87.808 21.0113 88.319 23.4084 88.319 26.754C88.319 30.0995 87.7767 32.9031 87.5055 34.1225C87.4221 34.4977 87.1301 34.7687 86.7963 34.7687V34.7583Z" fill="#232628"/>
<path d="M86.786 34.6651H84.3456C83.5113 34.6651 82.8438 33.8834 82.8438 32.9141V21.3245C82.8438 20.2927 83.5634 19.459 84.4394 19.459H86.8068C87.1301 19.459 87.4013 19.6987 87.4952 20.053C87.7663 21.1057 88.2669 23.482 88.2669 26.7754C88.2669 30.0689 87.7455 32.8308 87.4743 34.0397C87.3909 34.4149 87.0989 34.6755 86.7756 34.6755L86.786 34.6651Z" fill="#212426"/>
<path d="M86.7759 34.5714H84.4398C83.6054 34.5714 82.938 33.7793 82.938 32.81V21.408C82.938 20.3762 83.6472 19.5424 84.5336 19.5424H86.8072C87.12 19.5424 87.4016 19.7822 87.485 20.1365C87.7458 21.1788 88.2359 23.5446 88.2359 26.7859C88.2359 30.0273 87.7249 32.7475 87.4642 33.9356C87.3807 34.3108 87.0992 34.561 86.7759 34.561V34.5714Z" fill="#1F2224"/>
<path d="M86.7552 34.4669H84.5129C83.6786 34.4669 83.0007 33.6748 83.0007 32.7055V21.4912C83.0007 20.4698 83.7099 19.636 84.5964 19.636H86.776C87.0889 19.636 87.3601 19.8757 87.4539 20.2196C87.7147 21.2619 88.184 23.6069 88.184 26.7961C88.184 29.9853 87.6938 32.6743 87.4435 33.8416C87.3601 34.2064 87.0889 34.4669 86.7656 34.4669H86.7552Z" fill="#1D2123"/>
<path d="M86.7438 34.3729H84.6059C83.7716 34.3729 83.0937 33.5808 83.0937 32.6011V21.5847C83.0937 20.5633 83.8029 19.7296 84.6789 19.7296H86.7647C87.0776 19.7296 87.3487 19.9693 87.4322 20.3132C87.6825 21.345 88.1413 23.69 88.1413 26.8167C88.1413 29.9434 87.6616 32.6011 87.4217 33.758C87.3487 34.1227 87.0671 34.3729 86.7543 34.3729H86.7438Z" fill="#1B1F21"/>
<path d="M86.7343 34.2791H84.7006C83.8663 34.2791 83.1884 33.487 83.1884 32.5073V21.6785C83.1884 20.6571 83.8976 19.8338 84.7736 19.8338H86.7656C87.068 19.8338 87.3392 20.0735 87.4226 20.4174C87.6625 21.4492 88.1005 23.7734 88.1005 26.848C88.1005 29.9226 87.6416 32.5385 87.4017 33.6746C87.3287 34.0289 87.0576 34.2791 86.7343 34.2791V34.2791Z" fill="#1A1D1F"/>
<path d="M86.7237 34.1856H84.7839C83.9495 34.1856 83.2612 33.3935 83.2612 32.4138V21.7726C83.2612 20.7512 83.9704 19.9279 84.836 19.9279H86.7341C87.0365 19.9279 87.2973 20.1676 87.3807 20.5011C87.6101 21.5225 88.0377 23.8362 88.0377 26.8587C88.0377 29.8812 87.5893 32.4659 87.3703 33.5811C87.2973 33.9355 87.0261 34.1856 86.7132 34.1856H86.7237Z" fill="#181B1D"/>
<path d="M86.7023 34.0921H84.8668C84.0221 34.0921 83.3442 33.3 83.3442 32.3099V21.8564C83.3442 20.8454 84.0429 20.022 84.919 20.022H86.7232C87.0256 20.022 87.2863 20.2617 87.3593 20.5953C87.5784 21.6166 87.9955 23.9095 87.9955 26.8799C87.9955 29.8503 87.5679 32.3933 87.3489 33.4981C87.2759 33.8524 87.0152 34.0921 86.7023 34.0921Z" fill="#161A1C"/>
<path d="M86.6925 33.9975H84.9509C84.1061 33.9975 83.4282 33.195 83.4282 32.2153V21.9493C83.4282 20.9383 84.127 20.115 84.9926 20.115H86.7029C86.9949 20.115 87.2557 20.3443 87.3287 20.6882C87.5477 21.6992 87.944 23.9817 87.944 26.8999C87.944 29.8181 87.5373 32.3195 87.3182 33.4034C87.2557 33.7474 86.9845 33.9871 86.6821 33.9871L86.6925 33.9975Z" fill="#14181A"/>
<path d="M86.6815 33.9043H85.0442C84.1994 33.9043 83.5111 33.1018 83.5111 32.1221V22.0437C83.5111 21.0328 84.2099 20.2198 85.0755 20.2198H86.692C86.984 20.2198 87.2447 20.4491 87.3073 20.7826C87.5159 21.7936 87.9017 24.0552 87.9017 26.9214C87.9017 29.7875 87.5054 32.2576 87.3073 33.3206C87.2447 33.6646 86.984 33.9043 86.6815 33.9043V33.9043Z" fill="#121618"/>
<path d="M86.6611 33.81H85.1176C84.2729 33.81 83.5845 33.0075 83.5845 32.0174V22.1266C83.5845 21.1261 84.2833 20.3027 85.1385 20.3027H86.6611C86.9531 20.3027 87.2034 20.532 87.266 20.8655C87.4641 21.866 87.8396 24.1173 87.8396 26.9313C87.8396 29.7453 87.4641 32.1737 87.266 33.2263C87.2034 33.5599 86.9531 33.7996 86.6507 33.7996L86.6611 33.81Z" fill="#101416"/>
<path d="M86.6504 33.7061H85.2112C84.3664 33.7061 83.6781 32.9036 83.6781 31.9135V22.2103C83.6781 21.2098 84.3768 20.3969 85.232 20.3969H86.6608C86.9528 20.3969 87.1927 20.6261 87.2657 20.9597C87.4534 21.9602 87.808 24.1906 87.808 26.9525C87.808 29.7144 87.443 32.1011 87.2553 33.1433C87.1927 33.4768 86.9424 33.7165 86.6504 33.7165V33.7061Z" fill="#0F1215"/>
<path d="M86.64 33.6121H85.3051C84.4499 33.6121 83.7616 32.8095 83.7616 31.809V22.2934C83.7616 21.2929 84.4499 20.4904 85.3051 20.4904H86.64C86.9216 20.4904 87.1719 20.7197 87.2345 21.0428C87.4117 22.0329 87.7559 24.2528 87.7559 26.9626C87.7559 29.6724 87.4117 32.0279 87.2345 33.0388C87.1719 33.3619 86.932 33.6016 86.64 33.6016V33.6121Z" fill="#0D1113"/>
<path d="M86.629 33.5186H85.388C84.5328 33.5186 83.8445 32.7161 83.8445 31.7155V22.3876C83.8445 21.3871 84.5328 20.5845 85.388 20.5845H86.629C86.9106 20.5845 87.1505 20.8138 87.2131 21.1369C87.3904 22.127 87.7137 24.3366 87.7137 26.9838C87.7137 29.6311 87.3904 31.9553 87.2131 32.9558C87.1609 33.2789 86.9106 33.5082 86.629 33.5082V33.5186Z" fill="#0B0F11"/>
<g style="mix-blend-mode:soft-light" opacity="0.06">
<path d="M85.4203 25.5452C85.5142 24.9929 84.2419 33.6746 83.0738 33.3411C82.4168 33.1535 82.8965 20.3654 83.3971 19.8547C83.8977 19.344 85.8896 19.0521 86.3172 19.6462C86.7448 20.2403 85.2952 26.2852 85.4203 25.5452V25.5452Z" fill="white"/>
</g>
<g style="mix-blend-mode:soft-light" opacity="0.12">
<path d="M85.3684 25.2326C85.4623 24.7324 84.2629 32.8513 83.147 32.5387C82.5213 32.3615 82.9593 20.4071 83.4182 19.9173C83.8875 19.417 85.7543 19.1356 86.1714 19.688C86.5886 20.2404 85.2433 25.8997 85.3684 25.2326V25.2326Z" fill="white"/>
</g>
<g style="mix-blend-mode:soft-light" opacity="0.19">
<path d="M85.3153 24.9207C85.3988 24.4726 84.2724 32.0287 83.2191 31.7473C82.6247 31.5806 83.0105 20.4704 83.4486 19.991C83.8866 19.5115 85.6386 19.2301 86.035 19.7408C86.4417 20.262 85.2006 25.5252 85.3153 24.9207V24.9207Z" fill="white"/>
</g>
<g style="mix-blend-mode:soft-light" opacity="0.25">
<path d="M85.2632 24.6069C85.3362 24.2213 84.2829 31.2042 83.2921 30.9437C82.7185 30.7978 83.0627 20.511 83.4694 20.0524C83.8657 19.5834 85.5031 19.3124 85.889 19.7814C86.2748 20.2608 85.1589 25.1384 85.2632 24.6069V24.6069Z" fill="white"/>
</g>
<g style="mix-blend-mode:soft-light" opacity="0.31">
<path d="M85.2116 24.2949C85.2846 23.9614 84.3043 30.3816 83.3761 30.1418C82.8338 30.0063 83.1363 20.5638 83.5013 20.1156C83.8663 19.6674 85.3785 19.386 85.754 19.8238C86.1294 20.2615 85.1178 24.7535 85.2116 24.2845V24.2949Z" fill="white"/>
</g>
<g style="mix-blend-mode:soft-light" opacity="0.38">
<path d="M85.1594 23.9822C85.2219 23.7008 84.3146 29.5685 83.449 29.3496C82.938 29.2246 83.1883 20.6262 83.522 20.1884C83.8557 19.7507 85.2428 19.4797 85.6078 19.8758C85.9728 20.2718 85.0655 24.3782 85.1489 23.9822H85.1594Z" fill="white"/>
</g>
<g style="mix-blend-mode:soft-light" opacity="0.44">
<path d="M85.1064 23.6798C85.1585 23.461 84.3242 28.7555 83.5211 28.5575C83.031 28.4428 83.25 20.6782 83.542 20.2613C83.8445 19.8444 85.1168 19.5735 85.4714 19.9278C85.826 20.2822 85.0229 24.0029 85.1064 23.6798Z" fill="white"/>
</g>
<g style="mix-blend-mode:soft-light" opacity="0.5">
<path d="M85.0544 23.3671C85.1065 23.2003 84.3452 27.9321 83.6047 27.7653C83.1459 27.6611 83.3127 20.7407 83.5734 20.3342C83.8446 19.9277 84.9918 19.6672 85.3359 19.9798C85.6801 20.3029 84.9814 23.6276 85.0544 23.3671V23.3671Z" fill="white"/>
</g>
<g style="mix-blend-mode:soft-light" opacity="0.56">
<path d="M85.0025 23.0547C85.0442 22.9401 84.3559 27.109 83.678 26.9631C83.2504 26.8693 83.3651 20.7827 83.605 20.397C83.8344 20.0114 84.8669 19.7508 85.2006 20.0218C85.5239 20.3032 84.9399 23.2423 85.0129 23.0547H85.0025Z" fill="white"/>
</g>
<g style="mix-blend-mode:soft-light" opacity="0.62">
<path d="M84.9504 22.7415C84.9817 22.6894 84.3664 26.2955 83.751 26.1704C83.3443 26.0871 83.4277 20.8446 83.6259 20.4694C83.824 20.0942 84.7418 19.8441 85.0547 20.0838C85.3675 20.3235 84.8878 22.8666 84.9504 22.7519V22.7415Z" fill="white"/>
</g>
<g style="mix-blend-mode:soft-light" opacity="0.69">
<path d="M84.8983 22.4285C84.8983 22.4285 84.3768 25.4718 83.8241 25.3675C83.4487 25.2946 83.4799 20.886 83.6468 20.5316C83.8137 20.1668 84.6063 19.9167 84.9087 20.1251C85.2112 20.3232 84.8566 22.491 84.8983 22.4389V22.4285Z" fill="white"/>
</g>
<g style="mix-blend-mode:soft-light" opacity="0.75">
<path d="M84.8464 22.1167C84.8673 22.1792 84.398 24.6493 83.9078 24.5764C83.5636 24.5243 83.5428 20.9494 83.6783 20.6055C83.8139 20.2615 84.4814 20.0114 84.7734 20.1782C85.0654 20.3345 84.8151 22.1167 84.8464 22.1271V22.1167Z" fill="white"/>
</g>
<g style="mix-blend-mode:soft-light" opacity="0.81">
<path d="M84.7936 21.8041C84.8249 21.9187 84.4078 23.8364 83.9802 23.7739C83.6569 23.7322 83.6047 20.9911 83.6986 20.668C83.8029 20.3345 84.3556 20.0948 84.6268 20.2199C84.8979 20.3345 84.7728 21.7311 84.7936 21.8145V21.8041Z" fill="white"/>
</g>
<g style="mix-blend-mode:soft-light" opacity="0.88">
<path d="M84.7424 21.4914C84.7633 21.6581 84.4191 23.013 84.0541 22.9713C83.7621 22.9401 83.6578 21.0432 83.7204 20.7305C83.783 20.4179 84.221 20.1782 84.4817 20.2615C84.7424 20.3449 84.7216 21.3455 84.732 21.4914H84.7424Z" fill="white"/>
</g>
<g style="mix-blend-mode:soft-light" opacity="0.94">
<path d="M84.6897 21.1787C84.6897 21.408 84.429 22.2001 84.1265 22.1792C83.8658 22.1584 83.7094 21.0953 83.7511 20.8035C83.7824 20.5013 84.0952 20.272 84.3455 20.3137C84.5958 20.3553 84.6793 20.9703 84.6897 21.1891V21.1787Z" fill="white"/>
</g>
<g style="mix-blend-mode:soft-light">
<path d="M84.6375 20.8662C84.6375 21.1476 84.4497 21.3769 84.2099 21.3769C83.97 21.3769 83.7823 21.1476 83.7823 20.8662C83.7823 20.5848 83.97 20.3555 84.2099 20.3555C84.4497 20.3555 84.6375 20.5848 84.6375 20.8662Z" fill="white"/>
</g>
<path d="M82.6232 35.0293C81.7159 26.014 78.2535 11.8293 76.5014 5.0027C75.9069 2.67853 73.8524 1.03181 71.4537 0.948429C71.4537 0.948429 62.7559 0 44.1193 0C22.7607 0 16.8474 0.948429 16.8474 0.948429C14.4487 1.03181 12.3942 2.67853 11.7998 5.0027C10.0477 11.8189 6.58524 26.014 5.67792 35.0293C4.16571 50.027 5.12518 64.045 5.12518 64.045C5.94907 70.5172 9.39065 75.3219 9.39065 75.3219H78.9105C78.9105 75.3219 82.3521 70.5172 83.176 64.045C83.176 64.045 84.1354 50.0374 82.6232 35.0293V35.0293Z" fill="#FF765D"/>
<path d="M39.1971 74.1128H49.4906V89.7045C49.4906 90.7676 48.6354 91.6222 47.5716 91.6222H41.1161C40.0523 91.6222 39.1971 90.7676 39.1971 89.7045V74.1128V74.1128Z" fill="url(#paint3_linear_401_1586)"/>
<path d="M55.9663 51.2882H32.4176L33.6587 55.7385C33.8464 56.4264 34.4721 56.8954 35.1813 56.8954H53.2026C53.9118 56.8954 54.5376 56.416 54.7253 55.7281L55.9663 51.2778V51.2882Z" fill="url(#paint4_linear_401_1586)"/>
<path d="M55.0595 54.5292H33.3254L32.8665 52.9137H55.5079L55.0595 54.5292Z" fill="url(#paint5_linear_401_1586)"/>
<path d="M55.5076 52.9137H32.8662L32.4177 51.2878H55.9665L55.5076 52.9137Z" fill="url(#paint6_linear_401_1586)"/>
<path d="M54.3607 56.1451H34.0346C33.8781 56.1451 33.7425 56.0408 33.7008 55.8949L33.3254 54.5296H55.0595L54.6736 55.9053C54.6319 56.0513 54.5067 56.1451 54.3607 56.1451Z" fill="url(#paint7_linear_401_1586)"/>
<path style="mix-blend-mode:multiply" d="M55.9663 51.2882H32.4176L33.6587 55.7385C33.8464 56.4264 34.4721 56.8954 35.1813 56.8954H53.2026C53.9118 56.8954 54.5376 56.416 54.7253 55.7281L55.9663 51.2778V51.2882Z" fill="url(#paint8_radial_401_1586)"/>
<path style="mix-blend-mode:multiply" d="M82.1648 68.8916H77.1171V76.1143H79.7348C80.225 76.1143 80.6421 75.9684 80.7569 75.7599C80.955 75.3951 81.2574 74.7698 81.5182 74.0194C82.3734 71.4659 82.6341 69.7567 82.7071 69.1522C82.7279 69.0167 82.4776 68.9021 82.1752 68.9021L82.1648 68.8916Z" fill="url(#paint9_linear_401_1586)"/>
<path style="mix-blend-mode:multiply" d="M9.33884 68.8914H5.85555C5.5531 68.8914 5.30281 69.006 5.32366 69.1415C5.39667 69.7565 5.65739 71.4657 6.51257 74.0087C6.76287 74.7696 7.07574 75.3845 7.27389 75.7493C7.38861 75.9577 7.80577 76.1036 8.29594 76.1036H9.33884V68.881V68.8914Z" fill="url(#paint10_linear_401_1586)"/>
<path d="M74.0298 9.43309C73.6231 7.77594 72.163 6.60865 70.4631 6.56696L44.182 5.96246H44.109L17.8278 6.56696C16.1279 6.60865 14.6574 7.77594 14.2611 9.43309C12.8845 15.082 9.90179 27.9014 9.33862 35.0302L44.0985 35.7077H44.1716L78.9419 35.0302C78.3892 27.9014 75.396 15.082 74.0194 9.43309H74.0298Z" fill="#232628"/>
<path style="mix-blend-mode:soft-light" opacity="0.5" d="M80.9028 36.4575C80.9028 36.4575 53.3389 37.2183 44.1405 37.2183C34.9421 37.2183 7.37817 36.4575 7.37817 36.4575V37.9687C7.37817 37.9687 34.9629 39.2715 44.1718 39.2715C53.3597 39.2715 80.8923 37.9687 80.8923 37.9687V36.4575H80.9028Z" fill="url(#paint11_linear_401_1586)"/>
<path d="M72.643 10.777C72.4031 9.89108 71.6105 9.27617 70.6927 9.25533L44.276 8.66125L17.609 9.25533C16.6913 9.27617 15.8987 9.89108 15.6588 10.777C14.5012 15.0189 11.2682 27.3589 10.6946 34.5294L44.2656 35.2068L77.6072 34.5294C77.0336 27.3693 73.8006 15.0293 72.643 10.777V10.777Z" fill="url(#paint12_linear_401_1586)"/>
<g style="mix-blend-mode:multiply">
<path d="M51.658 20.6326C51.4629 19.4741 50.2641 18.6109 48.8283 18.6109H46.7932V17.8386C48.0198 17.5205 48.9259 16.5892 48.9259 15.4875C48.9259 14.1246 47.5598 13.0002 45.8732 13.0002H39.1544C37.4816 13.0002 36.1016 14.1132 36.1016 15.4875C36.1016 16.5892 37.0077 17.5205 38.2344 17.8386V18.6109H36.1992C34.7635 18.6109 33.5647 19.4741 33.3695 20.6326L30.9998 35.0002H53.9998L51.6301 20.6326H51.658ZM39.4332 17.9749H45.6083V18.6109H39.4332V17.9749Z" fill="#B3B3B5"/>
</g>
<path style="mix-blend-mode:soft-light" opacity="0.5" d="M23.3974 7.53596L20.081 35.8742L37.2993 36.4578L37.7165 7.41089L23.3974 7.53596Z" fill="url(#paint13_linear_401_1586)"/>
<path style="mix-blend-mode:soft-light" opacity="0.5" d="M47.1021 8.14069L47.7591 37.1876L73.6127 36.4581L68.4607 7.36945L47.1021 8.14069Z" fill="url(#paint14_linear_401_1586)"/>
<g style="mix-blend-mode:soft-light">
<path d="M17.0874 8.66141L12.5299 36.5932L16.8579 37.156L20.9357 7.69214L17.0874 8.66141Z" fill="#A0A1A5"/>
</g>
<path style="mix-blend-mode:multiply" d="M76.5021 5.00237C75.9076 2.6782 73.8531 1.03148 71.4544 0.948101L65.0093 0.718811L72.4347 68.8389H82.1233C82.5822 67.3381 82.968 65.7018 83.1871 64.0342C83.1871 64.0342 84.1465 50.0267 82.6343 35.0186C81.727 26.0033 78.2646 11.8186 76.5125 4.99195L76.5021 5.00237Z" fill="url(#paint15_linear_401_1586)"/>
<path style="mix-blend-mode:multiply" d="M22.7502 0.750793L16.8474 0.95924C14.4487 1.04262 12.3942 2.68934 11.7998 5.01351C10.0477 11.8297 6.58524 26.0249 5.67792 35.0401C4.16571 50.0378 5.12518 64.0558 5.12518 64.0558C5.33376 65.7234 5.73006 67.3597 6.18894 68.8605H15.3352L22.7607 0.761216L22.7502 0.750793Z" fill="url(#paint16_linear_401_1586)"/>
<path d="M41.314 34.5917C41.1054 34.6959 40.8238 34.5604 40.6883 34.2894C40.5527 34.0185 40.6153 33.7162 40.8238 33.612C41.0324 33.5078 41.314 33.6433 41.4496 33.9142C41.5852 34.1852 41.5226 34.4875 41.314 34.5917Z" fill="url(#paint17_radial_401_1586)"/>
<path d="M31.6052 34.2377C31.6052 34.0501 31.7721 33.8938 31.9702 33.9042L50.3253 34.7275C50.513 34.7275 50.6695 34.8943 50.659 35.0923C50.659 35.2799 31.6052 34.4357 31.6052 34.2377Z" fill="url(#paint18_linear_401_1586)"/>
<path d="M28.4452 35.019L24.5864 34.8627L25.5876 33.5182C25.7753 33.2681 26.0882 33.1534 26.3906 33.2159L28.3722 33.6641C28.4869 33.685 28.5912 33.7475 28.6642 33.8309L28.8936 34.081C29.2273 34.4458 28.9458 35.0294 28.4556 35.0086L28.4452 35.019Z" fill="#0F1216"/>
<path d="M44.8192 33.0602C45.0173 33.1853 45.3093 33.0915 45.4762 32.8414C45.6431 32.5912 45.6222 32.2786 45.4345 32.1535C45.2468 32.0284 44.9443 32.1222 44.7775 32.3724C44.6106 32.6225 44.6314 32.9352 44.8192 33.0602Z" fill="url(#paint19_radial_401_1586)"/>
<path d="M54.497 33.9248C54.5075 33.7372 54.3719 33.5704 54.1842 33.5496L35.8708 32.0801C35.6831 32.0696 35.5162 32.2051 35.4954 32.3927C35.4849 32.5803 54.4866 34.102 54.5075 33.9144L54.497 33.9248Z" fill="url(#paint20_linear_401_1586)"/>
<path d="M57.208 35.1548H61.0772L60.1282 33.7686C59.9509 33.508 59.6484 33.383 59.3356 33.4351L57.3332 33.7999C57.2185 33.8207 57.1142 33.8728 57.0307 33.9562L56.8013 34.1959C56.4571 34.5503 56.7074 35.1443 57.1976 35.1443L57.208 35.1548Z" fill="#0F1216"/>
<g filter="url(#filter0_d_401_1586)">
<path d="M82.1647 68.8395H5.85555C5.5531 68.8395 5.30281 68.9542 5.32366 69.0897C5.39667 69.7046 5.65739 71.4243 6.51257 73.9882C6.76287 74.749 7.07574 75.3743 7.27389 75.7391C7.38861 75.9475 7.80577 76.1039 8.29594 76.1039H79.7243C80.2144 76.1039 80.6316 75.9475 80.7463 75.7391C80.9445 75.3743 81.2469 74.749 81.5076 73.9882C82.3628 71.4243 82.6235 69.7046 82.6966 69.0897C82.7174 68.9542 82.4671 68.8395 82.1647 68.8395Z" fill="#036463"/>
</g>
<path style="mix-blend-mode:multiply" d="M57.4271 68.8397H51.7955V76.1145H57.4271V68.8397Z" fill="url(#paint21_linear_401_1586)"/>
<path d="M53.5264 79.7514C53.5368 80.1266 53.2761 80.4497 52.9111 80.5122C51.7222 80.7103 48.8229 81.0959 44.0151 81.0959C39.6975 81.0959 36.7357 80.7103 35.4946 80.5122C35.1192 80.4497 34.848 80.1162 34.8689 79.7306C35.0879 75.9994 36.5375 57.7187 44.1507 57.7187C52.4313 57.7187 53.4117 76.0723 53.5264 79.7514V79.7514Z" fill="#036463"/>
<g style="mix-blend-mode:soft-light">
<g style="mix-blend-mode:soft-light">
<path d="M44.0156 58.3544C46.8836 58.3544 49.5638 61.627 49.5638 65.3686C49.5638 69.1102 48.8547 80.0536 44.6726 80.0536C40.4906 80.0536 39.2078 69.1102 39.2078 65.9209C39.2078 62.7317 41.0016 58.3439 44.0156 58.3439V58.3544Z" fill="#808080"/>
</g>
<g style="mix-blend-mode:soft-light">
<path d="M44.0152 58.4069C46.7998 58.4069 49.4174 61.5961 49.4174 65.2335C49.4174 68.8709 48.7291 79.5329 44.6514 79.5329C40.5736 79.5329 39.3326 68.8813 39.3326 65.7859C39.3326 62.6904 41.0742 58.4069 44.0152 58.4069Z" fill="#868686"/>
</g>
<g style="mix-blend-mode:soft-light">
<path d="M44.0256 58.4483C46.7372 58.4483 49.2714 61.5438 49.2714 65.0873C49.2714 68.6309 48.604 78.9907 44.6409 78.9907C40.6779 78.9907 39.4681 68.6309 39.4681 65.6189C39.4681 62.6068 41.1681 58.4483 44.0256 58.4483V58.4483Z" fill="#8C8C8C"/>
</g>
<g style="mix-blend-mode:soft-light">
<path d="M44.0361 58.4904C46.6746 58.4904 49.1359 61.5024 49.1359 64.9418C49.1359 68.3811 48.4789 78.4595 44.6305 78.4595C40.7822 78.4595 39.6038 68.3915 39.6038 65.4629C39.6038 62.5342 41.2515 58.4904 44.0361 58.4904Z" fill="#929292"/>
</g>
<g style="mix-blend-mode:soft-light">
<path d="M44.0468 58.5318C46.6123 58.5318 49.0005 61.4605 49.0005 64.8061C49.0005 68.1516 48.3644 77.9277 44.6308 77.9277C40.8972 77.9277 39.75 68.1516 39.75 65.3063C39.75 62.461 41.3561 58.5318 44.0468 58.5318Z" fill="#989898"/>
</g>
<g style="mix-blend-mode:soft-light">
<path d="M44.0572 58.5739C46.5393 58.5739 48.8649 61.4087 48.8649 64.6605C48.8649 67.9122 48.2496 77.3965 44.6203 77.3965C40.991 77.3965 39.8856 67.9122 39.8856 65.1503C39.8856 62.3884 41.4395 58.5843 44.0572 58.5843V58.5739Z" fill="#9E9E9E"/>
</g>
<g style="mix-blend-mode:soft-light">
<path d="M44.0673 58.6254C46.4764 58.6254 48.7291 61.3768 48.7291 64.5244C48.7291 67.6719 48.1346 76.8644 44.62 76.8644C41.1054 76.8644 40.0312 67.6719 40.0312 64.9934C40.0312 62.3149 41.533 58.6254 44.0777 58.6254H44.0673Z" fill="#A4A4A4"/>
</g>
<g style="mix-blend-mode:soft-light">
<path d="M44.0777 58.6674C46.4138 58.6674 48.5935 61.3355 48.5935 64.3788C48.5935 67.4221 48.0199 76.3332 44.6096 76.3332C41.1993 76.3332 40.1668 67.4221 40.1668 64.8374C40.1668 62.2527 41.6269 58.6674 44.0777 58.6674Z" fill="#AAAAAA"/>
</g>
<g style="mix-blend-mode:soft-light">
<path d="M44.0888 58.7089C46.3414 58.7089 48.4481 61.2832 48.4481 64.2327C48.4481 67.1822 47.8954 75.791 44.5998 75.791C41.3042 75.791 40.303 67.1718 40.303 64.6704C40.303 62.1691 41.711 58.7089 44.0888 58.7089V58.7089Z" fill="#B0B0B0"/>
</g>
<g style="mix-blend-mode:soft-light">
<path d="M44.0986 58.7509C46.2783 58.7509 48.312 61.2418 48.312 64.0871C48.312 66.9324 47.7696 75.2598 44.5888 75.2598C41.4079 75.2598 40.438 66.9324 40.438 64.5144C40.438 62.0964 41.8042 58.7509 44.0986 58.7509Z" fill="#B6B6B6"/>
</g>
<g style="mix-blend-mode:soft-light">
<path d="M44.1093 58.7923C46.216 58.7923 48.1766 61.1999 48.1766 63.9409C48.1766 66.682 47.6552 74.7176 44.589 74.7176C41.5229 74.7176 40.5843 66.682 40.5843 64.3474C40.5843 62.0128 41.8983 58.7923 44.1197 58.7923H44.1093Z" fill="#BCBCBC"/>
</g>
<g style="mix-blend-mode:soft-light">
<path d="M44.1191 58.8445C46.1423 58.8445 48.0404 61.1582 48.0404 63.8055C48.0404 66.4527 47.5398 74.1965 44.578 74.1965C41.6161 74.1965 40.7192 66.4527 40.7192 64.2119C40.7192 61.9711 41.9916 58.8549 44.1191 58.8549V58.8445Z" fill="#C3C3C3"/>
</g>
<g style="mix-blend-mode:soft-light">
<path d="M44.1298 58.8859C46.08 58.8859 47.9051 61.1163 47.9051 63.6593C47.9051 66.2023 47.4254 73.6543 44.5783 73.6543C41.7311 73.6543 40.8655 66.2023 40.8655 64.0449C40.8655 61.8875 42.0857 58.8859 44.1403 58.8859H44.1298Z" fill="#C9C9C9"/>
</g>
<g style="mix-blend-mode:soft-light">
<path d="M44.1408 58.9285C46.0181 58.9285 47.7701 61.0651 47.7701 63.5143C47.7701 65.9636 47.3113 73.1133 44.5684 73.1133C41.8256 73.1133 41.0017 65.9532 41.0017 63.8791C41.0017 61.8051 42.1698 58.9285 44.1513 58.9285H44.1408Z" fill="#CFCFCF"/>
</g>
<g style="mix-blend-mode:soft-light">
<path d="M44.1507 58.97C45.9445 58.97 47.634 61.0232 47.634 63.3682C47.634 65.7132 47.1856 72.5815 44.5679 72.5815C41.9502 72.5815 41.1367 65.7132 41.1367 63.7225C41.1367 61.7319 42.2631 58.97 44.1507 58.97V58.97Z" fill="#D5D5D5"/>
</g>
<g style="mix-blend-mode:soft-light">
<path d="M44.1609 59.0112C45.8817 59.0112 47.4878 60.981 47.4878 63.2218C47.4878 65.4626 47.0602 72.039 44.5468 72.039C42.0334 72.039 41.2617 65.4626 41.2617 63.5553C41.2617 61.648 42.3358 59.0008 44.1505 59.0008L44.1609 59.0112Z" fill="#DBDBDB"/>
</g>
<g style="mix-blend-mode:soft-light">
<path d="M44.1716 59.0635C45.8194 59.0635 47.3524 60.9396 47.3524 63.0865C47.3524 65.2335 46.9457 71.5182 44.547 71.5182C42.1484 71.5182 41.4079 65.2335 41.4079 63.4096C41.4079 61.5857 42.4404 59.0635 44.1716 59.0635Z" fill="#E1E1E1"/>
</g>
<g style="mix-blend-mode:soft-light">
<path d="M44.1719 59.1053C45.7363 59.1053 47.2068 60.898 47.2068 62.9407C47.2068 64.9835 46.8209 70.9763 44.5265 70.9763C42.2321 70.9763 41.5334 64.9835 41.5334 63.243C41.5334 61.5025 42.5137 59.0949 44.1615 59.0949L44.1719 59.1053Z" fill="#E7E7E7"/>
</g>
<g style="mix-blend-mode:soft-light">
<path d="M44.182 59.147C45.6734 59.147 47.0709 60.8563 47.0709 62.8052C47.0709 64.7542 46.7059 70.4552 44.5262 70.4552C42.3465 70.4552 41.6791 64.7542 41.6791 63.0971C41.6791 61.4399 42.6177 59.147 44.182 59.147V59.147Z" fill="#EDEDED"/>
</g>
<g style="mix-blend-mode:soft-light">
<path d="M44.1925 59.1884C45.6108 59.1884 46.9353 60.8039 46.9353 62.6591C46.9353 64.5142 46.5807 69.913 44.5158 69.913C42.4508 69.913 41.8146 64.5038 41.8146 62.93C41.8146 61.3563 42.7011 59.1884 44.1925 59.1884V59.1884Z" fill="#F3F3F3"/>
</g>
<g style="mix-blend-mode:soft-light">
<path d="M44.2031 59.2299C45.538 59.2299 46.7999 60.762 46.7999 62.5129C46.7999 64.2639 46.4662 69.3812 44.516 69.3812C42.5658 69.3812 41.9609 64.2639 41.9609 62.7839C41.9609 61.304 42.7952 59.2403 44.2135 59.2403L44.2031 59.2299Z" fill="#F9F9F9"/>
</g>
<g style="mix-blend-mode:soft-light">
<path d="M44.2133 59.2826C45.4752 59.2826 46.6537 60.7209 46.6537 62.378C46.6537 64.0352 46.3409 68.8503 44.4949 68.8503C42.649 68.8503 42.0858 64.0247 42.0858 62.6281C42.0858 61.2316 42.8784 59.293 44.2029 59.293L44.2133 59.2826Z" fill="white"/>
</g>
</g>
<path style="mix-blend-mode:multiply" d="M36.8199 66.9636H51.7855C50.4715 62.0651 48.1771 57.7086 44.1411 57.7086C40.4179 57.7086 38.1757 62.0651 36.8199 66.9636Z" fill="url(#paint22_linear_401_1586)"/>
<g style="mix-blend-mode:multiply">
<g style="mix-blend-mode:multiply" opacity="0.05">
<path d="M44.2555 57.7403C43.9843 58.3135 47.4259 62.8159 49.1154 68.371C50.7841 73.8635 52.776 76.0522 53.2974 76.0626C53.8189 76.0731 64.2792 76.0001 64.8841 75.9584C65.489 75.9167 62.8921 68.6732 59.8156 64.0457C55.2477 57.1774 44.7874 56.5834 44.2555 57.7403V57.7403Z" fill="#FDFDFD"/>
</g>
<g style="mix-blend-mode:multiply" opacity="0.1">
<path d="M44.3698 57.7707C44.1091 58.323 47.5403 62.69 49.2402 68.2451C50.888 73.6542 52.7861 75.9992 53.2971 76.0305C53.8081 76.0618 63.7782 75.9054 64.3414 75.8116C64.9046 75.7178 62.4225 68.6307 59.3981 64.0344C54.9553 57.3121 44.8809 56.6555 44.3594 57.7707H44.3698Z" fill="#FBFBFB"/>
</g>
<g style="mix-blend-mode:multiply" opacity="0.14">
<path d="M44.4742 57.8022C44.2239 58.3338 47.655 62.5757 49.3549 68.1203C50.9923 73.4565 52.7965 75.9475 53.2867 75.9892C53.7769 76.0308 63.2568 75.8016 63.7991 75.6661C64.3415 75.5306 61.9636 68.5789 58.9809 64.0244C54.6529 57.4479 44.9643 56.7392 44.4637 57.8022H44.4742Z" fill="#F9F9F9"/>
</g>
<g style="mix-blend-mode:multiply" opacity="0.19">
<path d="M44.5892 57.8331C44.3493 58.3438 47.77 62.4501 49.4804 67.9948C51.0969 73.2476 52.8073 75.8949 53.287 75.9574C53.7667 76.02 62.7461 75.7073 63.2571 75.5197C63.7682 75.3321 61.5051 68.5263 58.5745 64.0135C54.3612 57.5725 45.0689 56.8221 44.5788 57.8331H44.5892Z" fill="#F6F6F6"/>
</g>
<g style="mix-blend-mode:multiply" opacity="0.24">
<path d="M44.694 57.865C44.4542 58.3548 47.8853 62.3257 49.6061 67.8704C51.2017 73.0502 52.8182 75.8538 53.2875 75.9268C53.7568 75.9998 62.2461 75.6141 62.7258 75.3848C63.2055 75.1556 61.0676 68.4853 58.1683 64.0141C54.0906 57.7086 45.1633 56.9165 44.694 57.8754V57.865Z" fill="#F4F4F4"/>
</g>
<g style="mix-blend-mode:multiply" opacity="0.29">
<path d="M44.8085 57.8962C44.579 58.3652 47.9998 62.211 49.731 67.7349C51.3162 72.8314 52.8388 75.7913 53.2873 75.8747C53.7357 75.958 61.7348 75.4995 62.1832 75.2181C62.6317 74.9367 60.6084 68.4123 57.7509 63.9828C53.7879 57.8233 45.2569 56.9686 44.8085 57.8962V57.8962Z" fill="#F2F2F2"/>
</g>
<g style="mix-blend-mode:multiply" opacity="0.33">
<path d="M44.923 57.9276C44.704 58.3757 48.1247 62.0861 49.8559 67.6099C51.4203 72.6334 52.8491 75.7393 53.2871 75.8435C53.7251 75.9477 61.234 75.4058 61.6511 75.0827C62.0892 74.7491 60.1598 68.3707 57.344 63.9829C53.4957 57.9693 45.3506 57.0625 44.923 57.938V57.9276Z" fill="#F0F0F0"/>
</g>
<g style="mix-blend-mode:multiply" opacity="0.38">
<path d="M45.0275 57.9582C44.8189 58.3855 48.2292 61.9708 49.9709 67.4842C51.5144 72.4243 52.8597 75.6865 53.2873 75.8012C53.7149 75.9158 60.7232 75.2905 61.1091 74.9257C61.5158 74.5401 59.7012 68.318 56.9375 63.9614C53.2143 58.0833 45.4447 57.1348 45.0379 57.9582H45.0275Z" fill="#EEEEEE"/>
</g>
<g style="mix-blend-mode:multiply" opacity="0.43">
<path d="M45.1418 57.9899C44.9332 58.3963 48.3539 61.8461 50.0955 67.3595C51.6182 72.2267 52.8697 75.6452 53.2868 75.7703C53.704 75.8954 60.2221 75.1971 60.5767 74.7906C60.9521 74.3529 59.2522 68.2767 56.5302 63.9514C52.9218 58.2192 45.5485 57.2186 45.1522 57.9899H45.1418Z" fill="#ECECEC"/>
</g>
<g style="mix-blend-mode:multiply" opacity="0.48">
<path d="M45.2463 58.0211C45.0482 58.4067 48.4585 61.7314 50.2105 67.2344C51.7227 72.0182 52.8699 75.5931 53.2767 75.7286C53.6834 75.864 59.7009 75.0928 60.0242 74.6342C60.3788 74.1444 58.7727 68.2141 56.1029 63.9305C52.6092 58.3442 45.6218 57.2811 45.2463 58.0107V58.0211Z" fill="#EAEAEA"/>
</g>
<g style="mix-blend-mode:multiply" opacity="0.52">
<path d="M45.3616 58.0521C45.1738 58.4169 48.5841 61.6061 50.3362 67.1091C51.8276 71.82 52.8913 75.5407 53.2772 75.6971C53.6839 75.8638 59.2009 74.9884 59.4825 74.4985C59.8058 73.9566 58.3144 68.1722 55.6863 63.9303C52.3177 58.4794 45.7162 57.3747 45.3511 58.0521H45.3616Z" fill="#E7E7E7"/>
</g>
<g style="mix-blend-mode:multiply" opacity="0.57">
<path d="M45.4756 58.0834C45.2983 58.4273 48.6982 61.481 50.4607 66.9736C51.9312 71.6011 52.9011 75.4782 53.2765 75.6554C53.6728 75.8325 58.6892 74.8841 58.9499 74.3421C59.2419 73.7481 57.8653 68.12 55.2893 63.9094C52.0355 58.6045 45.8198 57.4476 45.4756 58.073V58.0834Z" fill="#E5E5E5"/>
</g>
<g style="mix-blend-mode:multiply" opacity="0.62">
<path d="M45.5804 58.115C45.4031 58.4277 48.803 61.3668 50.5759 66.8489C52.036 71.4034 52.912 75.4369 53.2666 75.614C53.6525 75.8121 58.1682 74.7698 58.3977 74.1966C58.6584 73.5504 57.3965 68.0683 54.8622 63.8994C51.7231 58.7403 45.8933 57.5209 45.5804 58.1046V58.115Z" fill="#E3E3E3"/>
</g>
<g style="mix-blend-mode:multiply" opacity="0.67">
<path d="M45.6945 58.1462C45.5277 58.438 48.9275 61.2416 50.7005 66.7237C52.1397 71.1949 52.9218 75.3846 53.266 75.5827C53.631 75.7911 57.6566 74.6759 57.8652 74.061C58.0946 73.3627 56.9474 68.0265 54.4549 63.8993C51.4305 58.8861 45.997 57.6146 45.6945 58.1462V58.1462Z" fill="#E1E1E1"/>
</g>
<g style="mix-blend-mode:multiply" opacity="0.71">
<path d="M45.7986 58.1774C45.6422 58.4483 49.0316 61.1269 50.8254 66.5986C52.2438 70.9968 52.9321 75.3325 53.2658 75.5409C53.6204 75.7702 57.1558 74.5716 57.3227 73.9046C57.5208 73.1542 56.4779 67.9743 54.0376 63.8784C51.1279 59.0112 46.0802 57.6875 45.7986 58.1669V58.1774Z" fill="#DFDFDF"/>
</g>
<g style="mix-blend-mode:multiply" opacity="0.76">
<path d="M45.9141 58.2089C45.7577 58.459 49.1575 61.002 50.9513 66.4737C52.3592 70.7886 52.9537 75.2806 53.2665 75.5099C53.6107 75.7496 56.6456 74.4676 56.7916 73.7693C56.9584 72.9668 56.0302 67.9329 53.642 63.8786C50.847 59.1573 46.1852 57.7816 45.9245 58.2193L45.9141 58.2089Z" fill="#DDDDDD"/>
</g>
<g style="mix-blend-mode:multiply" opacity="0.81">
<path d="M46.0289 58.2394C45.8829 58.4687 49.2723 60.8867 51.0766 66.348C52.4636 70.5899 52.9642 75.2382 53.2667 75.4779C53.6004 75.7385 56.1346 74.3732 56.2494 73.6228C56.3849 72.7681 55.5715 67.8801 53.2249 63.8675C50.5447 59.2817 46.2792 57.8538 46.0289 58.2499V58.2394Z" fill="#DBDBDB"/>
</g>
<g style="mix-blend-mode:multiply" opacity="0.86">
<path d="M46.1331 58.271C45.9975 58.4795 49.387 60.762 51.1912 66.2233C52.5574 70.3818 52.9641 75.1864 53.2561 75.4366C53.5794 75.7075 55.6131 74.2693 55.7069 73.4772C55.8112 72.5809 55.1021 67.8387 52.8077 63.8574C50.2421 59.4175 46.3625 57.9375 46.1331 58.2815V58.271Z" fill="#D8D8D8"/>
</g>
<g style="mix-blend-mode:multiply" opacity="0.9">
<path d="M46.2473 58.3025C46.1117 58.4901 49.5012 60.6371 51.3158 66.0879C52.6716 70.1735 52.9845 75.1241 53.2556 75.395C53.558 75.6869 55.1015 74.1548 55.1641 73.321C55.2371 72.3726 54.6322 67.7868 52.39 63.8367C49.9288 59.5532 46.4455 58.0106 46.2369 58.3025H46.2473Z" fill="#D6D6D6"/>
</g>
<g style="mix-blend-mode:multiply" opacity="0.95">
<path d="M46.3516 58.3342C46.2264 58.5009 49.6159 60.5228 51.4305 65.9633C52.7654 69.9654 52.9844 75.0828 53.2452 75.3538C53.5372 75.6664 54.5801 74.051 54.6218 73.1755C54.6635 72.175 54.1733 67.7351 51.9832 63.8267C49.6471 59.6786 46.5497 58.084 46.362 58.3342H46.3516Z" fill="#D4D4D4"/>
</g>
<g style="mix-blend-mode:multiply">
<path d="M46.4665 58.355C46.3518 58.4905 49.7308 60.3874 51.5559 65.8278C52.87 69.757 52.9951 75.0203 53.2454 75.3121C53.527 75.6352 54.0693 73.9468 54.0797 73.0192C54.0797 71.9665 53.7147 67.6725 51.5663 63.8059C49.3449 59.8037 46.6334 58.157 46.4665 58.355V58.355Z" fill="#D2D2D2"/>
</g>
</g>
<path style="mix-blend-mode:soft-light" d="M82.6961 51.2878H4.73914V51.7255H82.6961V51.2878Z" fill="url(#paint23_linear_401_1586)"/>
<path style="mix-blend-mode:multiply" d="M82.6961 50.8402H4.7392V51.278H82.6961V50.8402Z" fill="url(#paint24_linear_401_1586)"/>
<path d="M19.2773 56.5306L5.80304 55.8323C5.26073 55.801 4.84357 55.3633 4.84357 54.8213V52.174C4.84357 51.6112 5.30244 51.1631 5.85518 51.1631H19.3295C19.8926 51.1631 20.3411 51.6217 20.3411 52.174V55.53C20.3411 56.1137 19.8509 56.5723 19.2773 56.541V56.5306Z" fill="url(#paint25_linear_401_1586)"/>
<path d="M9.06696 51.1528H5.86525C5.30209 51.1528 4.85364 51.6114 4.85364 52.1637V54.811C4.85364 55.353 5.28123 55.7907 5.81311 55.822L9.06696 55.9887V51.1424V51.1528Z" fill="#C45C00"/>
<path style="mix-blend-mode:soft-light" d="M12.1645 55.7071C13.2474 55.7071 14.1252 54.8299 14.1252 53.7477C14.1252 52.6656 13.2474 51.7883 12.1645 51.7883C11.0817 51.7883 10.2039 52.6656 10.2039 53.7477C10.2039 54.8299 11.0817 55.7071 12.1645 55.7071Z" fill="url(#paint26_linear_401_1586)"/>
<path style="mix-blend-mode:soft-light" d="M17.0872 55.7071C18.1701 55.7071 19.0479 54.8299 19.0479 53.7477C19.0479 52.6656 18.1701 51.7883 17.0872 51.7883C16.0044 51.7883 15.1266 52.6656 15.1266 53.7477C15.1266 54.8299 16.0044 55.7071 17.0872 55.7071Z" fill="url(#paint27_linear_401_1586)"/>
<path style="mix-blend-mode:soft-light" d="M7.83649 53.1331H6.28257C5.91755 53.1331 5.61511 52.8308 5.61511 52.466C5.61511 52.1013 5.91755 51.799 6.28257 51.799H7.83649C8.20151 51.799 8.50395 52.1013 8.50395 52.466C8.50395 52.8308 8.20151 53.1331 7.83649 53.1331Z" fill="url(#paint28_linear_401_1586)"/>
<path style="mix-blend-mode:soft-light" d="M7.83649 55.0302H6.28257C5.91755 55.0302 5.61511 54.7279 5.61511 54.3631C5.61511 53.9984 5.91755 53.6961 6.28257 53.6961H7.83649C8.20151 53.6961 8.50395 53.9984 8.50395 54.3631C8.50395 54.7279 8.20151 55.0302 7.83649 55.0302Z" fill="url(#paint29_linear_401_1586)"/>
<path style="mix-blend-mode:multiply" d="M12.1647 51.153H5.85518C5.29201 51.153 4.84357 51.6116 4.84357 52.164V54.8112C4.84357 55.3532 5.27116 55.7909 5.80304 55.8222L19.2773 56.5205C19.6841 56.5413 20.0386 56.3121 20.2159 55.9785L6.52264 54.905C6.01162 54.8634 5.61531 54.436 5.61531 53.9253V52.6851C5.61531 52.1744 6.00119 51.7575 6.50178 51.7054L12.1647 51.153V51.153Z" fill="url(#paint30_linear_401_1586)"/>
<path style="mix-blend-mode:soft-light" d="M19.2562 51.288H6.49109C5.96119 51.288 5.53162 51.7173 5.53162 52.2469V52.57C5.53162 53.0995 5.96119 53.5288 6.49109 53.5288H19.2562C19.7861 53.5288 20.2157 53.0995 20.2157 52.57V52.2469C20.2157 51.7173 19.7861 51.288 19.2562 51.288Z" fill="url(#paint31_linear_401_1586)"/>
<path d="M68.0955 56.5307L81.5698 55.8324C82.1121 55.8011 82.5293 55.3634 82.5293 54.8214V52.1741C82.5293 51.6113 82.0704 51.1632 81.5176 51.1632H68.0434C67.4802 51.1632 67.0317 51.6218 67.0317 52.1741V55.5301C67.0317 56.1138 67.5219 56.5724 68.0955 56.5411V56.5307Z" fill="url(#paint32_linear_401_1586)"/>
<path d="M78.3166 51.1529H81.5183C82.0815 51.1529 82.5299 51.6115 82.5299 52.1638V54.8111C82.5299 55.3531 82.1023 55.7908 81.5704 55.8221L78.3166 55.9888V51.1425V51.1529Z" fill="#C45C00"/>
<path style="mix-blend-mode:soft-light" d="M73.2583 53.7478C73.2583 54.8317 74.1343 55.7072 75.219 55.7072C76.3036 55.7072 77.1796 54.8317 77.1796 53.7478C77.1796 52.6639 76.3036 51.7884 75.219 51.7884C74.1343 51.7884 73.2583 52.6639 73.2583 53.7478Z" fill="url(#paint33_linear_401_1586)"/>
<path style="mix-blend-mode:soft-light" d="M70.2962 55.7072C71.3791 55.7072 72.2569 54.83 72.2569 53.7478C72.2569 52.6657 71.3791 51.7884 70.2962 51.7884C69.2134 51.7884 68.3356 52.6657 68.3356 53.7478C68.3356 54.83 69.2134 55.7072 70.2962 55.7072Z" fill="url(#paint34_linear_401_1586)"/>
<path style="mix-blend-mode:soft-light" d="M79.5465 53.1332H81.1005C81.4655 53.1332 81.7679 52.8309 81.7679 52.4661C81.7679 52.1013 81.4655 51.7991 81.1005 51.7991H79.5465C79.1815 51.7991 78.8791 52.1013 78.8791 52.4661C78.8791 52.8309 79.1815 53.1332 79.5465 53.1332Z" fill="url(#paint35_linear_401_1586)"/>
<path style="mix-blend-mode:soft-light" d="M79.5465 55.0303H81.1005C81.4655 55.0303 81.7679 54.728 81.7679 54.3632C81.7679 53.9984 81.4655 53.6962 81.1005 53.6962H79.5465C79.1815 53.6962 78.8791 53.9984 78.8791 54.3632C78.8791 54.728 79.1815 55.0303 79.5465 55.0303Z" fill="url(#paint36_linear_401_1586)"/>
<path style="mix-blend-mode:multiply" d="M75.2085 51.1531H81.5181C82.0812 51.1531 82.5297 51.6117 82.5297 52.1641V54.8113C82.5297 55.3533 82.1021 55.791 81.5702 55.8223L68.0959 56.5206C67.6892 56.5414 67.3346 56.3121 67.1573 55.9786L80.8506 54.9051C81.3616 54.8634 81.7579 54.4361 81.7579 53.9254V52.6852C81.7579 52.1745 81.372 51.7576 80.8715 51.7055L75.2085 51.1531V51.1531Z" fill="url(#paint37_linear_401_1586)"/>
<path style="mix-blend-mode:soft-light" d="M68.1168 53.5186H80.8819C81.4118 53.5186 81.8414 53.0893 81.8414 52.5597V52.2366C81.8414 51.7071 81.4118 51.2778 80.8819 51.2778H68.1168C67.5869 51.2778 67.1573 51.7071 67.1573 52.2366V52.5597C67.1573 53.0893 67.5869 53.5186 68.1168 53.5186Z" fill="url(#paint38_linear_401_1586)"/>
<path d="M48.7529 35.5291C48.8419 34.7077 48.7573 33.8767 48.5045 33.0901C48.2516 32.3035 47.8362 31.5788 47.2852 30.9632C46.7342 30.3475 46.0599 29.8546 45.306 29.5164C44.5522 29.1782 43.7356 29.0022 42.9094 29C42.0832 28.9978 41.2657 29.1693 40.51 29.5035C39.7544 29.8377 39.0774 30.327 38.5231 30.9397C37.9688 31.5524 37.5495 32.2748 37.2925 33.06C37.0354 33.8453 36.9464 34.6758 37.031 35.4977" stroke="black" stroke-opacity="0.3" stroke-width="3"/>
<path d="M31.3391 70.1699H13.2552C13.0824 70.1699 12.9423 70.3099 12.9423 70.4826V74.2034C12.9423 74.376 13.0824 74.516 13.2552 74.516H31.3391C31.5119 74.516 31.652 74.376 31.652 74.2034V70.4826C31.652 70.3099 31.5119 70.1699 31.3391 70.1699Z" fill="#87CF9A"/>
<path d="M31.3388 74.6305H13.2549C13.015 74.6305 12.8273 74.4429 12.8273 74.2032V70.4824C12.8273 70.2427 13.015 70.0551 13.2549 70.0551H31.3388C31.5786 70.0551 31.7664 70.2427 31.7664 70.4824V74.2032C31.7664 74.4429 31.5786 74.6305 31.3388 74.6305ZM13.2549 70.2844C13.1401 70.2844 13.0567 70.3782 13.0567 70.4824V74.2032C13.0567 74.3178 13.1506 74.4012 13.2549 74.4012H31.3388C31.4535 74.4012 31.5369 74.3074 31.5369 74.2032V70.4824C31.5369 70.3678 31.4431 70.2844 31.3388 70.2844H13.2549Z" fill="#40BE61"/>
<path d="M14.3473 72.3914H14.4382C14.4698 72.3914 14.4951 72.3878 14.5142 72.3807C14.5333 72.3728 14.5507 72.3598 14.5665 72.3417L15.1605 71.7023C15.1771 71.6818 15.1946 71.6676 15.2128 71.6597C15.2311 71.6518 15.2535 71.6478 15.2801 71.6478H15.4843L14.8044 72.3784C14.7878 72.3973 14.7716 72.4131 14.7558 72.4257C14.7409 72.4376 14.7247 72.4474 14.7072 72.4553C14.7297 72.4624 14.75 72.4731 14.7683 72.4873C14.7865 72.5007 14.8044 72.5185 14.8218 72.5406L15.5316 73.3445H15.3224C15.3066 73.3445 15.2929 73.3437 15.2813 73.3422C15.2705 73.3398 15.261 73.3366 15.2527 73.3327C15.2444 73.328 15.2369 73.3228 15.2303 73.3173C15.2245 73.311 15.2186 73.3039 15.2128 73.296L14.5976 72.6223C14.581 72.6025 14.5632 72.5887 14.5441 72.5808C14.525 72.5721 14.4959 72.5678 14.4569 72.5678H14.3473V73.3445H14.107V71.6478H14.3473V72.3914Z" fill="white"/>
<path d="M16.6664 72.7146L16.3862 72.0243C16.3779 72.0038 16.3692 71.9801 16.36 71.9533C16.3509 71.9257 16.3422 71.8965 16.3339 71.8657C16.3165 71.9296 16.2986 71.9829 16.2803 72.0255L16.0001 72.7146H16.6664ZM17.1695 73.3445H16.9827C16.9611 73.3445 16.9437 73.3394 16.9304 73.3291C16.9171 73.3189 16.9071 73.3059 16.9005 73.2901L16.7336 72.8804H15.9329L15.766 73.2901C15.761 73.3043 15.7515 73.3169 15.7374 73.328C15.7233 73.339 15.7058 73.3445 15.6851 73.3445H15.4983L16.2118 71.6478H16.4559L17.1695 73.3445Z" fill="white"/>
<path d="M19.026 72.4968C19.026 72.6452 19.009 72.7738 18.975 72.8828C18.9418 72.9909 18.8961 73.0805 18.838 73.1515C18.7799 73.2226 18.711 73.2755 18.6313 73.3102C18.5524 73.3449 18.4677 73.3623 18.3772 73.3623C18.2859 73.3623 18.2008 73.3449 18.1219 73.3102C18.0439 73.2755 17.9758 73.2226 17.9177 73.1515C17.8596 73.0805 17.8139 72.9909 17.7807 72.8828C17.7475 72.7738 17.7309 72.6452 17.7309 72.4968C17.7309 72.3484 17.7475 72.2197 17.7807 72.1108C17.8139 72.0018 17.8596 71.9119 17.9177 71.8408C17.9758 71.769 18.0439 71.7157 18.1219 71.681C18.2008 71.6462 18.2859 71.6289 18.3772 71.6289C18.4677 71.6289 18.5524 71.6462 18.6313 71.681C18.711 71.7157 18.7799 71.769 18.838 71.8408C18.8961 71.9119 18.9418 72.0018 18.975 72.1108C19.009 72.2197 19.026 72.3484 19.026 72.4968ZM18.7957 72.4968C18.7957 72.3673 18.784 72.2588 18.7608 72.1712C18.7384 72.0828 18.7077 72.0117 18.6686 71.958C18.6304 71.9044 18.586 71.8661 18.5354 71.8432C18.4847 71.8195 18.432 71.8077 18.3772 71.8077C18.3224 71.8077 18.2697 71.8195 18.2191 71.8432C18.1684 71.8661 18.124 71.9044 18.0858 71.958C18.0476 72.0117 18.0169 72.0828 17.9937 72.1712C17.9713 72.2588 17.9601 72.3673 17.9601 72.4968C17.9601 72.6262 17.9713 72.7348 17.9937 72.8224C18.0169 72.91 18.0476 72.9806 18.0858 73.0343C18.124 73.088 18.1684 73.1267 18.2191 73.1503C18.2697 73.1732 18.3224 73.1847 18.3772 73.1847C18.432 73.1847 18.4847 73.1732 18.5354 73.1503C18.586 73.1267 18.6304 73.088 18.6686 73.0343C18.7077 72.9806 18.7384 72.91 18.7608 72.8224C18.784 72.7348 18.7957 72.6262 18.7957 72.4968Z" fill="white"/>
<path d="M20.4334 72.4968C20.4334 72.6452 20.4164 72.7738 20.3824 72.8828C20.3492 72.9909 20.3035 73.0805 20.2454 73.1515C20.1873 73.2226 20.1184 73.2755 20.0387 73.3102C19.9598 73.3449 19.8751 73.3623 19.7846 73.3623C19.6933 73.3623 19.6082 73.3449 19.5293 73.3102C19.4513 73.2755 19.3832 73.2226 19.3251 73.1515C19.267 73.0805 19.2213 72.9909 19.1881 72.8828C19.1549 72.7738 19.1383 72.6452 19.1383 72.4968C19.1383 72.3484 19.1549 72.2197 19.1881 72.1108C19.2213 72.0018 19.267 71.9119 19.3251 71.8408C19.3832 71.769 19.4513 71.7157 19.5293 71.681C19.6082 71.6462 19.6933 71.6289 19.7846 71.6289C19.8751 71.6289 19.9598 71.6462 20.0387 71.681C20.1184 71.7157 20.1873 71.769 20.2454 71.8408C20.3035 71.9119 20.3492 72.0018 20.3824 72.1108C20.4164 72.2197 20.4334 72.3484 20.4334 72.4968ZM20.2031 72.4968C20.2031 72.3673 20.1914 72.2588 20.1682 72.1712C20.1458 72.0828 20.1151 72.0117 20.076 71.958C20.0378 71.9044 19.9934 71.8661 19.9428 71.8432C19.8921 71.8195 19.8394 71.8077 19.7846 71.8077C19.7298 71.8077 19.6771 71.8195 19.6265 71.8432C19.5758 71.8661 19.5314 71.9044 19.4932 71.958C19.455 72.0117 19.4243 72.0828 19.4011 72.1712C19.3787 72.2588 19.3674 72.3673 19.3674 72.4968C19.3674 72.6262 19.3787 72.7348 19.4011 72.8224C19.4243 72.91 19.455 72.9806 19.4932 73.0343C19.5314 73.088 19.5758 73.1267 19.6265 73.1503C19.6771 73.1732 19.7298 73.1847 19.7846 73.1847C19.8394 73.1847 19.8921 73.1732 19.9428 73.1503C19.9934 73.1267 20.0378 73.088 20.076 73.0343C20.1151 72.9806 20.1458 72.91 20.1682 72.8224C20.1914 72.7348 20.2031 72.6262 20.2031 72.4968Z" fill="white"/>
<path d="M22.1638 72.7146L21.8836 72.0243C21.8753 72.0038 21.8665 71.9801 21.8574 71.9533C21.8483 71.9257 21.8396 71.8965 21.8313 71.8657C21.8138 71.9296 21.796 71.9829 21.7777 72.0255L21.4975 72.7146H22.1638ZM22.6669 73.3445H22.4801C22.4585 73.3445 22.441 73.3394 22.4278 73.3291C22.4145 73.3189 22.4045 73.3059 22.3979 73.2901L22.231 72.8804H21.4303L21.2634 73.2901C21.2584 73.3043 21.2489 73.3169 21.2348 73.328C21.2206 73.339 21.2032 73.3445 21.1825 73.3445H20.9957L21.7092 71.6478H21.9533L22.6669 73.3445Z" fill="white"/>
<path d="M23.4907 73.1622C23.5596 73.1622 23.6189 73.1547 23.6687 73.1397C23.7185 73.1247 23.7592 73.1038 23.7908 73.0769C23.8232 73.0493 23.8468 73.0169 23.8618 72.9798C23.8767 72.942 23.8842 72.9005 23.8842 72.8555C23.8842 72.7679 23.8514 72.6988 23.7858 72.6483C23.7202 72.597 23.6218 72.5714 23.4907 72.5714H23.1046V73.1622H23.4907ZM23.1046 71.829V72.408H23.4234C23.4915 72.408 23.5504 72.4009 23.6002 72.3867C23.6509 72.3724 23.6924 72.3527 23.7248 72.3275C23.758 72.3022 23.7825 72.2718 23.7983 72.2363C23.814 72.2 23.8219 72.1605 23.8219 72.1179C23.8219 72.0176 23.7904 71.9446 23.7273 71.8988C23.6642 71.8523 23.5662 71.829 23.4334 71.829H23.1046ZM23.4334 71.6478C23.543 71.6478 23.6372 71.6581 23.7161 71.6786C23.7958 71.6991 23.8609 71.7283 23.9116 71.7662C23.963 71.8041 24.0008 71.8507 24.0249 71.9059C24.049 71.9604 24.061 72.022 24.061 72.0906C24.061 72.1325 24.054 72.1727 24.0398 72.2114C24.0266 72.2493 24.0062 72.2848 23.9788 72.318C23.9514 72.3511 23.9166 72.3811 23.8742 72.408C23.8327 72.434 23.7837 72.4553 23.7273 72.4719C23.8584 72.4956 23.9568 72.5402 24.0224 72.6057C24.0888 72.6704 24.122 72.7557 24.122 72.8614C24.122 72.9333 24.1079 72.9988 24.0797 73.058C24.0523 73.1172 24.0116 73.1681 23.9577 73.2107C23.9045 73.2534 23.8389 73.2865 23.7609 73.3102C23.6829 73.3331 23.594 73.3445 23.4944 73.3445H22.8643V71.6478H23.4334Z" fill="white"/>
<path d="M26.1789 72.4968C26.1789 72.6452 26.1619 72.7738 26.1278 72.8828C26.0946 72.9909 26.049 73.0805 25.9909 73.1515C25.9327 73.2226 25.8638 73.2755 25.7841 73.3102C25.7053 73.3449 25.6206 73.3623 25.5301 73.3623C25.4388 73.3623 25.3537 73.3449 25.2748 73.3102C25.1968 73.2755 25.1287 73.2226 25.0706 73.1515C25.0125 73.0805 24.9668 72.9909 24.9336 72.8828C24.9004 72.7738 24.8838 72.6452 24.8838 72.4968C24.8838 72.3484 24.9004 72.2197 24.9336 72.1108C24.9668 72.0018 25.0125 71.9119 25.0706 71.8408C25.1287 71.769 25.1968 71.7157 25.2748 71.681C25.3537 71.6462 25.4388 71.6289 25.5301 71.6289C25.6206 71.6289 25.7053 71.6462 25.7841 71.681C25.8638 71.7157 25.9327 71.769 25.9909 71.8408C26.049 71.9119 26.0946 72.0018 26.1278 72.1108C26.1619 72.2197 26.1789 72.3484 26.1789 72.4968ZM25.9485 72.4968C25.9485 72.3673 25.9369 72.2588 25.9136 72.1712C25.8912 72.0828 25.8605 72.0117 25.8215 71.958C25.7833 71.9044 25.7389 71.8661 25.6882 71.8432C25.6376 71.8195 25.5849 71.8077 25.5301 71.8077C25.4753 71.8077 25.4226 71.8195 25.3719 71.8432C25.3213 71.8661 25.2769 71.9044 25.2387 71.958C25.2005 72.0117 25.1698 72.0828 25.1465 72.1712C25.1241 72.2588 25.1129 72.3673 25.1129 72.4968C25.1129 72.6262 25.1241 72.7348 25.1465 72.8224C25.1698 72.91 25.2005 72.9806 25.2387 73.0343C25.2769 73.088 25.3213 73.1267 25.3719 73.1503C25.4226 73.1732 25.4753 73.1847 25.5301 73.1847C25.5849 73.1847 25.6376 73.1732 25.6882 73.1503C25.7389 73.1267 25.7833 73.088 25.8215 73.0343C25.8605 72.9806 25.8912 72.91 25.9136 72.8224C25.9369 72.7348 25.9485 72.6262 25.9485 72.4968Z" fill="white"/>
<path d="M27.5863 72.4968C27.5863 72.6452 27.5693 72.7738 27.5352 72.8828C27.502 72.9909 27.4564 73.0805 27.3983 73.1515C27.3401 73.2226 27.2712 73.2755 27.1915 73.3102C27.1127 73.3449 27.028 73.3623 26.9375 73.3623C26.8462 73.3623 26.7611 73.3449 26.6822 73.3102C26.6042 73.2755 26.5361 73.2226 26.478 73.1515C26.4199 73.0805 26.3742 72.9909 26.341 72.8828C26.3078 72.7738 26.2912 72.6452 26.2912 72.4968C26.2912 72.3484 26.3078 72.2197 26.341 72.1108C26.3742 72.0018 26.4199 71.9119 26.478 71.8408C26.5361 71.769 26.6042 71.7157 26.6822 71.681C26.7611 71.6462 26.8462 71.6289 26.9375 71.6289C27.028 71.6289 27.1127 71.6462 27.1915 71.681C27.2712 71.7157 27.3401 71.769 27.3983 71.8408C27.4564 71.9119 27.502 72.0018 27.5352 72.1108C27.5693 72.2197 27.5863 72.3484 27.5863 72.4968ZM27.3559 72.4968C27.3559 72.3673 27.3443 72.2588 27.321 72.1712C27.2986 72.0828 27.2679 72.0117 27.2289 71.958C27.1907 71.9044 27.1463 71.8661 27.0956 71.8432C27.045 71.8195 26.9923 71.8077 26.9375 71.8077C26.8827 71.8077 26.83 71.8195 26.7793 71.8432C26.7287 71.8661 26.6843 71.9044 26.6461 71.958C26.6079 72.0117 26.5772 72.0828 26.5539 72.1712C26.5315 72.2588 26.5203 72.3673 26.5203 72.4968C26.5203 72.6262 26.5315 72.7348 26.5539 72.8224C26.5772 72.91 26.6079 72.9806 26.6461 73.0343C26.6843 73.088 26.7287 73.1267 26.7793 73.1503C26.83 73.1732 26.8827 73.1847 26.9375 73.1847C26.9923 73.1847 27.045 73.1732 27.0956 73.1503C27.1463 73.1267 27.1907 73.088 27.2289 73.0343C27.2679 72.9806 27.2986 72.91 27.321 72.8224C27.3443 72.7348 27.3559 72.6262 27.3559 72.4968Z" fill="white"/>
<path d="M28.9937 72.4968C28.9937 72.6452 28.9767 72.7738 28.9426 72.8828C28.9094 72.9909 28.8638 73.0805 28.8057 73.1515C28.7475 73.2226 28.6786 73.2755 28.5989 73.3102C28.5201 73.3449 28.4354 73.3623 28.3449 73.3623C28.2536 73.3623 28.1685 73.3449 28.0896 73.3102C28.0116 73.2755 27.9435 73.2226 27.8854 73.1515C27.8273 73.0805 27.7816 72.9909 27.7484 72.8828C27.7152 72.7738 27.6986 72.6452 27.6986 72.4968C27.6986 72.3484 27.7152 72.2197 27.7484 72.1108C27.7816 72.0018 27.8273 71.9119 27.8854 71.8408C27.9435 71.769 28.0116 71.7157 28.0896 71.681C28.1685 71.6462 28.2536 71.6289 28.3449 71.6289C28.4354 71.6289 28.5201 71.6462 28.5989 71.681C28.6786 71.7157 28.7475 71.769 28.8057 71.8408C28.8638 71.9119 28.9094 72.0018 28.9426 72.1108C28.9767 72.2197 28.9937 72.3484 28.9937 72.4968ZM28.7633 72.4968C28.7633 72.3673 28.7517 72.2588 28.7284 72.1712C28.706 72.0828 28.6753 72.0117 28.6363 71.958C28.5981 71.9044 28.5537 71.8661 28.503 71.8432C28.4524 71.8195 28.3997 71.8077 28.3449 71.8077C28.2901 71.8077 28.2374 71.8195 28.1867 71.8432C28.1361 71.8661 28.0917 71.9044 28.0535 71.958C28.0153 72.0117 27.9846 72.0828 27.9613 72.1712C27.9389 72.2588 27.9277 72.3673 27.9277 72.4968C27.9277 72.6262 27.9389 72.7348 27.9613 72.8224C27.9846 72.91 28.0153 72.9806 28.0535 73.0343C28.0917 73.088 28.1361 73.1267 28.1867 73.1503C28.2374 73.1732 28.2901 73.1847 28.3449 73.1847C28.3997 73.1847 28.4524 73.1732 28.503 73.1503C28.5537 73.1267 28.5981 73.088 28.6363 73.0343C28.6753 72.9806 28.706 72.91 28.7284 72.8224C28.7517 72.7348 28.7633 72.6262 28.7633 72.4968Z" fill="white"/>
<path d="M30.4011 72.4968C30.4011 72.6452 30.3841 72.7738 30.35 72.8828C30.3168 72.9909 30.2712 73.0805 30.213 73.1515C30.1549 73.2226 30.086 73.2755 30.0063 73.3102C29.9275 73.3449 29.8428 73.3623 29.7523 73.3623C29.661 73.3623 29.5759 73.3449 29.497 73.3102C29.419 73.2755 29.3509 73.2226 29.2928 73.1515C29.2346 73.0805 29.189 72.9909 29.1558 72.8828C29.1226 72.7738 29.106 72.6452 29.106 72.4968C29.106 72.3484 29.1226 72.2197 29.1558 72.1108C29.189 72.0018 29.2346 71.9119 29.2928 71.8408C29.3509 71.769 29.419 71.7157 29.497 71.681C29.5759 71.6462 29.661 71.6289 29.7523 71.6289C29.8428 71.6289 29.9275 71.6462 30.0063 71.681C30.086 71.7157 30.1549 71.769 30.213 71.8408C30.2712 71.9119 30.3168 72.0018 30.35 72.1108C30.3841 72.2197 30.4011 72.3484 30.4011 72.4968ZM30.1707 72.4968C30.1707 72.3673 30.1591 72.2588 30.1358 72.1712C30.1134 72.0828 30.0827 72.0117 30.0437 71.958C30.0055 71.9044 29.9611 71.8661 29.9104 71.8432C29.8598 71.8195 29.8071 71.8077 29.7523 71.8077C29.6975 71.8077 29.6448 71.8195 29.5941 71.8432C29.5435 71.8661 29.4991 71.9044 29.4609 71.958C29.4227 72.0117 29.392 72.0828 29.3687 72.1712C29.3463 72.2588 29.3351 72.3673 29.3351 72.4968C29.3351 72.6262 29.3463 72.7348 29.3687 72.8224C29.392 72.91 29.4227 72.9806 29.4609 73.0343C29.4991 73.088 29.5435 73.1267 29.5941 73.1503C29.6448 73.1732 29.6975 73.1847 29.7523 73.1847C29.8071 73.1847 29.8598 73.1732 29.9104 73.1503C29.9611 73.1267 30.0055 73.088 30.0437 73.0343C30.0827 72.9806 30.1134 72.91 30.1358 72.8224C30.1591 72.7348 30.1707 72.6262 30.1707 72.4968Z" fill="white"/>
<path d="M68.0286 48L67.6794 47.0088H66.3147L65.9656 48H65.3479L66.676 44.416H67.3254L68.6511 48H68.0286ZM67.5281 46.5059L67.1887 45.5293C67.1757 45.487 67.157 45.4276 67.1326 45.3511C67.1081 45.2729 67.0837 45.194 67.0593 45.1143C67.0349 45.0329 67.0146 44.9645 66.9983 44.9092C66.982 44.9759 66.9617 45.0508 66.9372 45.1338C66.9145 45.2152 66.8917 45.2917 66.8689 45.3633C66.8477 45.4349 66.8315 45.4902 66.8201 45.5293L66.4783 46.5059H67.5281ZM70.2026 48.0488C69.947 48.0488 69.7257 47.9992 69.5385 47.8999C69.3513 47.8006 69.2073 47.6484 69.1064 47.4434C69.0055 47.2383 68.955 46.9779 68.955 46.6621C68.955 46.3333 69.0104 46.0648 69.121 45.8564C69.2317 45.6481 69.3847 45.4943 69.58 45.395C69.777 45.2957 70.0024 45.2461 70.2563 45.2461C70.4174 45.2461 70.5631 45.2624 70.6933 45.2949C70.8251 45.3258 70.9366 45.3641 71.0278 45.4097L70.8569 45.8687C70.7576 45.828 70.6559 45.7938 70.5517 45.7661C70.4475 45.7384 70.3474 45.7246 70.2514 45.7246C70.0935 45.7246 69.9617 45.7596 69.8559 45.8296C69.7517 45.8996 69.6736 46.0037 69.6215 46.1421C69.5711 46.2804 69.5458 46.4521 69.5458 46.6572C69.5458 46.8558 69.5719 47.0234 69.624 47.1602C69.676 47.2952 69.7534 47.3978 69.8559 47.4678C69.9584 47.5361 70.0846 47.5703 70.2343 47.5703C70.3824 47.5703 70.5151 47.5524 70.6323 47.5166C70.7495 47.4808 70.8601 47.4344 70.9643 47.3774V47.8755C70.8618 47.9341 70.7519 47.9772 70.6347 48.0049C70.5175 48.0342 70.3735 48.0488 70.2026 48.0488ZM72.7257 45.2461C72.9666 45.2461 73.1733 45.2957 73.3458 45.395C73.5184 45.4943 73.651 45.6351 73.7438 45.8174C73.8366 45.9997 73.8829 46.2178 73.8829 46.4717V46.7793H72.0788C72.0853 47.0413 72.1552 47.2432 72.2887 47.3848C72.4238 47.5264 72.6126 47.5972 72.8551 47.5972C73.0276 47.5972 73.1823 47.5809 73.319 47.5483C73.4573 47.5142 73.5997 47.4645 73.7462 47.3994V47.8657C73.6111 47.9292 73.4736 47.9756 73.3336 48.0049C73.1937 48.0342 73.026 48.0488 72.8307 48.0488C72.5654 48.0488 72.3318 47.9976 72.13 47.895C71.9298 47.7909 71.7728 47.6362 71.6588 47.4312C71.5465 47.2261 71.4904 46.9714 71.4904 46.667C71.4904 46.3643 71.5416 46.1071 71.6442 45.8955C71.7467 45.6839 71.8908 45.5228 72.0763 45.4121C72.2619 45.3014 72.4783 45.2461 72.7257 45.2461ZM72.7257 45.6782C72.5451 45.6782 72.3986 45.7368 72.2863 45.854C72.1756 45.9712 72.1105 46.1429 72.091 46.3691H73.3214C73.3198 46.234 73.297 46.1144 73.2531 46.0103C73.2107 45.9061 73.1456 45.8247 73.0578 45.7661C72.9715 45.7075 72.8608 45.6782 72.7257 45.6782ZM76.708 45.7969C76.9008 45.7969 77.0661 45.8366 77.2041 45.916C77.3422 45.9954 77.4483 46.1081 77.5225 46.2539C77.5967 46.3997 77.6338 46.5742 77.6338 46.7773V47.0234H76.1905C76.1957 47.2331 76.2517 47.3945 76.3584 47.5078C76.4665 47.6211 76.6176 47.6777 76.8116 47.6777C76.9496 47.6777 77.0733 47.6647 77.1827 47.6387C77.2933 47.6113 77.4073 47.5716 77.5245 47.5195V47.8926C77.4164 47.9434 77.3064 47.9805 77.1944 48.0039C77.0824 48.0273 76.9483 48.0391 76.792 48.0391C76.5798 48.0391 76.3929 47.998 76.2315 47.916C76.0713 47.8327 75.9457 47.709 75.8545 47.5449C75.7647 47.3809 75.7198 47.1771 75.7198 46.9336C75.7198 46.6914 75.7608 46.4857 75.8428 46.3164C75.9248 46.1471 76.0401 46.0182 76.1885 45.9297C76.337 45.8411 76.5101 45.7969 76.708 45.7969ZM76.708 46.1426C76.5635 46.1426 76.4463 46.1895 76.3565 46.2832C76.2679 46.377 76.2159 46.5143 76.2002 46.6953H77.1846C77.1833 46.5872 77.1651 46.4915 77.1299 46.4082C77.0961 46.3249 77.044 46.2598 76.9737 46.2129C76.9047 46.166 76.8161 46.1426 76.708 46.1426ZM78.6855 48L77.8633 45.8379H78.3496L78.7949 47.1074C78.8236 47.1882 78.8496 47.2754 78.873 47.3691C78.8965 47.4629 78.9128 47.5417 78.9219 47.6055H78.9375C78.9466 47.5391 78.9642 47.4596 78.9902 47.3672C79.0163 47.2734 79.043 47.1868 79.0703 47.1074L79.5156 45.8379H80L79.1777 48H78.6855Z" fill="white"/>
<g clip-path="url(#clip0_401_1586)">
<path fill-rule="evenodd" clip-rule="evenodd" d="M46.6422 53.3239C46.5772 53.1846 46.4897 53.0508 46.383 52.9258C46.141 52.6439 45.8004 52.4102 45.3968 52.249C44.9901 52.0867 44.5255 52 44.0537 52C43.582 52 43.1173 52.0856 42.7107 52.249C42.307 52.4102 41.9654 52.645 41.7244 52.9258C41.6167 53.0508 41.5303 53.1846 41.4642 53.3239C41.9898 53.1868 42.8886 53.0058 43.7233 52.9872C43.8036 52.985 43.8595 53.0135 43.8961 53.0629C43.9409 53.1232 43.9368 53.3404 43.9358 53.4369L43.9124 55.941C43.9592 55.9421 44.0069 55.9443 44.0537 55.9443C44.1005 55.9443 44.1493 55.9443 44.1961 55.941L44.1727 53.4369C44.1717 53.3404 44.1686 53.1232 44.2123 53.0629C44.2489 53.0124 44.3038 52.985 44.3852 52.9872C45.2199 53.0058 46.1176 53.1868 46.6433 53.3239" fill="white"/>
<path fill-rule="evenodd" clip-rule="evenodd" d="M46.7541 53.6498C45.9855 53.4622 45.471 53.4271 44.9647 53.3975C44.5235 53.3712 44.5174 53.5412 44.5611 53.8659C44.5641 53.8856 44.5672 53.9109 44.5713 53.9394C44.7197 54.886 44.9037 55.6998 44.9352 55.8381C46.0119 55.5726 46.7887 54.8366 46.7887 53.9723C46.7887 53.8637 46.7765 53.7551 46.7531 53.6498" fill="white"/>
<path fill-rule="evenodd" clip-rule="evenodd" d="M43.5454 53.8659C43.5891 53.5412 43.584 53.3712 43.1417 53.3975C42.6344 53.4282 42.121 53.4622 41.3513 53.6498C41.3279 53.7551 41.3157 53.8637 41.3157 53.9723C41.3157 54.3463 41.4571 54.7083 41.7234 55.0187C41.9654 55.3006 42.306 55.5342 42.7096 55.6955C42.856 55.7536 43.0106 55.8019 43.1692 55.8402C43.1987 55.7108 43.3878 54.8794 43.5372 53.9163C43.5403 53.8977 43.5423 53.8812 43.5443 53.867" fill="white"/>
</g>
<g clip-path="url(#clip1_401_1586)">
<path fill-rule="evenodd" clip-rule="evenodd" d="M8.09802 44.3975H10.7364V45.2629H9.97841V47.3442H8.88038V45.2629H8.09802V44.3975Z" fill="white"/>
<path fill-rule="evenodd" clip-rule="evenodd" d="M12.0723 45.5887L11.5157 47.3442H10.4603L11.4958 44.3975H12.6427L13.7026 47.3442H12.6335L12.0723 45.5887Z" fill="white"/>
<path fill-rule="evenodd" clip-rule="evenodd" d="M13.451 44.3975H16.0878V45.2629H15.3314V47.3442H14.2333V45.2629H13.451V44.3975Z" fill="white"/>
<path fill-rule="evenodd" clip-rule="evenodd" d="M17.4238 45.5887L16.8686 47.3442H15.8133L16.8488 44.3975H17.9956L19.0556 47.3442H17.9865L17.4238 45.5887Z" fill="white"/>
</g>
<defs>
<filter id="filter0_d_401_1586" x="1.32245" y="58.8395" width="85.3753" height="17.2643" filterUnits="userSpaceOnUse" color-interpolation-filters="sRGB">
<feFlood flood-opacity="0" result="BackgroundImageFix"/>
<feColorMatrix in="SourceAlpha" type="matrix" values="0 0 0 0 0 0 0 0 0 0 0 0 0 0 0 0 0 0 127 0" result="hardAlpha"/>
<feOffset dy="-6"/>
<feGaussianBlur stdDeviation="2"/>
<feComposite in2="hardAlpha" operator="out"/>
<feColorMatrix type="matrix" values="0 0 0 0 0 0 0 0 0 0 0 0 0 0 0 0 0 0 0.25 0"/>
<feBlend mode="normal" in2="BackgroundImageFix" result="effect1_dropShadow_401_1586"/>
<feBlend mode="normal" in="SourceGraphic" in2="effect1_dropShadow_401_1586" result="shape"/>
</filter>
<linearGradient id="paint0_linear_401_1586" x1="49.1463" y1="80.3349" x2="54.3789" y2="84.7573" gradientUnits="userSpaceOnUse">
<stop offset="0.11" stop-color="#626B62"/>
<stop offset="0.12" stop-color="#636C63"/>
<stop offset="0.32" stop-color="#949993"/>
<stop offset="0.47" stop-color="#B2B6B1"/>
<stop offset="0.55" stop-color="#BEC1BD"/>
<stop offset="0.86" stop-color="#C4C6C3"/>
<stop offset="0.99" stop-color="#CACAC9"/>
</linearGradient>
<linearGradient id="paint1_linear_401_1586" x1="72.5803" y1="56.2183" x2="72.5803" y2="85.703" gradientUnits="userSpaceOnUse">
<stop/>
<stop offset="1" stop-color="#191918"/>
</linearGradient>
<linearGradient id="paint2_linear_401_1586" x1="14.0321" y1="-29.9741" x2="14.0321" y2="-29.9741" gradientUnits="userSpaceOnUse">
<stop/>
<stop offset="1" stop-color="#191918"/>
</linearGradient>
<linearGradient id="paint3_linear_401_1586" x1="44.3491" y1="61.8353" x2="44.3491" y2="91.32" gradientUnits="userSpaceOnUse">
<stop/>
<stop offset="1" stop-color="#191918"/>
</linearGradient>
<linearGradient id="paint4_linear_401_1586" x1="44.192" y1="56.7391" x2="44.192" y2="51.3403" gradientUnits="userSpaceOnUse">
<stop stop-color="#3D3D3D"/>
<stop offset="0.11" stop-color="#38393A"/>
<stop offset="0.56" stop-color="#2B2E32"/>
<stop offset="0.99" stop-color="#1B1D20"/>
</linearGradient>
<linearGradient id="paint5_linear_401_1586" x1="44.1924" y1="54.4875" x2="44.1924" y2="52.9241" gradientUnits="userSpaceOnUse">
<stop offset="0.01" stop-color="#6B6B6B"/>
<stop offset="0.05" stop-color="#9D9D9C"/>
<stop offset="0.09" stop-color="#444443"/>
<stop offset="0.9" stop-color="#1D1D1B"/>
<stop offset="0.96" stop-color="#3C3C3B"/>
<stop offset="0.99"/>
</linearGradient>
<linearGradient id="paint6_linear_401_1586" x1="44.1921" y1="52.8616" x2="44.1921" y2="51.3087" gradientUnits="userSpaceOnUse">
<stop offset="0.01" stop-color="#6B6B6B"/>
<stop offset="0.05" stop-color="#9D9D9C"/>
<stop offset="0.09" stop-color="#444443"/>
<stop offset="0.9" stop-color="#1D1D1B"/>
<stop offset="0.96" stop-color="#3C3C3B"/>
<stop offset="0.99"/>
</linearGradient>
<linearGradient id="paint7_linear_401_1586" x1="44.1924" y1="56.1034" x2="44.1924" y2="54.54" gradientUnits="userSpaceOnUse">
<stop offset="0.01" stop-color="#6B6B6B"/>
<stop offset="0.05" stop-color="#9D9D9C"/>
<stop offset="0.09" stop-color="#444443"/>
<stop offset="0.9" stop-color="#1D1D1B"/>
<stop offset="0.96" stop-color="#3C3C3B"/>
<stop offset="0.99"/>
</linearGradient>
<radialGradient id="paint8_radial_401_1586" cx="0" cy="0" r="1" gradientUnits="userSpaceOnUse" gradientTransform="translate(44.0772 56.8642) scale(12.1915 12.1837)">
<stop stop-color="white"/>
<stop offset="0.21" stop-color="#FCFCFC"/>
<stop offset="0.35" stop-color="#F3F3F3"/>
<stop offset="0.47" stop-color="#E4E4E4"/>
<stop offset="0.59" stop-color="#CECFCF"/>
<stop offset="0.69" stop-color="#B2B3B4"/>
<stop offset="0.79" stop-color="#909193"/>
<stop offset="0.88" stop-color="#68696B"/>
<stop offset="0.96" stop-color="#3A3C3F"/>
<stop offset="0.99" stop-color="#2A2C2F"/>
</radialGradient>
<linearGradient id="paint9_linear_401_1586" x1="81.685" y1="72.4977" x2="77.1484" y2="72.4977" gradientUnits="userSpaceOnUse">
<stop stop-color="#B7BCBC"/>
<stop offset="0.08" stop-color="#C1C5C5"/>
<stop offset="0.3" stop-color="#DCDEDE"/>
<stop offset="0.53" stop-color="#EFF0F0"/>
<stop offset="0.76" stop-color="#FBFBFB"/>
<stop offset="1" stop-color="white"/>
</linearGradient>
<linearGradient id="paint10_linear_401_1586" x1="6.04327" y1="72.5079" x2="9.32841" y2="72.5079" gradientUnits="userSpaceOnUse">
<stop stop-color="#B7BCBC"/>
<stop offset="0.08" stop-color="#C1C5C5"/>
<stop offset="0.3" stop-color="#DCDEDE"/>
<stop offset="0.53" stop-color="#EFF0F0"/>
<stop offset="0.76" stop-color="#FBFBFB"/>
<stop offset="1" stop-color="white"/>
</linearGradient>
<linearGradient id="paint11_linear_401_1586" x1="7.3886" y1="37.8645" x2="80.9028" y2="37.8645" gradientUnits="userSpaceOnUse">
<stop stop-color="#808080"/>
<stop offset="0.04" stop-color="#848484"/>
<stop offset="0.09" stop-color="#919191"/>
<stop offset="0.14" stop-color="#A7A7A6"/>
<stop offset="0.19" stop-color="#C5C5C4"/>
<stop offset="0.24" stop-color="#E6E6E5"/>
<stop offset="0.49" stop-color="#E5E5E4"/>
<stop offset="0.75" stop-color="#E7E7E6"/>
<stop offset="0.79" stop-color="#DFDFDE"/>
<stop offset="0.85" stop-color="#CACACA"/>
<stop offset="0.93" stop-color="#A9A9A8"/>
<stop offset="1" stop-color="#808080"/>
</linearGradient>
<linearGradient id="paint12_linear_401_1586" x1="10.6842" y1="21.9393" x2="77.5967" y2="21.9393" gradientUnits="userSpaceOnUse">
<stop stop-color="#637771"/>
<stop offset="1" stop-color="#93A19D"/>
</linearGradient>
<linearGradient id="paint13_linear_401_1586" x1="20.081" y1="21.9396" x2="37.7165" y2="21.9396" gradientUnits="userSpaceOnUse">
<stop stop-color="#808080"/>
<stop offset="0.2" stop-color="#AAAAAA"/>
<stop offset="0.39" stop-color="#CFCFCF"/>
<stop offset="0.58" stop-color="#E9E9E9"/>
<stop offset="0.75" stop-color="#F9F9F9"/>
<stop offset="0.88" stop-color="white"/>
</linearGradient>
<linearGradient id="paint14_linear_401_1586" x1="47.1021" y1="22.2733" x2="73.6127" y2="22.2733" gradientUnits="userSpaceOnUse">
<stop stop-color="#808080"/>
<stop offset="0.2" stop-color="#AAAAAA"/>
<stop offset="0.39" stop-color="#CFCFCF"/>
<stop offset="0.58" stop-color="#E9E9E9"/>
<stop offset="0.75" stop-color="#F9F9F9"/>
<stop offset="0.88" stop-color="white"/>
</linearGradient>
<linearGradient id="paint15_linear_401_1586" x1="81.9981" y1="34.018" x2="68.9724" y2="35.2077" gradientUnits="userSpaceOnUse">
<stop stop-color="#BFC3C3"/>
<stop offset="0.1" stop-color="#D0D3D3"/>
<stop offset="0.26" stop-color="#E4E6E6"/>
<stop offset="0.45" stop-color="#F3F4F4"/>
<stop offset="0.66" stop-color="#FCFCFC"/>
<stop offset="1" stop-color="white"/>
</linearGradient>
<linearGradient id="paint16_linear_401_1586" x1="5.78221" y1="33.6227" x2="19.0685" y2="35.4176" gradientUnits="userSpaceOnUse">
<stop stop-color="#BFC3C3"/>
<stop offset="0.1" stop-color="#D0D3D3"/>
<stop offset="0.26" stop-color="#E4E6E6"/>
<stop offset="0.45" stop-color="#F3F4F4"/>
<stop offset="0.66" stop-color="#FCFCFC"/>
<stop offset="1" stop-color="white"/>
</linearGradient>
<radialGradient id="paint17_radial_401_1586" cx="0" cy="0" r="1" gradientUnits="userSpaceOnUse" gradientTransform="translate(41.0708 34.098) rotate(63.3253) scale(0.489912)">
<stop stop-color="#191C20"/>
<stop offset="0.16" stop-color="#1D2024"/>
<stop offset="0.33" stop-color="#2A2D30"/>
<stop offset="0.5" stop-color="#404245"/>
<stop offset="0.51" stop-color="#3E4043"/>
<stop offset="0.56" stop-color="#2D2F33"/>
<stop offset="0.63" stop-color="#212428"/>
<stop offset="0.73" stop-color="#1A1D21"/>
<stop offset="1" stop-color="#191C20"/>
</radialGradient>
<linearGradient id="paint18_linear_401_1586" x1="41.169" y1="34.34" x2="41.1471" y2="34.8294" gradientUnits="userSpaceOnUse">
<stop stop-color="#191C20"/>
<stop offset="0.16" stop-color="#1D2024"/>
<stop offset="0.33" stop-color="#2A2D30"/>
<stop offset="0.5" stop-color="#404245"/>
<stop offset="0.51" stop-color="#3E4043"/>
<stop offset="0.56" stop-color="#2D2F33"/>
<stop offset="0.63" stop-color="#212428"/>
<stop offset="0.73" stop-color="#1A1D21"/>
<stop offset="1" stop-color="#191C20"/>
</linearGradient>
<radialGradient id="paint19_radial_401_1586" cx="0" cy="0" r="1" gradientUnits="userSpaceOnUse" gradientTransform="translate(45.0902 32.5768) rotate(123.827) scale(0.489945)">
<stop stop-color="#191C20"/>
<stop offset="0.16" stop-color="#1D2024"/>
<stop offset="0.33" stop-color="#2A2D30"/>
<stop offset="0.5" stop-color="#404245"/>
<stop offset="0.51" stop-color="#3E4043"/>
<stop offset="0.56" stop-color="#2D2F33"/>
<stop offset="0.63" stop-color="#212428"/>
<stop offset="0.73" stop-color="#1A1D21"/>
<stop offset="1" stop-color="#191C20"/>
</radialGradient>
<linearGradient id="paint20_linear_401_1586" x1="45.0546" y1="32.8511" x2="45.0155" y2="33.3394" gradientUnits="userSpaceOnUse">
<stop stop-color="#191C20"/>
<stop offset="0.16" stop-color="#1D2024"/>
<stop offset="0.33" stop-color="#2A2D30"/>
<stop offset="0.5" stop-color="#404245"/>
<stop offset="0.51" stop-color="#3E4043"/>
<stop offset="0.56" stop-color="#2D2F33"/>
<stop offset="0.63" stop-color="#212428"/>
<stop offset="0.73" stop-color="#1A1D21"/>
<stop offset="1" stop-color="#191C20"/>
</linearGradient>
<linearGradient id="paint21_linear_401_1586" x1="51.7955" y1="72.4771" x2="57.4167" y2="72.4771" gradientUnits="userSpaceOnUse">
<stop stop-color="#BFC3C3"/>
<stop offset="0.37" stop-color="#DCDEDE"/>
<stop offset="0.76" stop-color="#F5F6F6"/>
<stop offset="1" stop-color="white"/>
</linearGradient>
<linearGradient id="paint22_linear_401_1586" x1="44.3079" y1="57.4793" x2="44.3079" y2="66.7864" gradientUnits="userSpaceOnUse">
<stop stop-color="#BFC3C3"/>
<stop offset="0.1" stop-color="#D0D3D3"/>
<stop offset="0.26" stop-color="#E4E6E6"/>
<stop offset="0.45" stop-color="#F3F4F4"/>
<stop offset="0.66" stop-color="#FCFCFC"/>
<stop offset="1" stop-color="white"/>
</linearGradient>
<linearGradient id="paint23_linear_401_1586" x1="43.7228" y1="51.7255" x2="43.7228" y2="51.2982" gradientUnits="userSpaceOnUse">
<stop stop-color="#838688"/>
<stop offset="0.39" stop-color="#9A9C9D"/>
<stop offset="1" stop-color="#C8C8C7"/>
</linearGradient>
<linearGradient id="paint24_linear_401_1586" x1="43.7229" y1="51.2884" x2="43.7229" y2="50.8611" gradientUnits="userSpaceOnUse">
<stop stop-color="#4B5757"/>
<stop offset="0.15" stop-color="#949B9B"/>
<stop offset="0.2" stop-color="#9EA5A5"/>
<stop offset="0.35" stop-color="#C1C5C5"/>
<stop offset="0.51" stop-color="#DCDEDE"/>
<stop offset="0.67" stop-color="#EFF0F0"/>
<stop offset="0.83" stop-color="#FBFBFB"/>
<stop offset="1" stop-color="white"/>
</linearGradient>
<linearGradient id="paint25_linear_401_1586" x1="4.84357" y1="53.8416" x2="22.2392" y2="53.8416" gradientUnits="userSpaceOnUse">
<stop stop-color="#5A5A57"/>
<stop offset="0.26" stop-color="#8C8C89"/>
<stop offset="0.57" stop-color="#C3C3C2"/>
<stop offset="0.73" stop-color="#D9D9D8"/>
<stop offset="0.82" stop-color="#D6D6D5"/>
<stop offset="0.86" stop-color="#CFCFCD"/>
<stop offset="0.9" stop-color="#C1C1C0"/>
<stop offset="0.93" stop-color="#AFAFAD"/>
<stop offset="0.95" stop-color="#979795"/>
<stop offset="0.98" stop-color="#797977"/>
<stop offset="1" stop-color="#5A5A57"/>
</linearGradient>
<linearGradient id="paint26_linear_401_1586" x1="10.2039" y1="53.7477" x2="14.1252" y2="53.7477" gradientUnits="userSpaceOnUse">
<stop stop-color="#1D1D1B"/>
<stop offset="1" stop-color="white"/>
</linearGradient>
<linearGradient id="paint27_linear_401_1586" x1="15.1266" y1="-29.9746" x2="19.0375" y2="-29.9746" gradientUnits="userSpaceOnUse">
<stop stop-color="#1D1D1B"/>
<stop offset="1" stop-color="white"/>
</linearGradient>
<linearGradient id="paint28_linear_401_1586" x1="5.61511" y1="52.466" x2="8.50395" y2="52.466" gradientUnits="userSpaceOnUse">
<stop stop-color="white"/>
<stop offset="1" stop-color="#6B6B6A"/>
</linearGradient>
<linearGradient id="paint29_linear_401_1586" x1="-10.748" y1="54.3631" x2="-9.70511" y2="54.3631" gradientUnits="userSpaceOnUse">
<stop stop-color="white"/>
<stop offset="1" stop-color="#6B6B6A"/>
</linearGradient>
<linearGradient id="paint30_linear_401_1586" x1="4.84357" y1="53.842" x2="22.0932" y2="53.842" gradientUnits="userSpaceOnUse">
<stop stop-color="#D2D2D1"/>
<stop offset="0.27" stop-color="#D5D5D4"/>
<stop offset="0.99" stop-color="#D9D9D8"/>
</linearGradient>
<linearGradient id="paint31_linear_401_1586" x1="5.53162" y1="52.4032" x2="22.0095" y2="52.4032" gradientUnits="userSpaceOnUse">
<stop stop-color="white"/>
<stop offset="1" stop-color="#1D1D1B"/>
</linearGradient>
<linearGradient id="paint32_linear_401_1586" x1="82.5293" y1="-29.9745" x2="65.1337" y2="-29.9745" gradientUnits="userSpaceOnUse">
<stop stop-color="#5A5A57"/>
<stop offset="0.26" stop-color="#8C8C89"/>
<stop offset="0.57" stop-color="#C3C3C2"/>
<stop offset="0.73" stop-color="#D9D9D8"/>
<stop offset="0.82" stop-color="#D6D6D5"/>
<stop offset="0.86" stop-color="#CFCFCD"/>
<stop offset="0.9" stop-color="#C1C1C0"/>
<stop offset="0.93" stop-color="#AFAFAD"/>
<stop offset="0.95" stop-color="#979795"/>
<stop offset="0.98" stop-color="#797977"/>
<stop offset="1" stop-color="#5A5A57"/>
</linearGradient>
<linearGradient id="paint33_linear_401_1586" x1="77.1692" y1="-29.9745" x2="73.2583" y2="-29.9745" gradientUnits="userSpaceOnUse">
<stop stop-color="#1D1D1B"/>
<stop offset="1" stop-color="white"/>
</linearGradient>
<linearGradient id="paint34_linear_401_1586" x1="72.2464" y1="-29.9745" x2="68.3356" y2="-29.9745" gradientUnits="userSpaceOnUse">
<stop stop-color="#1D1D1B"/>
<stop offset="1" stop-color="white"/>
</linearGradient>
<linearGradient id="paint35_linear_401_1586" x1="81.7679" y1="-29.9742" x2="78.8687" y2="-29.9742" gradientUnits="userSpaceOnUse">
<stop stop-color="white"/>
<stop offset="1" stop-color="#6B6B6A"/>
</linearGradient>
<linearGradient id="paint36_linear_401_1586" x1="81.7679" y1="54.3632" x2="78.8687" y2="54.3632" gradientUnits="userSpaceOnUse">
<stop stop-color="white"/>
<stop offset="1" stop-color="#6B6B6A"/>
</linearGradient>
<linearGradient id="paint37_linear_401_1586" x1="82.5297" y1="-29.9741" x2="65.2801" y2="-29.9741" gradientUnits="userSpaceOnUse">
<stop stop-color="#D2D2D1"/>
<stop offset="0.27" stop-color="#D5D5D4"/>
<stop offset="0.99" stop-color="#D9D9D8"/>
</linearGradient>
<linearGradient id="paint38_linear_401_1586" x1="81.8414" y1="-29.9745" x2="65.3635" y2="-29.9745" gradientUnits="userSpaceOnUse">
<stop stop-color="white"/>
<stop offset="1" stop-color="#1D1D1B"/>
</linearGradient>
<clipPath id="clip0_401_1586">
<rect width="6" height="4" fill="white" transform="translate(41 52)"/>
</clipPath>
<clipPath id="clip1_401_1586">
<rect width="14" height="4" fill="white" transform="translate(7 44)"/>
</clipPath>
</defs>
</svg>
