<svg width="149" height="128" viewBox="0 0 149 128" fill="none" xmlns="http://www.w3.org/2000/svg">
<g filter="url(#filter0_d_214_1743)">
<path d="M121.5 63.6981C121.5 91.4279 99.1089 113.904 71.4922 113.904C43.8755 113.904 21.4844 91.4279 21.4844 63.6981C21.4844 35.9683 43.8755 13.4922 71.4922 13.4922C99.1089 13.4922 121.5 35.9683 121.5 63.6981Z" stroke="#FAC05E"/>
<path d="M71.4922 110.416C97.2202 110.416 118.012 89.4638 118.012 63.6981C118.012 37.9324 97.2202 16.9803 71.4922 16.9803C45.7643 16.9803 24.9725 37.9324 24.9725 63.6981C24.9725 89.4638 45.7643 110.416 71.4922 110.416Z" stroke="url(#paint0_linear_214_1743)" stroke-width="15"/>
<path d="M71.4922 110.416C97.2202 110.416 118.012 89.4638 118.012 63.6981C118.012 37.9324 97.2202 16.9803 71.4922 16.9803C45.7643 16.9803 24.9725 37.9324 24.9725 63.6981C24.9725 89.4638 45.7643 110.416 71.4922 110.416Z" stroke="url(#paint1_linear_214_1743)" stroke-width="15"/>
</g>
<g opacity="0.3">
<mask id="mask0_214_1743" style="mask-type:alpha" maskUnits="userSpaceOnUse" x="31" y="24" width="80" height="80">
<circle cx="71.0186" cy="63.9886" r="39.4501" fill="#D9D9D9" fill-opacity="0.2"/>
</mask>
<g mask="url(#mask0_214_1743)">
<g filter="url(#filter1_d_214_1743)">
<path d="M20.9846 127.493H73.8249C86.058 115.382 97.3958 105.289 96.9319 90.8223C96.5921 80.2247 80.6211 78.0499 72.8055 75.01C57.582 69.0888 82.3201 63.2349 93.3639 58.0202C109.131 49.0038 98.1213 43.8339 90.6455 42.3761C79.9075 40.6266 77.4495 39.0678 77.5628 38.5071C75.1162 34.7391 99.7637 32.1149 112.393 31.2738H94.2135C87.927 31.2738 74.6065 32.3504 71.6161 36.6567C67.8782 42.0396 83.1697 44.5629 88.0969 46.5815C93.0241 48.6001 90.9853 49.1047 89.626 50.6187C88.5386 51.8298 70.8232 57.9641 62.1015 60.8799C58.6468 61.7209 50.8538 64.5806 47.3198 69.2907C42.9259 75.1467 56.854 82.5006 62.0189 85.2276L62.1015 85.2712C66.1792 87.4244 67.9915 90.2056 68.388 91.327C70.2909 99.4014 37.5786 118.802 20.9846 127.493Z" fill="#414646"/>
<path d="M73.8249 127.493V127.993H74.0305L74.1767 127.849L73.8249 127.493ZM20.9846 127.493L20.7526 127.051L20.9846 127.993V127.493ZM68.388 91.327L68.8746 91.2123L68.8684 91.1859L68.8594 91.1603L68.388 91.327ZM62.1015 85.2712L62.3349 84.8291L62.3349 84.8291L62.1015 85.2712ZM62.0189 85.2276L62.2524 84.7855L62.2524 84.7855L62.0189 85.2276ZM47.3198 69.2907L47.7197 69.5907L47.3198 69.2907ZM62.1015 60.8799L62.2198 61.3657L62.2401 61.3607L62.26 61.3541L62.1015 60.8799ZM89.626 50.6187L89.254 50.2846L89.626 50.6187ZM88.0969 46.5815L87.9073 47.0442L88.0969 46.5815ZM71.6161 36.6567L71.2054 36.3715L71.6161 36.6567ZM112.393 31.2738L112.426 31.7727L112.393 30.7738V31.2738ZM77.5628 38.5071L78.0529 38.6061L78.0933 38.406L77.9822 38.2348L77.5628 38.5071ZM90.6455 42.3761L90.7412 41.8853L90.7335 41.8838L90.7259 41.8826L90.6455 42.3761ZM93.3639 58.0202L93.5774 58.4723L93.5951 58.4639L93.6121 58.4542L93.3639 58.0202ZM72.8055 75.01L72.9867 74.544L72.8055 75.01ZM96.9319 90.8223L97.4317 90.8063L96.9319 90.8223ZM73.8249 126.993H20.9846V127.993H73.8249V126.993ZM21.2165 127.936C29.5243 123.585 41.8704 116.551 51.9076 109.59C56.9236 106.111 61.3822 102.637 64.4729 99.5139C66.0172 97.9536 67.2379 96.4634 68.0135 95.0884C68.7842 93.7223 69.1545 92.4 68.8746 91.2123L67.9013 91.4417C68.0971 92.2726 67.8614 93.3228 67.1426 94.5971C66.4287 95.8626 65.2763 97.2806 63.7621 98.8105C60.7359 101.868 56.3361 105.301 51.3377 108.768C41.3459 115.698 29.0388 122.711 20.7526 127.051L21.2165 127.936ZM68.8594 91.1603C68.4143 89.9013 66.5044 87.0307 62.3349 84.8291L61.868 85.7134C65.854 87.8181 67.5687 90.5098 67.9165 91.4936L68.8594 91.1603ZM62.3349 84.8291L62.2524 84.7855L61.7855 85.6698L61.868 85.7134L62.3349 84.8291ZM62.2524 84.7855C59.6627 83.4182 54.9341 80.9197 51.4004 78.0447C49.6291 76.6036 48.2054 75.1049 47.4848 73.6464C47.1275 72.9231 46.952 72.2279 46.9776 71.5642C47.003 70.9062 47.2269 70.2475 47.7197 69.5907L46.9198 68.9906C46.3141 69.7978 46.0122 70.6499 45.9784 71.5257C45.9448 72.3957 46.177 73.257 46.5883 74.0893C47.4048 75.7419 48.9621 77.3501 50.7693 78.8204C54.3923 81.7681 59.2102 84.3101 61.7855 85.6698L62.2524 84.7855ZM47.7197 69.5907C49.4185 67.3267 52.1696 65.4767 54.9637 64.0817C57.7498 62.6908 60.5262 61.778 62.2198 61.3657L61.9832 60.394C60.222 60.8228 57.3746 61.7604 54.517 63.187C51.6674 64.6097 48.7551 66.5446 46.9198 68.9906L47.7197 69.5907ZM62.26 61.3541C66.6233 59.8954 73.2368 57.6315 78.897 55.5801C81.7264 54.5547 84.3223 53.5807 86.281 52.7862C87.2596 52.3893 88.0856 52.0346 88.7044 51.7389C89.0134 51.5912 89.2776 51.455 89.4861 51.333C89.6799 51.2196 89.8735 51.0915 89.9981 50.9527L89.254 50.2846C89.2543 50.2843 89.2365 50.3029 89.1843 50.3404C89.1352 50.3757 89.0682 50.4189 88.9809 50.47C88.8063 50.5722 88.5698 50.6949 88.2733 50.8366C87.6811 51.1195 86.8766 51.4655 85.9051 51.8596C83.9639 52.647 81.3818 53.6159 78.5563 54.64C72.9065 56.6875 66.3015 58.9486 61.9429 60.4057L62.26 61.3541ZM89.9981 50.9527C90.3226 50.5912 90.6565 50.3217 90.9989 49.9945C91.1581 49.8423 91.3187 49.6765 91.4456 49.4987C91.5729 49.3204 91.6869 49.102 91.7158 48.8451C91.7787 48.2847 91.4226 47.8327 90.9027 47.4488C90.37 47.0554 89.5257 46.6265 88.2864 46.1188L87.9073 47.0442C89.1317 47.5458 89.8803 47.9369 90.3086 48.2532C90.7497 48.5789 90.7228 48.7262 90.722 48.7336C90.719 48.7605 90.7029 48.818 90.6318 48.9177C90.5603 49.0178 90.454 49.132 90.308 49.2715C90.0398 49.5279 89.6091 49.8891 89.254 50.2846L89.9981 50.9527ZM88.2864 46.1188C87.0238 45.6015 85.1105 45.0563 83.0577 44.4562C80.9877 43.8511 78.7516 43.1839 76.7895 42.4152C74.8104 41.6398 73.1857 40.7887 72.282 39.8481C71.8377 39.3857 71.5987 38.9335 71.5455 38.4868C71.4932 38.0473 71.6119 37.5394 72.0268 36.9419L71.2054 36.3715C70.6859 37.1198 70.4648 37.8683 70.5525 38.605C70.6394 39.3345 71.0203 39.9783 71.5609 40.5409C72.627 41.6505 74.4323 42.5657 76.4247 43.3463C78.4341 44.1335 80.7111 44.8121 82.7772 45.416C84.8605 46.025 86.7064 46.5521 87.9073 47.0442L88.2864 46.1188ZM72.0268 36.9419C72.6898 35.9872 73.9714 35.1581 75.7101 34.4632C77.4344 33.774 79.54 33.243 81.7672 32.8425C86.2204 32.0416 91.0914 31.7738 94.2135 31.7738V30.7738C91.0491 30.7738 86.1165 31.0443 81.5902 31.8583C79.3277 32.2652 77.1497 32.8108 75.3389 33.5346C73.5424 34.2527 72.0376 35.1731 71.2054 36.3715L72.0268 36.9419ZM94.2135 31.7738H112.393V30.7738H94.2135V31.7738ZM112.36 30.7749C106.037 31.196 96.7001 32.0636 89.2427 33.2996C85.5203 33.9165 82.2356 34.63 80.0256 35.4358C78.9316 35.8347 78.0395 36.2773 77.4976 36.7836C77.2225 37.0407 77.0018 37.3472 76.9234 37.708C76.8414 38.0851 76.9301 38.4508 77.1434 38.7794L77.9822 38.2348C77.8897 38.0923 77.8842 37.996 77.9006 37.9203C77.9206 37.8283 77.991 37.6912 78.1803 37.5143C78.5674 37.1526 79.2982 36.7654 80.3681 36.3753C82.4861 35.603 85.6938 34.9014 89.4062 34.2861C96.8183 33.0577 106.12 32.1927 112.426 31.7727L112.36 30.7749ZM77.0727 38.4081C77.0173 38.6821 77.1378 38.9154 77.2569 39.069C77.381 39.229 77.5592 39.3779 77.7737 39.5195C78.2058 39.8046 78.8821 40.1228 79.87 40.4679C81.8523 41.1602 85.1838 41.9928 90.5651 42.8696L90.7259 41.8826C85.3691 41.0099 82.1027 40.1884 80.1998 39.5238C79.2452 39.1904 78.6571 38.9043 78.3246 38.6849C78.1568 38.5741 78.0777 38.4956 78.0471 38.4561C78.0116 38.4103 78.0799 38.4723 78.0529 38.6061L77.0727 38.4081ZM90.5498 42.8668C92.3909 43.2259 94.4419 43.8123 96.2353 44.6232C98.0421 45.44 99.5231 46.4559 100.303 47.639C100.688 48.2215 100.898 48.8384 100.904 49.4967C100.91 50.1564 100.71 50.8948 100.214 51.7192C99.2119 53.3843 97.0333 55.3459 93.1157 57.5861L93.6121 58.4542C97.5781 56.1863 99.936 54.1205 101.071 52.2348C101.643 51.2838 101.911 50.366 101.904 49.4881C101.896 48.6088 101.612 47.8067 101.138 47.0884C100.202 45.6697 98.5147 44.5563 96.6473 43.712C94.7666 42.8617 92.6379 42.2552 90.7412 41.8853L90.5498 42.8668ZM93.1504 57.5681C90.4121 58.861 86.8187 60.1962 83.1749 61.5745C79.5454 62.9472 75.8681 64.362 73.0093 65.8037C71.5803 66.5244 70.3347 67.2621 69.3951 68.0175C68.4676 68.7631 67.7708 69.5791 67.5561 70.474C67.3285 71.4226 67.6687 72.3291 68.5168 73.1525C69.347 73.9588 70.699 74.7272 72.6242 75.476L72.9867 74.544C71.106 73.8125 69.901 73.1028 69.2134 72.4351C68.5436 71.7847 68.4051 71.2217 68.5285 70.7073C68.6648 70.1393 69.1485 69.4989 70.0216 68.7969C70.8826 68.1047 72.0577 67.4036 73.4596 66.6966C76.2629 65.2829 79.8894 63.8863 83.5287 62.5098C87.1536 61.1387 90.7939 59.7867 93.5774 58.4723L93.1504 57.5681ZM72.6242 75.476C74.6007 76.2448 77.0925 76.9589 79.6782 77.7509C82.2779 78.5473 84.9919 79.4277 87.4675 80.5382C92.4458 82.7714 96.2721 85.8471 96.4322 90.8384L97.4317 90.8063C97.2519 85.2 92.9228 81.8894 87.8768 79.6258C85.3401 78.4879 82.5748 77.5924 79.9711 76.7948C77.3535 75.9929 74.918 75.2952 72.9867 74.544L72.6242 75.476ZM96.4322 90.8384C96.6593 97.9224 94.0023 103.954 89.7372 109.745C85.4611 115.55 79.6067 121.065 73.4731 127.138L74.1767 127.849C80.2762 121.81 86.2073 116.223 90.5424 110.338C94.8885 104.437 97.6684 98.1889 97.4317 90.8063L96.4322 90.8384Z" fill="#414646"/>
</g>
<path d="M84.4069 92.8544H83.7677C83.8331 92.5213 83.9025 92.1139 83.914 91.7887C83.9525 90.4566 83.8794 90.0257 83.3711 89.0579C83.0091 88.3723 82.3198 87.7337 82.0002 87.479L82.5201 87.2087C82.8897 87.5025 83.5443 88.1842 83.914 88.8229C84.4916 89.8141 84.6726 90.8445 84.4069 92.8544ZM79.0737 85.5397C78.2882 85.093 77.3948 84.6738 76.4476 84.2272C75.9547 83.996 73.6866 82.9029 73.1668 82.6522L73.8753 82.3192C74.3913 82.5738 76.2011 83.4671 76.6902 83.6983C77.649 84.1488 78.8042 84.7208 79.609 85.1792L79.0737 85.5475V85.5397ZM69.6126 80.8696C68.0339 80.1683 65.3037 78.8753 64.0946 78.2524L64.911 77.9742C66.1085 78.5933 68.9503 79.8901 70.5214 80.5835L69.6126 80.8696V80.8696ZM61.1296 76.5912C59.262 75.3845 57.9875 74.2953 57.2366 73.2728H58.0529C58.9039 74.2483 60.2517 75.3884 61.9498 76.4032L61.1296 76.5951V76.5912ZM57.3213 70.7536L56.5858 70.9181C56.5858 70.5616 56.7091 70.1894 56.7822 70.0092C57.1865 69.0297 57.9297 68.1874 59.5277 67.1256L60.0553 67.4273C58.6652 68.3519 58.0067 68.8652 57.4984 69.9426C57.4022 70.1463 57.3136 70.5224 57.3175 70.7575L57.3213 70.7536ZM62.2271 66.107L61.6225 65.7661C62.8932 65.0805 64.3565 64.3674 66.1239 63.6269L66.7554 63.9835C65.0034 64.7161 63.4824 65.4292 62.2309 66.107H62.2271ZM69.1043 62.9648L68.519 62.5534C69.8167 62.052 71.2415 61.5309 72.878 60.9549L73.5288 61.3193C71.8961 61.8952 70.3905 62.4712 69.1005 62.9687L69.1043 62.9648ZM75.9547 60.5318L75.2885 60.1087L76.7941 59.5954C77.6451 59.3055 78.4384 59.0352 79.1507 58.7844C79.4472 58.6787 79.7437 58.5768 80.0325 58.471L80.7526 58.8471C80.46 58.9529 79.6359 59.2311 79.3394 59.3369C78.6232 59.5876 77.83 59.8579 76.979 60.1479L75.9585 60.5279L75.9547 60.5318ZM82.9321 57.9343L82.3275 57.6287C83.837 57.0449 85.0769 56.5238 86.3938 55.9283L87.1216 56.1555C85.7931 56.7589 84.4531 57.3466 82.9321 57.9343ZM89.1817 55.1526L88.4616 54.8861C90.1713 54.1457 90.7643 53.7813 91.8464 53.1192L92.4317 53.3621C91.2033 54.1888 90.2175 54.7333 89.1817 55.1486V55.1526ZM93.9488 52.3238L93.325 52.1162C94.1606 51.6578 95.054 51.0662 95.62 50.5177L96.0359 50.7058C95.4121 51.3561 94.6497 51.9125 93.9488 52.3278V52.3238Z" fill="url(#paint2_linear_214_1743)"/>
<path d="M82.7313 95.7641C82.7313 95.7641 81.5788 98.5814 78.3262 102.877L79.255 102.884C79.255 102.884 82.2422 99.0432 83.5273 95.741L82.7313 95.7641ZM74.5581 107.16C74.5581 107.16 72.6475 109.123 71.5557 110.185C70.4829 111.225 68.2956 113.291 68.2956 113.291H69.4177C69.4177 113.291 71.0023 111.787 72.0789 110.74C73.1782 109.674 75.6537 107.156 75.6537 107.156H74.5581V107.16ZM63.3636 117.729C63.3636 117.729 59.6864 121.027 57.4574 122.894L58.6439 122.886L64.5843 117.733H63.3636V117.729ZM53.0334 126.508C53.0334 126.508 52.533 126.905 51.7749 127.493H53.0296C53.7916 126.901 54.292 126.508 54.292 126.508H53.0334V126.508Z" fill="url(#paint3_linear_214_1743)"/>
<path d="M71.6914 37.7293C71.5401 38.2181 71.5401 38.7609 71.6487 39.2652C71.769 39.8079 72.0562 40.2429 72.417 40.6586C72.7701 41.0705 73.2125 41.417 73.6742 41.7326C75.5561 42.976 77.8183 43.7613 80.1503 44.4657C82.4979 45.1547 84.9657 45.7322 87.4917 46.3827C88.1203 46.5444 88.7567 46.7138 89.393 46.9062C89.7073 47.0025 90.0255 47.1064 90.3398 47.2296C90.6502 47.3451 90.9839 47.4913 91.2556 47.7185C91.5155 47.9302 91.7988 48.2343 91.8376 48.6385C91.8764 49.0465 91.6475 49.3852 91.4224 49.6509C90.9374 50.1667 90.3515 50.5401 89.7578 50.8904C88.5588 51.5756 87.29 52.1376 86.0017 52.6765C84.7096 53.2192 83.3942 53.7274 82.0633 54.2239C76.7357 56.2141 71.1443 58.0195 65.5063 59.9519C62.6932 60.9335 59.8722 61.9689 57.1212 63.1777L55.0724 64.1131C54.7348 64.2747 54.3817 64.421 54.0519 64.5904C53.7182 64.7636 53.3806 64.9368 53.0586 65.1216C51.7587 65.853 50.4976 66.6845 49.4034 67.6738C48.3208 68.6592 47.3352 69.8448 47.0326 71.2229C46.889 71.9312 46.8618 72.6395 47.0597 73.3093C47.2498 73.9791 47.6262 74.595 48.0802 75.157C49.0154 76.2733 50.1833 77.2126 51.3745 78.0902C52.5696 78.9718 53.823 79.7801 55.084 80.5616C57.6139 82.1129 60.1827 83.5872 62.6583 85.15C63.896 85.9353 65.1183 86.736 66.263 87.6599C66.8411 88.1102 67.3766 88.6261 67.8694 89.1919C68.3506 89.7655 68.7541 90.4584 68.9209 91.2283L68.983 91.517C68.9985 91.6132 68.9947 91.7133 69.0024 91.8095L69.0102 92.1021V92.1752C69.0102 92.2406 69.0102 92.2329 69.0102 92.2637L68.9947 92.3946C68.983 92.5678 68.9675 92.7411 68.9248 92.9374C68.8899 93.1337 68.8511 93.3185 68.7968 93.4955C68.6028 94.2115 68.3001 94.8775 67.9548 95.5088C67.2524 96.7598 66.3678 97.8608 65.4443 98.8886C63.574 100.929 61.5213 102.676 59.4726 104.293C55.3518 107.507 51.2154 110.202 47.3663 112.623C43.5093 115.033 39.9162 117.146 36.7267 119.002C33.5293 120.842 30.7433 122.447 28.4462 123.767C26.1491 125.088 24.3565 126.135 23.1458 126.862C22.7307 127.112 22.3814 127.324 22.1059 127.493H20.9846V126.816C21.2911 126.635 21.8188 126.319 22.5522 125.881C23.7783 125.157 25.5826 124.118 27.8875 122.809C30.1923 121.504 32.99 119.914 36.1951 118.093C39.3924 116.261 42.9894 114.175 46.8424 111.796C50.6916 109.409 54.8241 106.753 58.9177 103.596C60.9548 102.01 62.9919 100.297 64.8157 98.3265C65.7198 97.3334 66.5734 96.2787 67.2369 95.1123C67.5629 94.5272 67.8422 93.9151 68.0168 93.2838C68.0673 93.1222 68.1022 92.9682 68.1294 92.8181C68.1643 92.6718 68.1837 92.4947 68.1992 92.3176L68.2109 92.1868C68.2109 92.1868 68.2147 92.1444 68.2147 92.1406V92.0867L68.2031 91.8519C68.2031 91.7749 68.2031 91.694 68.1915 91.6209L68.1449 91.3899C68.013 90.7817 67.6948 90.2043 67.2641 89.6846C66.8217 89.1727 66.3251 88.6876 65.7741 88.2488C64.6837 87.3558 63.477 86.5589 62.2547 85.7698C59.8063 84.2031 57.2531 82.7172 54.7154 81.139C53.4505 80.346 52.1894 79.5261 50.9788 78.6176C49.7681 77.713 48.5769 76.7506 47.5835 75.5496C47.1024 74.9453 46.6756 74.2562 46.4583 73.4748C46.2293 72.6934 46.2759 71.8542 46.4389 71.0997C46.6096 70.3106 46.986 69.5946 47.44 68.9595C47.8978 68.3243 48.4372 67.7623 49.0115 67.2465C50.1639 66.2187 51.4521 65.3795 52.7908 64.6404C53.1284 64.4518 53.4621 64.2824 53.7997 64.1092C54.145 63.936 54.4904 63.7936 54.8357 63.6319L56.9116 62.6965C59.6899 61.4955 62.5263 60.4754 65.3511 59.5053C71.0085 57.6076 76.6077 55.8368 81.9352 53.8813C83.2662 53.3925 84.5816 52.892 85.8698 52.3647C87.1542 51.8335 88.4191 51.2791 89.5987 50.6171C90.1807 50.2822 90.755 49.9165 91.1935 49.4507C91.3991 49.212 91.5699 48.9349 91.5388 48.6616C91.5117 48.3882 91.3138 48.1457 91.0693 47.9456C90.8287 47.7415 90.5455 47.6145 90.2351 47.4952C89.9324 47.372 89.622 47.2719 89.3077 47.1757C88.6791 46.9794 88.0505 46.8061 87.4219 46.6406C84.9036 45.9785 82.4358 45.3819 80.0844 44.6774C77.7446 43.9576 75.4785 43.1569 73.5695 41.8789C73.1 41.5556 72.6498 41.2014 72.2851 40.7703C72.1881 40.6663 72.0989 40.5586 72.0212 40.4392C71.9475 40.3199 71.8544 40.216 71.7962 40.0851C71.7341 39.9581 71.6643 39.831 71.6099 39.7001L71.4935 39.3114C71.3771 38.7609 71.3849 38.2066 71.5479 37.6869C71.7031 37.1672 72.0018 36.713 72.3549 36.3242C73.0883 35.5697 73.9846 35.0539 74.8771 34.6497C75.7734 34.2417 76.6814 33.9337 77.57 33.672C79.3471 33.1639 81.0505 32.8328 82.6298 32.5672C84.2052 32.3054 85.6641 32.1207 86.9834 31.9667C89.6181 31.6664 91.6979 31.5125 93.1181 31.4047C94.092 31.3392 94.7555 31.2931 95.0737 31.2738C94.7555 31.3007 94.092 31.3469 93.1181 31.4201C91.7018 31.5356 89.622 31.7011 86.9873 32.0167C85.6719 32.1784 84.2168 32.3747 82.6414 32.6442C81.0661 32.9136 79.3704 33.2562 77.601 33.7759C76.7163 34.0415 75.8161 34.3533 74.9314 34.7614C74.0467 35.1655 73.1659 35.6852 72.4597 36.4205C72.1221 36.7977 71.8389 37.2365 71.6914 37.7293V37.7293Z" fill="url(#paint4_linear_214_1743)"/>
<path d="M77.9549 37.531C77.7491 37.7274 77.5745 37.9661 77.5551 38.228C77.5356 38.4898 77.6831 38.7401 77.885 38.9404C78.3042 39.3293 78.902 39.5449 79.4803 39.7451C80.6526 40.1341 81.887 40.4152 83.1369 40.7078C85.6366 41.2738 88.214 41.8322 90.838 42.4598C92.15 42.7756 93.4698 43.1298 94.7818 43.5688C96.0899 44.0116 97.398 44.5315 98.613 45.2747C99.2107 45.652 99.793 46.0833 100.282 46.6262C100.402 46.7648 100.515 46.9073 100.624 47.0536C100.732 47.2115 100.829 47.3694 100.911 47.5196C101.086 47.8546 101.218 48.1934 101.311 48.5515C101.497 49.2639 101.501 50.0302 101.318 50.7503C101.152 51.4703 100.81 52.1403 100.406 52.7526C99.5795 53.9732 98.4616 54.959 97.2854 55.8331C96.1054 56.7072 94.8284 57.4504 93.5241 58.1396C92.216 58.825 90.8613 59.4373 89.495 60.0072C88.1286 60.5694 86.7545 61.1393 85.3804 61.7053C82.6361 62.8412 79.8685 63.9618 77.1203 65.117L75.0669 65.9949C74.3915 66.303 73.7122 66.5879 73.0368 66.9114L72.0276 67.3927C71.7054 67.5506 71.3716 67.7239 71.0494 67.8933C70.4012 68.2437 69.7646 68.6095 69.1901 69.0331C68.6234 69.4566 68.0761 69.9534 67.8898 70.5348C67.7966 70.8198 67.8121 71.1394 67.8975 71.4397C67.9829 71.7362 68.1498 72.0096 68.3711 72.2561C68.8214 72.7489 69.4424 73.1263 70.0712 73.4652C70.7078 73.8002 71.3716 74.0967 72.0431 74.3739C74.7447 75.4752 77.5124 76.3993 80.2295 77.3504C81.592 77.8241 82.9428 78.2939 84.2858 78.7598C85.6289 79.2219 86.968 79.7147 88.2645 80.2769C89.561 80.8468 90.8225 81.4783 91.9986 82.2407C93.1748 83.0032 94.2733 83.9042 95.1583 84.9863C96.0472 86.0644 96.7071 87.312 97.0991 88.6097C97.5028 89.9151 97.6697 91.2358 97.6853 92.5528C97.6969 95.1866 97.037 97.6779 96.1675 99.9498C95.2786 102.222 94.1607 104.297 92.9729 106.207C90.5857 110.023 87.9695 113.215 85.5668 115.945C83.1524 118.675 80.9282 120.943 79.0767 122.78C77.2251 124.621 75.7384 126.03 74.7292 126.997C74.5351 127.178 74.3605 127.343 74.2052 127.493H72.5283C72.7573 127.274 73.2309 126.827 73.9335 126.169C74.9466 125.214 76.4371 123.816 78.2926 121.999C80.1441 120.177 82.3644 117.944 84.771 115.252C87.166 112.561 89.7706 109.419 92.1384 105.691C93.3145 103.827 94.4169 101.806 95.2903 99.611C96.1442 97.42 96.7847 95.0326 96.7847 92.5566C96.7925 90.096 96.1481 87.5123 94.4984 85.5176C92.8642 83.5038 90.4537 82.1252 87.9423 81.0008C86.673 80.4425 85.3688 79.9535 84.0257 79.4837C82.6866 79.0101 81.3397 78.5326 79.9811 78.0513C77.2678 77.0809 74.508 76.1413 71.7753 75.0093C71.0921 74.7205 70.4128 74.4163 69.7491 74.0581C69.0892 73.6962 68.4215 73.2996 67.8742 72.695C67.3269 72.102 66.997 71.1856 67.2648 70.3384C67.4007 69.9226 67.653 69.5799 67.9247 69.2911C68.1964 68.9984 68.4992 68.752 68.8097 68.5248C69.4308 68.0743 70.0868 67.7008 70.7544 67.3465C71.0882 67.1732 71.4182 67.0038 71.7636 66.8382L72.7729 66.3646C73.4483 66.045 74.1431 65.7562 74.8263 65.452L76.8952 64.5817C79.655 63.4419 82.4265 62.3368 85.1825 61.2201C87.9268 60.0842 90.7138 59.0638 93.3029 57.7199C94.5993 57.0499 95.857 56.3221 97.0215 55.475C98.1782 54.6278 99.2651 53.6729 100.053 52.5177C100.441 51.9401 100.763 51.3163 100.923 50.654C101.093 49.9955 101.093 49.2986 100.926 48.6478C100.845 48.3244 100.717 48.0009 100.569 47.7083C100.484 47.5465 100.399 47.4079 100.305 47.2731C100.208 47.1384 100.104 47.0036 99.9948 46.8765C99.5446 46.3682 98.9934 45.9524 98.415 45.5827C97.2466 44.8588 95.9579 44.3389 94.6692 43.8923C93.3766 43.4495 92.0646 43.0875 90.7604 42.7679C88.1481 42.1248 85.5745 41.5549 83.0747 40.9696C81.8249 40.6693 80.5905 40.3805 79.3988 39.98C78.8088 39.7644 78.2033 39.5565 77.7181 39.1059C77.4968 38.8864 77.295 38.563 77.326 38.2087C77.3571 37.8583 77.5745 37.5811 77.8035 37.3693C78.2693 36.9496 78.8243 36.68 79.3678 36.4413C79.919 36.2026 80.474 36.0062 81.033 35.829C82.147 35.4786 83.2611 35.2014 84.3557 34.9549C88.7381 33.9923 92.8138 33.4378 96.4237 32.968C100.034 32.5098 103.193 32.1786 105.794 31.9284C109.606 31.5587 112.226 31.3546 113.355 31.2737C112.226 31.3623 109.61 31.5856 105.798 31.9746C103.201 32.2441 100.045 32.5907 96.4354 33.072C92.8332 33.5649 88.7614 34.1425 84.3945 35.1321C83.3076 35.3824 82.2014 35.6673 81.0951 36.0216C80.5439 36.1987 79.9927 36.3989 79.4532 36.6338C78.9214 36.8726 78.3818 37.1421 77.9549 37.531Z" fill="url(#paint5_linear_214_1743)"/>
</g>
</g>
<defs>
<filter id="filter0_d_214_1743" x="0.472481" y="-7.51971" width="148.04" height="148.436" filterUnits="userSpaceOnUse" color-interpolation-filters="sRGB">
<feFlood flood-opacity="0" result="BackgroundImageFix"/>
<feColorMatrix in="SourceAlpha" type="matrix" values="0 0 0 0 0 0 0 0 0 0 0 0 0 0 0 0 0 0 127 0" result="hardAlpha"/>
<feOffset dx="3" dy="3"/>
<feGaussianBlur stdDeviation="10"/>
<feComposite in2="hardAlpha" operator="out"/>
<feColorMatrix type="matrix" values="0 0 0 0 0.980392 0 0 0 0 0.752941 0 0 0 0 0.368627 0 0 0 0.5 0"/>
<feBlend mode="normal" in2="BackgroundImageFix" result="effect1_dropShadow_214_1743"/>
<feBlend mode="normal" in="SourceGraphic" in2="effect1_dropShadow_214_1743" result="shape"/>
</filter>
<filter id="filter1_d_214_1743" x="14.7526" y="27.7738" width="103.674" height="109.22" filterUnits="userSpaceOnUse" color-interpolation-filters="sRGB">
<feFlood flood-opacity="0" result="BackgroundImageFix"/>
<feColorMatrix in="SourceAlpha" type="matrix" values="0 0 0 0 0 0 0 0 0 0 0 0 0 0 0 0 0 0 127 0" result="hardAlpha"/>
<feOffset dy="3"/>
<feGaussianBlur stdDeviation="3"/>
<feComposite in2="hardAlpha" operator="out"/>
<feColorMatrix type="matrix" values="0 0 0 0 0 0 0 0 0 0 0 0 0 0 0 0 0 0 0.22 0"/>
<feBlend mode="normal" in2="BackgroundImageFix" result="effect1_dropShadow_214_1743"/>
<feBlend mode="normal" in="SourceGraphic" in2="effect1_dropShadow_214_1743" result="shape"/>
</filter>
<linearGradient id="paint0_linear_214_1743" x1="71.4922" y1="24.4803" x2="71.4922" y2="102.916" gradientUnits="userSpaceOnUse">
<stop stop-color="#FAC05E"/>
<stop offset="1" stop-color="#EF9502"/>
</linearGradient>
<linearGradient id="paint1_linear_214_1743" x1="71.4922" y1="24.4803" x2="71.4922" y2="102.916" gradientUnits="userSpaceOnUse">
<stop stop-color="#FAC05E"/>
<stop offset="1" stop-color="#EF9502"/>
</linearGradient>
<linearGradient id="paint2_linear_214_1743" x1="76.3089" y1="92.8544" x2="76.3089" y2="50.5177" gradientUnits="userSpaceOnUse">
<stop stop-color="#EAEAEA"/>
<stop offset="1" stop-color="#CECECE"/>
</linearGradient>
<linearGradient id="paint3_linear_214_1743" x1="67.6511" y1="127.493" x2="67.6511" y2="95.741" gradientUnits="userSpaceOnUse">
<stop stop-color="white"/>
<stop offset="1" stop-color="#DFDFDF"/>
</linearGradient>
<linearGradient id="paint4_linear_214_1743" x1="58.0291" y1="127.493" x2="58.0291" y2="30.7002" gradientUnits="userSpaceOnUse">
<stop stop-color="#EFAB00"/>
<stop offset="1" stop-color="#C98B00"/>
</linearGradient>
<linearGradient id="paint5_linear_214_1743" x1="90.2635" y1="31.2275" x2="90.2635" y2="30.7038" gradientUnits="userSpaceOnUse">
<stop stop-color="#EFAB00"/>
<stop offset="1" stop-color="#C98B00"/>
</linearGradient>
</defs>
</svg>
