<svg width="149" height="128" viewBox="0 0 149 128" fill="none" xmlns="http://www.w3.org/2000/svg">
<g filter="url(#filter0_d_304_5193)">
<path d="M121.5 63.6981C121.5 91.4279 99.1089 113.904 71.4922 113.904C43.8755 113.904 21.4844 91.4279 21.4844 63.6981C21.4844 35.9683 43.8755 13.4922 71.4922 13.4922C99.1089 13.4922 121.5 35.9683 121.5 63.6981Z" stroke="#FAC05E"/>
<path d="M71.4923 110.416C97.2202 110.416 118.012 89.4638 118.012 63.6981C118.012 37.9324 97.2202 16.9802 71.4923 16.9802C45.7644 16.9802 24.9725 37.9324 24.9725 63.6981C24.9725 89.4638 45.7644 110.416 71.4923 110.416Z" stroke="url(#paint0_linear_304_5193)" stroke-width="15"/>
<path d="M71.4923 110.416C97.2202 110.416 118.012 89.4638 118.012 63.6981C118.012 37.9324 97.2202 16.9802 71.4923 16.9802C45.7644 16.9802 24.9725 37.9324 24.9725 63.6981C24.9725 89.4638 45.7644 110.416 71.4923 110.416Z" stroke="url(#paint1_linear_304_5193)" stroke-width="15"/>
</g>
<g opacity="0.3">
<mask id="mask0_304_5193" style="mask-type:alpha" maskUnits="userSpaceOnUse" x="31" y="24" width="80" height="80">
<circle cx="71.0185" cy="63.9886" r="39.4501" fill="#D9D9D9" fill-opacity="0.2"/>
</mask>
<g mask="url(#mask0_304_5193)">
<g filter="url(#filter1_d_304_5193)">
<path d="M20.9845 127.494H73.8248C86.058 115.382 97.3957 105.289 96.9319 90.8225C96.5921 80.2248 80.621 78.05 72.8054 75.0101C57.582 69.0889 82.3201 63.235 93.3639 58.0203C109.131 49.0039 98.1212 43.8341 90.6454 42.3762C79.9074 40.6267 77.4495 39.0679 77.5627 38.5072C75.1161 34.7392 99.7636 32.115 112.393 31.2739H94.2134C87.9269 31.2739 74.6064 32.3505 71.6161 36.6568C67.8782 42.0398 83.1696 44.563 88.0968 46.5816C93.0241 48.6002 90.9852 49.1048 89.626 50.6188C88.5386 51.8299 70.8232 57.9642 62.1014 60.88C58.6467 61.7211 50.8537 64.5807 47.3197 69.2908C42.9258 75.1469 56.854 82.5007 62.0189 85.2277L62.1014 85.2713C66.1791 87.4245 67.9914 90.2057 68.3879 91.3271C70.2908 99.4015 37.5785 118.802 20.9845 127.494Z" fill="#414646"/>
<path d="M73.8248 127.494V127.994H74.0305L74.1766 127.849L73.8248 127.494ZM20.9845 127.494L20.7525 127.051L20.9845 127.994V127.494ZM68.3879 91.3271L68.8746 91.2124L68.8683 91.186L68.8593 91.1605L68.3879 91.3271ZM62.1014 85.2713L62.3349 84.8292L62.3349 84.8292L62.1014 85.2713ZM62.0189 85.2277L62.2523 84.7856L62.2523 84.7856L62.0189 85.2277ZM47.3197 69.2908L47.7197 69.5909L47.3197 69.2908ZM62.1014 60.88L62.2197 61.3658L62.2401 61.3608L62.2599 61.3542L62.1014 60.88ZM89.626 50.6188L89.2539 50.2848L89.626 50.6188ZM88.0968 46.5816L87.9073 47.0443L88.0968 46.5816ZM71.6161 36.6568L71.2054 36.3717L71.6161 36.6568ZM112.393 31.2739L112.426 31.7728L112.393 30.7739V31.2739ZM77.5627 38.5072L78.0528 38.6062L78.0933 38.4061L77.9821 38.2349L77.5627 38.5072ZM90.6454 42.3762L90.7411 41.8854L90.7335 41.884L90.7258 41.8827L90.6454 42.3762ZM93.3639 58.0203L93.5774 58.4724L93.5951 58.4641L93.6121 58.4543L93.3639 58.0203ZM72.8054 75.0101L72.9867 74.5441L72.8054 75.0101ZM96.9319 90.8225L97.4316 90.8064L96.9319 90.8225ZM73.8248 126.994H20.9845V127.994H73.8248V126.994ZM21.2165 127.937C29.5243 123.585 41.8703 116.552 51.9075 109.59C56.9235 106.111 61.3822 102.637 64.4728 99.514C66.0171 97.9538 67.2378 96.4635 68.0135 95.0886C68.7842 93.7224 69.1545 92.4001 68.8746 91.2124L67.9012 91.4418C68.097 92.2727 67.8614 93.3229 67.1425 94.5972C66.4286 95.8627 65.2762 97.2808 63.7621 98.8106C60.7358 101.868 56.3361 105.301 51.3376 108.768C41.3459 115.698 29.0387 122.711 20.7525 127.051L21.2165 127.937ZM68.8593 91.1605C68.4142 89.9014 66.5044 87.0308 62.3349 84.8292L61.868 85.7135C65.8539 87.8182 67.5687 90.5099 67.9165 91.4938L68.8593 91.1605ZM62.3349 84.8292L62.2523 84.7856L61.7854 85.6699L61.868 85.7135L62.3349 84.8292ZM62.2523 84.7856C59.6627 83.4183 54.934 80.9198 51.4003 78.0448C49.629 76.6037 48.2054 75.105 47.4847 73.6465C47.1274 72.9233 46.952 72.228 46.9776 71.5643C47.003 70.9064 47.2269 70.2476 47.7197 69.5909L46.9198 68.9907C46.3141 69.798 46.0121 70.6501 45.9783 71.5258C45.9448 72.3958 46.177 73.2572 46.5882 74.0895C47.4047 75.742 48.962 77.3502 50.7692 78.8205C54.3923 81.7682 59.2102 84.3102 61.7854 85.6699L62.2523 84.7856ZM47.7197 69.5909C49.4184 67.3268 52.1696 65.4768 54.9636 64.0819C57.7497 62.6909 60.5261 61.7781 62.2197 61.3658L61.9831 60.3942C60.222 60.8229 57.3745 61.7605 54.517 63.1872C51.6673 64.6099 48.7551 66.5447 46.9198 68.9907L47.7197 69.5909ZM62.2599 61.3542C66.6232 59.8955 73.2367 57.6316 78.8969 55.5802C81.7264 54.5548 84.3222 53.5809 86.281 52.7864C87.2595 52.3894 88.0855 52.0347 88.7044 51.739C89.0134 51.5913 89.2775 51.4552 89.4861 51.3331C89.6798 51.2197 89.8734 51.0916 89.998 50.9528L89.2539 50.2848C89.2542 50.2844 89.2365 50.303 89.1842 50.3405C89.1352 50.3758 89.0681 50.419 88.9809 50.4701C88.8062 50.5723 88.5698 50.695 88.2732 50.8367C87.6811 51.1197 86.8765 51.4657 85.9051 51.8597C83.9638 52.6471 81.3818 53.6161 78.5562 54.6401C72.9065 56.6876 66.3014 58.9487 61.9429 60.4058L62.2599 61.3542ZM89.998 50.9528C90.3225 50.5914 90.6564 50.3218 90.9988 49.9946C91.1581 49.8425 91.3186 49.6767 91.4456 49.4989C91.5729 49.3206 91.6869 49.1021 91.7157 48.8452C91.7786 48.2848 91.4225 47.8328 90.9026 47.4489C90.3699 47.0555 89.5256 46.6266 88.2864 46.1189L87.9073 47.0443C89.1317 47.5459 89.8802 47.937 90.3086 48.2533C90.7497 48.5791 90.7228 48.7263 90.7219 48.7337C90.7189 48.7607 90.7029 48.8182 90.6317 48.9178C90.5602 49.018 90.454 49.1321 90.3079 49.2717C90.0397 49.528 89.609 49.8892 89.2539 50.2848L89.998 50.9528ZM88.2864 46.1189C87.0237 45.6016 85.1105 45.0564 83.0577 44.4563C80.9876 43.8512 78.7515 43.184 76.7894 42.4153C74.8103 41.6399 73.1857 40.7888 72.2819 39.8482C71.8376 39.3858 71.5986 38.9336 71.5454 38.4869C71.4931 38.0474 71.6119 37.5395 72.0268 36.942L71.2054 36.3717C70.6858 37.1199 70.4648 37.8684 70.5525 38.6051C70.6393 39.3346 71.0202 39.9784 71.5608 40.5411C72.6269 41.6506 74.4322 42.5658 76.4246 43.3464C78.434 44.1337 80.711 44.8122 82.7771 45.4162C84.8604 46.0251 86.7063 46.5523 87.9073 47.0443L88.2864 46.1189ZM72.0268 36.942C72.6897 35.9873 73.9714 35.1583 75.71 34.4633C77.4343 33.7741 79.54 33.2432 81.7672 32.8426C86.2204 32.0417 91.0913 31.7739 94.2134 31.7739V30.7739C91.049 30.7739 86.1165 31.0444 81.5902 31.8584C79.3277 32.2653 77.1496 32.811 75.3388 33.5347C73.5424 34.2528 72.0376 35.1732 71.2054 36.3717L72.0268 36.942ZM94.2134 31.7739H112.393V30.7739H94.2134V31.7739ZM112.36 30.775C106.037 31.1961 96.7 32.0638 89.2426 33.2997C85.5203 33.9166 82.2356 34.6301 80.0255 35.4359C78.9315 35.8348 78.0394 36.2774 77.4975 36.7837C77.2224 37.0408 77.0018 37.3473 76.9234 37.7081C76.8414 38.0853 76.9301 38.451 77.1434 38.7795L77.9821 38.2349C77.8896 38.0925 77.8841 37.9961 77.9006 37.9205C77.9206 37.8284 77.9909 37.6913 78.1803 37.5144C78.5673 37.1527 79.2981 36.7655 80.3681 36.3754C82.486 35.6032 85.6937 34.9015 89.4061 34.2862C96.8183 33.0578 106.12 32.1928 112.426 31.7728L112.36 30.775ZM77.0726 38.4082C77.0173 38.6822 77.1377 38.9155 77.2569 39.0692C77.381 39.2291 77.5592 39.378 77.7737 39.5196C78.2057 39.8048 78.882 40.1229 79.87 40.468C81.8523 41.1603 85.1838 41.993 90.565 42.8697L90.7258 41.8827C85.3691 41.01 82.1026 40.1885 80.1997 39.5239C79.2451 39.1905 78.657 38.9045 78.3245 38.685C78.1567 38.5742 78.0776 38.4957 78.047 38.4562C78.0115 38.4104 78.0799 38.4724 78.0528 38.6062L77.0726 38.4082ZM90.5497 42.867C92.3908 43.226 94.4418 43.8125 96.2353 44.6233C98.0421 45.4402 99.5231 46.4561 100.303 47.6391C100.688 48.2217 100.898 48.8385 100.904 49.4968C100.91 50.1565 100.71 50.8949 100.214 51.7193C99.2118 53.3844 97.0333 55.346 93.1157 57.5863L93.6121 58.4543C97.578 56.1864 99.9359 54.1206 101.071 52.2349C101.643 51.284 101.911 50.3662 101.904 49.4882C101.896 48.609 101.612 47.8068 101.138 47.0885C100.202 45.6698 98.5147 44.5564 96.6472 43.7121C94.7665 42.8618 92.6379 42.2553 90.7411 41.8854L90.5497 42.867ZM93.1504 57.5682C90.412 58.8612 86.8186 60.1964 83.1748 61.5746C79.5454 62.9474 75.868 64.3621 73.0093 65.8038C71.5802 66.5245 70.3347 67.2622 69.395 68.0176C68.4676 68.7633 67.7707 69.5792 67.556 70.4741C67.3285 71.4227 67.6686 72.3292 68.5167 73.1527C69.347 73.9589 70.699 74.7273 72.6242 75.4761L72.9867 74.5441C71.106 73.8127 69.9009 73.1029 69.2133 72.4352C68.5435 71.7849 68.405 71.2218 68.5284 70.7074C68.6647 70.1394 69.1484 69.499 70.0216 68.797C70.8825 68.1049 72.0576 67.4038 73.4596 66.6967C76.2629 65.283 79.8893 63.8864 83.5286 62.5099C87.1535 61.1388 90.7938 59.7868 93.5774 58.4724L93.1504 57.5682ZM72.6242 75.4761C74.6007 76.2449 77.0925 76.959 79.6782 77.7511C82.2778 78.5474 84.9919 79.4279 87.4674 80.5384C92.4457 82.7716 96.2721 85.8472 96.4321 90.8385L97.4316 90.8064C97.2518 85.2001 92.9228 81.8895 87.8767 79.626C85.3401 78.4881 82.5747 77.5925 79.971 76.7949C77.3534 75.9931 74.918 75.2953 72.9867 74.5441L72.6242 75.4761ZM96.4321 90.8385C96.6593 97.9225 94.0022 103.954 89.7372 109.745C85.4611 115.55 79.6067 121.066 73.4731 127.138L74.1766 127.849C80.2761 121.81 86.2072 116.223 90.5423 110.338C94.8884 104.437 97.6683 98.189 97.4316 90.8064L96.4321 90.8385Z" fill="#414646"/>
</g>
<path d="M84.4069 92.8545H83.7677C83.8331 92.5215 83.9024 92.114 83.914 91.7888C83.9525 90.4567 83.8793 90.0258 83.371 89.0581C83.0091 88.3724 82.3198 87.7338 82.0002 87.4791L82.52 87.2088C82.8897 87.5027 83.5443 88.1844 83.914 88.823C84.4916 89.8142 84.6726 90.8446 84.4069 92.8545ZM79.0737 85.5398C78.2882 85.0932 77.3948 84.6739 76.4475 84.2273C75.9547 83.9961 73.6866 82.9031 73.1668 82.6523L73.8753 82.3193C74.3913 82.574 76.2011 83.4672 76.6901 83.6984C77.649 84.1489 78.8042 84.721 79.6089 85.1793L79.0737 85.5476V85.5398ZM69.6126 80.8697C68.0338 80.1684 65.3037 78.8755 64.0946 78.2525L64.911 77.9744C66.1085 78.5934 68.9503 79.8902 70.5214 80.5837L69.6126 80.8697ZM61.1296 76.5913C59.262 75.3846 57.9875 74.2955 57.2366 73.2729H58.0529C58.9039 74.2484 60.2516 75.3886 61.9498 76.4033L61.1296 76.5953V76.5913ZM57.3213 70.7537L56.5858 70.9182C56.5858 70.5617 56.709 70.1895 56.7822 70.0093C57.1865 69.0298 57.9297 68.1875 59.5277 67.1257L60.0553 67.4274C58.6652 68.352 58.0067 68.8653 57.4984 69.9427C57.4022 70.1464 57.3136 70.5225 57.3174 70.7576L57.3213 70.7537ZM62.227 66.1071L61.6225 65.7662C62.8932 65.0806 64.3565 64.3675 66.1239 63.6271L66.7554 63.9836C65.0034 64.7162 63.4824 65.4293 62.2309 66.1071H62.227ZM69.1043 62.9649L68.519 62.5536C69.8167 62.0521 71.2414 61.531 72.878 60.9551L73.5287 61.3194C71.8961 61.8954 70.3905 62.4713 69.1005 62.9689L69.1043 62.9649ZM75.9547 60.5319L75.2885 60.1088L76.7941 59.5956C77.6451 59.3056 78.4383 59.0353 79.1507 58.7846C79.4472 58.6788 79.7437 58.5769 80.0325 58.4711L80.7526 58.8472C80.4599 58.953 79.6359 59.2312 79.3394 59.337C78.6232 59.5877 77.8299 59.8581 76.9789 60.148L75.9585 60.528L75.9547 60.5319ZM82.9321 57.9344L82.3275 57.6288C83.837 57.045 85.0769 56.5239 86.3938 55.9284L87.1216 56.1557C85.7931 56.759 84.4531 57.3467 82.9321 57.9344ZM89.1817 55.1527L88.4616 54.8863C90.1713 54.1458 90.7643 53.7814 91.8464 53.1193L92.4317 53.3622C91.2033 54.1889 90.2175 54.7335 89.1817 55.1488V55.1527ZM93.9488 52.324L93.325 52.1163C94.1606 51.6579 95.054 51.0663 95.62 50.5178L96.0359 50.7059C95.4121 51.3562 94.6496 51.9126 93.9488 52.3279V52.324Z" fill="url(#paint2_linear_304_5193)"/>
<path d="M82.7312 95.7642C82.7312 95.7642 81.5788 98.5815 78.3262 102.877L79.2549 102.884C79.2549 102.884 82.2422 99.0433 83.5273 95.7411L82.7312 95.7642ZM74.558 107.16C74.558 107.16 72.6474 109.123 71.5556 110.186C70.4828 111.225 68.2955 113.292 68.2955 113.292H69.4176C69.4176 113.292 71.0022 111.787 72.0788 110.74C73.1781 109.674 75.6536 107.157 75.6536 107.157H74.558V107.16ZM63.3635 117.729C63.3635 117.729 59.6864 121.028 57.4573 122.894L58.6439 122.887L64.5842 117.733H63.3635V117.729ZM53.0334 126.508C53.0334 126.508 52.533 126.905 51.7748 127.494H53.0296C53.7915 126.901 54.2919 126.508 54.2919 126.508H53.0334Z" fill="url(#paint3_linear_304_5193)"/>
<path d="M71.6914 37.7294C71.54 38.2182 71.54 38.761 71.6487 39.2653C71.769 39.8081 72.0561 40.243 72.417 40.6588C72.7701 41.0707 73.2124 41.4171 73.6742 41.7328C75.5561 42.9761 77.8183 43.7614 80.1503 44.4658C82.4978 45.1549 84.9656 45.7323 87.4917 46.3828C88.1203 46.5445 88.7566 46.7139 89.393 46.9064C89.7073 47.0026 90.0255 47.1065 90.3398 47.2297C90.6502 47.3452 90.9839 47.4915 91.2555 47.7186C91.5155 47.9303 91.7987 48.2344 91.8375 48.6386C91.8763 49.0466 91.6474 49.3854 91.4223 49.651C90.9373 50.1668 90.3514 50.5402 89.7577 50.8905C88.5587 51.5757 87.2899 52.1377 86.0017 52.6766C84.7095 53.2194 83.3941 53.7275 82.0632 54.2241C76.7357 56.2142 71.1443 58.0196 65.5063 59.952C62.6931 60.9336 59.8722 61.9691 57.1211 63.1778L55.0723 64.1132C54.7348 64.2749 54.3817 64.4211 54.0518 64.5905C53.7181 64.7637 53.3806 64.937 53.0585 65.1217C51.7586 65.8531 50.4975 66.6846 49.4033 67.6739C48.3207 68.6593 47.3352 69.8449 47.0325 71.223C46.8889 71.9313 46.8618 72.6396 47.0597 73.3094C47.2498 73.9792 47.6262 74.5951 48.0802 75.1571C49.0153 76.2734 50.1832 77.2127 51.3745 78.0904C52.5696 78.9719 53.8229 79.7803 55.084 80.5617C57.6139 82.113 60.1826 83.5873 62.6582 85.1502C63.896 85.9354 65.1183 86.7361 66.2629 87.66C66.8411 88.1104 67.3766 88.6262 67.8693 89.192C68.3505 89.7656 68.754 90.4585 68.9209 91.2284L68.983 91.5171C68.9985 91.6133 68.9946 91.7134 69.0024 91.8096L69.0101 92.1022V92.1753C69.0101 92.2408 69.0101 92.2331 69.0101 92.2639L68.9946 92.3947C68.983 92.568 68.9674 92.7412 68.9248 92.9375C68.8898 93.1338 68.851 93.3186 68.7967 93.4957C68.6027 94.2117 68.3 94.8776 67.9547 95.5089C67.2524 96.76 66.3677 97.8609 65.4442 98.8887C63.5739 100.929 61.5213 102.676 59.4725 104.293C55.3517 107.507 51.2154 110.202 47.3662 112.623C43.5092 115.033 39.9161 117.146 36.7266 119.002C33.5293 120.842 30.7433 122.447 28.4462 123.767C26.1491 125.088 24.3564 126.135 23.1458 126.862C22.7306 127.113 22.3814 127.324 22.1059 127.494H20.9845V126.816C21.291 126.635 21.8187 126.32 22.5521 125.881C23.7783 125.157 25.5826 124.118 27.8874 122.809C30.1923 121.504 32.9899 119.914 36.195 118.093C39.3923 116.261 42.9893 114.175 46.8424 111.796C50.6916 109.409 54.824 106.753 58.9176 103.597C60.9548 102.011 62.9919 100.298 64.8156 98.3267C65.7197 97.3335 66.5733 96.2788 67.2369 95.1124C67.5628 94.5273 67.8422 93.9153 68.0168 93.284C68.0672 93.1223 68.1022 92.9683 68.1293 92.8182C68.1642 92.6719 68.1836 92.4948 68.1992 92.3178L68.2108 92.1869C68.2108 92.1869 68.2147 92.1445 68.2147 92.1407V92.0868L68.203 91.852C68.203 91.775 68.203 91.6942 68.1914 91.621L68.1448 91.3901C68.0129 90.7818 67.6947 90.2044 67.264 89.6848C66.8217 89.1728 66.325 88.6878 65.774 88.2489C64.6837 87.3559 63.4769 86.5591 62.2546 85.7699C59.8062 84.2032 57.253 82.7173 54.7154 81.1391C53.4504 80.3461 52.1893 79.5262 50.9787 78.6177C49.7681 77.7131 48.5768 76.7508 47.5835 75.5498C47.1023 74.9454 46.6755 74.2564 46.4582 73.4749C46.2293 72.6935 46.2758 71.8543 46.4388 71.0998C46.6095 70.3107 46.9859 69.5947 47.4399 68.9596C47.8978 68.3244 48.4371 67.7624 49.0114 67.2466C50.1638 66.2188 51.4521 65.3796 52.7908 64.6405C53.1283 64.4519 53.462 64.2826 53.7996 64.1093C54.145 63.9361 54.4903 63.7937 54.8356 63.632L56.9116 62.6966C59.6898 61.4956 62.5263 60.4755 65.3511 59.5054C71.0084 57.6077 76.6076 55.837 81.9352 53.8815C83.2661 53.3926 84.5815 52.8922 85.8697 52.3648C87.1541 51.8336 88.4191 51.2793 89.5986 50.6172C90.1807 50.2823 90.755 49.9166 91.1934 49.4508C91.3991 49.2121 91.5698 48.935 91.5388 48.6617C91.5116 48.3884 91.3137 48.1459 91.0692 47.9457C90.8287 47.7417 90.5454 47.6146 90.235 47.4953C89.9323 47.3721 89.6219 47.272 89.3076 47.1758C88.679 46.9795 88.0504 46.8063 87.4218 46.6407C84.9036 45.9786 82.4357 45.382 80.0843 44.6775C77.7445 43.9577 75.4785 43.157 73.5694 41.879C73.0999 41.5557 72.6498 41.2015 72.285 40.7704C72.188 40.6665 72.0988 40.5587 72.0212 40.4394C71.9475 40.32 71.8543 40.2161 71.7961 40.0852C71.7341 39.9582 71.6642 39.8311 71.6099 39.7003L71.4935 39.3115C71.3771 38.761 71.3848 38.2067 71.5478 37.687C71.703 37.1674 72.0018 36.7131 72.3549 36.3243C73.0883 35.5699 73.9846 35.054 74.877 34.6499C75.7734 34.2418 76.6813 33.9339 77.5699 33.6721C79.3471 33.164 81.0505 32.8329 82.6297 32.5673C84.2051 32.3056 85.6641 32.1208 86.9834 31.9668C89.618 31.6666 91.6978 31.5126 93.118 31.4048C94.0919 31.3394 94.7555 31.2932 95.0736 31.2739C94.7555 31.3009 94.0919 31.3471 93.118 31.4202C91.7017 31.5357 89.6219 31.7012 86.9872 32.0169C85.6718 32.1785 84.2168 32.3749 82.6414 32.6443C81.066 32.9138 79.3703 33.2564 77.601 33.776C76.7163 34.0416 75.8161 34.3534 74.9314 34.7615C74.0467 35.1657 73.1659 35.6853 72.4597 36.4206C72.1221 36.7978 71.8388 37.2366 71.6914 37.7294Z" fill="url(#paint4_linear_304_5193)"/>
<path d="M77.9548 37.5312C77.7491 37.7276 77.5744 37.9663 77.555 38.2282C77.5356 38.49 77.6831 38.7403 77.8849 38.9405C78.3041 39.3295 78.9019 39.5451 79.4803 39.7453C80.6525 40.1342 81.8869 40.4153 83.1368 40.708C85.6366 41.274 88.214 41.8324 90.838 42.46C92.15 42.7758 93.4697 43.13 94.7817 43.569C96.0898 44.0118 97.3979 44.5317 98.6129 45.2748C99.2107 45.6522 99.7929 46.0835 100.282 46.6264C100.402 46.765 100.515 46.9075 100.624 47.0538C100.732 47.2117 100.829 47.3696 100.911 47.5198C101.085 47.8548 101.217 48.1936 101.311 48.5517C101.497 49.2641 101.501 50.0304 101.318 50.7504C101.151 51.4705 100.81 52.1405 100.406 52.7528C99.5794 53.9734 98.4615 54.9592 97.2854 55.8333C96.1053 56.7074 94.8283 57.4505 93.5241 58.1398C92.2159 58.8252 90.8612 59.4375 89.4949 60.0074C88.1286 60.5696 86.7545 61.1395 85.3804 61.7055C82.636 62.8414 79.8684 63.962 77.1202 65.1172L75.0668 65.9951C74.3914 66.3032 73.7121 66.5881 73.0367 66.9116L72.0275 67.3929C71.7053 67.5508 71.3715 67.724 71.0493 67.8935C70.4011 68.2439 69.7645 68.6097 69.19 69.0333C68.6233 69.4568 68.076 69.9536 67.8897 70.535C67.7965 70.82 67.812 71.1395 67.8974 71.4399C67.9828 71.7364 68.1498 72.0098 68.371 72.2562C68.8213 72.7491 69.4423 73.1265 70.0712 73.4653C70.7078 73.8003 71.3715 74.0968 72.043 74.3741C74.7447 75.4754 77.5123 76.3995 80.2294 77.3506C81.5919 77.8243 82.9427 78.294 84.2857 78.76C85.6288 79.222 86.968 79.7149 88.2644 80.2771C89.5609 80.847 90.8224 81.4785 91.9986 82.2409C93.1747 83.0034 94.2732 83.9044 95.1582 84.9864C96.0471 86.0646 96.707 87.3122 97.099 88.6099C97.5027 89.9152 97.6696 91.236 97.6852 92.5529C97.6968 95.1868 97.0369 97.6781 96.1675 99.95C95.2786 102.222 94.1606 104.297 92.9729 106.207C90.5857 110.023 87.9694 113.215 85.5667 115.946C83.1523 118.676 80.9281 120.944 79.0766 122.78C77.225 124.621 75.7384 126.03 74.7291 126.997C74.5351 127.178 74.3604 127.343 74.2051 127.494H72.5282C72.7573 127.274 73.2308 126.827 73.9334 126.169C74.9465 125.214 76.4371 123.816 78.2925 121.999C80.144 120.177 82.3643 117.944 84.7709 115.252C87.1659 112.561 89.7705 109.419 92.1383 105.691C93.3144 103.828 94.4168 101.806 95.2902 99.6112C96.1442 97.4201 96.7846 95.0327 96.7846 92.5568C96.7924 90.0962 96.148 87.5125 94.4983 85.5178C92.8642 83.5039 90.4537 82.1254 87.9422 81.001C86.673 80.4427 85.3687 79.9537 84.0257 79.4839C82.6865 79.0102 81.3396 78.5328 79.981 78.0514C77.2677 77.0811 74.5079 76.1415 71.7752 75.0094C71.092 74.7206 70.4128 74.4164 69.749 74.0583C69.0891 73.6964 68.4215 73.2998 67.8742 72.6952C67.3268 72.1022 66.9969 71.1858 67.2647 70.3386C67.4006 69.9227 67.6529 69.58 67.9246 69.2912C68.1963 68.9986 68.4991 68.7522 68.8096 68.525C69.4307 68.0744 70.0867 67.7009 70.7543 67.3467C71.0882 67.1734 71.4181 67.004 71.7636 66.8384L72.7728 66.3648C73.4482 66.0452 74.143 65.7564 74.8262 65.4522L76.8951 64.5819C79.6549 63.4421 82.4264 62.337 85.1824 61.2203C87.9267 60.0844 90.7137 59.064 93.3028 57.7201C94.5993 57.0501 95.8569 56.3223 97.0214 55.4752C98.1781 54.628 99.265 53.6731 100.053 52.5179C100.441 51.9403 100.763 51.3165 100.922 50.6542C101.093 49.9957 101.093 49.2987 100.926 48.648C100.845 48.3245 100.717 48.0011 100.569 47.7084C100.484 47.5467 100.398 47.4081 100.305 47.2733C100.208 47.1385 100.103 47.0038 99.9948 46.8767C99.5445 46.3684 98.9933 45.9525 98.4149 45.5829C97.2465 44.859 95.9578 44.3391 94.6691 43.8925C93.3766 43.4496 92.0646 43.0877 90.7603 42.7681C88.148 42.125 85.5745 41.5551 83.0747 40.9698C81.8248 40.6695 80.5904 40.3807 79.3988 39.9802C78.8087 39.7646 78.2032 39.5566 77.718 39.1061C77.4967 38.8866 77.2949 38.5632 77.326 38.2089C77.357 37.8585 77.5744 37.5813 77.8034 37.3695C78.2692 36.9498 78.8243 36.6802 79.3677 36.4415C79.9189 36.2027 80.474 36.0064 81.0329 35.8292C82.147 35.4788 83.261 35.2016 84.3556 34.9551C88.738 33.9925 92.8137 33.438 96.4236 32.9682C100.034 32.51 103.193 32.1788 105.794 31.9285C109.606 31.5589 112.226 31.3548 113.355 31.2739C112.226 31.3625 109.61 31.5858 105.798 31.9747C103.201 32.2443 100.045 32.5908 96.4353 33.0722C92.8331 33.5651 88.7613 34.1426 84.3944 35.1323C83.3076 35.3826 82.2013 35.6675 81.095 36.0218C80.5438 36.1989 79.9926 36.3991 79.4531 36.634C78.9213 36.8727 78.3818 37.1423 77.9548 37.5312Z" fill="url(#paint5_linear_304_5193)"/>
</g>
</g>
<path d="M63.3933 65.8097H66.5934L62.5658 80.4219C62.4956 80.666 62.4817 80.9236 62.5251 81.1743C62.5685 81.425 62.6681 81.6617 62.8159 81.8655C62.9636 82.0694 63.1555 82.2347 63.3762 82.3484C63.5969 82.462 63.8402 82.5208 64.0868 82.5201C64.2977 82.5211 64.5065 82.4782 64.7009 82.394C64.8954 82.3098 65.0714 82.1861 65.2185 82.0301L80.3798 66.3248C80.6212 66.077 80.7858 65.7607 80.8526 65.4161C80.9194 65.0714 80.8854 64.7141 80.7549 64.3894C80.6245 64.0648 80.4035 63.7875 80.12 63.593C79.8365 63.3984 79.5034 63.2953 79.163 63.2968H76.1818L79.8322 50.0039C79.9692 49.5023 79.992 48.9747 79.8988 48.4625C79.8056 47.9503 79.5989 47.4673 79.2949 47.0512C78.9909 46.6352 78.5979 46.2973 78.1465 46.0641C77.6951 45.8309 77.1976 45.7087 76.6929 45.7069H68.7837C68.0744 45.7106 67.3853 45.9513 66.8195 46.3929C66.2536 46.8345 65.8414 47.4534 65.6443 48.1569L61.4707 63.234C61.388 63.5368 61.3743 63.8552 61.4308 64.1643C61.4873 64.4735 61.6124 64.7648 61.7964 65.0156C61.9803 65.2664 62.218 65.4698 62.4909 65.6097C62.7637 65.7497 63.0643 65.8224 63.3689 65.8222L63.3933 65.8097Z" fill="#F5421A"/>
<defs>
<filter id="filter0_d_304_5193" x="0.472534" y="-7.51978" width="148.04" height="148.436" filterUnits="userSpaceOnUse" color-interpolation-filters="sRGB">
<feFlood flood-opacity="0" result="BackgroundImageFix"/>
<feColorMatrix in="SourceAlpha" type="matrix" values="0 0 0 0 0 0 0 0 0 0 0 0 0 0 0 0 0 0 127 0" result="hardAlpha"/>
<feOffset dx="3" dy="3"/>
<feGaussianBlur stdDeviation="10"/>
<feComposite in2="hardAlpha" operator="out"/>
<feColorMatrix type="matrix" values="0 0 0 0 0.980392 0 0 0 0 0.752941 0 0 0 0 0.368627 0 0 0 0.5 0"/>
<feBlend mode="normal" in2="BackgroundImageFix" result="effect1_dropShadow_304_5193"/>
<feBlend mode="normal" in="SourceGraphic" in2="effect1_dropShadow_304_5193" result="shape"/>
</filter>
<filter id="filter1_d_304_5193" x="14.7526" y="27.7739" width="103.674" height="109.22" filterUnits="userSpaceOnUse" color-interpolation-filters="sRGB">
<feFlood flood-opacity="0" result="BackgroundImageFix"/>
<feColorMatrix in="SourceAlpha" type="matrix" values="0 0 0 0 0 0 0 0 0 0 0 0 0 0 0 0 0 0 127 0" result="hardAlpha"/>
<feOffset dy="3"/>
<feGaussianBlur stdDeviation="3"/>
<feComposite in2="hardAlpha" operator="out"/>
<feColorMatrix type="matrix" values="0 0 0 0 0 0 0 0 0 0 0 0 0 0 0 0 0 0 0.22 0"/>
<feBlend mode="normal" in2="BackgroundImageFix" result="effect1_dropShadow_304_5193"/>
<feBlend mode="normal" in="SourceGraphic" in2="effect1_dropShadow_304_5193" result="shape"/>
</filter>
<linearGradient id="paint0_linear_304_5193" x1="71.4923" y1="24.4802" x2="71.4923" y2="102.916" gradientUnits="userSpaceOnUse">
<stop stop-color="#FAC05E"/>
<stop offset="1" stop-color="#EF9502"/>
</linearGradient>
<linearGradient id="paint1_linear_304_5193" x1="71.4923" y1="24.4802" x2="71.4923" y2="102.916" gradientUnits="userSpaceOnUse">
<stop stop-color="#F47458"/>
<stop offset="1" stop-color="#D93F1D"/>
</linearGradient>
<linearGradient id="paint2_linear_304_5193" x1="76.3089" y1="92.8545" x2="76.3089" y2="50.5178" gradientUnits="userSpaceOnUse">
<stop stop-color="#EAEAEA"/>
<stop offset="1" stop-color="#CECECE"/>
</linearGradient>
<linearGradient id="paint3_linear_304_5193" x1="67.651" y1="127.494" x2="67.651" y2="95.7411" gradientUnits="userSpaceOnUse">
<stop stop-color="white"/>
<stop offset="1" stop-color="#DFDFDF"/>
</linearGradient>
<linearGradient id="paint4_linear_304_5193" x1="58.0291" y1="127.494" x2="58.0291" y2="30.7004" gradientUnits="userSpaceOnUse">
<stop stop-color="#EFAB00"/>
<stop offset="1" stop-color="#C98B00"/>
</linearGradient>
<linearGradient id="paint5_linear_304_5193" x1="90.2635" y1="31.2277" x2="90.2635" y2="30.704" gradientUnits="userSpaceOnUse">
<stop stop-color="#EFAB00"/>
<stop offset="1" stop-color="#C98B00"/>
</linearGradient>
</defs>
</svg>
