<svg width="80" height="35" viewBox="0 0 80 35" fill="none" xmlns="http://www.w3.org/2000/svg">
<path d="M11 24C14.7333 19.4416 24.84 10.8878 35.4 13.1402C48.6 15.9557 56.2 12.7378 60.2 8.31346C64.2 3.8891 72.2 1.0736 77 2.28024" stroke="#3BBEB0" stroke-width="2" stroke-linecap="round" stroke-dasharray="5 5"/>
<circle cx="77.5" cy="2.5" r="2.5" fill="#FF765D"/>
<g filter="url(#filter0_d_214_1730)">
<circle cx="9.5" cy="24.5" r="2.5" fill="#22857A"/>
</g>
<path d="M10 3.66666C6.33334 3.66666 3.33334 6.66666 3.33334 10.3333C3.33334 14.8333 9.16667 19.9167 9.41667 20.1667C9.58334 20.25 9.83334 20.3333 10 20.3333C10.1667 20.3333 10.4167 20.25 10.5833 20.1667C10.8333 19.9167 16.6667 14.8333 16.6667 10.3333C16.6667 6.66666 13.6667 3.66666 10 3.66666ZM10 18.4167C8.25 16.75 5 13.1667 5 10.3333C5 7.58332 7.25 5.33332 10 5.33332C12.75 5.33332 15 7.58332 15 10.3333C15 13.0833 11.75 16.75 10 18.4167ZM10 6.99999C8.16667 6.99999 6.66667 8.49999 6.66667 10.3333C6.66667 12.1667 8.16667 13.6667 10 13.6667C11.8333 13.6667 13.3333 12.1667 13.3333 10.3333C13.3333 8.49999 11.8333 6.99999 10 6.99999ZM10 12C9.08334 12 8.33334 11.25 8.33334 10.3333C8.33334 9.41666 9.08334 8.66666 10 8.66666C10.9167 8.66666 11.6667 9.41666 11.6667 10.3333C11.6667 11.25 10.9167 12 10 12Z" fill="#FAC05E"/>
<defs>
<filter id="filter0_d_214_1730" x="1" y="18" width="17" height="17" filterUnits="userSpaceOnUse" color-interpolation-filters="sRGB">
<feFlood flood-opacity="0" result="BackgroundImageFix"/>
<feColorMatrix in="SourceAlpha" type="matrix" values="0 0 0 0 0 0 0 0 0 0 0 0 0 0 0 0 0 0 127 0" result="hardAlpha"/>
<feOffset dy="2"/>
<feGaussianBlur stdDeviation="3"/>
<feComposite in2="hardAlpha" operator="out"/>
<feColorMatrix type="matrix" values="0 0 0 0 0 0 0 0 0 0 0 0 0 0 0 0 0 0 0.18 0"/>
<feBlend mode="normal" in2="BackgroundImageFix" result="effect1_dropShadow_214_1730"/>
<feBlend mode="normal" in="SourceGraphic" in2="effect1_dropShadow_214_1730" result="shape"/>
</filter>
</defs>
</svg>
