<svg width="89" height="98" viewBox="0 0 89 98" fill="none" xmlns="http://www.w3.org/2000/svg">
<g style="mix-blend-mode:multiply">
<path d="M1.65279 87.4433C5.15694 91.4246 28.1946 97.6051 44.4013 97.6051C60.608 97.6051 81.5286 90.6742 83.969 86.0155C86.4303 81.315 69.9316 71.393 65.5201 69.2147C61.1086 67.0365 24.0752 66.9739 17.8178 69.4023C12.9787 71.2888 -1.72622 83.6079 1.66322 87.4433H1.65279Z" fill="white"/>
</g>
<g style="mix-blend-mode:multiply">
<path d="M2.52926 87.1206C5.65796 90.8726 28.6644 96.9384 44.3913 96.9384C60.1183 96.9384 81.0181 90.3203 83.1977 85.9116C85.3878 81.4613 69.5461 71.9353 65.2702 69.8196C60.9943 67.7143 24.6701 67.7039 18.6525 69.9864C13.949 71.7686 -0.505585 83.4728 2.52926 87.1206Z" fill="#FBFAFB"/>
</g>
<g style="mix-blend-mode:multiply">
<path d="M3.41517 86.8075C6.158 90.3407 29.154 96.271 44.4012 96.271C59.6484 96.271 80.5378 89.9655 82.4463 85.7966C84.3756 81.5964 69.1806 72.4664 65.0298 70.4237C60.8791 68.3809 25.2848 68.433 19.5071 70.5696C14.9288 72.258 0.72448 83.3369 3.41517 86.7971V86.8075Z" fill="#F6F6F6"/>
</g>
<g style="mix-blend-mode:multiply">
<path d="M4.2914 86.4948C6.64836 89.7986 29.6235 95.6143 44.391 95.6143C59.1585 95.6143 80.0374 89.6215 81.6852 85.7027C83.3434 81.7526 68.8053 73.0187 64.7797 71.0385C60.7645 69.0583 25.8795 69.1729 20.3417 71.1636C15.8989 72.7478 1.94487 83.2117 4.2914 86.4948Z" fill="#F2F1F2"/>
</g>
<g style="mix-blend-mode:multiply">
<path d="M5.17804 86.1721C7.15955 89.2467 30.1138 94.9477 44.3912 94.9477C58.6685 94.9477 79.5369 89.2675 80.924 85.5885C82.3215 81.8885 68.43 73.5611 64.54 71.6434C60.65 69.7257 26.495 69.9029 21.197 71.7477C16.8794 73.238 3.1861 83.0767 5.17804 86.1721Z" fill="#EDECED"/>
</g>
<g style="mix-blend-mode:multiply">
<path d="M6.05381 85.8597C7.65988 88.7049 30.5829 94.2913 44.3909 94.2913C58.1989 94.2913 79.0465 88.9238 80.1624 85.4949C81.2887 82.0451 68.0543 74.1137 64.2894 72.2586C60.535 70.4034 27.0996 70.6431 22.0311 72.3419C17.8386 73.7385 4.40603 82.9518 6.05381 85.8597Z" fill="#E9E8E9"/>
</g>
<g style="mix-blend-mode:multiply">
<path d="M6.93003 85.5365C8.16066 88.1525 31.0524 93.6138 44.3806 93.6138C57.7089 93.6138 78.5357 88.5694 79.3909 85.3697C80.2565 82.1597 67.6582 74.6348 64.0393 72.8525C60.41 71.0599 27.6942 71.3622 22.876 72.9151C18.8191 74.2074 5.63683 82.7954 6.93003 85.5365Z" fill="#E4E3E4"/>
</g>
<g style="mix-blend-mode:multiply">
<path d="M7.81657 85.2239C8.67175 87.6002 31.5426 92.9572 44.3911 92.9572C57.2397 92.9572 78.056 88.2255 78.6505 85.276C79.2449 82.3161 67.3037 75.1872 63.81 73.4675C60.3162 71.7478 28.32 72.1022 23.7313 73.5092C19.7995 74.7078 6.88839 82.66 7.81657 85.2239Z" fill="#E0DEE0"/>
</g>
<g style="mix-blend-mode:multiply">
<path d="M8.69255 84.9006C9.19315 87.0371 32.0118 92.29 44.3807 92.29C56.7495 92.29 77.5554 87.8709 77.8787 85.1611C78.2124 82.4513 66.9178 75.729 63.5492 74.0614C60.1806 72.4042 28.904 72.8211 24.5655 74.0822C20.7694 75.1766 8.12939 82.5034 8.69255 84.8901V84.9006Z" fill="#DBDADB"/>
</g>
<g style="mix-blend-mode:multiply">
<path d="M9.56887 84.5875C9.71487 86.4844 32.4919 91.633 44.3705 91.633C56.2492 91.633 77.0446 87.5266 77.1072 85.067C77.1698 82.6073 66.5322 76.281 63.2992 74.6864C60.0662 73.0917 29.5092 73.5712 25.4001 74.6864C21.7291 75.6869 9.38115 82.378 9.55844 84.598L9.56887 84.5875Z" fill="#D7D5D7"/>
</g>
<path style="mix-blend-mode:multiply" d="M2.65442 86.0159C2.65442 87.1623 7.75421 88.0899 14.0325 88.0899C20.3107 88.0899 25.4105 87.1623 25.4105 86.0159C25.4105 84.8694 20.3107 83.9418 14.0325 83.9418C7.75421 83.9418 2.65442 84.8694 2.65442 86.0159Z" fill="url(#paint0_radial_214_1776)"/>
<path style="mix-blend-mode:multiply" d="M61.2026 86.0159C61.2026 87.1623 66.3024 88.0899 72.5807 88.0899C78.859 88.0899 83.9587 87.1623 83.9587 86.0159C83.9587 84.8694 78.859 83.9418 72.5807 83.9418C66.3024 83.9418 61.2026 84.8694 61.2026 86.0159Z" fill="url(#paint1_radial_214_1776)"/>
<path style="mix-blend-mode:multiply" d="M32.9925 91.6331C32.9925 92.7796 38.0923 93.7072 44.3706 93.7072C50.6489 93.7072 55.7486 92.7796 55.7486 91.6331C55.7486 90.4867 50.6489 89.5591 44.3706 89.5591C38.0923 89.5591 32.9925 90.4867 32.9925 91.6331Z" fill="url(#paint2_radial_214_1776)"/>
<path d="M44.2382 18.0532H44.1651H5.89322V35.5506L44.1547 35.734H44.2278L82.5101 35.5506V18.0532H44.2382Z" fill="#DB9D33"/>
<path d="M51.2009 76.6038H49.7617C49.4391 76.6038 49.1776 76.8651 49.1776 77.1874V85.7545C49.1776 86.0769 49.4391 86.3382 49.7617 86.3382H51.2009C51.5234 86.3382 51.7849 86.0769 51.7849 85.7545V77.1874C51.7849 76.8651 51.5234 76.6038 51.2009 76.6038Z" fill="url(#paint3_linear_214_1776)"/>
<path d="M66.6258 81.8988H77.6596C77.7848 81.8988 77.8787 81.7738 77.8891 81.6174L78.7756 70.4447H66.3859V81.5862C66.3859 81.7529 66.4902 81.8988 66.6258 81.8988Z" fill="#191C20"/>
<path d="M8.76529 81.8988H19.7992C19.9243 81.8988 20.0391 81.7633 20.0391 81.5862V70.4447H7.64938L8.53585 81.6174C8.54628 81.7738 8.65057 81.8988 8.76529 81.8988Z" fill="#191C20"/>
<path d="M68.0645 68.5062H77.1064V84.5357C77.1064 85.359 76.439 86.0156 75.6255 86.0156H69.5558C68.7319 86.0156 68.0749 85.3486 68.0749 84.5357V68.5062H68.0645Z" fill="url(#paint4_linear_214_1776)"/>
<path d="M9.51627 68.5062H18.5582V84.5357C18.5582 85.359 17.8908 86.0156 17.0773 86.0156H11.0076C10.1837 86.0156 9.5267 85.3486 9.5267 84.5357V68.5062H9.51627Z" fill="url(#paint5_linear_214_1776)"/>
<path d="M1.58524 35.0403H4.34893C5.15197 35.0403 5.79856 34.2587 5.79856 33.2998V20.9598C5.79856 19.9176 5.08939 19.0734 4.22378 19.0734H1.55395C1.23065 19.0734 0.949071 19.3131 0.844781 19.6883C0.552769 20.7618 3.05176e-05 23.2006 3.05176e-05 26.6921C3.05176e-05 30.1835 0.573627 33.1122 0.865639 34.3837C0.9595 34.7798 1.25151 35.0508 1.58524 35.0508V35.0403Z" fill="#282B2D"/>
<path d="M1.60586 34.9464H4.27569C5.07872 34.9464 5.72532 34.1647 5.72532 33.2059V21.0535C5.72532 20.0113 5.02658 19.1671 4.15054 19.1671H1.56414C1.24084 19.1671 0.959258 19.4068 0.865396 19.7716C0.573384 20.8346 0.0415039 23.263 0.0415039 26.7024C0.0415039 30.1417 0.604671 33.0287 0.886254 34.2794C0.969687 34.665 1.2617 34.936 1.59543 34.936L1.60586 34.9464Z" fill="#26292B"/>
<path d="M1.61646 34.853H4.18199C4.98503 34.853 5.64206 34.0713 5.64206 33.102V21.1372C5.64206 20.095 4.94331 19.2612 4.0777 19.2612H1.58517C1.2723 19.2612 0.990715 19.5009 0.896853 19.8657C0.61527 20.9288 0.104248 23.3363 0.104248 26.734C0.104248 30.1317 0.646557 32.9665 0.92814 34.2068C1.01157 34.5924 1.30359 34.853 1.62688 34.853H1.61646Z" fill="#24282A"/>
<path d="M1.62722 34.7583H4.0989C4.90193 34.7583 5.55896 33.9766 5.55896 33.0074V21.2302C5.55896 20.1984 4.86022 19.3542 3.99461 19.3542H1.59593C1.28306 19.3542 1.00148 19.5939 0.918049 19.9587C0.646894 21.0113 0.146301 23.4084 0.146301 26.754C0.146301 30.0996 0.678181 32.9032 0.938907 34.1226C1.02234 34.4978 1.30392 34.7687 1.62722 34.7687V34.7583Z" fill="#232628"/>
<path d="M1.63738 34.6651H4.01519C4.81823 34.6651 5.47526 33.8834 5.47526 32.9142V21.3246C5.47526 20.2928 4.77651 19.459 3.92133 19.459H1.61652C1.30365 19.459 1.03249 19.6987 0.938633 20.053C0.677908 21.1057 0.187744 23.482 0.187744 26.7754C0.187744 30.0689 0.698766 32.8308 0.959492 34.0398C1.04292 34.415 1.32451 34.6755 1.64781 34.6755L1.63738 34.6651Z" fill="#212426"/>
<path d="M1.65796 34.5714H3.93149C4.74495 34.5714 5.40198 33.7793 5.40198 32.8101V21.4081C5.40198 20.3762 4.70324 19.5425 3.84806 19.5425H1.62668C1.32423 19.5425 1.05308 19.7822 0.959218 20.1365C0.698493 21.1788 0.229187 23.5446 0.229187 26.786C0.229187 30.0273 0.72978 32.7475 0.980076 33.9357C1.06351 34.3109 1.33466 34.561 1.65796 34.561V34.5714Z" fill="#1F2224"/>
<path d="M1.66895 34.4669H3.84862C4.66208 34.4669 5.31911 33.6748 5.31911 32.7056V21.4912C5.31911 20.4698 4.63079 19.636 3.77561 19.636H1.64809C1.34565 19.636 1.0745 19.8757 0.991064 20.2197C0.740768 21.2619 0.281891 23.6069 0.281891 26.7961C0.281891 29.9854 0.761626 32.6743 1.00149 33.8416C1.0745 34.2064 1.35608 34.4669 1.66895 34.4669Z" fill="#1D2123"/>
<path d="M1.67911 34.3729H3.76491C4.57837 34.3729 5.2354 33.5808 5.2354 32.6011V21.5847C5.2354 20.5634 4.54709 19.7296 3.69191 19.7296H1.65825C1.35581 19.7296 1.09508 19.9693 1.01165 20.3132C0.771782 21.345 0.323334 23.69 0.323334 26.8167C0.323334 29.9434 0.79264 32.6011 1.02208 33.758C1.09508 34.1228 1.36624 34.3729 1.67911 34.3729Z" fill="#1B1F21"/>
<path d="M1.68948 34.2791H3.671C4.48446 34.2791 5.15192 33.487 5.15192 32.5073V21.6785C5.15192 20.6571 4.4636 19.8338 3.60842 19.8338H1.67905C1.37661 19.8338 1.11589 20.0735 1.04288 20.4174C0.813446 21.4492 0.375427 23.7734 0.375427 26.848C0.375427 29.9226 0.823875 32.5385 1.05331 33.6746C1.12632 34.0289 1.38704 34.2791 1.69991 34.2791H1.68948Z" fill="#1A1D1F"/>
<path d="M1.7101 34.1856H3.59775C4.41121 34.1856 5.07867 33.3935 5.07867 32.4138V21.7727C5.07867 20.7513 4.39036 19.9279 3.54561 19.9279H1.68924C1.39723 19.9279 1.1365 20.1676 1.0635 20.5011C0.834061 21.5225 0.416901 23.8363 0.416901 26.8587C0.416901 29.8812 0.84449 32.4659 1.07393 33.5811C1.14693 33.9355 1.40766 34.1856 1.7101 34.1856Z" fill="#181B1D"/>
<path d="M1.72048 34.0922H3.51427C4.33816 34.0922 4.99519 33.3001 4.99519 32.3099V21.8564C4.99519 20.8454 4.30687 20.0221 3.46212 20.0221H1.69962C1.40761 20.0221 1.15731 20.2618 1.08431 20.5953C0.865297 21.6167 0.468994 23.9096 0.468994 26.8799C0.468994 29.8503 0.886155 32.3933 1.09474 33.4981C1.15731 33.8525 1.41804 34.0922 1.72048 34.0922Z" fill="#161A1C"/>
<path d="M1.73121 33.9975H3.42071C4.24461 33.9975 4.91206 33.195 4.91206 32.2153V21.9493C4.91206 20.9384 4.23418 20.115 3.38943 20.115H1.72078C1.42877 20.115 1.17847 20.3443 1.10547 20.6882C0.89689 21.6992 0.511017 23.9817 0.511017 26.8999C0.511017 29.8182 0.90732 32.3195 1.1159 33.4034C1.17847 33.7474 1.4392 33.9871 1.73121 33.9871V33.9975Z" fill="#14181A"/>
<path d="M1.7414 33.9043H3.33704C4.16093 33.9043 4.82839 33.1018 4.82839 32.1221V22.0437C4.82839 21.0328 4.1505 20.2198 3.30575 20.2198H1.73097C1.44939 20.2198 1.19909 20.4491 1.12609 20.7826C0.927935 21.7936 0.55249 24.0552 0.55249 26.9214C0.55249 29.7875 0.938364 32.2576 1.13652 33.3206C1.19909 33.6646 1.44939 33.9043 1.7414 33.9043Z" fill="#121618"/>
<path d="M1.76221 33.81H3.26398C4.08788 33.81 4.75533 33.0075 4.75533 32.0174V22.1266C4.75533 21.1261 4.07745 20.3027 3.24313 20.3027H1.75178C1.47019 20.3027 1.2199 20.532 1.15732 20.8655C0.969599 21.866 0.604584 24.1173 0.604584 26.9313C0.604584 29.7453 0.969599 32.1737 1.16775 33.2263C1.23032 33.5599 1.48062 33.7996 1.76221 33.7996V33.81Z" fill="#101416"/>
<path d="M1.77297 33.7061H3.17046C3.99435 33.7061 4.66181 32.9036 4.66181 31.9135V22.2103C4.66181 21.2098 3.98392 20.3969 3.1496 20.3969H1.76254C1.48096 20.3969 1.24109 20.6261 1.17852 20.9597C0.990795 21.9602 0.646637 24.1906 0.646637 26.9525C0.646637 29.7144 1.00122 32.1011 1.17852 33.1433C1.24109 33.4768 1.48096 33.7165 1.76254 33.7165L1.77297 33.7061Z" fill="#0F1215"/>
<path d="M1.78335 33.6121H3.08698C3.91087 33.6121 4.58875 32.8096 4.58875 31.809V22.2935C4.58875 21.2929 3.91087 20.4904 3.07655 20.4904H1.78335C1.50176 20.4904 1.2619 20.7197 1.20975 21.0428C1.03246 22.0329 0.69873 24.2529 0.69873 26.9627C0.69873 29.6725 1.03246 32.0279 1.20975 33.0389C1.2619 33.362 1.50176 33.6017 1.78335 33.6017V33.6121Z" fill="#0D1113"/>
<path d="M1.80393 33.5186H3.0137C3.84802 33.5186 4.51548 32.7161 4.51548 31.7156V22.3876C4.51548 21.3871 3.83759 20.5846 3.0137 20.5846H1.7935C1.52235 20.5846 1.28248 20.8139 1.23034 21.1369C1.06347 22.1271 0.740173 24.3366 0.740173 26.9839C0.740173 29.6311 1.06347 31.9553 1.23034 32.9558C1.28248 33.2789 1.52235 33.5082 1.7935 33.5082L1.80393 33.5186Z" fill="#0B0F11"/>
<g style="mix-blend-mode:soft-light" opacity="0.06">
<path d="M2.97247 25.5452C2.87861 24.9929 4.11967 33.6746 5.25643 33.3411C5.8926 33.1535 5.42329 20.3654 4.94356 19.8547C4.4534 19.344 2.5136 19.0522 2.09644 19.6462C1.67928 20.2403 3.08719 26.2852 2.97247 25.5452Z" fill="white"/>
</g>
<g style="mix-blend-mode:soft-light" opacity="0.12">
<path d="M3.02426 25.2327C2.94083 24.7324 4.09845 32.8514 5.18306 32.5387C5.78795 32.3615 5.37079 20.4071 4.91191 19.9173C4.45303 19.417 2.63838 19.1356 2.23165 19.688C1.82492 20.2404 3.12855 25.8997 3.01383 25.2327H3.02426Z" fill="white"/>
</g>
<g style="mix-blend-mode:soft-light" opacity="0.19">
<path d="M3.07663 24.9207C2.9932 24.4726 4.08824 32.0287 5.12072 31.7473C5.70474 31.5806 5.31887 20.4704 4.90171 19.991C4.48454 19.5116 2.77419 19.2302 2.37788 19.7409C1.98158 20.262 3.19135 25.5252 3.07663 24.9207Z" fill="white"/>
</g>
<g style="mix-blend-mode:soft-light" opacity="0.25">
<path d="M3.12767 24.6069C3.05467 24.2213 4.07671 31.2042 5.04661 30.9437C5.59935 30.7978 5.26562 20.511 4.87974 20.0524C4.49387 19.5834 2.89823 19.3124 2.52279 19.7814C2.14734 20.2608 3.24239 25.1385 3.1381 24.6069H3.12767Z" fill="white"/>
</g>
<g style="mix-blend-mode:soft-light" opacity="0.31">
<path d="M3.17015 24.2949C3.10758 23.9614 4.05662 30.3816 4.96394 30.1419C5.49582 30.0064 5.20381 20.5638 4.83879 20.1156C4.48421 19.6674 3.01372 19.386 2.63827 19.8238C2.27326 20.2615 3.26401 24.7535 3.17015 24.2845V24.2949Z" fill="white"/>
</g>
<g style="mix-blend-mode:soft-light" opacity="0.38">
<path d="M3.22262 23.9822C3.16005 23.7008 4.04651 29.5685 4.89126 29.3497C5.39186 29.2246 5.14156 20.6262 4.81826 20.1885C4.49496 19.7507 3.13919 19.4798 2.7846 19.8758C2.43002 20.2719 3.31648 24.3782 3.22262 23.9822Z" fill="white"/>
</g>
<g style="mix-blend-mode:soft-light" opacity="0.44">
<path d="M3.27446 23.6799C3.22231 23.461 4.03578 28.7555 4.81795 28.5575C5.28726 28.4428 5.08911 20.6782 4.79709 20.2613C4.50508 19.8445 3.26403 19.5735 2.91987 19.9278C2.57571 20.2822 3.35789 24.0029 3.27446 23.6799Z" fill="white"/>
</g>
<g style="mix-blend-mode:soft-light" opacity="0.5">
<path d="M3.32648 23.3671C3.28476 23.2003 4.02522 27.9321 4.74482 27.7653C5.19327 27.6611 5.02641 20.7407 4.77611 20.3342C4.51539 19.9277 3.39948 19.6672 3.06575 19.9799C2.73202 20.3029 3.40991 23.6277 3.33691 23.3671H3.32648Z" fill="white"/>
</g>
<g style="mix-blend-mode:soft-light" opacity="0.56">
<path d="M3.37899 23.0547C3.33727 22.9401 4.01516 27.109 4.67218 26.9631C5.08934 26.8693 4.97463 20.7827 4.74519 20.3971C4.51575 20.0114 3.51456 19.7509 3.19126 20.0219C2.87839 20.3033 3.44156 23.2423 3.37899 23.0547Z" fill="white"/>
</g>
<g style="mix-blend-mode:soft-light" opacity="0.62">
<path d="M3.43133 22.7415C3.40005 22.6894 3.9945 26.2955 4.59938 26.1705C4.99568 26.0871 4.92268 20.8447 4.72453 20.4695C4.52638 20.0943 3.63991 19.8441 3.33747 20.0838C3.03503 20.3236 3.49391 22.8666 3.43133 22.752V22.7415Z" fill="white"/>
</g>
<g style="mix-blend-mode:soft-light" opacity="0.69">
<path d="M3.4826 22.4285C3.4826 22.4285 3.98319 25.4718 4.5255 25.3675C4.89052 25.2946 4.85923 20.886 4.70279 20.5316C4.53593 20.1668 3.76418 19.9167 3.47217 20.1251C3.18016 20.3232 3.52431 22.491 3.4826 22.4389V22.4285Z" fill="white"/>
</g>
<g style="mix-blend-mode:soft-light" opacity="0.75">
<path d="M3.5346 22.1167C3.51374 22.1793 3.97261 24.6493 4.45235 24.5764C4.78608 24.5243 4.80694 20.9494 4.67136 20.6055C4.54621 20.2616 3.88918 20.0114 3.6076 20.1782C3.32602 20.3345 3.56588 22.1167 3.5346 22.1272V22.1167Z" fill="white"/>
</g>
<g style="mix-blend-mode:soft-light" opacity="0.81">
<path d="M3.57714 21.8041C3.54586 21.9187 3.95259 23.8364 4.36975 23.7739C4.68262 23.7322 4.73476 20.9911 4.6409 20.668C4.54704 20.3345 4.00473 20.0948 3.73358 20.2199C3.46242 20.3345 3.58757 21.7311 3.57714 21.8145V21.8041Z" fill="white"/>
</g>
<g style="mix-blend-mode:soft-light" opacity="0.88">
<path d="M3.62861 21.4914C3.60776 21.6581 3.94148 23.013 4.29607 22.9713C4.57766 22.9401 4.68195 21.0432 4.61937 20.7305C4.5568 20.4179 4.12921 20.1782 3.87891 20.2615C3.61819 20.3449 3.64947 21.3455 3.62861 21.4914Z" fill="white"/>
</g>
<g style="mix-blend-mode:soft-light" opacity="0.94">
<path d="M3.68133 21.1787C3.68133 21.408 3.93162 22.2001 4.22364 22.1792C4.48436 22.1584 4.63037 21.0953 4.58865 20.8035C4.55737 20.5013 4.25492 20.272 4.00463 20.3137C3.76476 20.3553 3.68133 20.9703 3.6709 21.1891L3.68133 21.1787Z" fill="white"/>
</g>
<g style="mix-blend-mode:soft-light">
<path d="M3.73306 20.8662C3.73306 21.1476 3.92079 21.3769 4.15022 21.3769C4.37966 21.3769 4.56738 21.1476 4.56738 20.8662C4.56738 20.5848 4.37966 20.3555 4.15022 20.3555C3.92079 20.3555 3.73306 20.5848 3.73306 20.8662Z" fill="white"/>
</g>
<path d="M86.8386 35.0403H84.0019C83.178 35.0403 82.5106 34.2587 82.5106 33.2998V20.9598C82.5106 19.9176 83.2406 19.0734 84.1271 19.0734H86.8804C87.2141 19.0734 87.5061 19.3131 87.6104 19.6883C87.9128 20.7618 88.476 23.2006 88.476 26.6921C88.476 30.1835 87.8815 33.1122 87.5895 34.3837C87.4957 34.7798 87.1932 35.0508 86.8491 35.0508L86.8386 35.0403Z" fill="#282B2D"/>
<path d="M86.8275 34.9464H84.0847C83.2608 34.9464 82.5933 34.1647 82.5933 33.2059V21.0535C82.5933 20.0113 83.3129 19.1671 84.2098 19.1671H86.8692C87.1925 19.1671 87.4845 19.4068 87.5888 19.7716C87.8809 20.8346 88.4336 23.263 88.4336 26.7024C88.4336 30.1417 87.86 33.0287 87.568 34.2794C87.4741 34.665 87.1821 34.936 86.8379 34.936L86.8275 34.9464Z" fill="#26292B"/>
<path d="M86.8174 34.853H84.1788C83.3549 34.853 82.6875 34.0713 82.6875 33.102V21.1372C82.6875 20.095 83.4071 19.2612 84.2935 19.2612H86.8591C87.1824 19.2612 87.4744 19.5009 87.5682 19.8657C87.8603 20.9288 88.3817 23.3363 88.3817 26.734C88.3817 30.1317 87.8185 32.9665 87.537 34.2068C87.4535 34.5924 87.1511 34.853 86.8174 34.853Z" fill="#24282A"/>
<path d="M86.7963 34.7583H84.2621C83.4382 34.7583 82.7603 33.9766 82.7603 33.0074V21.2302C82.7603 20.1984 83.4799 19.3542 84.3664 19.3542H86.8276C87.1509 19.3542 87.4325 19.5939 87.5264 19.9587C87.8079 21.0113 88.319 23.4084 88.319 26.754C88.319 30.0996 87.7767 32.9032 87.5055 34.1226C87.4221 34.4978 87.1301 34.7687 86.7963 34.7687V34.7583Z" fill="#232628"/>
<path d="M86.786 34.6651H84.3456C83.5113 34.6651 82.8438 33.8834 82.8438 32.9142V21.3246C82.8438 20.2928 83.5634 19.459 84.4394 19.459H86.8068C87.1301 19.459 87.4013 19.6987 87.4951 20.053C87.7663 21.1057 88.2669 23.482 88.2669 26.7754C88.2669 30.0689 87.7454 32.8308 87.4743 34.0398C87.3909 34.415 87.0988 34.6755 86.7755 34.6755L86.786 34.6651Z" fill="#212426"/>
<path d="M86.7758 34.5714H84.4397C83.6054 34.5714 82.9379 33.7793 82.9379 32.8101V21.4081C82.9379 20.3762 83.6471 19.5425 84.5336 19.5425H86.8071C87.12 19.5425 87.4016 19.7822 87.485 20.1365C87.7457 21.1788 88.2359 23.5446 88.2359 26.786C88.2359 30.0273 87.7249 32.7475 87.4641 33.9357C87.3807 34.3109 87.0991 34.561 86.7758 34.561V34.5714Z" fill="#1F2224"/>
<path d="M86.7551 34.4669H84.5129C83.6786 34.4669 83.0007 33.6748 83.0007 32.7056V21.4912C83.0007 20.4698 83.7099 19.636 84.5963 19.636H86.776C87.0889 19.636 87.36 19.8757 87.4539 20.2197C87.7146 21.2619 88.1839 23.6069 88.1839 26.7961C88.1839 29.9854 87.6938 32.6743 87.4435 33.8416C87.36 34.2064 87.0889 34.4669 86.7656 34.4669H86.7551Z" fill="#1D2123"/>
<path d="M86.7438 34.3729H84.6059C83.7715 34.3729 83.0937 33.5808 83.0937 32.6011V21.5847C83.0937 20.5634 83.8028 19.7296 84.6789 19.7296H86.7647C87.0775 19.7296 87.3487 19.9693 87.4321 20.3132C87.6824 21.345 88.1413 23.69 88.1413 26.8167C88.1413 29.9434 87.6616 32.6011 87.4217 33.758C87.3487 34.1228 87.0671 34.3729 86.7542 34.3729H86.7438Z" fill="#1B1F21"/>
<path d="M86.7343 34.2791H84.7006C83.8663 34.2791 83.1884 33.487 83.1884 32.5073V21.6785C83.1884 20.6571 83.8976 19.8338 84.7736 19.8338H86.7656C87.068 19.8338 87.3391 20.0735 87.4226 20.4174C87.6624 21.4492 88.1005 23.7734 88.1005 26.848C88.1005 29.9226 87.6416 32.5385 87.4017 33.6746C87.3287 34.0289 87.0576 34.2791 86.7343 34.2791Z" fill="#1A1D1F"/>
<path d="M86.7236 34.1856H84.7839C83.9495 34.1856 83.2612 33.3935 83.2612 32.4138V21.7727C83.2612 20.7513 83.9704 19.9279 84.836 19.9279H86.7341C87.0365 19.9279 87.2973 20.1676 87.3807 20.5011C87.6101 21.5225 88.0377 23.8363 88.0377 26.8587C88.0377 29.8812 87.5893 32.4659 87.3703 33.5811C87.2972 33.9355 87.0261 34.1856 86.7132 34.1856H86.7236Z" fill="#181B1D"/>
<path d="M86.7023 34.0922H84.8668C84.022 34.0922 83.3441 33.3001 83.3441 32.3099V21.8564C83.3441 20.8454 84.0429 20.0221 84.9189 20.0221H86.7231C87.0256 20.0221 87.2863 20.2618 87.3593 20.5953C87.5783 21.6167 87.9955 23.9096 87.9955 26.8799C87.9955 29.8503 87.5679 32.3933 87.3489 33.4981C87.2759 33.8525 87.0151 34.0922 86.7023 34.0922Z" fill="#161A1C"/>
<path d="M86.6925 33.9975H84.9508C84.1061 33.9975 83.4282 33.195 83.4282 32.2153V21.9493C83.4282 20.9384 84.1269 20.115 84.9925 20.115H86.7029C86.9949 20.115 87.2556 20.3443 87.3286 20.6882C87.5477 21.6992 87.944 23.9817 87.944 26.8999C87.944 29.8182 87.5372 32.3195 87.3182 33.4034C87.2556 33.7474 86.9845 33.9871 86.682 33.9871L86.6925 33.9975Z" fill="#14181A"/>
<path d="M86.6815 33.9043H85.0442C84.1994 33.9043 83.5111 33.1018 83.5111 32.1221V22.0437C83.5111 21.0328 84.2098 20.2198 85.0754 20.2198H86.6919C86.984 20.2198 87.2447 20.4491 87.3073 20.7826C87.5158 21.7936 87.9017 24.0552 87.9017 26.9214C87.9017 29.7875 87.5054 32.2576 87.3073 33.3206C87.2447 33.6646 86.984 33.9043 86.6815 33.9043Z" fill="#121618"/>
<path d="M86.6611 33.81H85.1176C84.2728 33.81 83.5845 33.0075 83.5845 32.0174V22.1266C83.5845 21.1261 84.2833 20.3027 85.1384 20.3027H86.6611C86.9531 20.3027 87.2034 20.532 87.266 20.8655C87.4641 21.866 87.8395 24.1173 87.8395 26.9313C87.8395 29.7453 87.4641 32.1737 87.266 33.2263C87.2034 33.5599 86.9531 33.7996 86.6506 33.7996L86.6611 33.81Z" fill="#101416"/>
<path d="M86.6503 33.7061H85.2111C84.3664 33.7061 83.6781 32.9036 83.6781 31.9135V22.2103C83.6781 21.2098 84.3768 20.3969 85.232 20.3969H86.6608C86.9528 20.3969 87.1926 20.6261 87.2656 20.9597C87.4534 21.9602 87.8079 24.1906 87.8079 26.9525C87.8079 29.7144 87.4429 32.1011 87.2552 33.1433C87.1926 33.4768 86.9423 33.7165 86.6503 33.7165V33.7061Z" fill="#0F1215"/>
<path d="M86.64 33.6121H85.305C84.4499 33.6121 83.7616 32.8096 83.7616 31.809V22.2935C83.7616 21.2929 84.4499 20.4904 85.305 20.4904H86.64C86.9215 20.4904 87.1718 20.7197 87.2344 21.0428C87.4117 22.0329 87.7559 24.2529 87.7559 26.9627C87.7559 29.6725 87.4117 32.0279 87.2344 33.0389C87.1718 33.362 86.932 33.6017 86.64 33.6017V33.6121Z" fill="#0D1113"/>
<path d="M86.629 33.5186H85.3879C84.5328 33.5186 83.8444 32.7161 83.8444 31.7156V22.3876C83.8444 21.3871 84.5328 20.5846 85.3879 20.5846H86.629C86.9106 20.5846 87.1504 20.8139 87.213 21.1369C87.3903 22.1271 87.7136 24.3366 87.7136 26.9839C87.7136 29.6311 87.3903 31.9553 87.213 32.9558C87.1609 33.2789 86.9106 33.5082 86.629 33.5082V33.5186Z" fill="#0B0F11"/>
<g style="mix-blend-mode:soft-light" opacity="0.06">
<path d="M85.4203 25.5452C85.5142 24.9929 84.2418 33.6746 83.0738 33.3411C82.4167 33.1535 82.8965 20.3654 83.3971 19.8547C83.8977 19.344 85.8896 19.0522 86.3172 19.6462C86.7448 20.2403 85.2951 26.2852 85.4203 25.5452Z" fill="white"/>
</g>
<g style="mix-blend-mode:soft-light" opacity="0.12">
<path d="M85.3684 25.2327C85.4622 24.7324 84.2629 32.8514 83.147 32.5387C82.5213 32.3615 82.9593 20.4071 83.4182 19.9173C83.8875 19.417 85.7543 19.1356 86.1714 19.688C86.5886 20.2404 85.2432 25.8997 85.3684 25.2327Z" fill="white"/>
</g>
<g style="mix-blend-mode:soft-light" opacity="0.19">
<path d="M85.3153 24.9207C85.3988 24.4726 84.2724 32.0287 83.2191 31.7473C82.6247 31.5806 83.0105 20.4704 83.4486 19.991C83.8866 19.5116 85.6386 19.2302 86.035 19.7409C86.4417 20.262 85.2006 25.5252 85.3153 24.9207Z" fill="white"/>
</g>
<g style="mix-blend-mode:soft-light" opacity="0.25">
<path d="M85.2632 24.6069C85.3362 24.2213 84.2829 31.2042 83.2921 30.9437C82.7185 30.7978 83.0627 20.511 83.4694 20.0524C83.8657 19.5834 85.5031 19.3124 85.889 19.7814C86.2748 20.2608 85.1589 25.1385 85.2632 24.6069Z" fill="white"/>
</g>
<g style="mix-blend-mode:soft-light" opacity="0.31">
<path d="M85.2116 24.2949C85.2846 23.9614 84.3043 30.3816 83.3761 30.1419C82.8338 30.0064 83.1362 20.5638 83.5012 20.1156C83.8663 19.6674 85.3785 19.386 85.7539 19.8238C86.1293 20.2615 85.1177 24.7535 85.2116 24.2845V24.2949Z" fill="white"/>
</g>
<g style="mix-blend-mode:soft-light" opacity="0.38">
<path d="M85.1593 23.9822C85.2219 23.7008 84.3146 29.5685 83.449 29.3497C82.9379 29.2246 83.1882 20.6262 83.522 20.1885C83.8557 19.7507 85.2428 19.4798 85.6078 19.8758C85.9728 20.2719 85.0655 24.3782 85.1489 23.9822H85.1593Z" fill="white"/>
</g>
<g style="mix-blend-mode:soft-light" opacity="0.44">
<path d="M85.1064 23.6799C85.1585 23.461 84.3242 28.7555 83.5211 28.5575C83.031 28.4428 83.25 20.6782 83.542 20.2613C83.8445 19.8445 85.1168 19.5735 85.4714 19.9278C85.826 20.2822 85.0229 24.0029 85.1064 23.6799Z" fill="white"/>
</g>
<g style="mix-blend-mode:soft-light" opacity="0.5">
<path d="M85.0544 23.3671C85.1065 23.2003 84.3452 27.9321 83.6047 27.7653C83.1459 27.6611 83.3127 20.7407 83.5734 20.3342C83.8446 19.9277 84.9918 19.6672 85.3359 19.9799C85.6801 20.3029 84.9814 23.6277 85.0544 23.3671Z" fill="white"/>
</g>
<g style="mix-blend-mode:soft-light" opacity="0.56">
<path d="M85.0024 23.0547C85.0442 22.9401 84.3558 27.109 83.678 26.9631C83.2504 26.8693 83.3651 20.7827 83.605 20.3971C83.8344 20.0114 84.8669 19.7509 85.2006 20.0219C85.5239 20.3033 84.9399 23.2423 85.0129 23.0547H85.0024Z" fill="white"/>
</g>
<g style="mix-blend-mode:soft-light" opacity="0.62">
<path d="M84.9504 22.7415C84.9817 22.6894 84.3664 26.2955 83.751 26.1705C83.3443 26.0871 83.4277 20.8447 83.6259 20.4695C83.824 20.0943 84.7418 19.8441 85.0547 20.0838C85.3675 20.3236 84.8878 22.8666 84.9504 22.752V22.7415Z" fill="white"/>
</g>
<g style="mix-blend-mode:soft-light" opacity="0.69">
<path d="M84.8982 22.4285C84.8982 22.4285 84.3768 25.4718 83.8241 25.3675C83.4486 25.2946 83.4799 20.886 83.6468 20.5316C83.8136 20.1668 84.6062 19.9167 84.9087 20.1251C85.2111 20.3232 84.8565 22.491 84.8982 22.4389V22.4285Z" fill="white"/>
</g>
<g style="mix-blend-mode:soft-light" opacity="0.75">
<path d="M84.8464 22.1167C84.8672 22.1793 84.3979 24.6493 83.9078 24.5764C83.5636 24.5243 83.5428 20.9494 83.6783 20.6055C83.8139 20.2616 84.4814 20.0114 84.7734 20.1782C85.0654 20.3345 84.8151 22.1167 84.8464 22.1272V22.1167Z" fill="white"/>
</g>
<g style="mix-blend-mode:soft-light" opacity="0.81">
<path d="M84.7936 21.8041C84.8249 21.9187 84.4077 23.8364 83.9801 23.7739C83.6568 23.7322 83.6047 20.9911 83.6985 20.668C83.8028 20.3345 84.3556 20.0948 84.6267 20.2199C84.8979 20.3345 84.7727 21.7311 84.7936 21.8145V21.8041Z" fill="white"/>
</g>
<g style="mix-blend-mode:soft-light" opacity="0.88">
<path d="M84.7424 21.4914C84.7633 21.6581 84.4191 23.013 84.0541 22.9713C83.7621 22.9401 83.6578 21.0432 83.7204 20.7305C83.783 20.4179 84.221 20.1782 84.4817 20.2615C84.7424 20.3449 84.7216 21.3455 84.732 21.4914H84.7424Z" fill="white"/>
</g>
<g style="mix-blend-mode:soft-light" opacity="0.94">
<path d="M84.6897 21.1787C84.6897 21.408 84.429 22.2001 84.1265 22.1792C83.8658 22.1584 83.7094 21.0953 83.7511 20.8035C83.7824 20.5013 84.0953 20.272 84.3456 20.3137C84.5959 20.3553 84.6793 20.9703 84.6897 21.1891V21.1787Z" fill="white"/>
</g>
<g style="mix-blend-mode:soft-light">
<path d="M84.6375 20.8662C84.6375 21.1476 84.4497 21.3769 84.2099 21.3769C83.97 21.3769 83.7823 21.1476 83.7823 20.8662C83.7823 20.5848 83.97 20.3555 84.2099 20.3555C84.4497 20.3555 84.6375 20.5848 84.6375 20.8662Z" fill="white"/>
</g>
<path d="M82.6232 35.0293C81.7159 26.014 78.2534 11.8293 76.5014 5.0027C75.9069 2.67853 73.8524 1.03181 71.4537 0.948429C71.4537 0.948429 62.7559 0 44.1193 0C22.7606 0 16.8474 0.948429 16.8474 0.948429C14.4487 1.03181 12.3942 2.67853 11.7997 5.0027C10.0476 11.8189 6.58521 26.014 5.67789 35.0293C4.16568 50.027 5.12515 64.045 5.12515 64.045C5.94904 70.5172 9.39062 75.3219 9.39062 75.3219H78.9105C78.9105 75.3219 82.352 70.5172 83.1759 64.045C83.1759 64.045 84.1354 50.0374 82.6232 35.0293Z" fill="#FF765D"/>
<path d="M39.1972 74.1128H49.4906V89.7045C49.4906 90.7676 48.6354 91.6222 47.5717 91.6222H41.1161C40.0523 91.6222 39.1972 90.7676 39.1972 89.7045V74.1128Z" fill="url(#paint6_linear_214_1776)"/>
<path d="M55.9663 51.2882H32.4176L33.6586 55.7385C33.8464 56.4264 34.4721 56.8954 35.1813 56.8954H53.2026C53.9118 56.8954 54.5375 56.416 54.7253 55.7281L55.9663 51.2778V51.2882Z" fill="url(#paint7_linear_214_1776)"/>
<path d="M55.0595 54.5292H33.3254L32.8665 52.9137H55.5079L55.0595 54.5292Z" fill="url(#paint8_linear_214_1776)"/>
<path d="M55.5075 52.9137H32.8661L32.4177 51.2878H55.9664L55.5075 52.9137Z" fill="url(#paint9_linear_214_1776)"/>
<path d="M54.3607 56.1451H34.0346C33.8781 56.1451 33.7426 56.0408 33.7008 55.8949L33.3254 54.5296H55.0595L54.6736 55.9053C54.6319 56.0513 54.5067 56.1451 54.3607 56.1451Z" fill="url(#paint10_linear_214_1776)"/>
<path style="mix-blend-mode:multiply" d="M55.9663 51.2882H32.4176L33.6586 55.7385C33.8464 56.4264 34.4721 56.8954 35.1813 56.8954H53.2026C53.9118 56.8954 54.5375 56.416 54.7253 55.7281L55.9663 51.2778V51.2882Z" fill="url(#paint11_radial_214_1776)"/>
<path style="mix-blend-mode:multiply" d="M82.1648 68.8916H77.1171V76.1143H79.7348C80.225 76.1143 80.6421 75.9684 80.7569 75.7599C80.955 75.3951 81.2574 74.7698 81.5182 74.0194C82.3734 71.4659 82.6341 69.7567 82.7071 69.1522C82.7279 69.0167 82.4776 68.9021 82.1752 68.9021L82.1648 68.8916Z" fill="url(#paint12_linear_214_1776)"/>
<path style="mix-blend-mode:multiply" d="M9.33881 68.8914H5.85551C5.55307 68.8914 5.30278 69.006 5.32363 69.1415C5.39664 69.7565 5.65736 71.4657 6.51254 74.0087C6.76284 74.7696 7.07571 75.3845 7.27386 75.7493C7.38858 75.9577 7.80574 76.1036 8.29591 76.1036H9.33881V68.881V68.8914Z" fill="url(#paint13_linear_214_1776)"/>
<path d="M74.0299 9.43309C73.6231 7.77594 72.1631 6.60865 70.4631 6.56696L44.182 5.96246H44.109L17.8279 6.56696C16.1279 6.60865 14.6575 7.77594 14.2612 9.43309C12.8845 15.082 9.90182 27.9014 9.33865 35.0302L44.0986 35.7077H44.1716L78.9419 35.0302C78.3892 27.9014 75.3961 15.082 74.0194 9.43309H74.0299Z" fill="#232628"/>
<path style="mix-blend-mode:soft-light" opacity="0.5" d="M80.9028 36.4575C80.9028 36.4575 53.3389 37.2183 44.1405 37.2183C34.9421 37.2183 7.3782 36.4575 7.3782 36.4575V37.9687C7.3782 37.9687 34.963 39.2715 44.1718 39.2715C53.3597 39.2715 80.8924 37.9687 80.8924 37.9687V36.4575H80.9028Z" fill="url(#paint14_linear_214_1776)"/>
<path d="M72.6429 10.777C72.4031 9.8911 71.6105 9.27619 70.6927 9.25534L44.276 8.66127L17.609 9.25534C16.6912 9.27619 15.8986 9.8911 15.6588 10.777C14.5011 15.0189 11.2681 27.3589 10.6945 34.5294L44.2656 35.2069L77.6071 34.5294C77.0335 27.3693 73.8006 15.0293 72.6429 10.777Z" fill="url(#paint15_linear_214_1776)"/>
<g style="mix-blend-mode:multiply">
<path d="M51.658 20.6326C51.4629 19.4741 50.2641 18.6109 48.8283 18.6109H46.7932V17.8386C48.0198 17.5205 48.9259 16.5892 48.9259 15.4875C48.9259 14.1246 47.5598 13.0002 45.8732 13.0002H39.1544C37.4816 13.0002 36.1016 14.1132 36.1016 15.4875C36.1016 16.5892 37.0077 17.5205 38.2344 17.8386V18.6109H36.1992C34.7635 18.6109 33.5647 19.4741 33.3695 20.6326L30.9998 35.0002H53.9998L51.6301 20.6326H51.658ZM39.4332 17.9749H45.6083V18.6109H39.4332V17.9749Z" fill="#B3B3B5"/>
</g>
<path style="mix-blend-mode:soft-light" opacity="0.5" d="M23.3974 7.53597L20.081 35.8742L37.2993 36.4578L37.7164 7.4109L23.3974 7.53597Z" fill="url(#paint16_linear_214_1776)"/>
<path style="mix-blend-mode:soft-light" opacity="0.5" d="M47.1021 8.14069L47.7592 37.1876L73.6127 36.4581L68.4608 7.36945L47.1021 8.14069Z" fill="url(#paint17_linear_214_1776)"/>
<g style="mix-blend-mode:soft-light">
<path d="M17.0874 8.66143L12.5299 36.5932L16.8579 37.156L20.9357 7.69215L17.0874 8.66143Z" fill="#A0A1A5"/>
</g>
<path style="mix-blend-mode:multiply" d="M76.502 5.00237C75.9076 2.6782 73.8531 1.03148 71.4544 0.948101L65.0092 0.718811L72.4347 68.8389H82.1233C82.5821 67.3381 82.968 65.7018 83.187 64.0342C83.187 64.0342 84.1465 50.0267 82.6343 35.0186C81.727 26.0033 78.2645 11.8186 76.5125 4.99195L76.502 5.00237Z" fill="url(#paint18_linear_214_1776)"/>
<path style="mix-blend-mode:multiply" d="M22.7502 0.750778L16.8474 0.959225C14.4487 1.0426 12.3942 2.68933 11.7997 5.0135C10.0476 11.8297 6.58521 26.0248 5.67789 35.0401C4.16568 50.0378 5.12515 64.0558 5.12515 64.0558C5.33373 65.7234 5.73003 67.3597 6.18891 68.8605H15.3352L22.7606 0.761201L22.7502 0.750778Z" fill="url(#paint19_linear_214_1776)"/>
<path d="M41.314 34.5917C41.1054 34.6959 40.8238 34.5604 40.6883 34.2894C40.5527 34.0185 40.6153 33.7162 40.8238 33.612C41.0324 33.5078 41.314 33.6433 41.4496 33.9142C41.5852 34.1852 41.5226 34.4875 41.314 34.5917Z" fill="url(#paint20_radial_214_1776)"/>
<path d="M31.6053 34.2377C31.6053 34.0501 31.7721 33.8938 31.9703 33.9042L50.3253 34.7275C50.5131 34.7275 50.6695 34.8943 50.6591 35.0923C50.6591 35.2799 31.6053 34.4357 31.6053 34.2377Z" fill="url(#paint21_linear_214_1776)"/>
<path d="M28.4452 35.019L24.5865 34.8627L25.5876 33.5182C25.7754 33.2681 26.0882 33.1534 26.3907 33.2159L28.3722 33.6641C28.4869 33.685 28.5912 33.7475 28.6642 33.8309L28.8936 34.081C29.2274 34.4458 28.9458 35.0294 28.4556 35.0086L28.4452 35.019Z" fill="#0F1216"/>
<path d="M44.8191 33.0602C45.0173 33.1853 45.3093 33.0915 45.4761 32.8414C45.643 32.5912 45.6221 32.2786 45.4344 32.1535C45.2467 32.0284 44.9443 32.1222 44.7774 32.3724C44.6105 32.6225 44.6314 32.9352 44.8191 33.0602Z" fill="url(#paint22_radial_214_1776)"/>
<path d="M54.497 33.9248C54.5074 33.7372 54.3719 33.5704 54.1841 33.5496L35.8708 32.0801C35.6831 32.0696 35.5162 32.2051 35.4953 32.3927C35.4849 32.5803 54.4866 34.102 54.5074 33.9144L54.497 33.9248Z" fill="url(#paint23_linear_214_1776)"/>
<path d="M57.208 35.1548H61.0772L60.1281 33.7686C59.9508 33.508 59.6484 33.383 59.3355 33.4351L57.3332 33.7999C57.2184 33.8207 57.1141 33.8728 57.0307 33.9562L56.8013 34.1959C56.4571 34.5503 56.7074 35.1443 57.1976 35.1443L57.208 35.1548Z" fill="#0F1216"/>
<g filter="url(#filter0_d_214_1776)">
<path d="M82.1646 68.8395H5.85551C5.55307 68.8395 5.30278 68.9542 5.32363 69.0897C5.39664 69.7046 5.65736 71.4243 6.51254 73.9882C6.76284 74.749 7.07571 75.3743 7.27386 75.7391C7.38858 75.9475 7.80574 76.1039 8.29591 76.1039H79.7243C80.2144 76.1039 80.6316 75.9475 80.7463 75.7391C80.9445 75.3743 81.2469 74.749 81.5076 73.9882C82.3628 71.4243 82.6235 69.7046 82.6965 69.0897C82.7174 68.9542 82.4671 68.8395 82.1646 68.8395Z" fill="#036463"/>
</g>
<path style="mix-blend-mode:multiply" d="M57.4271 68.8397H51.7955V76.1145H57.4271V68.8397Z" fill="url(#paint24_linear_214_1776)"/>
<path d="M53.5263 79.7514C53.5368 80.1266 53.276 80.4497 52.911 80.5122C51.7221 80.7103 48.8229 81.0959 44.0151 81.0959C39.6975 81.0959 36.7356 80.7103 35.4946 80.5122C35.1191 80.4497 34.848 80.1162 34.8688 79.7306C35.0878 75.9994 36.5375 57.7187 44.1507 57.7187C52.4313 57.7187 53.4116 76.0723 53.5263 79.7514Z" fill="#036463"/>
<g style="mix-blend-mode:soft-light">
<g style="mix-blend-mode:soft-light">
<path d="M44.0156 58.3544C46.8836 58.3544 49.5638 61.627 49.5638 65.3686C49.5638 69.1102 48.8547 80.0536 44.6726 80.0536C40.4906 80.0536 39.2078 69.1102 39.2078 65.9209C39.2078 62.7317 41.0016 58.3439 44.0156 58.3439V58.3544Z" fill="#808080"/>
</g>
<g style="mix-blend-mode:soft-light">
<path d="M44.0152 58.4069C46.7997 58.4069 49.4174 61.5961 49.4174 65.2335C49.4174 68.8709 48.7291 79.5329 44.6513 79.5329C40.5736 79.5329 39.3326 68.8813 39.3326 65.7859C39.3326 62.6904 41.0742 58.4069 44.0152 58.4069Z" fill="#868686"/>
</g>
<g style="mix-blend-mode:soft-light">
<path d="M44.0256 58.4483C46.7372 58.4483 49.2714 61.5438 49.2714 65.0873C49.2714 68.6309 48.604 78.9907 44.6409 78.9907C40.6779 78.9907 39.4681 68.6309 39.4681 65.6189C39.4681 62.6068 41.1681 58.4483 44.0256 58.4483Z" fill="#8C8C8C"/>
</g>
<g style="mix-blend-mode:soft-light">
<path d="M44.0361 58.4904C46.6746 58.4904 49.1359 61.5024 49.1359 64.9418C49.1359 68.3811 48.4788 78.4595 44.6305 78.4595C40.7822 78.4595 39.6037 68.3915 39.6037 65.4629C39.6037 62.5342 41.2515 58.4904 44.0361 58.4904Z" fill="#929292"/>
</g>
<g style="mix-blend-mode:soft-light">
<path d="M44.0467 58.5318C46.6123 58.5318 49.0005 61.4605 49.0005 64.8061C49.0005 68.1516 48.3644 77.9277 44.6308 77.9277C40.8972 77.9277 39.75 68.1516 39.75 65.3063C39.75 62.461 41.3561 58.5318 44.0467 58.5318Z" fill="#989898"/>
</g>
<g style="mix-blend-mode:soft-light">
<path d="M44.0572 58.5739C46.5393 58.5739 48.865 61.4087 48.865 64.6605C48.865 67.9122 48.2496 77.3965 44.6204 77.3965C40.9911 77.3965 39.8856 67.9122 39.8856 65.1503C39.8856 62.3884 41.4395 58.5843 44.0572 58.5843V58.5739Z" fill="#9E9E9E"/>
</g>
<g style="mix-blend-mode:soft-light">
<path d="M44.0673 58.6254C46.4764 58.6254 48.729 61.3768 48.729 64.5244C48.729 67.6719 48.1346 76.8644 44.62 76.8644C41.1054 76.8644 40.0312 67.6719 40.0312 64.9934C40.0312 62.3149 41.533 58.6254 44.0777 58.6254H44.0673Z" fill="#A4A4A4"/>
</g>
<g style="mix-blend-mode:soft-light">
<path d="M44.0777 58.6674C46.4138 58.6674 48.5935 61.3355 48.5935 64.3788C48.5935 67.4221 48.0199 76.3332 44.6096 76.3332C41.1993 76.3332 40.1668 67.4221 40.1668 64.8374C40.1668 62.2527 41.6269 58.6674 44.0777 58.6674Z" fill="#AAAAAA"/>
</g>
<g style="mix-blend-mode:soft-light">
<path d="M44.0887 58.7089C46.3414 58.7089 48.4481 61.2832 48.4481 64.2327C48.4481 67.1822 47.8953 75.791 44.5998 75.791C41.3042 75.791 40.303 67.1718 40.303 64.6704C40.303 62.1691 41.7109 58.7089 44.0887 58.7089Z" fill="#B0B0B0"/>
</g>
<g style="mix-blend-mode:soft-light">
<path d="M44.0986 58.7509C46.2783 58.7509 48.3119 61.2418 48.3119 64.0871C48.3119 66.9324 47.7696 75.2598 44.5888 75.2598C41.4079 75.2598 40.438 66.9324 40.438 64.5144C40.438 62.0964 41.8042 58.7509 44.0986 58.7509Z" fill="#B6B6B6"/>
</g>
<g style="mix-blend-mode:soft-light">
<path d="M44.1093 58.7923C46.2159 58.7923 48.1766 61.1999 48.1766 63.9409C48.1766 66.682 47.6551 74.7176 44.589 74.7176C41.5229 74.7176 40.5843 66.682 40.5843 64.3474C40.5843 62.0128 41.8983 58.7923 44.1197 58.7923H44.1093Z" fill="#BCBCBC"/>
</g>
<g style="mix-blend-mode:soft-light">
<path d="M44.1191 58.8445C46.1423 58.8445 48.0404 61.1582 48.0404 63.8055C48.0404 66.4527 47.5398 74.1965 44.578 74.1965C41.6162 74.1965 40.7193 66.4527 40.7193 64.2119C40.7193 61.9711 41.9916 58.8549 44.1191 58.8549V58.8445Z" fill="#C3C3C3"/>
</g>
<g style="mix-blend-mode:soft-light">
<path d="M44.1298 58.8859C46.08 58.8859 47.9051 61.1163 47.9051 63.6593C47.9051 66.2023 47.4254 73.6543 44.5782 73.6543C41.7311 73.6543 40.8655 66.2023 40.8655 64.0449C40.8655 61.8875 42.0857 58.8859 44.1402 58.8859H44.1298Z" fill="#C9C9C9"/>
</g>
<g style="mix-blend-mode:soft-light">
<path d="M44.1408 58.9285C46.018 58.9285 47.7701 61.0651 47.7701 63.5143C47.7701 65.9636 47.3112 73.1133 44.5684 73.1133C41.8256 73.1133 41.0017 65.9532 41.0017 63.8791C41.0017 61.8051 42.1697 58.9285 44.1512 58.9285H44.1408Z" fill="#CFCFCF"/>
</g>
<g style="mix-blend-mode:soft-light">
<path d="M44.1507 58.97C45.9445 58.97 47.634 61.0232 47.634 63.3682C47.634 65.7132 47.1855 72.5815 44.5678 72.5815C41.9502 72.5815 41.1367 65.7132 41.1367 63.7225C41.1367 61.7319 42.263 58.97 44.1507 58.97Z" fill="#D5D5D5"/>
</g>
<g style="mix-blend-mode:soft-light">
<path d="M44.1609 59.0112C45.8817 59.0112 47.4877 60.981 47.4877 63.2218C47.4877 65.4626 47.0601 72.039 44.5468 72.039C42.0334 72.039 41.2616 65.4626 41.2616 63.5553C41.2616 61.648 42.3358 59.0008 44.1505 59.0008L44.1609 59.0112Z" fill="#DBDBDB"/>
</g>
<g style="mix-blend-mode:soft-light">
<path d="M44.1716 59.0635C45.8193 59.0635 47.3524 60.9396 47.3524 63.0865C47.3524 65.2335 46.9457 71.5182 44.547 71.5182C42.1483 71.5182 41.4079 65.2335 41.4079 63.4096C41.4079 61.5857 42.4403 59.0635 44.1716 59.0635Z" fill="#E1E1E1"/>
</g>
<g style="mix-blend-mode:soft-light">
<path d="M44.1719 59.1053C45.7363 59.1053 47.2068 60.898 47.2068 62.9407C47.2068 64.9835 46.8209 70.9763 44.5265 70.9763C42.2321 70.9763 41.5334 64.9835 41.5334 63.243C41.5334 61.5025 42.5137 59.0949 44.1615 59.0949L44.1719 59.1053Z" fill="#E7E7E7"/>
</g>
<g style="mix-blend-mode:soft-light">
<path d="M44.182 59.147C45.6734 59.147 47.0708 60.8563 47.0708 62.8052C47.0708 64.7542 46.7058 70.4552 44.5262 70.4552C42.3465 70.4552 41.679 64.7542 41.679 63.0971C41.679 61.4399 42.6177 59.147 44.182 59.147Z" fill="#EDEDED"/>
</g>
<g style="mix-blend-mode:soft-light">
<path d="M44.1925 59.1884C45.6108 59.1884 46.9353 60.8039 46.9353 62.6591C46.9353 64.5142 46.5807 69.913 44.5158 69.913C42.4508 69.913 41.8146 64.5038 41.8146 62.93C41.8146 61.3563 42.7011 59.1884 44.1925 59.1884Z" fill="#F3F3F3"/>
</g>
<g style="mix-blend-mode:soft-light">
<path d="M44.2031 59.2299C45.538 59.2299 46.8 60.762 46.8 62.5129C46.8 64.2639 46.4662 69.3812 44.516 69.3812C42.5658 69.3812 41.9609 64.2639 41.9609 62.7839C41.9609 61.304 42.7952 59.2403 44.2136 59.2403L44.2031 59.2299Z" fill="#F9F9F9"/>
</g>
<g style="mix-blend-mode:soft-light">
<path d="M44.2134 59.2826C45.4753 59.2826 46.6537 60.7209 46.6537 62.378C46.6537 64.0352 46.3409 68.8503 44.4949 68.8503C42.649 68.8503 42.0858 64.0247 42.0858 62.6281C42.0858 61.2316 42.8784 59.293 44.2029 59.293L44.2134 59.2826Z" fill="white"/>
</g>
</g>
<path style="mix-blend-mode:multiply" d="M36.8199 66.9636H51.7855C50.4715 62.0651 48.1771 57.7086 44.141 57.7086C40.4179 57.7086 38.1756 62.0651 36.8199 66.9636Z" fill="url(#paint25_linear_214_1776)"/>
<g style="mix-blend-mode:multiply">
<g style="mix-blend-mode:multiply" opacity="0.05">
<path d="M44.2554 57.7403C43.9843 58.3135 47.4258 62.8159 49.1153 68.371C50.784 73.8635 52.7759 76.0522 53.2974 76.0626C53.8188 76.0731 64.2791 76.0001 64.884 75.9584C65.4889 75.9167 62.8921 68.6732 59.8155 64.0457C55.2476 57.1774 44.7873 56.5834 44.2554 57.7403Z" fill="#FDFDFD"/>
</g>
<g style="mix-blend-mode:multiply" opacity="0.1">
<path d="M44.3698 57.7707C44.1091 58.323 47.5402 62.69 49.2402 68.2451C50.888 73.6542 52.786 75.9992 53.2971 76.0305C53.8081 76.0618 63.7782 75.9054 64.3414 75.8116C64.9046 75.7178 62.4225 68.6307 59.398 64.0344C54.9553 57.3121 44.8808 56.6555 44.3594 57.7707H44.3698Z" fill="#FBFBFB"/>
</g>
<g style="mix-blend-mode:multiply" opacity="0.14">
<path d="M44.4741 57.8022C44.2238 58.3338 47.655 62.5757 49.3549 68.1203C50.9923 73.4565 52.7965 75.9475 53.2867 75.9892C53.7768 76.0308 63.2568 75.8016 63.7991 75.6661C64.3414 75.5306 61.9636 68.5789 58.9809 64.0244C54.6529 57.4479 44.9643 56.7392 44.4637 57.8022H44.4741Z" fill="#F9F9F9"/>
</g>
<g style="mix-blend-mode:multiply" opacity="0.19">
<path d="M44.5892 57.8331C44.3493 58.3438 47.77 62.4501 49.4804 67.9948C51.0969 73.2476 52.8073 75.8949 53.287 75.9574C53.7667 76.02 62.7461 75.7073 63.2571 75.5197C63.7682 75.3321 61.5051 68.5263 58.5745 64.0135C54.3612 57.5725 45.0689 56.8221 44.5788 57.8331H44.5892Z" fill="#F6F6F6"/>
</g>
<g style="mix-blend-mode:multiply" opacity="0.24">
<path d="M44.694 57.865C44.4541 58.3548 47.8852 62.3257 49.606 67.8704C51.2017 73.0502 52.8182 75.8538 53.2875 75.9268C53.7568 75.9998 62.246 75.6141 62.7257 75.3848C63.2055 75.1556 61.0675 68.4853 58.1683 64.0141C54.0905 57.7086 45.1633 56.9165 44.694 57.8754V57.865Z" fill="#F4F4F4"/>
</g>
<g style="mix-blend-mode:multiply" opacity="0.29">
<path d="M44.8085 57.8962C44.579 58.3652 47.9997 62.211 49.731 67.7349C51.3162 72.8314 52.8388 75.7913 53.2873 75.8747C53.7357 75.958 61.7348 75.4995 62.1832 75.2181C62.6317 74.9367 60.6084 68.4123 57.7509 63.9828C53.7878 57.8233 45.2569 56.9686 44.8085 57.8962Z" fill="#F2F2F2"/>
</g>
<g style="mix-blend-mode:multiply" opacity="0.33">
<path d="M44.923 57.9276C44.704 58.3757 48.1247 62.0861 49.8559 67.6099C51.4202 72.6334 52.849 75.7393 53.287 75.8435C53.7251 75.9477 61.2339 75.4058 61.6511 75.0827C62.0891 74.7491 60.1598 68.3707 57.3439 63.9829C53.4956 57.9693 45.3506 57.0625 44.923 57.938V57.9276Z" fill="#F0F0F0"/>
</g>
<g style="mix-blend-mode:multiply" opacity="0.38">
<path d="M45.0275 57.9582C44.8189 58.3855 48.2292 61.9708 49.9708 67.4842C51.5143 72.4243 52.8597 75.6865 53.2873 75.8012C53.7148 75.9158 60.7232 75.2905 61.109 74.9257C61.5158 74.5401 59.7011 68.318 56.9374 63.9614C53.2143 58.0833 45.4446 57.1348 45.0379 57.9582H45.0275Z" fill="#EEEEEE"/>
</g>
<g style="mix-blend-mode:multiply" opacity="0.43">
<path d="M45.1417 57.9899C44.9331 58.3963 48.3539 61.8461 50.0955 67.3595C51.6181 72.2267 52.8696 75.6452 53.2868 75.7703C53.7039 75.8954 60.2221 75.1971 60.5767 74.7906C60.9521 74.3529 59.2522 68.2767 56.5302 63.9514C52.9218 58.2192 45.5484 57.2186 45.1521 57.9899H45.1417Z" fill="#ECECEC"/>
</g>
<g style="mix-blend-mode:multiply" opacity="0.48">
<path d="M45.2463 58.0211C45.0481 58.4067 48.4584 61.7314 50.2105 67.2344C51.7227 72.0182 52.8699 75.5931 53.2766 75.7286C53.6833 75.864 59.7009 75.0928 60.0242 74.6342C60.3788 74.1444 58.7727 68.2141 56.1029 63.9305C52.6092 58.3442 45.6217 57.2811 45.2463 58.0107V58.0211Z" fill="#EAEAEA"/>
</g>
<g style="mix-blend-mode:multiply" opacity="0.52">
<path d="M45.3615 58.0521C45.1738 58.4169 48.5841 61.6061 50.3362 67.1091C51.8275 71.82 52.8913 75.5407 53.2771 75.6971C53.6839 75.8638 59.2008 74.9884 59.4824 74.4985C59.8057 73.9566 58.3144 68.1722 55.6862 63.9303C52.3177 58.4794 45.7161 57.3747 45.3511 58.0521H45.3615Z" fill="#E7E7E7"/>
</g>
<g style="mix-blend-mode:multiply" opacity="0.57">
<path d="M45.4756 58.0834C45.2983 58.4273 48.6982 61.481 50.4607 66.9736C51.9312 71.6011 52.9011 75.4782 53.2765 75.6554C53.6728 75.8325 58.6892 74.8841 58.9499 74.3421C59.2419 73.7481 57.8653 68.12 55.2893 63.9094C52.0354 58.6045 45.8197 57.4476 45.4756 58.073V58.0834Z" fill="#E5E5E5"/>
</g>
<g style="mix-blend-mode:multiply" opacity="0.62">
<path d="M45.5804 58.115C45.4031 58.4277 48.803 61.3668 50.5759 66.8489C52.036 71.4034 52.912 75.4369 53.2666 75.614C53.6525 75.8121 58.1682 74.7698 58.3977 74.1966C58.6584 73.5504 57.3965 68.0683 54.8622 63.8994C51.7231 58.7403 45.8933 57.5209 45.5804 58.1046V58.115Z" fill="#E3E3E3"/>
</g>
<g style="mix-blend-mode:multiply" opacity="0.67">
<path d="M45.6945 58.1462C45.5276 58.438 48.9275 61.2416 50.7004 66.7237C52.1396 71.1949 52.9218 75.3846 53.266 75.5827C53.631 75.7911 57.6566 74.6759 57.8652 74.061C58.0946 73.3627 56.9474 68.0265 54.4549 63.8993C51.4305 58.8861 45.9969 57.6146 45.6945 58.1462Z" fill="#E1E1E1"/>
</g>
<g style="mix-blend-mode:multiply" opacity="0.71">
<path d="M45.7986 58.1774C45.6422 58.4483 49.0316 61.1269 50.8254 66.5986C52.2437 70.9968 52.9321 75.3325 53.2658 75.5409C53.6204 75.7702 57.1558 74.5716 57.3227 73.9046C57.5208 73.1542 56.4779 67.9743 54.0375 63.8784C51.1278 59.0112 46.0802 57.6875 45.7986 58.1669V58.1774Z" fill="#DFDFDF"/>
</g>
<g style="mix-blend-mode:multiply" opacity="0.76">
<path d="M45.9141 58.2089C45.7576 58.459 49.1575 61.002 50.9513 66.4737C52.3592 70.7886 52.9536 75.2806 53.2665 75.5099C53.6107 75.7496 56.6455 74.4676 56.7915 73.7693C56.9584 72.9668 56.0302 67.9329 53.642 63.8786C50.847 59.1573 46.1852 57.7816 45.9245 58.2193L45.9141 58.2089Z" fill="#DDDDDD"/>
</g>
<g style="mix-blend-mode:multiply" opacity="0.81">
<path d="M46.0289 58.2394C45.8829 58.4687 49.2723 60.8867 51.0765 66.348C52.4636 70.5899 52.9642 75.2382 53.2666 75.4779C53.6003 75.7385 56.1346 74.3732 56.2493 73.6228C56.3849 72.7681 55.5714 67.8801 53.2249 63.8675C50.5446 59.2817 46.2792 57.8538 46.0289 58.2499V58.2394Z" fill="#DBDBDB"/>
</g>
<g style="mix-blend-mode:multiply" opacity="0.86">
<path d="M46.1331 58.271C45.9975 58.4795 49.3869 60.762 51.1911 66.2233C52.5573 70.3818 52.9641 75.1864 53.2561 75.4366C53.5794 75.7075 55.613 74.2693 55.7069 73.4772C55.8112 72.5809 55.102 67.8387 52.8076 63.8574C50.2421 59.4175 46.3625 57.9375 46.1331 58.2815V58.271Z" fill="#D8D8D8"/>
</g>
<g style="mix-blend-mode:multiply" opacity="0.9">
<path d="M46.2473 58.3025C46.1117 58.4901 49.5011 60.6371 51.3158 66.0879C52.6716 70.1735 52.9844 75.1241 53.2556 75.395C53.558 75.6869 55.1015 74.1548 55.1641 73.321C55.2371 72.3726 54.6322 67.7868 52.39 63.8367C49.9287 59.5532 46.4454 58.0106 46.2369 58.3025H46.2473Z" fill="#D6D6D6"/>
</g>
<g style="mix-blend-mode:multiply" opacity="0.95">
<path d="M46.3516 58.3342C46.2264 58.5009 49.6158 60.5228 51.4305 65.9633C52.7654 69.9654 52.9844 75.0828 53.2451 75.3538C53.5372 75.6664 54.5801 74.051 54.6218 73.1755C54.6635 72.175 54.1733 67.7351 51.9832 63.8267C49.6471 59.6786 46.5497 58.084 46.362 58.3342H46.3516Z" fill="#D4D4D4"/>
</g>
<g style="mix-blend-mode:multiply">
<path d="M46.4665 58.355C46.3518 58.4905 49.7308 60.3874 51.5558 65.8278C52.8699 69.757 52.9951 75.0203 53.2453 75.3121C53.5269 75.6352 54.0692 73.9468 54.0797 73.0192C54.0797 71.9665 53.7147 67.6725 51.5663 63.8059C49.3449 59.8037 46.6334 58.157 46.4665 58.355Z" fill="#D2D2D2"/>
</g>
</g>
<path style="mix-blend-mode:soft-light" d="M82.6961 51.2878H4.73914V51.7255H82.6961V51.2878Z" fill="url(#paint26_linear_214_1776)"/>
<path style="mix-blend-mode:multiply" d="M82.6961 50.8402H4.7392V51.278H82.6961V50.8402Z" fill="url(#paint27_linear_214_1776)"/>
<path d="M19.2773 56.5306L5.80304 55.8323C5.26073 55.801 4.84357 55.3633 4.84357 54.8213V52.174C4.84357 51.6112 5.30244 51.1631 5.85518 51.1631H19.3295C19.8926 51.1631 20.3411 51.6217 20.3411 52.174V55.53C20.3411 56.1137 19.8509 56.5723 19.2773 56.541V56.5306Z" fill="url(#paint28_linear_214_1776)"/>
<path d="M9.06696 51.1528H5.86525C5.30209 51.1528 4.85364 51.6114 4.85364 52.1637V54.811C4.85364 55.353 5.28123 55.7907 5.81311 55.822L9.06696 55.9887V51.1424V51.1528Z" fill="#C45C00"/>
<path style="mix-blend-mode:soft-light" d="M12.1645 55.7071C13.2474 55.7071 14.1252 54.8299 14.1252 53.7477C14.1252 52.6656 13.2474 51.7883 12.1645 51.7883C11.0817 51.7883 10.2039 52.6656 10.2039 53.7477C10.2039 54.8299 11.0817 55.7071 12.1645 55.7071Z" fill="url(#paint29_linear_214_1776)"/>
<path style="mix-blend-mode:soft-light" d="M17.0873 55.7071C18.1701 55.7071 19.0479 54.8299 19.0479 53.7477C19.0479 52.6656 18.1701 51.7883 17.0873 51.7883C16.0044 51.7883 15.1266 52.6656 15.1266 53.7477C15.1266 54.8299 16.0044 55.7071 17.0873 55.7071Z" fill="url(#paint30_linear_214_1776)"/>
<path style="mix-blend-mode:soft-light" d="M7.83646 53.1331H6.28254C5.91752 53.1331 5.61508 52.8308 5.61508 52.466C5.61508 52.1013 5.91752 51.799 6.28254 51.799H7.83646C8.20148 51.799 8.50392 52.1013 8.50392 52.466C8.50392 52.8308 8.20148 53.1331 7.83646 53.1331Z" fill="url(#paint31_linear_214_1776)"/>
<path style="mix-blend-mode:soft-light" d="M7.83646 55.0302H6.28254C5.91752 55.0302 5.61508 54.7279 5.61508 54.3631C5.61508 53.9984 5.91752 53.6961 6.28254 53.6961H7.83646C8.20148 53.6961 8.50392 53.9984 8.50392 54.3631C8.50392 54.7279 8.20148 55.0302 7.83646 55.0302Z" fill="url(#paint32_linear_214_1776)"/>
<path style="mix-blend-mode:multiply" d="M12.1647 51.153H5.85518C5.29201 51.153 4.84357 51.6116 4.84357 52.164V54.8112C4.84357 55.3532 5.27116 55.7909 5.80304 55.8222L19.2773 56.5205C19.6841 56.5413 20.0386 56.3121 20.2159 55.9785L6.52264 54.905C6.01162 54.8634 5.61531 54.436 5.61531 53.9253V52.6851C5.61531 52.1744 6.00119 51.7575 6.50178 51.7054L12.1647 51.153Z" fill="url(#paint33_linear_214_1776)"/>
<path style="mix-blend-mode:soft-light" d="M19.2562 51.288H6.49106C5.96116 51.288 5.53159 51.7173 5.53159 52.2469V52.57C5.53159 53.0995 5.96116 53.5288 6.49106 53.5288H19.2562C19.7861 53.5288 20.2156 53.0995 20.2156 52.57V52.2469C20.2156 51.7173 19.7861 51.288 19.2562 51.288Z" fill="url(#paint34_linear_214_1776)"/>
<path d="M68.0955 56.5307L81.5698 55.8324C82.1121 55.8011 82.5293 55.3634 82.5293 54.8214V52.1741C82.5293 51.6113 82.0704 51.1632 81.5176 51.1632H68.0434C67.4802 51.1632 67.0317 51.6218 67.0317 52.1741V55.5301C67.0317 56.1138 67.5219 56.5724 68.0955 56.5411V56.5307Z" fill="url(#paint35_linear_214_1776)"/>
<path d="M78.3166 51.1529H81.5183C82.0815 51.1529 82.5299 51.6115 82.5299 52.1638V54.8111C82.5299 55.3531 82.1023 55.7908 81.5705 55.8221L78.3166 55.9888V51.1425V51.1529Z" fill="#C45C00"/>
<path style="mix-blend-mode:soft-light" d="M73.2583 53.7478C73.2583 54.8317 74.1343 55.7072 75.2189 55.7072C76.3036 55.7072 77.1796 54.8317 77.1796 53.7478C77.1796 52.6639 76.3036 51.7884 75.2189 51.7884C74.1343 51.7884 73.2583 52.6639 73.2583 53.7478Z" fill="url(#paint36_linear_214_1776)"/>
<path style="mix-blend-mode:soft-light" d="M70.2962 55.7072C71.379 55.7072 72.2569 54.83 72.2569 53.7478C72.2569 52.6657 71.379 51.7884 70.2962 51.7884C69.2134 51.7884 68.3356 52.6657 68.3356 53.7478C68.3356 54.83 69.2134 55.7072 70.2962 55.7072Z" fill="url(#paint37_linear_214_1776)"/>
<path style="mix-blend-mode:soft-light" d="M79.5466 53.1332H81.1005C81.4655 53.1332 81.7679 52.8309 81.7679 52.4661C81.7679 52.1013 81.4655 51.7991 81.1005 51.7991H79.5466C79.1815 51.7991 78.8791 52.1013 78.8791 52.4661C78.8791 52.8309 79.1815 53.1332 79.5466 53.1332Z" fill="url(#paint38_linear_214_1776)"/>
<path style="mix-blend-mode:soft-light" d="M79.5466 55.0303H81.1005C81.4655 55.0303 81.7679 54.728 81.7679 54.3632C81.7679 53.9984 81.4655 53.6962 81.1005 53.6962H79.5466C79.1815 53.6962 78.8791 53.9984 78.8791 54.3632C78.8791 54.728 79.1815 55.0303 79.5466 55.0303Z" fill="url(#paint39_linear_214_1776)"/>
<path style="mix-blend-mode:multiply" d="M75.2085 51.1531H81.518C82.0812 51.1531 82.5297 51.6117 82.5297 52.1641V54.8113C82.5297 55.3533 82.1021 55.791 81.5702 55.8223L68.0959 56.5206C67.6892 56.5414 67.3346 56.3121 67.1573 55.9786L80.8506 54.9051C81.3616 54.8634 81.7579 54.4361 81.7579 53.9254V52.6852C81.7579 52.1745 81.372 51.7576 80.8714 51.7055L75.2085 51.1531Z" fill="url(#paint40_linear_214_1776)"/>
<path style="mix-blend-mode:soft-light" d="M68.1168 53.5186H80.8819C81.4118 53.5186 81.8414 53.0893 81.8414 52.5597V52.2366C81.8414 51.7071 81.4118 51.2778 80.8819 51.2778H68.1168C67.5869 51.2778 67.1573 51.7071 67.1573 52.2366V52.5597C67.1573 53.0893 67.5869 53.5186 68.1168 53.5186Z" fill="url(#paint41_linear_214_1776)"/>
<defs>
<filter id="filter0_d_214_1776" x="1.32242" y="58.8395" width="85.3753" height="17.2643" filterUnits="userSpaceOnUse" color-interpolation-filters="sRGB">
<feFlood flood-opacity="0" result="BackgroundImageFix"/>
<feColorMatrix in="SourceAlpha" type="matrix" values="0 0 0 0 0 0 0 0 0 0 0 0 0 0 0 0 0 0 127 0" result="hardAlpha"/>
<feOffset dy="-6"/>
<feGaussianBlur stdDeviation="2"/>
<feComposite in2="hardAlpha" operator="out"/>
<feColorMatrix type="matrix" values="0 0 0 0 0 0 0 0 0 0 0 0 0 0 0 0 0 0 0.25 0"/>
<feBlend mode="normal" in2="BackgroundImageFix" result="effect1_dropShadow_214_1776"/>
<feBlend mode="normal" in="SourceGraphic" in2="effect1_dropShadow_214_1776" result="shape"/>
</filter>
<radialGradient id="paint0_radial_214_1776" cx="0" cy="0" r="1" gradientUnits="userSpaceOnUse" gradientTransform="translate(14.0325 92.5994) rotate(180) scale(11.3781 2.04673)">
<stop stop-color="#343633"/>
<stop offset="0.11" stop-color="#60615F"/>
<stop offset="0.26" stop-color="#90918F"/>
<stop offset="0.4" stop-color="#B8B8B7"/>
<stop offset="0.54" stop-color="#D7D7D6"/>
<stop offset="0.67" stop-color="#EDEDED"/>
<stop offset="0.8" stop-color="#FAFAFA"/>
<stop offset="0.92" stop-color="white"/>
</radialGradient>
<radialGradient id="paint1_radial_214_1776" cx="0" cy="0" r="1" gradientUnits="userSpaceOnUse" gradientTransform="translate(72.5911 516.154) rotate(180) scale(0.521451 0.0938005)">
<stop stop-color="#343633"/>
<stop offset="0.11" stop-color="#60615F"/>
<stop offset="0.26" stop-color="#90918F"/>
<stop offset="0.4" stop-color="#B8B8B7"/>
<stop offset="0.54" stop-color="#D7D7D6"/>
<stop offset="0.67" stop-color="#EDEDED"/>
<stop offset="0.8" stop-color="#FAFAFA"/>
<stop offset="0.92" stop-color="white"/>
</radialGradient>
<radialGradient id="paint2_radial_214_1776" cx="0" cy="0" r="1" gradientUnits="userSpaceOnUse" gradientTransform="translate(44.381 98.1277) rotate(180) scale(11.3781 2.04673)">
<stop stop-color="#343633"/>
<stop offset="0.11" stop-color="#60615F"/>
<stop offset="0.26" stop-color="#90918F"/>
<stop offset="0.4" stop-color="#B8B8B7"/>
<stop offset="0.54" stop-color="#D7D7D6"/>
<stop offset="0.67" stop-color="#EDEDED"/>
<stop offset="0.8" stop-color="#FAFAFA"/>
<stop offset="0.92" stop-color="white"/>
</radialGradient>
<linearGradient id="paint3_linear_214_1776" x1="49.1463" y1="80.3349" x2="54.3789" y2="84.7573" gradientUnits="userSpaceOnUse">
<stop offset="0.11" stop-color="#626B62"/>
<stop offset="0.12" stop-color="#636C63"/>
<stop offset="0.32" stop-color="#949993"/>
<stop offset="0.47" stop-color="#B2B6B1"/>
<stop offset="0.55" stop-color="#BEC1BD"/>
<stop offset="0.86" stop-color="#C4C6C3"/>
<stop offset="0.99" stop-color="#CACAC9"/>
</linearGradient>
<linearGradient id="paint4_linear_214_1776" x1="72.5802" y1="56.2183" x2="72.5802" y2="85.703" gradientUnits="userSpaceOnUse">
<stop/>
<stop offset="1" stop-color="#191918"/>
</linearGradient>
<linearGradient id="paint5_linear_214_1776" x1="14.032" y1="-29.9741" x2="14.032" y2="-29.9741" gradientUnits="userSpaceOnUse">
<stop/>
<stop offset="1" stop-color="#191918"/>
</linearGradient>
<linearGradient id="paint6_linear_214_1776" x1="44.3491" y1="61.8353" x2="44.3491" y2="91.32" gradientUnits="userSpaceOnUse">
<stop/>
<stop offset="1" stop-color="#191918"/>
</linearGradient>
<linearGradient id="paint7_linear_214_1776" x1="44.192" y1="56.7391" x2="44.192" y2="51.3403" gradientUnits="userSpaceOnUse">
<stop stop-color="#3D3D3D"/>
<stop offset="0.11" stop-color="#38393A"/>
<stop offset="0.56" stop-color="#2B2E32"/>
<stop offset="0.99" stop-color="#1B1D20"/>
</linearGradient>
<linearGradient id="paint8_linear_214_1776" x1="44.1924" y1="54.4875" x2="44.1924" y2="52.9241" gradientUnits="userSpaceOnUse">
<stop offset="0.01" stop-color="#6B6B6B"/>
<stop offset="0.05" stop-color="#9D9D9C"/>
<stop offset="0.09" stop-color="#444443"/>
<stop offset="0.9" stop-color="#1D1D1B"/>
<stop offset="0.96" stop-color="#3C3C3B"/>
<stop offset="0.99"/>
</linearGradient>
<linearGradient id="paint9_linear_214_1776" x1="44.1921" y1="52.8616" x2="44.1921" y2="51.3087" gradientUnits="userSpaceOnUse">
<stop offset="0.01" stop-color="#6B6B6B"/>
<stop offset="0.05" stop-color="#9D9D9C"/>
<stop offset="0.09" stop-color="#444443"/>
<stop offset="0.9" stop-color="#1D1D1B"/>
<stop offset="0.96" stop-color="#3C3C3B"/>
<stop offset="0.99"/>
</linearGradient>
<linearGradient id="paint10_linear_214_1776" x1="44.1924" y1="56.1034" x2="44.1924" y2="54.54" gradientUnits="userSpaceOnUse">
<stop offset="0.01" stop-color="#6B6B6B"/>
<stop offset="0.05" stop-color="#9D9D9C"/>
<stop offset="0.09" stop-color="#444443"/>
<stop offset="0.9" stop-color="#1D1D1B"/>
<stop offset="0.96" stop-color="#3C3C3B"/>
<stop offset="0.99"/>
</linearGradient>
<radialGradient id="paint11_radial_214_1776" cx="0" cy="0" r="1" gradientUnits="userSpaceOnUse" gradientTransform="translate(44.0772 56.8642) scale(12.1915 12.1837)">
<stop stop-color="white"/>
<stop offset="0.21" stop-color="#FCFCFC"/>
<stop offset="0.35" stop-color="#F3F3F3"/>
<stop offset="0.47" stop-color="#E4E4E4"/>
<stop offset="0.59" stop-color="#CECFCF"/>
<stop offset="0.69" stop-color="#B2B3B4"/>
<stop offset="0.79" stop-color="#909193"/>
<stop offset="0.88" stop-color="#68696B"/>
<stop offset="0.96" stop-color="#3A3C3F"/>
<stop offset="0.99" stop-color="#2A2C2F"/>
</radialGradient>
<linearGradient id="paint12_linear_214_1776" x1="81.685" y1="72.4977" x2="77.1484" y2="72.4977" gradientUnits="userSpaceOnUse">
<stop stop-color="#B7BCBC"/>
<stop offset="0.08" stop-color="#C1C5C5"/>
<stop offset="0.3" stop-color="#DCDEDE"/>
<stop offset="0.53" stop-color="#EFF0F0"/>
<stop offset="0.76" stop-color="#FBFBFB"/>
<stop offset="1" stop-color="white"/>
</linearGradient>
<linearGradient id="paint13_linear_214_1776" x1="6.04324" y1="72.5079" x2="9.32838" y2="72.5079" gradientUnits="userSpaceOnUse">
<stop stop-color="#B7BCBC"/>
<stop offset="0.08" stop-color="#C1C5C5"/>
<stop offset="0.3" stop-color="#DCDEDE"/>
<stop offset="0.53" stop-color="#EFF0F0"/>
<stop offset="0.76" stop-color="#FBFBFB"/>
<stop offset="1" stop-color="white"/>
</linearGradient>
<linearGradient id="paint14_linear_214_1776" x1="7.38863" y1="37.8645" x2="80.9028" y2="37.8645" gradientUnits="userSpaceOnUse">
<stop stop-color="#808080"/>
<stop offset="0.04" stop-color="#848484"/>
<stop offset="0.09" stop-color="#919191"/>
<stop offset="0.14" stop-color="#A7A7A6"/>
<stop offset="0.19" stop-color="#C5C5C4"/>
<stop offset="0.24" stop-color="#E6E6E5"/>
<stop offset="0.49" stop-color="#E5E5E4"/>
<stop offset="0.75" stop-color="#E7E7E6"/>
<stop offset="0.79" stop-color="#DFDFDE"/>
<stop offset="0.85" stop-color="#CACACA"/>
<stop offset="0.93" stop-color="#A9A9A8"/>
<stop offset="1" stop-color="#808080"/>
</linearGradient>
<linearGradient id="paint15_linear_214_1776" x1="10.6841" y1="21.9393" x2="77.5967" y2="21.9393" gradientUnits="userSpaceOnUse">
<stop stop-color="#637771"/>
<stop offset="1" stop-color="#93A19D"/>
</linearGradient>
<linearGradient id="paint16_linear_214_1776" x1="20.081" y1="21.9396" x2="37.7164" y2="21.9396" gradientUnits="userSpaceOnUse">
<stop stop-color="#808080"/>
<stop offset="0.2" stop-color="#AAAAAA"/>
<stop offset="0.39" stop-color="#CFCFCF"/>
<stop offset="0.58" stop-color="#E9E9E9"/>
<stop offset="0.75" stop-color="#F9F9F9"/>
<stop offset="0.88" stop-color="white"/>
</linearGradient>
<linearGradient id="paint17_linear_214_1776" x1="47.1021" y1="22.2733" x2="73.6127" y2="22.2733" gradientUnits="userSpaceOnUse">
<stop stop-color="#808080"/>
<stop offset="0.2" stop-color="#AAAAAA"/>
<stop offset="0.39" stop-color="#CFCFCF"/>
<stop offset="0.58" stop-color="#E9E9E9"/>
<stop offset="0.75" stop-color="#F9F9F9"/>
<stop offset="0.88" stop-color="white"/>
</linearGradient>
<linearGradient id="paint18_linear_214_1776" x1="81.9981" y1="34.018" x2="68.9724" y2="35.2077" gradientUnits="userSpaceOnUse">
<stop stop-color="#BFC3C3"/>
<stop offset="0.1" stop-color="#D0D3D3"/>
<stop offset="0.26" stop-color="#E4E6E6"/>
<stop offset="0.45" stop-color="#F3F4F4"/>
<stop offset="0.66" stop-color="#FCFCFC"/>
<stop offset="1" stop-color="white"/>
</linearGradient>
<linearGradient id="paint19_linear_214_1776" x1="5.78218" y1="33.6227" x2="19.0684" y2="35.4176" gradientUnits="userSpaceOnUse">
<stop stop-color="#BFC3C3"/>
<stop offset="0.1" stop-color="#D0D3D3"/>
<stop offset="0.26" stop-color="#E4E6E6"/>
<stop offset="0.45" stop-color="#F3F4F4"/>
<stop offset="0.66" stop-color="#FCFCFC"/>
<stop offset="1" stop-color="white"/>
</linearGradient>
<radialGradient id="paint20_radial_214_1776" cx="0" cy="0" r="1" gradientUnits="userSpaceOnUse" gradientTransform="translate(41.0708 34.098) rotate(63.3253) scale(0.489912)">
<stop stop-color="#191C20"/>
<stop offset="0.16" stop-color="#1D2024"/>
<stop offset="0.33" stop-color="#2A2D30"/>
<stop offset="0.5" stop-color="#404245"/>
<stop offset="0.51" stop-color="#3E4043"/>
<stop offset="0.56" stop-color="#2D2F33"/>
<stop offset="0.63" stop-color="#212428"/>
<stop offset="0.73" stop-color="#1A1D21"/>
<stop offset="1" stop-color="#191C20"/>
</radialGradient>
<linearGradient id="paint21_linear_214_1776" x1="41.169" y1="34.34" x2="41.1472" y2="34.8294" gradientUnits="userSpaceOnUse">
<stop stop-color="#191C20"/>
<stop offset="0.16" stop-color="#1D2024"/>
<stop offset="0.33" stop-color="#2A2D30"/>
<stop offset="0.5" stop-color="#404245"/>
<stop offset="0.51" stop-color="#3E4043"/>
<stop offset="0.56" stop-color="#2D2F33"/>
<stop offset="0.63" stop-color="#212428"/>
<stop offset="0.73" stop-color="#1A1D21"/>
<stop offset="1" stop-color="#191C20"/>
</linearGradient>
<radialGradient id="paint22_radial_214_1776" cx="0" cy="0" r="1" gradientUnits="userSpaceOnUse" gradientTransform="translate(45.0901 32.5768) rotate(123.827) scale(0.489945)">
<stop stop-color="#191C20"/>
<stop offset="0.16" stop-color="#1D2024"/>
<stop offset="0.33" stop-color="#2A2D30"/>
<stop offset="0.5" stop-color="#404245"/>
<stop offset="0.51" stop-color="#3E4043"/>
<stop offset="0.56" stop-color="#2D2F33"/>
<stop offset="0.63" stop-color="#212428"/>
<stop offset="0.73" stop-color="#1A1D21"/>
<stop offset="1" stop-color="#191C20"/>
</radialGradient>
<linearGradient id="paint23_linear_214_1776" x1="45.0545" y1="32.8511" x2="45.0155" y2="33.3394" gradientUnits="userSpaceOnUse">
<stop stop-color="#191C20"/>
<stop offset="0.16" stop-color="#1D2024"/>
<stop offset="0.33" stop-color="#2A2D30"/>
<stop offset="0.5" stop-color="#404245"/>
<stop offset="0.51" stop-color="#3E4043"/>
<stop offset="0.56" stop-color="#2D2F33"/>
<stop offset="0.63" stop-color="#212428"/>
<stop offset="0.73" stop-color="#1A1D21"/>
<stop offset="1" stop-color="#191C20"/>
</linearGradient>
<linearGradient id="paint24_linear_214_1776" x1="51.7955" y1="72.4771" x2="57.4167" y2="72.4771" gradientUnits="userSpaceOnUse">
<stop stop-color="#BFC3C3"/>
<stop offset="0.37" stop-color="#DCDEDE"/>
<stop offset="0.76" stop-color="#F5F6F6"/>
<stop offset="1" stop-color="white"/>
</linearGradient>
<linearGradient id="paint25_linear_214_1776" x1="44.3079" y1="57.4793" x2="44.3079" y2="66.7864" gradientUnits="userSpaceOnUse">
<stop stop-color="#BFC3C3"/>
<stop offset="0.1" stop-color="#D0D3D3"/>
<stop offset="0.26" stop-color="#E4E6E6"/>
<stop offset="0.45" stop-color="#F3F4F4"/>
<stop offset="0.66" stop-color="#FCFCFC"/>
<stop offset="1" stop-color="white"/>
</linearGradient>
<linearGradient id="paint26_linear_214_1776" x1="43.7228" y1="51.7255" x2="43.7228" y2="51.2982" gradientUnits="userSpaceOnUse">
<stop stop-color="#838688"/>
<stop offset="0.39" stop-color="#9A9C9D"/>
<stop offset="1" stop-color="#C8C8C7"/>
</linearGradient>
<linearGradient id="paint27_linear_214_1776" x1="43.7229" y1="51.2884" x2="43.7229" y2="50.8611" gradientUnits="userSpaceOnUse">
<stop stop-color="#4B5757"/>
<stop offset="0.15" stop-color="#949B9B"/>
<stop offset="0.2" stop-color="#9EA5A5"/>
<stop offset="0.35" stop-color="#C1C5C5"/>
<stop offset="0.51" stop-color="#DCDEDE"/>
<stop offset="0.67" stop-color="#EFF0F0"/>
<stop offset="0.83" stop-color="#FBFBFB"/>
<stop offset="1" stop-color="white"/>
</linearGradient>
<linearGradient id="paint28_linear_214_1776" x1="4.84357" y1="53.8416" x2="22.2392" y2="53.8416" gradientUnits="userSpaceOnUse">
<stop stop-color="#5A5A57"/>
<stop offset="0.26" stop-color="#8C8C89"/>
<stop offset="0.57" stop-color="#C3C3C2"/>
<stop offset="0.73" stop-color="#D9D9D8"/>
<stop offset="0.82" stop-color="#D6D6D5"/>
<stop offset="0.86" stop-color="#CFCFCD"/>
<stop offset="0.9" stop-color="#C1C1C0"/>
<stop offset="0.93" stop-color="#AFAFAD"/>
<stop offset="0.95" stop-color="#979795"/>
<stop offset="0.98" stop-color="#797977"/>
<stop offset="1" stop-color="#5A5A57"/>
</linearGradient>
<linearGradient id="paint29_linear_214_1776" x1="10.2039" y1="53.7477" x2="14.1252" y2="53.7477" gradientUnits="userSpaceOnUse">
<stop stop-color="#1D1D1B"/>
<stop offset="1" stop-color="white"/>
</linearGradient>
<linearGradient id="paint30_linear_214_1776" x1="15.1266" y1="-29.9746" x2="19.0375" y2="-29.9746" gradientUnits="userSpaceOnUse">
<stop stop-color="#1D1D1B"/>
<stop offset="1" stop-color="white"/>
</linearGradient>
<linearGradient id="paint31_linear_214_1776" x1="5.61508" y1="52.466" x2="8.50392" y2="52.466" gradientUnits="userSpaceOnUse">
<stop stop-color="white"/>
<stop offset="1" stop-color="#6B6B6A"/>
</linearGradient>
<linearGradient id="paint32_linear_214_1776" x1="-10.748" y1="54.3631" x2="-9.70514" y2="54.3631" gradientUnits="userSpaceOnUse">
<stop stop-color="white"/>
<stop offset="1" stop-color="#6B6B6A"/>
</linearGradient>
<linearGradient id="paint33_linear_214_1776" x1="4.84357" y1="53.842" x2="22.0932" y2="53.842" gradientUnits="userSpaceOnUse">
<stop stop-color="#D2D2D1"/>
<stop offset="0.27" stop-color="#D5D5D4"/>
<stop offset="0.99" stop-color="#D9D9D8"/>
</linearGradient>
<linearGradient id="paint34_linear_214_1776" x1="5.53159" y1="52.4032" x2="22.0094" y2="52.4032" gradientUnits="userSpaceOnUse">
<stop stop-color="white"/>
<stop offset="1" stop-color="#1D1D1B"/>
</linearGradient>
<linearGradient id="paint35_linear_214_1776" x1="82.5293" y1="-29.9745" x2="65.1337" y2="-29.9745" gradientUnits="userSpaceOnUse">
<stop stop-color="#5A5A57"/>
<stop offset="0.26" stop-color="#8C8C89"/>
<stop offset="0.57" stop-color="#C3C3C2"/>
<stop offset="0.73" stop-color="#D9D9D8"/>
<stop offset="0.82" stop-color="#D6D6D5"/>
<stop offset="0.86" stop-color="#CFCFCD"/>
<stop offset="0.9" stop-color="#C1C1C0"/>
<stop offset="0.93" stop-color="#AFAFAD"/>
<stop offset="0.95" stop-color="#979795"/>
<stop offset="0.98" stop-color="#797977"/>
<stop offset="1" stop-color="#5A5A57"/>
</linearGradient>
<linearGradient id="paint36_linear_214_1776" x1="77.1692" y1="-29.9745" x2="73.2583" y2="-29.9745" gradientUnits="userSpaceOnUse">
<stop stop-color="#1D1D1B"/>
<stop offset="1" stop-color="white"/>
</linearGradient>
<linearGradient id="paint37_linear_214_1776" x1="72.2464" y1="-29.9745" x2="68.3356" y2="-29.9745" gradientUnits="userSpaceOnUse">
<stop stop-color="#1D1D1B"/>
<stop offset="1" stop-color="white"/>
</linearGradient>
<linearGradient id="paint38_linear_214_1776" x1="81.7679" y1="-29.9742" x2="78.8687" y2="-29.9742" gradientUnits="userSpaceOnUse">
<stop stop-color="white"/>
<stop offset="1" stop-color="#6B6B6A"/>
</linearGradient>
<linearGradient id="paint39_linear_214_1776" x1="81.7679" y1="54.3632" x2="78.8687" y2="54.3632" gradientUnits="userSpaceOnUse">
<stop stop-color="white"/>
<stop offset="1" stop-color="#6B6B6A"/>
</linearGradient>
<linearGradient id="paint40_linear_214_1776" x1="82.5297" y1="-29.9741" x2="65.28" y2="-29.9741" gradientUnits="userSpaceOnUse">
<stop stop-color="#D2D2D1"/>
<stop offset="0.27" stop-color="#D5D5D4"/>
<stop offset="0.99" stop-color="#D9D9D8"/>
</linearGradient>
<linearGradient id="paint41_linear_214_1776" x1="81.8414" y1="-29.9745" x2="65.3635" y2="-29.9745" gradientUnits="userSpaceOnUse">
<stop stop-color="white"/>
<stop offset="1" stop-color="#1D1D1B"/>
</linearGradient>
</defs>
</svg>
